<svg width="61" height="36" viewBox="0 0 61 36" fill="none" xmlns="http://www.w3.org/2000/svg">
<path d="M12.0898 13.0879C12.0898 14.7969 14.332 16.2871 16.5195 16.5879L16.082 17.4629C14.1953 17.1484 12.3291 16.1025 11.543 14.6055C10.7637 16.1094 8.89062 17.1484 7.00391 17.4629L6.56641 16.5879C8.75391 16.2871 10.9824 14.8242 10.9824 13.0879V12.3906H12.0898V13.0879ZM17.0664 18.8027V19.7051H12.0352V24.1074H10.9824V19.7051H5.99219V18.8027H17.0664ZM28.168 11.9531V19.1992H27.0879V16.0137H24.6406V15.125H27.0879V11.9531H28.168ZM24.1348 19.582C26.6641 19.582 28.209 20.4023 28.209 21.8379C28.209 23.2734 26.6641 24.0938 24.1348 24.1074C21.6055 24.0938 20.0605 23.2734 20.0605 21.8379C20.0605 20.4023 21.6055 19.582 24.1348 19.582ZM24.1348 20.416C22.2754 20.416 21.1133 20.9492 21.127 21.8379C21.1133 22.7129 22.2754 23.2461 24.1348 23.2461C25.9941 23.2461 27.1426 22.7129 27.1426 21.8379C27.1426 20.9492 25.9941 20.416 24.1348 20.416ZM22.3164 14.1816C22.3164 15.7676 23.5332 17.2715 25.3105 17.8867L24.75 18.748C23.3828 18.2559 22.3232 17.2373 21.8105 15.9727C21.2773 17.4014 20.1494 18.543 18.707 19.0898L18.1465 18.2285C19.9512 17.5723 21.2363 15.9316 21.2363 14.1953V13.7441H18.4883V12.8418H25.0371V13.7441H22.3164V14.1816Z" fill="#E5E5E5"/>
<path d="M35.9092 25.091L39.9808 23.525C40.2413 23.4248 40.3715 23.3747 40.4933 23.3093C40.6015 23.2512 40.7047 23.1842 40.8017 23.1089C40.9109 23.0241 41.0096 22.9255 41.2069 22.7282L49.4832 14.4519C50.2936 13.6415 50.2936 12.3275 49.4832 11.517C48.6727 10.7066 47.3587 10.7066 46.5482 11.517L38.272 19.7933C38.0747 19.9906 37.976 20.0892 37.8913 20.1985C37.816 20.2955 37.7489 20.3987 37.6908 20.5069C37.6254 20.6287 37.5754 20.7589 37.4752 21.0193L35.9092 25.091ZM35.9092 25.091L37.4193 21.1648C37.5273 20.8838 37.5814 20.7433 37.674 20.679C37.755 20.6228 37.8552 20.6015 37.9521 20.62C38.0629 20.6412 38.1693 20.7476 38.3822 20.9604L40.0398 22.618C40.2526 22.8309 40.359 22.9373 40.3802 23.0481C40.3987 23.1449 40.3774 23.2452 40.3212 23.3262C40.2568 23.4188 40.1164 23.4729 39.8354 23.5809L35.9092 25.091Z" stroke="#E5E5E5" stroke-width="1.30909" stroke-linecap="round" stroke-linejoin="round"/>
</svg>
