<svg width="166" height="241" viewBox="0 0 166 241" fill="none" xmlns="http://www.w3.org/2000/svg">
<rect x="49" width="65" height="23" rx="11.5" fill="#D9D9D9"/>
<circle cx="81.5" cy="11.5" r="2.5" fill="white"/>
<circle cx="98.5" cy="11.5" r="2.5" fill="white"/>
<circle cx="64.5" cy="11.5" r="2.5" fill="white"/>
<path d="M82.366 27.5C81.9811 28.1667 81.0189 28.1667 80.634 27.5L77.6029 22.25C77.218 21.5833 77.6991 20.75 78.4689 20.75L84.5311 20.75C85.3009 20.75 85.782 21.5833 85.3971 22.25L82.366 27.5Z" fill="#D9D9D9"/>
<path d="M28.6094 175.266V189.406H26.875V181.688H24.1562V180.266H26.875V175.266H28.6094ZM21.9531 179.016C21.9531 181.453 23.2656 184.047 25.5469 185.031L24.5156 186.422C22.875 185.641 21.7031 184.07 21.0938 182.203C20.4609 184.195 19.2656 185.875 17.625 186.703L16.5781 185.344C18.8438 184.281 20.1719 181.594 20.1875 179.016V178.078H17.1562V176.656H24.9844V178.078H21.9531V179.016ZM35.6562 177.812C35.6562 179.547 36.7812 181.172 38.9844 181.844L38.1562 183.203C36.5703 182.711 35.4453 181.703 34.8281 180.422C34.2031 181.906 33.0078 183.086 31.3125 183.656L30.4375 182.281C32.7188 181.531 33.9062 179.703 33.9062 177.828V177.656H30.9219V176.25H38.5938V177.656H35.6562V177.812ZM41.7344 175.266V178.656H43.7031V180.078H41.7344V183.688H40V175.266H41.7344ZM37.1406 184C40.0625 184 41.8594 184.984 41.875 186.672C41.8594 188.375 40.0625 189.375 37.1406 189.375C34.1875 189.375 32.3594 188.375 32.3594 186.672C32.3594 184.984 34.1875 184 37.1406 184ZM37.1406 185.359C35.2031 185.359 34.0938 185.812 34.0938 186.672C34.0938 187.547 35.2031 188.016 37.1406 188.016C39.0781 188.016 40.1562 187.547 40.1562 186.672C40.1562 185.812 39.0781 185.359 37.1406 185.359ZM52.6406 179.703V181.094H50.0156V182.688C51.1953 182.641 52.3672 182.562 53.4688 182.453L53.5938 183.703C50.5938 184.125 47.3438 184.203 44.7188 184.203L44.4844 182.812C45.6484 182.805 46.9375 182.797 48.2656 182.75V181.094H45.7031V176.141H52.5312V177.547H47.4531V179.703H52.6406ZM56.2031 175.266V185.875H54.4531V175.266H56.2031ZM56.6094 187.703V189.109H46.7344V185.094H48.4844V187.703H56.6094ZM73.2031 175.266V178.734H75.1562V180.156H73.2031V183.516H71.4531V175.266H73.2031ZM68.5938 183.781C71.4844 183.781 73.3125 184.812 73.3281 186.562C73.3125 188.344 71.4844 189.375 68.5938 189.375C65.6719 189.375 63.8125 188.344 63.8125 186.562C63.8125 184.812 65.6719 183.781 68.5938 183.781ZM68.5938 185.172C66.6562 185.172 65.5156 185.656 65.5312 186.562C65.5156 187.484 66.6562 187.984 68.5938 187.984C70.5 187.984 71.6406 187.484 71.6406 186.562C71.6406 185.656 70.5 185.172 68.5938 185.172ZM68.9219 176.266V177.672H64.3125V181.219C67.0156 181.211 68.5234 181.133 70.1875 180.781L70.3594 182.172C68.5312 182.562 66.8594 182.625 63.7344 182.625H62.5938V176.266H68.9219ZM87.7031 175.281V185.703H85.9688V180.5H83.125V183.406H76.5156V176.203H78.25V178.484H81.4062V176.203H83.125V179.094H85.9688V175.281H87.7031ZM88.0156 187.703V189.109H78.3906V184.672H80.1562V187.703H88.0156ZM78.25 182.031H81.4062V179.828H78.25V182.031ZM101.453 175.266V189.406H99.7031V175.266H101.453ZM93.8438 176.297C95.9688 176.297 97.5156 178.234 97.5312 181.281C97.5156 184.359 95.9688 186.281 93.8438 186.281C91.7031 186.281 90.1562 184.359 90.1562 181.281C90.1562 178.234 91.7031 176.297 93.8438 176.297ZM93.8438 177.859C92.6406 177.859 91.8281 179.125 91.8281 181.281C91.8281 183.453 92.6406 184.719 93.8438 184.719C95.0312 184.719 95.8438 183.453 95.8438 181.281C95.8438 179.125 95.0312 177.859 93.8438 177.859ZM110.531 183.531V185.047H112.391V183.531H114V188.016C115.656 187.32 116.422 185.891 116.422 184.547V183.422H118.156V184.547C118.156 186.016 118.906 187.438 120.656 188.031L119.766 189.328C118.523 188.883 117.719 188.023 117.281 186.953C116.805 187.992 116 188.852 114.828 189.328L114 188.094V189.219H108.906V183.531H110.531ZM110.531 187.891H112.391V186.344H110.531V187.891ZM111.25 175.844C113.07 175.844 114.508 176.859 114.875 178.391H117.422V175.266H119.156V182.75H117.422V179.828H114.875C114.531 181.398 113.078 182.438 111.25 182.438C109.078 182.438 107.516 181.078 107.516 179.125C107.516 177.188 109.078 175.844 111.25 175.844ZM111.25 177.281C110.031 177.281 109.172 178 109.172 179.125C109.172 180.266 110.031 181.016 111.25 181.016C112.438 181.016 113.281 180.266 113.297 179.125C113.281 178 112.438 177.281 111.25 177.281ZM125.016 176.297C126.93 176.297 128.344 177.891 128.594 180.469H131.281V175.266H133V189.406H131.281V181.875H128.609C128.422 184.602 126.984 186.281 125.016 186.281C122.891 186.281 121.391 184.359 121.391 181.281C121.391 178.234 122.891 176.297 125.016 176.297ZM125.016 177.859C123.844 177.859 123.047 179.125 123.062 181.281C123.047 183.453 123.844 184.719 125.016 184.719C126.188 184.719 126.969 183.453 126.984 181.281C126.969 179.125 126.188 177.859 125.016 177.859ZM147.891 186.25V187.672H134.984V186.25H137.969V182.672C136.844 182.031 136.164 181.023 136.172 179.766C136.156 177.516 138.375 176.031 141.406 176.031C144.453 176.031 146.672 177.516 146.672 179.766C146.672 181 146.016 181.992 144.922 182.641V186.25H147.891ZM141.406 177.406C139.297 177.406 137.859 178.297 137.875 179.766C137.859 181.219 139.297 182.125 141.406 182.125C143.516 182.125 144.969 181.219 144.969 179.766C144.969 178.297 143.516 177.406 141.406 177.406ZM139.688 186.25H143.156V183.297C142.617 183.422 142.031 183.484 141.406 183.484C140.797 183.484 140.219 183.422 139.688 183.312V186.25ZM150.531 188.125C149.859 188.125 149.312 187.578 149.312 186.906C149.312 186.25 149.859 185.703 150.531 185.703C151.172 185.703 151.734 186.25 151.734 186.906C151.734 187.578 151.172 188.125 150.531 188.125Z" fill="#797C82"/>
<path d="M10.1396 207.967V215.008H9.11426V207.967H10.1396ZM7.81543 208.213V214.857H6.79004V211.822H5.08105V214.092H0.37793V208.842H5.08105V210.934H6.79004V208.213H7.81543ZM1.38965 209.689V213.271H4.08301V209.689H1.38965ZM10.1396 215.609V219.943H2.11426V215.609H10.1396ZM3.16699 216.457V219.068H9.08691V216.457H3.16699ZM21.9932 207.953V220.135H20.9268V213.367H18.0146V217.059H12.4092V208.91H13.4893V212.082H16.9619V208.91H18.0146V212.479H20.9268V207.953H21.9932ZM13.4893 216.17H16.9619V212.943H13.4893V216.17ZM35.1045 213.066V213.928H24.0166V213.066H35.1045ZM33.7783 211.193V212.068H25.4932V208.377H33.6553V209.238H26.5732V211.193H33.7783ZM33.6689 215.021V217.838H26.4502V219.096H34.0381V219.971H25.3838V217.031H32.6162V215.855H25.3564V215.021H33.6689ZM46.1377 207.953V220.135H45.0576V207.953H46.1377ZM39.6709 208.896C41.4756 208.91 42.7744 210.551 42.7744 213.135C42.7744 215.719 41.4756 217.359 39.6709 217.359C37.8525 217.359 36.5674 215.719 36.5674 213.135C36.5674 210.551 37.8525 208.91 39.6709 208.896ZM39.6709 209.854C38.4541 209.867 37.6064 211.152 37.6064 213.135C37.6064 215.117 38.4541 216.402 39.6709 216.402C40.8877 216.402 41.7354 215.117 41.7354 213.135C41.7354 211.152 40.8877 209.867 39.6709 209.854ZM62.8584 217.633V218.521H51.7295V217.633H56.7061V214.652H57.7588V217.633H62.8584ZM57.7861 209.717C57.7861 211.754 60.1924 213.531 62.3115 213.9L61.833 214.789C59.9805 214.413 58.0254 213.155 57.2393 211.398C56.4395 213.148 54.498 214.413 52.6455 214.789L52.167 213.9C54.2861 213.531 56.665 211.754 56.665 209.717V208.787H57.7861V209.717ZM74.9443 214.064V214.953H63.8291V214.064H68.833V212.191H69.8857V214.064H74.9443ZM69.8994 208.719C69.8994 210.332 72.0869 211.686 74.2334 211.986L73.7959 212.848C71.9502 212.526 70.125 211.549 69.3662 210.141C68.6006 211.556 66.7686 212.526 64.9092 212.848L64.499 211.986C66.6455 211.686 68.8193 210.332 68.8193 208.719V208.145H69.8994V208.719ZM73.5361 216.143V220.107H72.4561V217.004H65.0596V216.143H73.5361ZM82.9971 211.166V212.014H80.5498V213.244C81.6982 213.196 82.8535 213.114 83.9268 212.984L83.9814 213.736C81.3838 214.133 78.458 214.215 76.1475 214.215L75.9971 213.354C77.0703 213.347 78.2529 213.333 79.4697 213.285V212.014H77.1182V208.486H82.8604V209.32H78.2256V211.166H82.9971ZM85.9639 207.967V214.516H84.8975V207.967H85.9639ZM85.9639 215.062V217.879H78.9912V219.096H86.4014V219.971H77.9248V217.059H84.9111V215.924H77.8975V215.062H85.9639ZM101.058 207.953V211.125H102.876V212.027H101.058V215.213H99.9775V207.953H101.058ZM97.1475 215.445C99.6221 215.445 101.153 216.307 101.153 217.756C101.153 219.232 99.6221 220.08 97.1475 220.08C94.6592 220.08 93.1143 219.232 93.1143 217.756C93.1143 216.307 94.6592 215.445 97.1475 215.445ZM97.1475 216.334C95.3154 216.32 94.167 216.867 94.167 217.756C94.167 218.658 95.3154 219.219 97.1475 219.219C98.9658 219.219 100.114 218.658 100.114 217.756C100.114 216.867 98.9658 216.32 97.1475 216.334ZM97.5029 208.883V209.771H93.1553V213.34C95.6162 213.326 97.0381 213.251 98.665 212.916L98.7744 213.805C97.0791 214.146 95.6162 214.215 93.0459 214.215H92.1025V208.883H97.5029ZM113.718 207.967V216.963H112.638V212.287H109.767V214.885H104.257V208.773H105.323V210.934H108.714V208.773H109.767V211.385H112.638V207.967H113.718ZM113.991 218.945V219.848H105.856V216.074H106.937V218.945H113.991ZM105.323 213.996H108.714V211.781H105.323V213.996ZM121.278 208.172C123.985 208.172 125.571 208.91 125.571 210.264C125.571 211.645 123.985 212.383 121.278 212.396C118.571 212.383 116.972 211.645 116.972 210.264C116.972 208.91 118.571 208.172 121.278 208.172ZM121.278 208.979C119.255 208.979 118.079 209.471 118.093 210.264C118.079 211.111 119.255 211.576 121.278 211.576C123.288 211.576 124.478 211.111 124.478 210.264C124.478 209.471 123.288 208.979 121.278 208.979ZM126.815 213.217V214.092H115.741V213.217H126.815ZM125.394 215.145V217.865H118.175V219.123H125.763V219.971H117.108V217.072H124.341V215.965H117.081V215.145H125.394ZM142.429 215.309V216.211H137.411V220.135H136.358V216.211H131.354V215.309H142.429ZM137.425 210.359C137.425 211.877 139.544 213.203 141.718 213.504L141.321 214.365C139.441 214.078 137.671 213.135 136.905 211.809C136.126 213.148 134.328 214.078 132.448 214.365L132.052 213.504C134.212 213.203 136.358 211.891 136.358 210.359V210.346H132.435V209.471H136.358V207.953H137.411V209.471H141.362V210.346H137.425V210.359ZM152.86 207.953V212.902H154.829V213.805H152.86V220.107H151.794V207.953H152.86ZM149.716 209.266C149.716 212.711 148.103 215.842 144.138 217.797L143.536 216.949C146.681 215.384 148.39 213.046 148.636 210.168H144.097V209.266H149.716ZM161.624 210.059V210.934H155.526V210.059H158.056V208.322H159.122V210.059H161.624ZM158.575 211.754C160.106 211.754 161.2 212.902 161.214 214.516C161.2 216.143 160.106 217.305 158.575 217.305C157.058 217.305 155.964 216.143 155.964 214.516C155.964 212.902 157.058 211.754 158.575 211.754ZM158.575 212.656C157.618 212.67 156.921 213.449 156.921 214.516C156.921 215.596 157.618 216.375 158.575 216.361C159.546 216.375 160.257 215.596 160.257 214.516C160.257 213.449 159.546 212.67 158.575 212.656ZM165.903 207.953V220.107H164.878V213.969H163.265V219.506H162.253V208.254H163.265V213.08H164.878V207.953H165.903ZM54.1562 228.896V229.539C54.1426 230.332 54.1426 231.549 53.8418 233.135L52.7617 233.053C53.0557 231.597 53.083 230.564 53.1035 229.799H48.0996V228.896H54.1562ZM51.0254 231.59V234.201C52.3721 234.146 53.7666 234.051 55.0312 233.873L55.0996 234.666C52.5566 235.104 49.6172 235.158 47.457 235.158L47.3477 234.27C48.1338 234.263 49.0225 234.256 49.959 234.229V231.59H51.0254ZM56.9453 227.953V231.918H58.7227V232.834H56.9453V237.1H55.8516V227.953H56.9453ZM57.3418 238.945V239.848H49.2207V236.279H50.3008V238.945H57.3418ZM69.5508 227.953V240.135H68.4844V227.953H69.5508ZM65.8594 229.088V233.408H61.3203V236.279C63.3369 236.279 65.1348 236.19 67.3086 235.842L67.418 236.744C65.1758 237.1 63.3301 237.182 61.2383 237.182H60.2266V232.533H64.7793V229.977H60.1992V229.088H65.8594ZM77.6855 230.059V230.934H71.5879V230.059H74.1172V228.322H75.1836V230.059H77.6855ZM74.6367 231.754C76.168 231.754 77.2617 232.902 77.2754 234.516C77.2617 236.143 76.168 237.305 74.6367 237.305C73.1191 237.305 72.0254 236.143 72.0254 234.516C72.0254 232.902 73.1191 231.754 74.6367 231.754ZM74.6367 232.656C73.6797 232.67 72.9824 233.449 72.9824 234.516C72.9824 235.596 73.6797 236.375 74.6367 236.361C75.6074 236.375 76.3184 235.596 76.3184 234.516C76.3184 233.449 75.6074 232.67 74.6367 232.656ZM81.9648 227.953V240.107H80.9395V233.969H79.3262V239.506H78.3145V228.254H79.3262V233.08H80.9395V227.953H81.9648ZM94.8438 237.66V238.549H83.7148V237.66H88.7188V235.035H85.0273V228.814H86.1074V231.016H92.4238V228.814H93.4766V235.035H89.7715V237.66H94.8438ZM86.1074 234.16H92.4238V231.891H86.1074V234.16ZM99.4238 231.412C99.4238 233.34 100.367 235.432 101.98 236.389L101.365 237.223C100.196 236.512 99.3555 235.213 98.9316 233.736C98.4805 235.35 97.5781 236.737 96.3613 237.482L95.6777 236.676C97.3594 235.691 98.3848 233.531 98.3848 231.453V229.102H99.4238V231.412ZM106.232 227.953V240.107H105.193V227.953H106.232ZM103.717 228.213V239.492H102.705V233.23H100.641V232.314H102.705V228.213H103.717ZM119.043 237.646V238.549H107.914V237.646H110.676V234.365C109.637 233.825 109.008 232.95 109.008 231.85C109.008 229.963 110.854 228.732 113.451 228.719C116.049 228.732 117.895 229.963 117.895 231.85C117.895 232.93 117.286 233.798 116.281 234.338V237.646H119.043ZM113.451 229.607C111.455 229.594 110.047 230.496 110.047 231.85C110.047 233.203 111.455 234.119 113.451 234.119C115.434 234.119 116.855 233.203 116.855 231.85C116.855 230.496 115.434 229.594 113.451 229.607ZM111.729 237.646H115.201V234.748C114.675 234.892 114.087 234.967 113.451 234.967C112.829 234.967 112.248 234.898 111.729 234.762V237.646ZM121.299 239.082C120.82 239.082 120.41 238.686 120.424 238.193C120.41 237.715 120.82 237.318 121.299 237.318C121.777 237.318 122.174 237.715 122.174 238.193C122.174 238.686 121.777 239.082 121.299 239.082Z" fill="#8E8E8E"/>
<rect x="27" y="64.3867" width="110.083" height="81.6131" rx="13.2859" fill="url(#paint0_linear_2834_2762)"/>
<rect x="66.8584" y="53" width="30.3677" height="20.8778" rx="3.79596" fill="url(#paint1_linear_2834_2762)"/>
<rect x="68.0716" y="54.127" width="27.8339" height="18.4849" rx="2.84697" fill="url(#paint2_linear_2834_2762)"/>
<ellipse cx="58.4677" cy="105.939" rx="20.1045" ry="20.8778" fill="url(#paint3_linear_2834_2762)"/>
<circle cx="58.4752" cy="98.9807" r="6.95926" fill="url(#paint4_linear_2834_2762)"/>
<path d="M60.9668 107.784C66.9296 107.784 71.7637 112.618 71.7637 118.581V121.657C68.2227 124.892 63.5781 126.855 58.4913 126.855C53.389 126.855 48.7316 124.88 45.1866 121.628V118.581C45.1866 112.618 50.0205 107.784 55.9834 107.784H60.9668Z" fill="url(#paint5_linear_2834_2762)"/>
<rect x="85.8378" y="94.7549" width="39.8576" height="13.2859" rx="2.53064" fill="url(#paint6_linear_2834_2762)"/>
<rect x="85.8378" y="111.835" width="32.2657" height="5.69394" rx="2.53064" fill="url(#paint7_linear_2834_2762)"/>
<defs>
<linearGradient id="paint0_linear_2834_2762" x1="82.0414" y1="56.4887" x2="82.0414" y2="163.112" gradientUnits="userSpaceOnUse">
<stop stop-color="white"/>
<stop offset="1" stop-color="#999999"/>
</linearGradient>
<linearGradient id="paint1_linear_2834_2762" x1="82.0422" y1="50.9796" x2="82.0422" y2="78.2554" gradientUnits="userSpaceOnUse">
<stop stop-color="white"/>
<stop offset="1" stop-color="#999999"/>
</linearGradient>
<linearGradient id="paint2_linear_2834_2762" x1="81.9886" y1="52.3381" x2="81.9886" y2="76.4877" gradientUnits="userSpaceOnUse">
<stop stop-color="white"/>
<stop offset="1" stop-color="#999999"/>
</linearGradient>
<linearGradient id="paint3_linear_2834_2762" x1="58.4677" y1="81.0207" x2="58.4677" y2="135.572" gradientUnits="userSpaceOnUse">
<stop stop-color="white"/>
<stop offset="1" stop-color="#999999"/>
</linearGradient>
<linearGradient id="paint4_linear_2834_2762" x1="58.4752" y1="90.6745" x2="58.4752" y2="108.858" gradientUnits="userSpaceOnUse">
<stop stop-color="white"/>
<stop offset="1" stop-color="#999999"/>
</linearGradient>
<linearGradient id="paint5_linear_2834_2762" x1="58.4751" y1="105.939" x2="58.4751" y2="130.854" gradientUnits="userSpaceOnUse">
<stop stop-color="white"/>
<stop offset="1" stop-color="#999999"/>
</linearGradient>
<linearGradient id="paint6_linear_2834_2762" x1="105.767" y1="93.4692" x2="105.767" y2="110.826" gradientUnits="userSpaceOnUse">
<stop stop-color="white"/>
<stop offset="1" stop-color="#999999"/>
</linearGradient>
<linearGradient id="paint7_linear_2834_2762" x1="101.971" y1="111.284" x2="101.971" y2="118.723" gradientUnits="userSpaceOnUse">
<stop stop-color="white"/>
<stop offset="1" stop-color="#999999"/>
</linearGradient>
</defs>
</svg>
