<svg width="394" height="611" viewBox="0 0 394 611" fill="none" xmlns="http://www.w3.org/2000/svg">
<rect x="0.0161133" width="392" height="610" fill="white"/>
<circle cx="41.8777" cy="524.401" r="67.3921" fill="url(#paint0_linear_3089_8567)"/>
<path d="M78.7785 516.088L75.209 544.35L37.6771 560.641L34.4803 535.314L78.7785 516.088Z" fill="url(#paint1_linear_3089_8567)"/>
<path d="M37.6772 560.641L75.2091 544.35L72.5636 565.278C72.4838 565.905 71.9518 566.373 71.3208 566.373H39.5054C38.8744 566.373 38.3425 565.905 38.2626 565.278L37.6772 560.641Z" fill="url(#paint2_linear_3089_8567)"/>
<path d="M79.7818 508.142L78.7785 516.09L34.4803 535.316L31.0515 508.142C30.9565 507.394 31.5382 506.736 32.2947 506.736H78.5391C79.2917 506.736 79.8731 507.394 79.7818 508.142Z" fill="url(#paint3_linear_3089_8567)"/>
<path d="M81.8607 508.565H28.9722C28.5046 508.565 28.1472 508.147 28.2194 507.688L28.8924 503.331C28.9798 502.769 29.4625 502.354 30.0327 502.354H80.8002C81.3666 502.354 81.8531 502.769 81.9405 503.331L82.6135 507.688C82.6857 508.147 82.3283 508.565 81.8607 508.565Z" fill="#A6C6FF"/>
<path d="M62.6004 482.406L59.6775 502.354H54.2416L57.2751 481.627C57.3245 481.319 57.6135 481.099 57.9214 481.144L62.1141 481.76C62.422 481.806 62.6423 482.094 62.5967 482.406H62.6004Z" fill="#FA9EFA"/>
<path d="M27.5544 496.745C26.4369 493.955 23.7115 491.982 20.5224 491.982C16.3374 491.982 12.9432 495.376 12.9432 499.561C12.9432 503.746 16.3374 507.141 20.5224 507.141C21.6285 507.141 22.674 506.897 23.6204 506.472C24.5099 507.118 25.6046 507.502 26.7905 507.502C29.7782 507.502 32.1997 505.08 32.1997 502.093C32.1997 499.367 30.181 497.117 27.5544 496.745Z" fill="url(#paint4_linear_3089_8567)"/>
<path d="M29.5997 500.845C33.4897 500.845 36.6429 497.691 36.6429 493.801C36.6429 489.911 33.4897 486.758 29.5997 486.758C25.7097 486.758 22.5561 489.911 22.5561 493.801C22.5561 497.691 25.7097 500.845 29.5997 500.845Z" fill="#FFF7A9"/>
<path d="M53.7596 509.93C57.6496 509.93 60.8031 506.777 60.8031 502.887C60.8031 498.997 57.6496 495.843 53.7596 495.843C49.8696 495.843 46.716 498.997 46.716 502.887C46.716 506.777 49.8696 509.93 53.7596 509.93Z" fill="#FFF7A9"/>
<path d="M42.9261 506.399C41.2726 509.303 37.9732 511.067 34.4571 510.584C29.8464 509.953 26.6192 505.7 27.2539 501.089C27.4212 499.861 27.8508 498.74 28.4704 497.756C28.1017 496.961 27.9421 496.052 28.0713 495.117C28.4286 492.525 30.8195 490.708 33.4118 491.065C35.1451 491.305 36.525 492.453 37.1483 493.962C38.2089 494.159 39.1896 494.547 40.0601 495.091C41.1396 494.513 42.4015 494.255 43.7053 494.433C46.997 494.886 49.2968 497.919 48.8483 501.211C48.4377 504.214 45.8721 506.388 42.9224 506.403L42.9261 506.399Z" fill="url(#paint5_linear_3089_8567)"/>
<path d="M12.3235 507.884C16.2135 507.884 19.3667 504.731 19.3667 500.841C19.3667 496.951 16.2135 493.797 12.3235 493.797C8.43354 493.797 5.27997 496.951 5.27997 500.841C5.27997 504.731 8.43354 507.884 12.3235 507.884Z" fill="url(#paint6_linear_3089_8567)"/>
<path d="M29.2082 507.884C33.0982 507.884 36.2518 504.731 36.2518 500.841C36.2518 496.951 33.0982 493.797 29.2082 493.797C25.3182 493.797 22.1647 496.951 22.1647 500.841C22.1647 504.731 25.3182 507.884 29.2082 507.884Z" fill="#FFF7A9"/>
<path d="M55.8386 506.363C54.721 503.573 51.9956 501.6 48.8065 501.6C44.6215 501.6 41.2273 504.995 41.2273 509.18C41.2273 513.365 44.6215 516.759 48.8065 516.759C49.9126 516.759 50.9581 516.516 51.9046 516.09C52.794 516.736 53.8887 517.12 55.0746 517.12C58.0623 517.12 60.4838 514.699 60.4838 511.711C60.4838 508.986 58.4651 506.735 55.8386 506.363Z" fill="url(#paint7_linear_3089_8567)"/>
<path d="M23.7836 502.169C26.8131 500.755 30.523 501.227 33.1116 503.656C36.506 506.841 36.6773 512.174 33.4958 515.568C32.6481 516.473 31.6483 517.138 30.5726 517.583C30.4129 518.445 30.0175 519.274 29.3713 519.962C27.581 521.871 24.582 521.969 22.67 520.179C21.3929 518.981 20.9328 517.245 21.2977 515.656C20.5451 514.88 19.9714 513.998 19.5761 513.052C18.3597 512.9 17.1813 512.379 16.2196 511.478C13.7983 509.205 13.6726 505.4 15.9457 502.975C18.0211 500.763 21.37 500.474 23.7799 502.169H23.7836Z" fill="url(#paint8_linear_3089_8567)"/>
<path d="M15.908 506.935C14.7905 504.145 12.0651 502.172 8.87596 502.172C4.69094 502.172 1.29675 505.567 1.29675 509.752C1.29675 513.937 4.69094 517.331 8.87596 517.331C9.98209 517.331 11.0275 517.088 11.974 516.662C12.8635 517.308 13.9581 517.692 15.1441 517.692C18.1318 517.692 20.5529 515.271 20.5529 512.284C20.5529 509.558 18.5346 507.308 15.908 506.935Z" fill="#FFF7A9"/>
<path d="M6.20346 517.699C8.44341 517.699 10.2592 515.883 10.2592 513.643C10.2592 511.403 8.44341 509.587 6.20346 509.587C3.96351 509.587 2.14771 511.403 2.14771 513.643C2.14771 515.883 3.96351 517.699 6.20346 517.699Z" fill="#FFF083"/>
<path d="M31.8612 512.296C31.9296 512.482 32.0022 512.665 32.0858 512.847C33.6176 516.135 37.5252 517.557 40.8131 516.025C41.6532 515.633 42.3675 515.086 42.9453 514.436C43.7473 514.44 44.5608 514.276 45.3362 513.915C48.1414 512.608 49.354 509.27 48.0464 506.465C46.7388 503.66 43.4016 502.447 40.5963 503.755C40.4937 503.804 40.3986 503.858 40.2997 503.911C38.7147 503.329 36.9093 503.352 35.2558 504.12C34.9518 504.26 34.6702 504.431 34.3965 504.61C33.5983 504.469 32.7509 504.561 31.9603 504.929C29.9115 505.883 29.0259 508.32 29.9799 510.369C30.3867 511.239 31.0593 511.897 31.8538 512.296H31.8612Z" fill="#FFF7A9"/>
<path d="M6.71307 513.384H15.5161V566.539H9.61699C9.04682 566.539 8.56038 566.136 8.48816 565.596L6.71307 552.703V513.384Z" fill="url(#paint9_linear_3089_8567)"/>
<path d="M35.5939 513.384H26.6423V566.539H35.5939V513.384Z" fill="url(#paint10_linear_3089_8567)"/>
<path d="M55.4169 513.384V552.657L53.6377 565.585C53.5617 566.128 53.0752 566.539 52.4937 566.539H46.72V513.384H55.4169Z" fill="url(#paint11_linear_3089_8567)"/>
<path d="M6.71319 513.384V552.703L1.47144 514.616C1.38022 513.962 1.91617 513.384 2.61178 513.384H6.7169H6.71319Z" fill="#FA9EFA"/>
<path d="M26.6425 513.384H15.5165V566.539H26.6425V513.384Z" fill="#FA9EFA"/>
<path d="M46.7202 513.384H35.5941V566.539H46.7202V513.384Z" fill="#FA9EFA"/>
<path d="M60.6543 514.608L55.4125 552.657V513.384H59.5217C60.2097 513.384 60.7418 513.959 60.6506 514.608H60.6543Z" fill="#FA9EFA"/>
<path d="M31.1164 550.523C41.193 550.523 49.3617 544.57 49.3617 537.227C49.3617 529.884 41.193 523.931 31.1164 523.931C21.0397 523.931 12.871 529.884 12.871 537.227C12.871 544.57 21.0397 550.523 31.1164 550.523Z" fill="#A6C6FF"/>
<path d="M31.1158 547.862C22.6697 547.862 15.5312 542.993 15.5312 537.226C15.5312 531.46 22.6697 526.591 31.1158 526.591C39.5618 526.591 46.7003 531.46 46.7003 537.226C46.7003 542.993 39.5618 547.862 31.1158 547.862Z" fill="url(#paint12_linear_3089_8567)"/>
<circle cx="197.381" cy="524.401" r="67.3921" fill="url(#paint13_linear_3089_8567)"/>
<path d="M190.589 517.98C191.261 516.113 191.629 514.12 191.629 512.044C191.629 504.904 187.309 498.691 180.931 495.493L180.017 502.573C183.111 504.826 185.082 508.236 185.082 512.044C185.082 512.443 185.056 512.837 185.013 513.227C181.001 510.684 176.239 509.202 171.135 509.202C166.031 509.202 161.274 510.684 157.262 513.227C157.218 512.837 157.188 512.443 157.188 512.044C157.188 508.24 159.164 504.83 162.253 502.573L161.339 495.493C154.969 498.691 150.641 504.904 150.641 512.044C150.641 514.12 151.009 516.113 151.685 517.98C147.638 522.555 145.182 528.565 145.182 535.151C145.182 542.122 147.933 548.448 152.4 553.11C153.08 553.821 154.016 554.232 154.995 554.232H187.266C188.249 554.232 189.181 553.821 189.861 553.11C194.332 548.448 197.079 542.122 197.079 535.151C197.079 528.565 194.623 522.555 190.58 517.98H190.589Z" fill="url(#paint14_linear_3089_8567)"/>
<path d="M171.14 541.173C179.359 541.173 186.023 535.447 186.023 528.383C186.023 521.319 179.359 515.593 171.14 515.593C162.92 515.593 156.257 521.319 156.257 528.383C156.257 535.447 162.92 541.173 171.14 541.173Z" fill="url(#paint15_linear_3089_8567)"/>
<path d="M185.623 498.602L184.869 504.451C184.683 505.894 183.115 506.735 181.828 506.055C178.7 504.404 175.043 503.459 171.139 503.459C167.235 503.459 163.578 504.404 160.45 506.055C159.163 506.735 157.595 505.894 157.409 504.451L156.655 498.602C156.533 497.675 157.036 496.778 157.894 496.401C161.902 494.638 166.395 493.65 171.143 493.65C175.892 493.65 180.381 494.638 184.393 496.401C185.246 496.778 185.749 497.675 185.632 498.602H185.623Z" fill="url(#paint16_linear_3089_8567)"/>
<path d="M165.714 534.249C164.852 534.249 164.094 534.127 163.435 533.881C162.777 533.634 162.248 533.278 161.85 532.815C161.451 532.351 161.213 531.783 161.135 531.116H163.626C163.708 531.549 163.916 531.87 164.254 532.082C164.592 532.295 165.03 532.403 165.567 532.403C166.178 532.403 166.646 532.273 166.98 532.017C167.313 531.762 167.478 531.394 167.478 530.917V530.605C167.478 530.094 167.331 529.699 167.036 529.418C166.741 529.136 166.321 528.998 165.771 528.998H164.623V527.178H165.771C166.239 527.178 166.598 527.056 166.854 526.814C167.11 526.571 167.235 526.233 167.235 525.796V525.514C167.235 525.102 167.097 524.79 166.824 524.569C166.551 524.348 166.161 524.236 165.658 524.236C165.203 524.236 164.822 524.348 164.506 524.574C164.189 524.799 163.977 525.141 163.86 525.601H161.382C161.551 524.578 162.027 523.785 162.803 523.226C163.578 522.667 164.549 522.386 165.71 522.386C166.997 522.386 167.993 522.65 168.704 523.179C169.415 523.707 169.766 524.448 169.766 525.406V525.679C169.766 526.238 169.579 526.723 169.207 527.134C168.834 527.546 168.305 527.854 167.621 528.057C168.379 528.192 168.968 528.491 169.384 528.963C169.8 529.435 170.008 530.033 170.008 530.765V531.038C170.008 532.056 169.636 532.845 168.886 533.404C168.136 533.963 167.084 534.244 165.719 534.244L165.714 534.249Z" fill="#F917FF"/>
<path d="M177.062 534.251C175.628 534.251 174.549 533.952 173.826 533.359C173.102 532.765 172.742 531.964 172.742 530.95V525.668C172.742 524.641 173.106 523.835 173.834 523.246C174.562 522.657 175.637 522.367 177.062 522.367C178.488 522.367 179.566 522.657 180.294 523.242C181.018 523.827 181.382 524.633 181.382 525.668V530.95C181.382 531.977 181.018 532.783 180.29 533.372C179.562 533.961 178.488 534.251 177.062 534.251ZM177.062 532.423C177.734 532.423 178.215 532.267 178.509 531.955C178.804 531.643 178.951 531.214 178.951 530.673V525.95C178.951 525.4 178.804 524.971 178.509 524.663C178.215 524.355 177.734 524.199 177.062 524.199C176.391 524.199 175.91 524.355 175.615 524.663C175.32 524.971 175.173 525.4 175.173 525.95V530.673C175.173 531.214 175.32 531.643 175.615 531.955C175.91 532.267 176.391 532.423 177.062 532.423Z" fill="#F917FF"/>
<path d="M247.266 530.474L246.083 530.477C245.155 530.479 244.403 531.233 244.405 532.161L244.413 536.373C244.415 537.301 245.169 538.052 246.097 538.05L247.28 538.048C248.209 538.046 248.96 537.292 248.958 536.364L248.95 532.152C248.948 531.224 248.194 530.473 247.266 530.474Z" fill="url(#paint17_linear_3089_8567)"/>
<path d="M195.908 533.191L195.912 535.54C195.916 537.377 197.408 538.864 199.246 538.861L232.677 538.797C234.515 538.793 236.002 537.3 235.999 535.463L235.994 533.114C235.991 531.277 234.498 529.79 232.66 529.793L199.229 529.857C197.391 529.861 195.904 531.354 195.908 533.191Z" fill="url(#paint18_linear_3089_8567)"/>
<path d="M187.388 530.59L186.205 530.592C185.277 530.594 184.525 531.348 184.527 532.276L184.535 536.488C184.537 537.416 185.291 538.167 186.22 538.166L187.402 538.163C188.331 538.162 189.082 537.407 189.08 536.479L189.072 532.268C189.07 531.339 188.316 530.588 187.388 530.59Z" fill="url(#paint19_linear_3089_8567)"/>
<path d="M193.169 517.577L190.821 517.581C188.983 517.585 187.496 519.077 187.499 520.915L187.551 547.843C187.555 549.681 189.047 551.168 190.885 551.164L193.233 551.16C195.071 551.156 196.558 549.663 196.554 547.826L196.503 520.898C196.499 519.06 195.007 517.573 193.169 517.577Z" fill="#A5C5FF"/>
<path d="M200.381 514.314L198.032 514.319C196.195 514.322 194.708 515.815 194.711 517.653L194.776 551.084C194.779 552.922 196.272 554.409 198.109 554.405L200.458 554.401C202.296 554.397 203.782 552.905 203.779 551.067L203.715 517.635C203.711 515.798 202.219 514.311 200.381 514.314Z" fill="#4D82FC"/>
<path d="M242.605 517.482L240.257 517.487C238.419 517.49 236.932 518.983 236.935 520.821L236.987 547.749C236.991 549.586 238.483 551.073 240.321 551.07L242.669 551.065C244.507 551.062 245.994 549.569 245.991 547.731L245.939 520.803C245.935 518.966 244.443 517.479 242.605 517.482Z" fill="#A5C5FF"/>
<path d="M235.381 514.246L233.032 514.251C231.195 514.254 229.708 515.747 229.711 517.585L229.775 551.016C229.779 552.854 231.272 554.341 233.109 554.337L235.458 554.333C237.295 554.329 238.782 552.837 238.779 550.999L238.715 517.568C238.711 515.73 237.218 514.243 235.381 514.246Z" fill="#4D82FC"/>
<circle cx="352.803" cy="523.962" r="67.3921" fill="url(#paint20_linear_3089_8567)"/>
<path d="M325.437 548.725H324.249C324.087 548.725 323.956 548.856 323.956 549.018V563.241C323.956 563.402 324.087 563.534 324.249 563.534H325.437C325.599 563.534 325.731 563.402 325.731 563.241V549.018C325.731 548.856 325.599 548.725 325.437 548.725Z" fill="#ADADAD"/>
<path d="M332.506 534.954C333.118 533.77 333.467 532.43 333.467 531.004C333.467 526.241 329.606 522.38 324.843 522.38C320.08 522.38 316.219 526.241 316.219 531.004C316.219 532.43 316.572 533.77 317.181 534.954C315.261 536.9 314.073 539.569 314.073 542.517C314.073 548.464 318.896 553.287 324.843 553.287C330.791 553.287 335.613 548.464 335.613 542.517C335.613 539.569 334.425 536.896 332.506 534.954Z" fill="url(#paint21_linear_3089_8567)"/>
<path d="M362.659 486.298V563.681H329.814V487.426C329.814 486.803 330.319 486.298 330.943 486.298H362.655H362.659Z" fill="#A5C5FF"/>
<path d="M375.01 563.673H362.636V486.289H374.434C374.75 486.289 375.01 486.545 375.01 486.865V563.676V563.673Z" fill="url(#paint22_linear_3089_8567)"/>
<path d="M360.82 486.289H332.995V483.475C332.995 483.171 333.24 482.926 333.545 482.926H360.82V486.289Z" fill="#A5C5FF"/>
<path d="M369.85 491.198V495.374H367.303C367.08 495.374 366.909 495.196 366.909 494.981V491.25C366.909 491.231 366.909 491.216 366.917 491.198H369.85Z" fill="#B2CDFF"/>
<path d="M369.85 498.518V503.036H367.303C367.08 503.036 366.909 502.858 366.909 502.643V498.912C366.909 498.696 367.08 498.518 367.303 498.518H369.85Z" fill="#B2CDFF"/>
<path d="M369.85 506.185V510.703H367.303C367.08 510.703 366.909 510.532 366.909 510.309V506.578C366.909 506.363 367.08 506.185 367.303 506.185H369.85Z" fill="#B2CDFF"/>
<path d="M369.85 513.851V518.376H367.303C367.08 518.376 366.909 518.198 366.909 517.983V514.244C366.909 514.029 367.08 513.851 367.303 513.851H369.85Z" fill="#B2CDFF"/>
<path d="M369.85 521.521V526.039H367.303C367.08 526.039 366.909 525.86 366.909 525.645V521.914C366.909 521.699 367.08 521.521 367.303 521.521H369.85Z" fill="#B2CDFF"/>
<path d="M369.85 529.187V533.705H367.303C367.08 533.705 366.909 533.526 366.909 533.311V529.58C366.909 529.365 367.08 529.187 367.303 529.187H369.85Z" fill="#B2CDFF"/>
<path d="M369.85 536.85V541.368H367.303C367.08 541.368 366.909 541.197 366.909 540.974V537.243C366.909 537.028 367.08 536.85 367.303 536.85H369.85Z" fill="#B2CDFF"/>
<path d="M359.67 491.25V494.981C359.67 495.196 359.491 495.374 359.276 495.374H333.96V491.198H359.666C359.673 491.216 359.673 491.231 359.673 491.25H359.67Z" fill="url(#paint23_linear_3089_8567)"/>
<path d="M359.67 498.915V502.647C359.67 502.866 359.491 503.04 359.276 503.04H333.96V498.522H359.276C359.495 498.522 359.67 498.7 359.67 498.915Z" fill="url(#paint24_linear_3089_8567)"/>
<path d="M359.67 506.582V510.313C359.67 510.532 359.491 510.706 359.276 510.706H333.96V506.188H359.276C359.495 506.188 359.67 506.366 359.67 506.582Z" fill="url(#paint25_linear_3089_8567)"/>
<path d="M359.67 514.248V517.979C359.67 518.198 359.491 518.373 359.276 518.373H333.96V513.854H359.276C359.495 513.854 359.67 514.033 359.67 514.248Z" fill="url(#paint26_linear_3089_8567)"/>
<path d="M359.67 521.911V525.642C359.67 525.861 359.491 526.035 359.276 526.035H333.96V521.517H359.276C359.495 521.517 359.67 521.695 359.67 521.911Z" fill="url(#paint27_linear_3089_8567)"/>
<path d="M359.67 529.577V533.308C359.67 533.527 359.491 533.701 359.276 533.701H333.96V529.183H359.276C359.495 529.183 359.67 529.361 359.67 529.577Z" fill="url(#paint28_linear_3089_8567)"/>
<path d="M359.67 537.243V540.974C359.67 541.193 359.491 541.368 359.276 541.368H333.96V536.85H359.276C359.495 536.85 359.67 537.028 359.67 537.243Z" fill="url(#paint29_linear_3089_8567)"/>
<path d="M372.177 486.289H360.798V482.926H371.55C371.895 482.926 372.173 483.204 372.173 483.549V486.289H372.177Z" fill="url(#paint30_linear_3089_8567)"/>
<path d="M375.01 545.788H329.814V546.078H375.01V545.788Z" fill="#4A73FF"/>
<path d="M372.177 486.003H332.995V486.293H372.177V486.003Z" fill="#4A73FF"/>
<path d="M349.947 554.673V563.687H341.794V554.673C341.794 552.468 343.405 550.634 345.518 550.296C345.637 550.27 345.755 550.255 345.874 550.251C345.882 550.251 345.893 550.251 345.9 550.259C348.169 550.448 349.947 552.353 349.947 554.673Z" fill="#F99DF9"/>
<path d="M341.062 554.674V563.688H341.793V554.674C341.793 552.346 343.59 550.43 345.874 550.252C345.755 550.237 345.629 550.233 345.506 550.233C343.059 550.233 341.066 552.22 341.066 554.674H341.062Z" fill="#FA64FF"/>
<path d="M345.874 550.251C345.755 550.259 345.636 550.27 345.518 550.296V563.683H345.9V550.255C345.9 550.255 345.881 550.248 345.874 550.248V550.251Z" fill="#FA64FF"/>
<path d="M346.565 556.523H346.427C346.378 556.523 346.338 556.563 346.338 556.612V558.008C346.338 558.057 346.378 558.097 346.427 558.097H346.565C346.614 558.097 346.654 558.057 346.654 558.008V556.612C346.654 556.563 346.614 556.523 346.565 556.523Z" fill="#FA64FF"/>
<path d="M344.98 556.523H344.842C344.793 556.523 344.753 556.563 344.753 556.612V558.008C344.753 558.057 344.793 558.097 344.842 558.097H344.98C345.029 558.097 345.069 558.057 345.069 558.008V556.612C345.069 556.563 345.029 556.523 344.98 556.523Z" fill="#FA64FF"/>
<path d="M359.662 491.197H334.116C334.027 491.197 333.957 491.268 333.957 491.357V495.374H333.047C332.91 495.374 332.798 495.262 332.798 495.125V491.104C332.798 490.967 332.91 490.855 333.047 490.855H359.272C359.469 490.855 359.632 491.008 359.662 491.197Z" fill="#4D82FC"/>
<path d="M359.662 498.864H334.116C334.027 498.864 333.957 498.934 333.957 499.023V503.04H333.047C332.91 503.04 332.798 502.929 332.798 502.791V498.771C332.798 498.633 332.91 498.522 333.047 498.522H359.272C359.469 498.522 359.632 498.674 359.662 498.864Z" fill="#4D82FC"/>
<path d="M359.662 506.53H334.116C334.027 506.53 333.957 506.6 333.957 506.689V510.706H333.047C332.91 510.706 332.798 510.595 332.798 510.457V506.437C332.798 506.299 332.91 506.188 333.047 506.188H359.272C359.469 506.188 359.632 506.34 359.662 506.53Z" fill="#4D82FC"/>
<path d="M359.662 514.192H334.116C334.027 514.192 333.957 514.263 333.957 514.352V518.369H333.047C332.91 518.369 332.798 518.257 332.798 518.12V514.099C332.798 513.962 332.91 513.851 333.047 513.851H359.272C359.469 513.851 359.632 514.003 359.662 514.192Z" fill="#4D82FC"/>
<path d="M359.662 521.859H334.116C334.027 521.859 333.957 521.929 333.957 522.018V526.035H333.047C332.91 526.035 332.798 525.924 332.798 525.786V521.766C332.798 521.628 332.91 521.517 333.047 521.517H359.272C359.469 521.517 359.632 521.669 359.662 521.859Z" fill="#4D82FC"/>
<path d="M359.662 529.525H334.116C334.027 529.525 333.957 529.595 333.957 529.684V533.701H333.047C332.91 533.701 332.798 533.59 332.798 533.452V529.432C332.798 529.294 332.91 529.183 333.047 529.183H359.272C359.469 529.183 359.632 529.335 359.662 529.525Z" fill="#4D82FC"/>
<path d="M359.662 537.191H334.116C334.027 537.191 333.957 537.262 333.957 537.351V541.368H333.047C332.91 541.368 332.798 541.256 332.798 541.119V537.098C332.798 536.961 332.91 536.85 333.047 536.85H359.272C359.469 536.85 359.632 537.002 359.662 537.191Z" fill="#4D82FC"/>
<path d="M370.744 491.249V494.98C370.744 495.195 370.566 495.374 370.35 495.374H369.849V491.197H366.916C366.935 491.008 367.102 490.855 367.306 490.855H370.354C370.551 490.855 370.714 491.008 370.744 491.197C370.751 491.216 370.751 491.23 370.751 491.249H370.744Z" fill="#1954D8"/>
<path d="M370.729 498.915V502.647C370.729 502.862 370.551 503.04 370.336 503.04H369.834V498.864H366.901C366.92 498.674 367.087 498.522 367.291 498.522H370.339C370.536 498.522 370.699 498.674 370.729 498.864C370.737 498.882 370.737 498.897 370.737 498.915H370.729Z" fill="#1954D8"/>
<path d="M370.729 506.578V510.309C370.729 510.524 370.551 510.703 370.336 510.703H369.834V506.526H366.901C366.92 506.337 367.087 506.185 367.291 506.185H370.339C370.536 506.185 370.699 506.337 370.729 506.526C370.737 506.545 370.737 506.56 370.737 506.578H370.729Z" fill="#1954D8"/>
<path d="M370.729 514.244V517.975C370.729 518.191 370.551 518.369 370.336 518.369H369.834V514.192H366.901C366.92 514.003 367.087 513.851 367.291 513.851H370.339C370.536 513.851 370.699 514.003 370.729 514.192C370.737 514.211 370.737 514.226 370.737 514.244H370.729Z" fill="#1954D8"/>
<path d="M370.729 521.907V525.638C370.729 525.854 370.551 526.032 370.336 526.032H369.834V521.855H366.901C366.92 521.666 367.087 521.514 367.291 521.514H370.339C370.536 521.514 370.699 521.666 370.729 521.855C370.737 521.874 370.737 521.889 370.737 521.907H370.729Z" fill="#1954D8"/>
<path d="M370.729 529.574V533.305C370.729 533.52 370.551 533.698 370.336 533.698H369.835V529.919C369.835 529.7 369.656 529.518 369.434 529.518H366.898C366.917 529.328 367.084 529.176 367.288 529.176H370.336C370.533 529.176 370.696 529.328 370.726 529.518C370.733 529.536 370.733 529.551 370.733 529.57L370.729 529.574Z" fill="#1954D8"/>
<path d="M370.729 537.24V540.971C370.729 541.186 370.551 541.364 370.336 541.364H369.835V537.585C369.835 537.366 369.656 537.184 369.434 537.184H366.898C366.917 536.994 367.084 536.842 367.288 536.842H370.336C370.533 536.842 370.696 536.994 370.726 537.184C370.733 537.202 370.733 537.217 370.733 537.236L370.729 537.24Z" fill="#1954D8"/>
<path d="M378.054 553.553H376.899C376.737 553.553 376.606 553.685 376.606 553.847V563.239C376.606 563.401 376.737 563.532 376.899 563.532H378.054C378.216 563.532 378.347 563.401 378.347 563.239V553.847C378.347 553.685 378.216 553.553 378.054 553.553Z" fill="#ADADAD"/>
<path d="M372.314 543.961C371.902 543.163 371.665 542.261 371.665 541.299C371.665 538.092 374.267 535.489 377.475 535.489C380.682 535.489 383.285 538.092 383.285 541.299C383.285 542.261 383.047 543.163 382.635 543.961C383.931 545.272 384.729 547.072 384.729 549.058C384.729 553.064 381.48 556.313 377.475 556.313C373.469 556.313 370.22 553.064 370.22 549.058C370.22 547.072 371.022 545.272 372.314 543.961Z" fill="url(#paint31_linear_3089_8567)"/>
<path d="M313.639 564.252H391.186C391.43 564.252 391.628 564.054 391.628 563.81V563.754C391.628 563.51 391.43 563.313 391.186 563.313H313.639C313.395 563.313 313.197 563.51 313.197 563.754V563.81C313.197 564.054 313.395 564.252 313.639 564.252Z" fill="url(#paint32_linear_3089_8567)"/>
<rect x="0.0161133" y="401.96" width="392" height="208.405" fill="url(#paint33_linear_3089_8567)"/>
<path d="M102.864 41.1172C106.692 41.1367 109.114 42.3477 109.133 44.4375C109.114 46.4883 106.692 47.7188 102.864 47.7188C99.0552 47.7188 96.6138 46.4883 96.6138 44.4375C96.6138 42.3477 99.0552 41.1367 102.864 41.1172ZM102.864 42.7578C100.325 42.7578 98.7817 43.3633 98.8013 44.4375C98.7817 45.4727 100.325 46.0391 102.864 46.0391C105.422 46.0391 106.965 45.4727 106.985 44.4375C106.965 43.3633 105.422 42.7578 102.864 42.7578ZM109.016 30.9219V32.3867C109.016 33.7734 109.016 35.2578 108.528 37.0742L106.379 36.8789C106.819 35.1602 106.848 33.9199 106.848 32.6406H96.7896V30.9219H109.016ZM110.969 38.0898V39.8477H94.9536V38.0898H101.165V34.8867H103.313V38.0898H110.969ZM126.125 30.082V35.1602H128.586V36.9766H126.125V42.8164H123.918V30.082H126.125ZM121.321 31.4297C121.321 36.1172 118.274 39.457 113.04 40.9805L112.141 39.2617C116.174 38.0996 118.577 35.9023 118.958 33.207H112.883V31.4297H121.321ZM126.79 45.6289V47.3867H114.778V41.5078H116.985V45.6289H126.79ZM137.512 30.3555C141.536 30.3555 143.86 31.4297 143.879 33.3828C143.86 35.3555 141.536 36.4102 137.512 36.4297C133.489 36.4102 131.145 35.3555 131.145 33.3828C131.145 31.4297 133.489 30.3555 137.512 30.3555ZM137.512 31.957C134.817 31.957 133.411 32.4648 133.43 33.3828C133.411 34.3594 134.817 34.8086 137.512 34.8086C140.247 34.8086 141.633 34.3594 141.633 33.3828C141.633 32.4648 140.247 31.957 137.512 31.957ZM145.579 37.3672V39.1055H129.485V37.3672H145.579ZM143.567 40.2969V44.6133H133.528V45.9219H144.055V47.582H131.399V43.0703H141.438V41.8984H131.379V40.2969H143.567ZM165.442 30.082V34.5547H167.903V36.3711H165.442V40.7266H163.274V30.082H165.442ZM165.442 41.5664V47.5234H154.036V41.5664H165.442ZM156.184 43.2852V45.7656H163.293V43.2852H156.184ZM162.004 31.7812V33.5195H151.536V31.7812H155.696V29.9648H157.864V31.7812H162.004ZM156.77 34.1641C159.329 34.1641 161.067 35.4531 161.086 37.3281C161.067 39.2227 159.329 40.4922 156.77 40.4922C154.192 40.4922 152.434 39.2227 152.434 37.3281C152.434 35.4531 154.192 34.1641 156.77 34.1641ZM156.77 35.8047C155.422 35.8047 154.543 36.3711 154.543 37.3281C154.543 38.3047 155.422 38.8711 156.77 38.8711C158.118 38.8711 159.016 38.3047 159.016 37.3281C159.016 36.3711 158.118 35.8047 156.77 35.8047ZM173.157 32.1523C173.137 36.3125 172.668 40.3359 170.325 43.8125L168.625 42.8945C170.579 40.1504 171.145 37.2891 171.282 33.9102H169.133V32.1523H173.157ZM177.102 32.1523C177.092 33.666 177.063 35.2383 176.907 36.8008H178.684V30.5117H180.735V46.8984H178.684V38.5586H176.672C176.282 40.7461 175.569 42.875 174.27 44.7891L172.61 43.8516C174.729 40.8145 175.139 37.416 175.227 33.9102H173.684V32.1523H177.102ZM184.153 30.082V47.7383H182.063V30.082H184.153ZM196.438 33.5195C196.438 35.1895 197.151 37.1816 198.879 38.3828C200.588 37.2012 201.301 35.2383 201.301 33.5195V31.4102H203.489V33.5195C203.489 35.6484 204.524 37.8359 206.926 38.832L205.754 40.4531C204.084 39.7402 202.991 38.4219 202.395 36.8203C201.77 38.4902 200.647 39.9258 198.86 40.6875C197.063 39.9258 195.93 38.4609 195.325 36.8008C194.709 38.373 193.606 39.7207 191.965 40.4531L190.833 38.832C193.176 37.7969 194.25 35.5312 194.27 33.5195V31.4102H196.438V33.5195ZM206.926 43.6953V45.4727H190.833V43.6953H206.926ZM222.415 35.082V36.8008H210.188V30.7266H212.336V35.082H222.415ZM224.231 38.8516V40.5703H208.098V38.8516H224.231ZM222.532 45.5703V47.3281H210.032V42.1328H212.2V45.5703H222.532ZM236.458 34.3203C236.438 37.4648 238.02 40.668 240.754 41.9766L239.426 43.7148C237.512 42.748 236.135 40.8828 235.383 38.6367C234.612 41.0391 233.167 43.0312 231.145 44.0469L229.817 42.3086C232.649 40.9609 234.27 37.582 234.29 34.3203V31.5078H236.458V34.3203ZM243.977 30.082V36.9961H246.692V38.8516H243.977V47.7383H241.809V30.082H243.977ZM261.36 30.1016V34.3984H263.84V36.2148H261.36V40.5898H259.192V30.1016H261.36ZM261.36 41.3711V47.5234H249.934V41.3711H261.36ZM252.063 43.0703V45.7656H259.231V43.0703H252.063ZM256.165 31V36.1758H250.286V38.0703C253.284 38.0605 255.334 37.9629 257.747 37.5625L257.981 39.2812C255.344 39.7695 253.059 39.8477 249.563 39.8477H248.118V34.5352H254.036V32.7383H248.098V31H256.165ZM280.833 37.1523V38.8711H264.719V37.1523H280.833ZM278.918 34.3008V36.0195H266.77V30.5312H278.762V32.2695H268.938V34.3008H278.918ZM278.801 40.082V44.5156H268.762V45.8633H279.29V47.5625H266.633V42.9531H276.672V41.7227H266.614V40.082H278.801ZM291.868 31.918V33.168C291.868 34.75 291.868 36.957 291.379 40.0039L289.231 39.8281C289.651 37.1523 289.7 35.1797 289.719 33.6562H282.786V31.918H291.868ZM287.415 36.957V42.1719C289.211 42.1035 291.057 41.9766 292.747 41.7617L292.864 43.3828C289.211 43.9688 285.168 44.0469 282.063 44.0273L281.848 42.2891C282.893 42.2793 284.055 42.2695 285.266 42.2305V36.957H287.415ZM295.852 30.082V37.2695H298.411V39.1055H295.852V47.7383H293.665V30.082H295.852ZM120.92 61.8516C120.92 63.7852 122.424 65.6992 125.198 66.4414L124.182 68.1211C122.141 67.5645 120.676 66.373 119.866 64.8398C119.104 66.5781 117.629 67.9453 115.53 68.5703L114.514 66.8906C117.268 66.0508 118.752 63.9805 118.752 61.8516V61.7539H115.061V60.0352H118.752V58.0039H120.94V60.0352H124.612V61.7539H120.92V61.8516ZM129.358 58.082V68.7656H127.19V64.6836H124.084V62.9258H127.19V58.082H129.358ZM123.381 69.1172C127.112 69.1172 129.417 70.3086 129.417 72.3984C129.417 74.5078 127.112 75.7188 123.381 75.7188C119.67 75.7188 117.366 74.5078 117.385 72.3984C117.366 70.3086 119.67 69.1172 123.381 69.1172ZM123.381 70.7773C120.92 70.7969 119.534 71.3438 119.534 72.3984C119.534 73.4531 120.92 74.0391 123.381 74.0391C125.881 74.0391 127.249 73.4531 127.249 72.3984C127.249 71.3438 125.881 70.7969 123.381 70.7773ZM147.991 71.793V73.5508H131.858V71.793H138.772V67.7109H140.92V71.793H147.991ZM140.979 60.4453C140.979 63.1211 143.655 65.7578 147.366 66.3438L146.428 68.1406C143.44 67.5742 140.999 65.8652 139.827 63.5508C138.655 65.8555 136.233 67.5938 133.264 68.1406L132.327 66.3438C136.018 65.7578 138.655 63.1016 138.674 60.4453V59.1562H140.979V60.4453ZM165.256 66.0898V67.7305H149.124V66.0898H165.256ZM163.303 68.7852V72.8086H153.186V74.0391H163.831V75.543H151.018V71.4023H161.155V70.3086H150.999V68.7852H163.303ZM163.264 58.4727V62.457H153.323V63.6094H163.577V65.0938H151.174V61.0508H161.096V59.9766H151.116V58.4727H163.264ZM185.1 58.082V62.5547H187.561V64.3711H185.1V68.7266H182.932V58.082H185.1ZM185.1 69.5664V75.5234H173.694V69.5664H185.1ZM175.842 71.2852V73.7656H182.952V71.2852H175.842ZM181.663 59.7812V61.5195H171.194V59.7812H175.354V57.9648H177.522V59.7812H181.663ZM176.428 62.1641C178.987 62.1641 180.725 63.4531 180.745 65.3281C180.725 67.2227 178.987 68.4922 176.428 68.4922C173.85 68.4922 172.092 67.2227 172.092 65.3281C172.092 63.4531 173.85 62.1641 176.428 62.1641ZM176.428 63.8047C175.081 63.8047 174.202 64.3711 174.202 65.3281C174.202 66.3047 175.081 66.8711 176.428 66.8711C177.776 66.8711 178.674 66.3047 178.674 65.3281C178.674 64.3711 177.776 63.8047 176.428 63.8047ZM192.815 60.1523C192.795 64.3125 192.327 68.3359 189.983 71.8125L188.284 70.8945C190.237 68.1504 190.803 65.2891 190.94 61.9102H188.792V60.1523H192.815ZM196.76 60.1523C196.75 61.666 196.721 63.2383 196.565 64.8008H198.342V58.5117H200.393V74.8984H198.342V66.5586H196.331C195.94 68.7461 195.227 70.875 193.928 72.7891L192.268 71.8516C194.387 68.8145 194.797 65.416 194.885 61.9102H193.342V60.1523H196.76ZM203.811 58.082V75.7383H201.721V58.082H203.811ZM220.354 59.3906V60.4453C220.334 61.6562 220.334 63.3945 219.924 65.6406L217.776 65.4453C218.118 63.6191 218.186 62.2715 218.225 61.1875H211.35V59.3906H220.354ZM215.901 63.4141V66.9297C217.727 66.8613 219.602 66.7246 221.311 66.4805L221.428 68.043C217.756 68.707 213.596 68.7656 210.491 68.7852L210.295 67.0469C211.34 67.0371 212.512 67.0273 213.752 67.0078V63.4141H215.901ZM224.573 58.082V63.5898H226.858V65.4062H224.573V71.3047H222.346V58.082H224.573ZM225.139 73.6289V75.3867H212.932V70.1328H215.12V73.6289H225.139ZM242.483 58.082V75.7578H240.334V58.082H242.483ZM237.053 59.625V66.2461H230.979V69.8008C233.762 69.7812 236.165 69.6445 238.909 69.1758L239.104 70.9531C236.096 71.4805 233.459 71.5781 230.295 71.5781H228.752V64.5273H234.846V61.3828H228.733V59.625H237.053ZM253.674 60.8945V62.6328H245.022V60.8945H248.303V58.5898H250.452V60.8945H253.674ZM249.377 63.5703C251.624 63.5703 253.225 65.2695 253.225 67.6719C253.225 70.1133 251.624 71.832 249.377 71.832C247.151 71.832 245.51 70.1133 245.53 67.6719C245.51 65.2695 247.151 63.5703 249.377 63.5703ZM249.377 65.3672C248.225 65.3672 247.424 66.2852 247.444 67.6719C247.424 69.0977 248.225 69.9961 249.377 69.9766C250.51 69.9961 251.311 69.0977 251.311 67.6719C251.311 66.2852 250.51 65.3672 249.377 65.3672ZM260.237 58.082V75.7383H258.167V67.1055H256.448V74.9375H254.417V58.4531H256.448V65.3477H258.167V58.082H260.237ZM278.479 71.8125V73.5898H262.346V71.8125H266.077V67.3398C264.67 66.5391 263.821 65.2793 263.831 63.707C263.811 60.8945 266.584 59.0391 270.374 59.0391C274.182 59.0391 276.956 60.8945 276.956 63.707C276.956 65.25 276.135 66.4902 274.768 67.3008V71.8125H278.479ZM270.374 60.7578C267.737 60.7578 265.94 61.8711 265.959 63.707C265.94 65.5234 267.737 66.6562 270.374 66.6562C273.01 66.6562 274.827 65.5234 274.827 63.707C274.827 61.8711 273.01 60.7578 270.374 60.7578ZM268.225 71.8125H272.561V68.1211C271.887 68.2773 271.155 68.3555 270.374 68.3555C269.612 68.3555 268.889 68.2773 268.225 68.1406V71.8125Z" fill="black"/>
<circle cx="351.908" cy="196.597" r="67.3921" fill="url(#paint34_linear_3089_8567)"/>
<path d="M380.022 179.367L372.007 242.852C371.918 243.548 371.327 244.068 370.626 244.068H335.276C334.575 244.068 333.984 243.548 333.896 242.852L325.884 179.367C325.778 178.535 326.424 177.8 327.265 177.8H378.646C379.482 177.8 380.132 178.535 380.027 179.367H380.022Z" fill="url(#paint35_linear_3089_8567)"/>
<path d="M382.333 179.843H323.57C323.05 179.843 322.653 179.378 322.733 178.867L323.481 174.027C323.578 173.402 324.114 172.942 324.748 172.942H381.154C381.784 172.942 382.324 173.402 382.421 174.027L383.169 178.867C383.249 179.378 382.852 179.843 382.333 179.843Z" fill="#A6C6FF"/>
<path d="M356.671 179.842L347.739 240.835C347.688 241.177 347.367 241.422 347.021 241.372L342.366 240.688C342.02 240.637 341.78 240.316 341.83 239.97L350.636 179.846H356.675L356.671 179.842Z" fill="#FA9EFA"/>
<path d="M360.933 150.778L357.685 172.942H351.646L355.016 149.912C355.071 149.57 355.392 149.325 355.734 149.376L360.392 150.06C360.734 150.111 360.979 150.432 360.929 150.778H360.933Z" fill="#FA9EFA"/>
<path d="M379.097 193.193C379.608 193.193 380.005 193.641 379.941 194.152L377.12 216.489L376.563 220.907C376.508 221.333 376.149 221.65 375.718 221.65H330.182C329.751 221.65 329.393 221.329 329.338 220.907L328.78 216.489L325.963 194.152C325.9 193.645 326.297 193.193 326.808 193.193H379.101H379.097Z" fill="#78F5BE"/>
<circle cx="41.23" cy="196.597" r="67.3921" fill="url(#paint36_linear_3089_8567)"/>
<circle cx="196.568" cy="196.613" r="67.3921" transform="rotate(-180 196.568 196.613)" fill="#5F8FFC"/>
<path d="M161.602 181.287V190.942H231.314V181.287H161.602Z" fill="url(#paint37_linear_3089_8567)"/>
<path d="M161.602 212.943V222.599H231.314V212.943H161.602Z" fill="url(#paint38_linear_3089_8567)"/>
<path d="M164.821 177.958V178.969C164.821 180.249 165.86 181.288 167.14 181.288H177.351C178.632 181.288 179.67 180.249 179.67 178.969V177.958C179.67 176.677 178.632 175.639 177.351 175.639H167.14C165.86 175.639 164.821 176.677 164.821 177.958Z" fill="white"/>
<path d="M227.998 176.014V183.157C227.998 184.019 227.3 184.72 226.438 184.72H188.835V174.454H226.438C227.3 174.454 227.998 175.151 227.998 176.014Z" fill="url(#paint39_linear_3089_8567)"/>
<path d="M227.998 208.489V215.632C227.998 216.495 227.3 217.195 226.438 217.195H188.835V206.929H226.438C227.3 206.929 227.998 207.626 227.998 208.489Z" fill="url(#paint40_linear_3089_8567)"/>
<path d="M234.63 163.182H228.981C228.438 163.182 227.998 163.622 227.998 164.165V228.242C227.998 228.785 228.438 229.225 228.981 229.225H234.63C235.173 229.225 235.614 228.785 235.614 228.242V164.165C235.614 163.622 235.173 163.182 234.63 163.182Z" fill="url(#paint41_linear_3089_8567)"/>
<path d="M162.62 163.182H156.971C156.428 163.182 155.987 163.622 155.987 164.165V228.242C155.987 228.785 156.428 229.225 156.971 229.225H162.62C163.163 229.225 163.603 228.785 163.603 228.242V164.165C163.603 163.622 163.163 163.182 162.62 163.182Z" fill="#78F5BE"/>
<path d="M164.825 209.614V210.625C164.825 211.906 165.863 212.944 167.144 212.944H177.355C178.636 212.944 179.674 211.906 179.674 210.625V209.614C179.674 208.333 178.636 207.295 177.355 207.295H167.144C165.863 207.295 164.825 208.333 164.825 209.614Z" fill="white"/>
<path d="M222.438 178.775V185.566C222.438 185.87 222.193 186.118 221.886 186.118H208.77C208.466 186.118 208.218 185.873 208.218 185.566V178.775C208.218 178.471 207.972 178.223 207.665 178.223H205.823C205.519 178.223 205.271 178.468 205.271 178.775V228.762C205.271 229.066 205.515 229.315 205.823 229.315H207.665C207.969 229.315 208.218 229.069 208.218 228.762V219.611C208.218 219.307 208.462 219.059 208.77 219.059H221.886C222.19 219.059 222.438 219.304 222.438 219.611V228.762C222.438 229.066 222.683 229.315 222.99 229.315H224.833C225.136 229.315 225.385 229.069 225.385 228.762V178.775C225.385 178.471 225.14 178.223 224.833 178.223H222.99C222.686 178.223 222.438 178.468 222.438 178.775ZM208.77 199.058H221.886C222.19 199.058 222.438 199.303 222.438 199.611V205.563C222.438 205.867 222.193 206.115 221.886 206.115H208.77C208.466 206.115 208.218 205.87 208.218 205.563V199.611C208.218 199.307 208.462 199.058 208.77 199.058ZM222.438 189.61V195.563C222.438 195.866 222.193 196.115 221.886 196.115H208.77C208.466 196.115 208.218 195.87 208.218 195.563V189.61C208.218 189.306 208.462 189.058 208.77 189.058H221.886C222.19 189.058 222.438 189.303 222.438 189.61ZM208.218 215.563V209.611C208.218 209.307 208.462 209.059 208.77 209.059H221.886C222.19 209.059 222.438 209.303 222.438 209.611V215.563C222.438 215.867 222.193 216.115 221.886 216.115H208.77C208.466 216.115 208.218 215.87 208.218 215.563Z" fill="#FA9EFA"/>
<path d="M188.838 174.458V184.723H185.871C185.008 184.723 184.308 184.023 184.308 183.161V176.017C184.308 175.155 185.008 174.458 185.871 174.458H188.838Z" fill="#D5D5D5"/>
<path d="M188.839 206.933V217.199H185.871C185.009 217.199 184.308 216.498 184.308 215.636V208.493C184.308 207.63 185.009 206.933 185.871 206.933H188.839Z" fill="#D5D5D5"/>
<path d="M41.2245 226.884C58.4454 226.884 72.4058 212.924 72.4058 195.703C72.4058 178.482 58.4454 164.522 41.2245 164.522C24.0037 164.522 10.0436 178.482 10.0436 195.703C10.0436 212.924 24.0037 226.884 41.2245 226.884Z" fill="#4D83FD"/>
<path d="M41.2246 214.205C31.0232 214.205 22.7219 205.903 22.7219 195.702C22.7219 185.501 31.0232 177.199 41.2246 177.199C51.4259 177.199 59.7276 185.501 59.7276 195.702C59.7276 205.903 51.4259 214.205 41.2246 214.205Z" fill="url(#paint42_linear_3089_8567)"/>
<path d="M41.2246 177.38C51.3292 177.38 59.5484 185.599 59.5484 195.704C59.5484 205.808 51.3292 214.027 41.2246 214.027C31.12 214.027 22.9012 205.808 22.9012 195.704C22.9012 185.599 31.12 177.38 41.2246 177.38ZM41.2246 177.021C30.9085 177.021 22.5427 185.384 22.5427 195.704C22.5427 206.023 30.9049 214.386 41.2246 214.386C51.5442 214.386 59.9068 206.023 59.9068 195.704C59.9068 185.384 51.5442 177.021 41.2246 177.021Z" fill="#9FC6FF"/>
<path d="M22.4562 177.448C22.4562 170.265 17.8215 164.44 12.1079 164.44C6.39426 164.44 1.75952 170.265 1.75952 177.448C1.75952 182.939 4.46595 187.631 8.29415 189.542C8.92143 189.853 9.30845 190.506 9.26902 191.205L7.37633 225.124C7.31898 226.128 8.11836 226.971 9.122 226.971H15.0903C16.0939 226.971 16.8893 226.128 16.8356 225.124L14.9432 191.205C14.9038 190.506 15.2908 189.853 15.9181 189.542C19.7463 187.635 22.4527 182.939 22.4527 177.448H22.4562Z" fill="url(#paint43_linear_3089_8567)"/>
<path d="M78.8862 187.775H75.1834C74.1475 187.775 73.323 188.646 73.3803 189.682L75.3556 225.06C75.413 226.096 74.5885 226.967 73.5526 226.967H67.7065C66.6706 226.967 65.846 226.096 65.9034 225.06L67.8783 189.682C67.9357 188.646 67.1112 187.775 66.0753 187.775H62.3725C61.376 187.775 60.5659 186.964 60.5659 185.968V166.243C60.5659 165.246 61.376 164.437 62.3725 164.437H63.061C64.0575 164.437 64.8673 165.246 64.8673 166.243V174.985C64.8673 175.982 65.6774 176.792 66.6738 176.792C67.6703 176.792 68.4804 175.982 68.4804 174.985V166.243C68.4804 165.246 69.2905 164.437 70.287 164.437H70.9752C71.9717 164.437 72.7818 165.246 72.7818 166.243V174.985C72.7818 175.982 73.5919 176.792 74.5883 176.792H74.5922C75.5887 176.792 76.3988 175.982 76.3988 174.985V166.243C76.3988 165.246 77.2089 164.437 78.2054 164.437H78.8935C79.89 164.437 80.7001 165.246 80.7001 166.243V185.968C80.7001 186.964 79.89 187.775 78.8935 187.775H78.8862Z" fill="url(#paint44_linear_3089_8567)"/>
<path d="M12.1082 187.73C16.7683 187.73 20.546 182.936 20.546 177.023C20.546 171.11 16.7683 166.316 12.1082 166.316C7.44816 166.316 3.67041 171.11 3.67041 177.023C3.67041 182.936 7.44816 187.73 12.1082 187.73Z" fill="url(#paint45_linear_3089_8567)"/>
<circle cx="114.317" cy="359.979" r="67.3921" transform="rotate(-180 114.317 359.979)" fill="url(#paint46_linear_3089_8567)"/>
<path d="M126.787 317.812H114.851C114.715 317.812 114.605 317.922 114.605 318.058V325.936C114.605 326.072 114.715 326.182 114.851 326.182H126.787C126.922 326.182 127.032 326.072 127.032 325.936V318.058C127.032 317.922 126.922 317.812 126.787 317.812Z" fill="url(#paint47_linear_3089_8567)"/>
<path d="M115.134 317.775C115.134 317.405 114.835 317.105 114.467 317.105C114.099 317.105 113.8 317.405 113.8 317.775V336.068C113.8 336.438 114.099 336.737 114.467 336.737C114.835 336.737 115.134 336.438 115.134 336.068V317.775Z" fill="url(#paint48_linear_3089_8567)"/>
<path d="M102.199 343.508H68.4583C68.0115 343.508 67.6493 343.87 67.6493 344.317V347.587C67.6493 348.033 68.0115 348.396 68.4583 348.396H102.199C102.646 348.396 103.008 348.033 103.008 347.587V344.317C103.008 343.87 102.646 343.508 102.199 343.508Z" fill="url(#paint49_linear_3089_8567)"/>
<path d="M102.986 348.399H70.093V391.593H102.986V348.399Z" fill="url(#paint50_linear_3089_8567)"/>
<path d="M160.501 343.508H126.761C126.314 343.508 125.952 343.87 125.952 344.317V347.587C125.952 348.033 126.314 348.396 126.761 348.396H160.501C160.948 348.396 161.31 348.033 161.31 347.587V344.317C161.31 343.87 160.948 343.508 160.501 343.508Z" fill="url(#paint51_linear_3089_8567)"/>
<path d="M158.871 348.399H125.977V391.593H158.871V348.399Z" fill="url(#paint52_linear_3089_8567)"/>
<path d="M130.916 334.822H98.0228V391.592H130.916V334.822Z" fill="#A5C5FF"/>
<path d="M132.546 329.937H96.3872C95.9404 329.937 95.5782 330.299 95.5782 330.746V335.223C95.5782 335.669 95.9404 336.031 96.3872 336.031H132.546C132.993 336.031 133.355 335.669 133.355 335.223V330.746C133.355 330.299 132.993 329.937 132.546 329.937Z" fill="#4D82FC"/>
<path d="M126.757 391.593H102.178V388.222C102.178 387.773 102.543 387.413 102.987 387.413H125.944C126.393 387.413 126.753 387.777 126.753 388.222V391.593H126.757Z" fill="#4D82FC"/>
<path d="M123.622 370.034H105.316V387.408H123.622V370.034Z" fill="#D7E7FF"/>
<path d="M114.469 362.55C120.595 362.55 125.562 357.584 125.562 351.457C125.562 345.331 120.595 340.364 114.469 340.364C108.342 340.364 103.376 345.331 103.376 351.457C103.376 357.584 108.342 362.55 114.469 362.55Z" fill="url(#paint53_linear_3089_8567)"/>
<path d="M114.469 361.661C108.84 361.661 104.261 357.082 104.261 351.453C104.261 345.824 108.84 341.246 114.469 341.246C120.098 341.246 124.677 345.824 124.677 351.453C124.677 357.082 120.098 361.661 114.469 361.661Z" fill="#9CFFD0"/>
<path d="M115.325 344.363C115.325 343.891 114.942 343.508 114.469 343.508C113.997 343.508 113.614 343.891 113.614 344.363V351.818C113.614 352.291 113.997 352.674 114.469 352.674C114.942 352.674 115.325 352.291 115.325 351.818V344.363Z" fill="#4D82FC"/>
<path d="M114.733 351.032C114.282 350.893 113.803 351.146 113.663 351.597C113.524 352.049 113.777 352.528 114.229 352.667L119.583 354.32C120.035 354.459 120.514 354.206 120.653 353.754C120.792 353.303 120.539 352.824 120.088 352.685L114.733 351.032Z" fill="#4D82FC"/>
<path d="M123.944 369.144H104.995C104.681 369.144 104.427 369.398 104.427 369.712V387.404H105.316V370.029H114.342V387.404H115.249V370.029H123.623V387.404H124.512V369.712C124.512 369.398 124.262 369.144 123.949 369.144H123.944Z" fill="url(#paint54_linear_3089_8567)"/>
<path d="M83.1683 355.754H76.7556C76.3977 355.754 76.1076 356.045 76.1076 356.402V362.815C76.1076 363.173 76.3977 363.463 76.7556 363.463H83.1683C83.5262 363.463 83.8163 363.173 83.8163 362.815V356.402C83.8163 356.045 83.5262 355.754 83.1683 355.754Z" fill="#D7E7FF"/>
<path d="M92.385 355.754H85.9723C85.6144 355.754 85.3243 356.045 85.3243 356.402V362.815C85.3243 363.173 85.6144 363.463 85.9723 363.463H92.385C92.7429 363.463 93.033 363.173 93.033 362.815V356.402C93.033 356.045 92.7429 355.754 92.385 355.754Z" fill="#D7E7FF"/>
<path d="M83.1683 370.818H76.7556C76.3977 370.818 76.1076 371.108 76.1076 371.466V377.879C76.1076 378.236 76.3977 378.527 76.7556 378.527H83.1683C83.5262 378.527 83.8163 378.236 83.8163 377.879V371.466C83.8163 371.108 83.5262 370.818 83.1683 370.818Z" fill="#D7E7FF"/>
<path d="M92.385 370.818H85.9723C85.6144 370.818 85.3243 371.108 85.3243 371.466V377.879C85.3243 378.236 85.6144 378.527 85.9723 378.527H92.385C92.7429 378.527 93.033 378.236 93.033 377.879V371.466C93.033 371.108 92.7429 370.818 92.385 370.818Z" fill="#D7E7FF"/>
<path d="M143 355.754H136.587C136.229 355.754 135.939 356.045 135.939 356.402V362.815C135.939 363.173 136.229 363.463 136.587 363.463H143C143.358 363.463 143.648 363.173 143.648 362.815V356.402C143.648 356.045 143.358 355.754 143 355.754Z" fill="#D7E7FF"/>
<path d="M152.22 355.754H145.808C145.45 355.754 145.16 356.045 145.16 356.402V362.815C145.16 363.173 145.45 363.463 145.808 363.463H152.22C152.578 363.463 152.868 363.173 152.868 362.815V356.402C152.868 356.045 152.578 355.754 152.22 355.754Z" fill="#D7E7FF"/>
<path d="M143 370.818H136.587C136.229 370.818 135.939 371.108 135.939 371.466V377.879C135.939 378.236 136.229 378.527 136.587 378.527H143C143.358 378.527 143.648 378.236 143.648 377.879V371.466C143.648 371.108 143.358 370.818 143 370.818Z" fill="#D7E7FF"/>
<path d="M152.22 370.818H145.808C145.45 370.818 145.16 371.108 145.16 371.466V377.879C145.16 378.236 145.45 378.527 145.808 378.527H152.22C152.578 378.527 152.868 378.236 152.868 377.879V371.466C152.868 371.108 152.578 370.818 152.22 370.818Z" fill="#D7E7FF"/>
<path d="M163.339 391.054H65.2942C65.0158 391.054 64.7902 391.279 64.7902 391.558V391.621C64.7902 391.9 65.0158 392.125 65.2942 392.125H163.339C163.617 392.125 163.843 391.9 163.843 391.621V391.558C163.843 391.279 163.617 391.054 163.339 391.054Z" fill="#4D82FC"/>
<circle cx="278.822" cy="359.979" r="67.3921" transform="rotate(-180 278.822 359.979)" fill="#BACFFF"/>
<path d="M282.475 329.299C282.138 330.566 281.961 331.906 281.961 333.293C281.961 334.681 282.142 336.021 282.475 337.288C282.337 337.305 282.198 337.314 282.056 337.314C280.024 337.314 278.377 335.515 278.377 333.289C278.377 331.063 280.024 329.265 282.056 329.265C282.198 329.265 282.337 329.273 282.475 329.295V329.299Z" fill="url(#paint55_linear_3089_8567)"/>
<path d="M305.74 329.185C306.077 330.452 306.254 331.792 306.254 333.18C306.254 334.567 306.072 335.907 305.74 337.174C305.878 337.191 306.016 337.2 306.159 337.2C308.191 337.2 309.838 335.402 309.838 333.175C309.838 330.949 308.191 329.151 306.159 329.151C306.016 329.151 305.878 329.16 305.74 329.181V329.185Z" fill="url(#paint56_linear_3089_8567)"/>
<path d="M316.754 360.431V374.355H271.486V360.431C271.486 351.488 278.321 344.139 287.053 343.326L293.39 356.528C293.684 357.142 294.557 357.142 294.851 356.528L301.188 343.326C309.92 344.139 316.754 351.488 316.754 360.431Z" fill="url(#paint57_linear_3089_8567)"/>
<path d="M319.145 375.292H238.495C237.843 375.292 237.315 375.82 237.315 376.472V394.666C237.315 395.318 237.843 395.846 238.495 395.846H319.145C319.797 395.846 320.325 395.318 320.325 394.666V376.472C320.325 375.82 319.797 375.292 319.145 375.292Z" fill="url(#paint58_linear_3089_8567)"/>
<path d="M321.195 370.328H236.451C235.799 370.328 235.271 370.856 235.271 371.508V376.557C235.271 377.209 235.799 377.737 236.451 377.737H321.195C321.846 377.737 322.375 377.209 322.375 376.557V371.508C322.375 370.856 321.846 370.328 321.195 370.328Z" fill="#EFF5FF"/>
<path d="M276.372 333.166H237.281C236.428 333.166 235.737 333.856 235.737 334.709V360.226C235.737 361.078 236.428 361.769 237.281 361.769H276.372C277.224 361.769 277.915 361.078 277.915 360.226V334.709C277.915 333.856 277.224 333.166 276.372 333.166Z" fill="url(#paint59_linear_3089_8567)"/>
<path opacity="0.21" d="M276.621 359.729V335.206C276.621 334.795 276.289 334.462 275.878 334.462H237.781C237.371 334.462 237.038 334.795 237.038 335.206V359.729C237.038 360.14 237.371 360.473 237.781 360.473H275.878C276.289 360.473 276.621 360.14 276.621 359.729Z" fill="url(#paint60_linear_3089_8567)"/>
<path d="M239.506 370.33H274.149V367.204C274.149 366.573 273.639 366.063 273.008 366.063H240.648C240.016 366.063 239.506 366.573 239.506 367.204V370.33Z" fill="url(#paint61_linear_3089_8567)"/>
<path d="M256.828 347.842C258.432 347.842 259.737 349.147 259.737 350.751V366.062H253.919V350.751C253.919 349.147 255.224 347.842 256.828 347.842Z" fill="url(#paint62_linear_3089_8567)"/>
<path opacity="0.74" d="M254.351 365.629V350.75C254.351 349.384 255.462 348.273 256.828 348.273C258.194 348.273 259.305 349.384 259.305 350.75V365.629H254.351Z" fill="url(#paint63_linear_3089_8567)"/>
<path d="M301.188 343.325L294.83 356.575C294.544 357.167 293.697 357.167 293.412 356.575L287.053 343.325C287.585 343.273 288.125 343.248 288.67 343.248H299.572C300.116 343.248 300.657 343.273 301.188 343.325Z" fill="url(#paint64_linear_3089_8567)"/>
<path d="M307.457 332.084C307.457 339.446 301.487 345.42 294.121 345.42C286.755 345.42 280.807 339.468 280.785 332.123C282.06 332.529 283.413 332.746 284.822 332.746C289.452 332.746 293.533 330.385 295.923 326.802C298.366 329.629 301.98 331.418 306.013 331.418C306.493 331.418 306.968 331.393 307.435 331.341C307.448 331.587 307.457 331.833 307.457 332.084Z" fill="#FDE0FF"/>
<path d="M307.435 331.343C306.968 331.395 306.493 331.421 306.013 331.421C301.98 331.421 298.366 329.631 295.923 326.804C293.533 330.387 289.452 332.748 284.822 332.748C283.413 332.748 282.06 332.531 280.785 332.125V332.086C280.785 325.2 286.003 319.533 292.699 318.824C293.165 318.772 293.641 318.746 294.121 318.746C295.53 318.746 296.887 318.967 298.158 319.369C303.324 321.011 307.128 325.71 307.435 331.343Z" fill="#4D82FC"/>
<path d="M299.719 370.328H318.839C320.2 370.328 321.307 369.225 321.307 367.859C321.307 366.498 320.205 365.391 318.839 365.391H299.719C299.451 365.391 299.23 365.607 299.23 365.88V369.839C299.23 370.107 299.447 370.328 299.719 370.328Z" fill="url(#paint65_linear_3089_8567)"/>
<path d="M320.45 365.392H301.33C299.969 365.392 298.862 364.289 298.862 362.923C298.862 361.562 299.964 360.455 301.33 360.455H320.45C320.718 360.455 320.939 360.671 320.939 360.944V364.903C320.939 365.171 320.723 365.392 320.45 365.392Z" fill="#F99DF9"/>
<defs>
<linearGradient id="paint0_linear_3089_8567" x1="-2.9939" y1="468.857" x2="95.4729" y2="582.241" gradientUnits="userSpaceOnUse">
<stop stop-color="#D7E7FF"/>
<stop offset="1" stop-color="#A5C5FF"/>
</linearGradient>
<linearGradient id="paint1_linear_3089_8567" x1="83.6516" y1="527.53" x2="32.8003" y2="549.196" gradientUnits="userSpaceOnUse">
<stop offset="0.21" stop-color="#78F5BE"/>
<stop offset="0.62" stop-color="#78F5BE"/>
<stop offset="0.65" stop-color="#78F5BE"/>
<stop offset="0.69" stop-color="#73F3BA"/>
<stop offset="0.75" stop-color="#64F0B0"/>
<stop offset="0.81" stop-color="#4CEA9E"/>
<stop offset="0.88" stop-color="#2BE287"/>
<stop offset="0.9" stop-color="#20E07F"/>
</linearGradient>
<linearGradient id="paint2_linear_3089_8567" x1="56.5192" y1="544.255" x2="56.314" y2="566.472" gradientUnits="userSpaceOnUse">
<stop stop-color="#5086FD"/>
<stop offset="0.4" stop-color="#5287FD"/>
<stop offset="0.58" stop-color="#598DFD"/>
<stop offset="0.71" stop-color="#6696FD"/>
<stop offset="0.83" stop-color="#78A3FD"/>
<stop offset="0.93" stop-color="#8FB5FE"/>
<stop offset="1" stop-color="#A6C6FF"/>
</linearGradient>
<linearGradient id="paint3_linear_3089_8567" x1="55.4281" y1="506.622" x2="55.162" y2="535.438" gradientUnits="userSpaceOnUse">
<stop stop-color="#5086FD"/>
<stop offset="0.4" stop-color="#5287FD"/>
<stop offset="0.58" stop-color="#598DFD"/>
<stop offset="0.71" stop-color="#6696FD"/>
<stop offset="0.83" stop-color="#78A3FD"/>
<stop offset="0.93" stop-color="#8FB5FE"/>
<stop offset="1" stop-color="#A6C6FF"/>
</linearGradient>
<linearGradient id="paint4_linear_3089_8567" x1="21.7162" y1="489.587" x2="23.172" y2="508.787" gradientUnits="userSpaceOnUse">
<stop offset="0.13" stop-color="#FFF7A9"/>
<stop offset="0.22" stop-color="#FFF5A3"/>
<stop offset="0.35" stop-color="#FFF293"/>
<stop offset="0.48" stop-color="#FFEC7A"/>
<stop offset="0.63" stop-color="#FFE555"/>
<stop offset="0.78" stop-color="#FFDB27"/>
</linearGradient>
<linearGradient id="paint5_linear_3089_8567" x1="35.5671" y1="510.086" x2="40.2044" y2="491.012" gradientUnits="userSpaceOnUse">
<stop offset="0.24" stop-color="#FFE969"/>
<stop offset="0.54" stop-color="#FFED7F"/>
<stop offset="1" stop-color="#FFF7A9"/>
</linearGradient>
<linearGradient id="paint6_linear_3089_8567" x1="10.8181" y1="494.014" x2="13.8476" y2="507.77" gradientUnits="userSpaceOnUse">
<stop offset="0.16" stop-color="#FFF7A9"/>
<stop offset="0.27" stop-color="#FFF5A1"/>
<stop offset="0.44" stop-color="#FFF18C"/>
<stop offset="0.51" stop-color="#FFF083"/>
</linearGradient>
<linearGradient id="paint7_linear_3089_8567" x1="56.7701" y1="503.972" x2="45.9217" y2="515.029" gradientUnits="userSpaceOnUse">
<stop stop-color="#FFF7A9"/>
<stop offset="0.18" stop-color="#FFF6A4"/>
<stop offset="0.37" stop-color="#FFF398"/>
<stop offset="0.56" stop-color="#FFF083"/>
</linearGradient>
<linearGradient id="paint8_linear_3089_8567" x1="27.9574" y1="498.744" x2="21.8947" y2="519.327" gradientUnits="userSpaceOnUse">
<stop stop-color="#FFF7A9"/>
<stop offset="0.17" stop-color="#FFF5A2"/>
<stop offset="0.41" stop-color="#FFF191"/>
<stop offset="0.68" stop-color="#FFEB75"/>
<stop offset="0.78" stop-color="#FFE969"/>
</linearGradient>
<linearGradient id="paint9_linear_3089_8567" x1="11.3579" y1="513.536" x2="10.8675" y2="566.421" gradientUnits="userSpaceOnUse">
<stop offset="0.15" stop-color="#FB64FF"/>
<stop offset="1" stop-color="#FA9EFA"/>
</linearGradient>
<linearGradient id="paint10_linear_3089_8567" x1="31.3633" y1="513.536" x2="30.8729" y2="566.448" gradientUnits="userSpaceOnUse">
<stop offset="0.15" stop-color="#FB64FF"/>
<stop offset="1" stop-color="#FA9EFA"/>
</linearGradient>
<linearGradient id="paint11_linear_3089_8567" x1="51.2471" y1="513.536" x2="50.7567" y2="566.448" gradientUnits="userSpaceOnUse">
<stop offset="0.15" stop-color="#FB64FF"/>
<stop offset="1" stop-color="#FA9EFA"/>
</linearGradient>
<linearGradient id="paint12_linear_3089_8567" x1="31.1158" y1="547.862" x2="31.1158" y2="526.591" gradientUnits="userSpaceOnUse">
<stop stop-color="#7DACFF"/>
<stop offset="0.14" stop-color="#75A5FE"/>
<stop offset="1" stop-color="#4D83FD"/>
</linearGradient>
<linearGradient id="paint13_linear_3089_8567" x1="153.337" y1="472.398" x2="250.976" y2="582.241" gradientUnits="userSpaceOnUse">
<stop stop-color="#EDF2FF"/>
<stop offset="1" stop-color="white"/>
</linearGradient>
<linearGradient id="paint14_linear_3089_8567" x1="145.186" y1="524.865" x2="197.088" y2="524.865" gradientUnits="userSpaceOnUse">
<stop offset="0.15" stop-color="#FA64FF"/>
<stop offset="1" stop-color="#F99DF9"/>
</linearGradient>
<linearGradient id="paint15_linear_3089_8567" x1="192.864" y1="528.426" x2="158.033" y2="528.357" gradientUnits="userSpaceOnUse">
<stop stop-color="#FA64FF"/>
<stop offset="0.41" stop-color="#F978FC"/>
<stop offset="1" stop-color="#F99DF9"/>
</linearGradient>
<linearGradient id="paint16_linear_3089_8567" x1="171.135" y1="493.65" x2="171.135" y2="506.293" gradientUnits="userSpaceOnUse">
<stop offset="0.09" stop-color="#78F4BD"/>
<stop offset="0.27" stop-color="#67F0B1"/>
<stop offset="0.62" stop-color="#3DE693"/>
<stop offset="0.84" stop-color="#20DF7F"/>
</linearGradient>
<linearGradient id="paint17_linear_3089_8567" x1="248.958" y1="534.258" x2="244.409" y2="534.267" gradientUnits="userSpaceOnUse">
<stop stop-color="#78F4BD"/>
<stop offset="0.03" stop-color="#74F3BA"/>
<stop offset="0.47" stop-color="#46E89A"/>
<stop offset="0.81" stop-color="#2AE186"/>
<stop offset="1" stop-color="#20DF7F"/>
</linearGradient>
<linearGradient id="paint18_linear_3089_8567" x1="195.91" y1="534.361" x2="235.996" y2="534.284" gradientUnits="userSpaceOnUse">
<stop offset="0.1" stop-color="#5085FC"/>
<stop offset="0.35" stop-color="#6A99FC"/>
<stop offset="0.78" stop-color="#94B8FE"/>
<stop offset="1" stop-color="#A5C5FF"/>
</linearGradient>
<linearGradient id="paint19_linear_3089_8567" x1="184.531" y1="534.382" x2="189.076" y2="534.373" gradientUnits="userSpaceOnUse">
<stop stop-color="#78F4BD"/>
<stop offset="0.03" stop-color="#74F3BA"/>
<stop offset="0.47" stop-color="#46E89A"/>
<stop offset="0.81" stop-color="#2AE186"/>
<stop offset="1" stop-color="#20DF7F"/>
</linearGradient>
<linearGradient id="paint20_linear_3089_8567" x1="307.931" y1="468.418" x2="406.398" y2="581.803" gradientUnits="userSpaceOnUse">
<stop stop-color="#D7E7FF"/>
<stop offset="1" stop-color="#A5C5FF"/>
</linearGradient>
<linearGradient id="paint21_linear_3089_8567" x1="334.058" y1="547.933" x2="315.807" y2="528.873" gradientUnits="userSpaceOnUse">
<stop stop-color="#78F4BD"/>
<stop offset="0.27" stop-color="#56ECA5"/>
<stop offset="0.56" stop-color="#38E490"/>
<stop offset="0.82" stop-color="#26E083"/>
<stop offset="1" stop-color="#20DF7F"/>
</linearGradient>
<linearGradient id="paint22_linear_3089_8567" x1="362.636" y1="524.981" x2="377.493" y2="524.981" gradientUnits="userSpaceOnUse">
<stop stop-color="#4D82FC"/>
<stop offset="1" stop-color="#7DABFF"/>
</linearGradient>
<linearGradient id="paint23_linear_3089_8567" x1="333.96" y1="493.288" x2="364.448" y2="493.288" gradientUnits="userSpaceOnUse">
<stop stop-color="#FFF6A8"/>
<stop offset="0.1" stop-color="#FFF29B"/>
<stop offset="0.51" stop-color="#FFE568"/>
<stop offset="0.82" stop-color="#FFDD49"/>
<stop offset="0.99" stop-color="#FFDA3E"/>
</linearGradient>
<linearGradient id="paint24_linear_3089_8567" x1="333.96" y1="500.779" x2="359.67" y2="500.779" gradientUnits="userSpaceOnUse">
<stop stop-color="#7DABFF"/>
<stop offset="0.14" stop-color="#75A4FE"/>
<stop offset="1" stop-color="#4D82FC"/>
</linearGradient>
<linearGradient id="paint25_linear_3089_8567" x1="299.171" y1="508.445" x2="359.67" y2="508.445" gradientUnits="userSpaceOnUse">
<stop stop-color="#FFF6A8"/>
<stop offset="0.1" stop-color="#FFF29B"/>
<stop offset="0.51" stop-color="#FFE568"/>
<stop offset="0.82" stop-color="#FFDD49"/>
<stop offset="0.99" stop-color="#FFDA3E"/>
</linearGradient>
<linearGradient id="paint26_linear_3089_8567" x1="299.171" y1="516.112" x2="359.67" y2="516.112" gradientUnits="userSpaceOnUse">
<stop stop-color="#FFF6A8"/>
<stop offset="0.1" stop-color="#FFF29B"/>
<stop offset="0.51" stop-color="#FFE568"/>
<stop offset="0.82" stop-color="#FFDD49"/>
<stop offset="0.99" stop-color="#FFDA3E"/>
</linearGradient>
<linearGradient id="paint27_linear_3089_8567" x1="299.171" y1="523.778" x2="299.542" y2="523.778" gradientUnits="userSpaceOnUse">
<stop stop-color="#7DABFF"/>
<stop offset="0.14" stop-color="#75A4FE"/>
<stop offset="1" stop-color="#4D82FC"/>
</linearGradient>
<linearGradient id="paint28_linear_3089_8567" x1="299.171" y1="531.444" x2="299.542" y2="531.444" gradientUnits="userSpaceOnUse">
<stop stop-color="#7DABFF"/>
<stop offset="0.14" stop-color="#75A4FE"/>
<stop offset="1" stop-color="#4D82FC"/>
</linearGradient>
<linearGradient id="paint29_linear_3089_8567" x1="299.171" y1="539.107" x2="299.542" y2="539.107" gradientUnits="userSpaceOnUse">
<stop stop-color="#7DABFF"/>
<stop offset="0.14" stop-color="#75A4FE"/>
<stop offset="1" stop-color="#4D82FC"/>
</linearGradient>
<linearGradient id="paint30_linear_3089_8567" x1="360.798" y1="484.608" x2="372.177" y2="484.608" gradientUnits="userSpaceOnUse">
<stop stop-color="#4D82FC"/>
<stop offset="1" stop-color="#7DABFF"/>
</linearGradient>
<linearGradient id="paint31_linear_3089_8567" x1="371.887" y1="552.062" x2="384.183" y2="539.22" gradientUnits="userSpaceOnUse">
<stop stop-color="#78F4BD"/>
<stop offset="0.19" stop-color="#6BF1B4"/>
<stop offset="0.55" stop-color="#4AE99C"/>
<stop offset="0.93" stop-color="#20DF7F"/>
</linearGradient>
<linearGradient id="paint32_linear_3089_8567" x1="391.628" y1="563.784" x2="313.197" y2="563.784" gradientUnits="userSpaceOnUse">
<stop stop-color="#78F4BD"/>
<stop offset="0.46" stop-color="#76F3BB"/>
<stop offset="0.62" stop-color="#6FF1B6"/>
<stop offset="0.74" stop-color="#63EFAE"/>
<stop offset="0.83" stop-color="#52EBA2"/>
<stop offset="0.91" stop-color="#3CE593"/>
<stop offset="0.98" stop-color="#22DF80"/>
<stop offset="0.99" stop-color="#20DF7F"/>
</linearGradient>
<linearGradient id="paint33_linear_3089_8567" x1="196.016" y1="401.96" x2="196.764" y2="568.927" gradientUnits="userSpaceOnUse">
<stop stop-color="white" stop-opacity="0"/>
<stop offset="1" stop-color="white"/>
</linearGradient>
<linearGradient id="paint34_linear_3089_8567" x1="307.865" y1="144.594" x2="405.504" y2="254.438" gradientUnits="userSpaceOnUse">
<stop stop-color="#EDF2FF"/>
<stop offset="1" stop-color="white"/>
</linearGradient>
<linearGradient id="paint35_linear_3089_8567" x1="352.964" y1="177.8" x2="352.351" y2="244.064" gradientUnits="userSpaceOnUse">
<stop stop-color="#5086FD"/>
<stop offset="0.4" stop-color="#5287FD"/>
<stop offset="0.58" stop-color="#598DFD"/>
<stop offset="0.71" stop-color="#6696FD"/>
<stop offset="0.83" stop-color="#78A3FD"/>
<stop offset="0.93" stop-color="#8FB5FE"/>
<stop offset="1" stop-color="#A6C6FF"/>
</linearGradient>
<linearGradient id="paint36_linear_3089_8567" x1="-3.6416" y1="141.053" x2="94.8252" y2="254.438" gradientUnits="userSpaceOnUse">
<stop stop-color="#D7E7FF"/>
<stop offset="1" stop-color="#A5C5FF"/>
</linearGradient>
<linearGradient id="paint37_linear_3089_8567" x1="227.98" y1="186.114" x2="163.834" y2="186.114" gradientUnits="userSpaceOnUse">
<stop stop-color="#78F5BE"/>
<stop offset="0.46" stop-color="#76F4BC"/>
<stop offset="0.62" stop-color="#6FF2B7"/>
<stop offset="0.74" stop-color="#63F0AF"/>
<stop offset="0.83" stop-color="#52ECA3"/>
<stop offset="0.91" stop-color="#3CE693"/>
<stop offset="0.98" stop-color="#22E080"/>
<stop offset="0.99" stop-color="#20E07F"/>
</linearGradient>
<linearGradient id="paint38_linear_3089_8567" x1="227.98" y1="217.771" x2="163.834" y2="217.771" gradientUnits="userSpaceOnUse">
<stop stop-color="#78F5BE"/>
<stop offset="0.46" stop-color="#76F4BC"/>
<stop offset="0.62" stop-color="#6FF2B7"/>
<stop offset="0.74" stop-color="#63F0AF"/>
<stop offset="0.83" stop-color="#52ECA3"/>
<stop offset="0.91" stop-color="#3CE693"/>
<stop offset="0.98" stop-color="#22E080"/>
<stop offset="0.99" stop-color="#20E07F"/>
</linearGradient>
<linearGradient id="paint39_linear_3089_8567" x1="208.418" y1="184.72" x2="208.418" y2="174.458" gradientUnits="userSpaceOnUse">
<stop stop-color="white"/>
<stop offset="0.389656" stop-color="#F3F3F3"/>
<stop offset="1" stop-color="#E5E5E5"/>
</linearGradient>
<linearGradient id="paint40_linear_3089_8567" x1="208.418" y1="217.195" x2="208.418" y2="206.933" gradientUnits="userSpaceOnUse">
<stop stop-color="white"/>
<stop offset="0.389656" stop-color="#F3F3F3"/>
<stop offset="1" stop-color="#E5E5E5"/>
</linearGradient>
<linearGradient id="paint41_linear_3089_8567" x1="235.651" y1="196.202" x2="226.921" y2="196.202" gradientUnits="userSpaceOnUse">
<stop stop-color="#78F5BE"/>
<stop offset="0.41" stop-color="#75F4BC"/>
<stop offset="0.59" stop-color="#6EF2B7"/>
<stop offset="0.72" stop-color="#62EFAE"/>
<stop offset="0.83" stop-color="#50EBA1"/>
<stop offset="0.92" stop-color="#39E691"/>
<stop offset="1" stop-color="#20E07F"/>
</linearGradient>
<linearGradient id="paint42_linear_3089_8567" x1="41.2247" y1="214.205" x2="41.2247" y2="177.199" gradientUnits="userSpaceOnUse">
<stop stop-color="#7DACFF"/>
<stop offset="0.14" stop-color="#75A5FE"/>
<stop offset="1" stop-color="#4D83FD"/>
</linearGradient>
<linearGradient id="paint43_linear_3089_8567" x1="12.1079" y1="226.967" x2="12.1079" y2="164.436" gradientUnits="userSpaceOnUse">
<stop stop-color="#FB64FF"/>
<stop offset="1" stop-color="#FA9EFA"/>
</linearGradient>
<linearGradient id="paint44_linear_3089_8567" x1="70.6276" y1="225.719" x2="70.6276" y2="165.648" gradientUnits="userSpaceOnUse">
<stop stop-color="#FB64FF"/>
<stop offset="1" stop-color="#FA9EFA"/>
</linearGradient>
<linearGradient id="paint45_linear_3089_8567" x1="3.70984" y1="169.654" x2="19.6858" y2="183.672" gradientUnits="userSpaceOnUse">
<stop stop-color="#FB64FF"/>
<stop offset="0.24" stop-color="#FA6BFE"/>
<stop offset="0.61" stop-color="#FA80FC"/>
<stop offset="1" stop-color="#FA9EFA"/>
</linearGradient>
<linearGradient id="paint46_linear_3089_8567" x1="70.2729" y1="307.976" x2="167.912" y2="417.819" gradientUnits="userSpaceOnUse">
<stop stop-color="#EDF2FF"/>
<stop offset="1" stop-color="white"/>
</linearGradient>
<linearGradient id="paint47_linear_3089_8567" x1="127.223" y1="321.997" x2="114.8" y2="321.997" gradientUnits="userSpaceOnUse">
<stop stop-color="#FA64FF"/>
<stop offset="1" stop-color="#F99DF9"/>
</linearGradient>
<linearGradient id="paint48_linear_3089_8567" x1="114.469" y1="317.105" x2="114.469" y2="336.737" gradientUnits="userSpaceOnUse">
<stop stop-color="#4D82FC"/>
<stop offset="0.23" stop-color="#5B8EFC"/>
<stop offset="0.62" stop-color="#7DABFF"/>
</linearGradient>
<linearGradient id="paint49_linear_3089_8567" x1="103.012" y1="345.952" x2="67.6493" y2="345.952" gradientUnits="userSpaceOnUse">
<stop offset="0.14" stop-color="#2B6FF9"/>
<stop offset="0.65" stop-color="#427CFB"/>
<stop offset="1" stop-color="#4D82FC"/>
</linearGradient>
<linearGradient id="paint50_linear_3089_8567" x1="108.272" y1="369.996" x2="60.1903" y2="369.996" gradientUnits="userSpaceOnUse">
<stop offset="0.02" stop-color="#5085FC"/>
<stop offset="0.05" stop-color="#598BFC"/>
<stop offset="0.17" stop-color="#74A0FD"/>
<stop offset="0.3" stop-color="#8AB0FE"/>
<stop offset="0.45" stop-color="#99BCFE"/>
<stop offset="0.61" stop-color="#A2C2FE"/>
<stop offset="0.86" stop-color="#A5C5FF"/>
</linearGradient>
<linearGradient id="paint51_linear_3089_8567" x1="125.952" y1="292.393" x2="161.31" y2="292.393" gradientUnits="userSpaceOnUse">
<stop offset="0.14" stop-color="#2B6FF9"/>
<stop offset="0.65" stop-color="#427CFB"/>
<stop offset="1" stop-color="#4D82FC"/>
</linearGradient>
<linearGradient id="paint52_linear_3089_8567" x1="123.411" y1="292.396" x2="156.3" y2="292.396" gradientUnits="userSpaceOnUse">
<stop offset="0.02" stop-color="#5085FC"/>
<stop offset="0.05" stop-color="#598BFC"/>
<stop offset="0.17" stop-color="#74A0FD"/>
<stop offset="0.3" stop-color="#8AB0FE"/>
<stop offset="0.45" stop-color="#99BCFE"/>
<stop offset="0.61" stop-color="#A2C2FE"/>
<stop offset="0.86" stop-color="#A5C5FF"/>
</linearGradient>
<linearGradient id="paint53_linear_3089_8567" x1="123.414" y1="361.61" x2="105.883" y2="341.72" gradientUnits="userSpaceOnUse">
<stop stop-color="#78F4BD"/>
<stop offset="0.03" stop-color="#74F3BA"/>
<stop offset="0.47" stop-color="#46E89A"/>
<stop offset="0.81" stop-color="#2AE186"/>
<stop offset="1" stop-color="#20DF7F"/>
</linearGradient>
<linearGradient id="paint54_linear_3089_8567" x1="103.233" y1="372.74" x2="125.457" y2="383.909" gradientUnits="userSpaceOnUse">
<stop stop-color="#4D82FC"/>
<stop offset="0.23" stop-color="#5B8EFC"/>
<stop offset="0.62" stop-color="#7DABFF"/>
</linearGradient>
<linearGradient id="paint55_linear_3089_8567" x1="278.377" y1="333.293" x2="282.406" y2="333.293" gradientUnits="userSpaceOnUse">
<stop stop-color="#FDE0FF"/>
<stop offset="0.28" stop-color="#FBD3FF"/>
<stop offset="0.77" stop-color="#F8B3FF"/>
<stop offset="1" stop-color="#F7A3FF"/>
</linearGradient>
<linearGradient id="paint56_linear_3089_8567" x1="309.842" y1="333.18" x2="305.74" y2="333.18" gradientUnits="userSpaceOnUse">
<stop stop-color="#FDE0FF"/>
<stop offset="0.28" stop-color="#FBD3FF"/>
<stop offset="0.77" stop-color="#F8B3FF"/>
<stop offset="1" stop-color="#F7A3FF"/>
</linearGradient>
<linearGradient id="paint57_linear_3089_8567" x1="294.12" y1="382.793" x2="294.12" y2="337.525" gradientUnits="userSpaceOnUse">
<stop offset="0.12" stop-color="#7DABFF"/>
<stop offset="0.42" stop-color="#6E9FFE"/>
<stop offset="0.95" stop-color="#4D82FC"/>
</linearGradient>
<linearGradient id="paint58_linear_3089_8567" x1="278.822" y1="375.434" x2="278.822" y2="400.096" gradientUnits="userSpaceOnUse">
<stop offset="0.09" stop-color="#5085FC"/>
<stop offset="0.26" stop-color="#588BFC"/>
<stop offset="0.53" stop-color="#6E9BFD"/>
<stop offset="0.85" stop-color="#92B6FE"/>
<stop offset="1" stop-color="#A5C5FF"/>
</linearGradient>
<linearGradient id="paint59_linear_3089_8567" x1="256.828" y1="333.062" x2="256.828" y2="361.337" gradientUnits="userSpaceOnUse">
<stop stop-color="#78F4BD"/>
<stop offset="0.46" stop-color="#51EAA2"/>
<stop offset="1" stop-color="#20DF7F"/>
</linearGradient>
<linearGradient id="paint60_linear_3089_8567" x1="256.827" y1="360.568" x2="256.827" y2="334.86" gradientUnits="userSpaceOnUse">
<stop offset="0.38" stop-color="white" stop-opacity="0"/>
<stop offset="0.45" stop-color="white" stop-opacity="0.02"/>
<stop offset="0.53" stop-color="white" stop-opacity="0.07"/>
<stop offset="0.61" stop-color="white" stop-opacity="0.15"/>
<stop offset="0.69" stop-color="white" stop-opacity="0.27"/>
<stop offset="0.77" stop-color="white" stop-opacity="0.42"/>
<stop offset="0.86" stop-color="white" stop-opacity="0.61"/>
<stop offset="0.94" stop-color="white" stop-opacity="0.83"/>
<stop offset="1" stop-color="white"/>
</linearGradient>
<linearGradient id="paint61_linear_3089_8567" x1="274.149" y1="368.194" x2="233.632" y2="368.194" gradientUnits="userSpaceOnUse">
<stop stop-color="#78F4BD"/>
<stop offset="0.37" stop-color="#75F3BB"/>
<stop offset="0.54" stop-color="#6EF1B6"/>
<stop offset="0.67" stop-color="#61EEAD"/>
<stop offset="0.77" stop-color="#4FEAA0"/>
<stop offset="0.86" stop-color="#38E490"/>
<stop offset="0.94" stop-color="#20DF7F"/>
</linearGradient>
<linearGradient id="paint62_linear_3089_8567" x1="256.828" y1="347.842" x2="256.828" y2="366.062" gradientUnits="userSpaceOnUse">
<stop stop-color="#78F4BD"/>
<stop offset="0.38" stop-color="#75F3BB"/>
<stop offset="0.56" stop-color="#6EF1B6"/>
<stop offset="0.7" stop-color="#61EEAD"/>
<stop offset="0.81" stop-color="#4FEAA0"/>
<stop offset="0.91" stop-color="#37E48F"/>
<stop offset="0.99" stop-color="#20DF7F"/>
</linearGradient>
<linearGradient id="paint63_linear_3089_8567" x1="259.327" y1="364.479" x2="253.115" y2="348.273" gradientUnits="userSpaceOnUse">
<stop offset="0.38" stop-color="white" stop-opacity="0"/>
<stop offset="0.44" stop-color="white" stop-opacity="0.02"/>
<stop offset="0.52" stop-color="white" stop-opacity="0.07"/>
<stop offset="0.59" stop-color="white" stop-opacity="0.15"/>
<stop offset="0.67" stop-color="white" stop-opacity="0.27"/>
<stop offset="0.75" stop-color="white" stop-opacity="0.42"/>
<stop offset="0.83" stop-color="white" stop-opacity="0.61"/>
<stop offset="0.91" stop-color="white" stop-opacity="0.83"/>
<stop offset="0.96" stop-color="white"/>
</linearGradient>
<linearGradient id="paint64_linear_3089_8567" x1="294.121" y1="343.248" x2="294.121" y2="357.02" gradientUnits="userSpaceOnUse">
<stop offset="0.14" stop-color="#92BEFF"/>
<stop offset="0.27" stop-color="#99C0FF"/>
<stop offset="0.57" stop-color="#A2C3FF"/>
<stop offset="1" stop-color="#A5C5FF"/>
</linearGradient>
<linearGradient id="paint65_linear_3089_8567" x1="321.303" y1="367.859" x2="299.23" y2="367.859" gradientUnits="userSpaceOnUse">
<stop offset="0.15" stop-color="#FA64FF"/>
<stop offset="1" stop-color="#F99DF9"/>
</linearGradient>
</defs>
</svg>
