<svg width="395" height="714" viewBox="0 0 395 714" fill="none" xmlns="http://www.w3.org/2000/svg">
<path d="M326.016 126L338.308 139.167L355.993 135.74L358.198 153.618L374.52 161.24L365.796 177L374.52 192.76L358.198 200.382L355.993 218.26L338.308 214.833L326.016 228L313.723 214.833L296.039 218.26L293.833 200.382L277.512 192.76L286.236 177L277.512 161.24L293.833 153.618L296.039 135.74L313.723 139.167L326.016 126Z" fill="#FEE1FF"/>
<path d="M62.0156 407L71.4159 417.069L84.9392 414.448L86.6259 428.12L99.1068 433.948L92.4356 446L99.1068 458.052L86.6259 463.88L84.9392 477.552L71.4159 474.931L62.0156 485L52.6153 474.931L39.092 477.552L37.4053 463.88L24.9244 458.052L31.5956 446L24.9244 433.948L37.4053 428.12L39.092 414.448L52.6153 417.069L62.0156 407Z" fill="#B0FFDA"/>
<path d="M121.07 42.3867V47.5234H108.824V42.3867H121.07ZM110.973 44.0273V45.8828H118.961V44.0273H110.973ZM122.145 31.4297V33.0703H107.73V31.4297H113.883V29.8867H116.051V31.4297H122.145ZM114.957 33.6172C118.727 33.6172 120.836 34.457 120.836 36.1172C120.836 37.6113 119.137 38.4512 116.051 38.5977V39.6328H123.023V41.3516H106.93V39.6328H113.883V38.5977C110.816 38.4609 109.098 37.6113 109.098 36.1172C109.098 34.457 111.227 33.6172 114.957 33.6172ZM114.957 35.082C112.613 35.1016 111.422 35.3945 111.422 36.1172C111.422 36.8203 112.613 37.1523 114.957 37.1523C117.32 37.1523 118.512 36.8203 118.512 36.1172C118.512 35.3945 117.32 35.1016 114.957 35.082ZM139.449 30.082V47.7383H137.359V30.082H139.449ZM135.816 30.3945V46.8789H133.746V38.4805H132.066C131.861 41.918 130.387 44.0469 128.199 44.0273C125.895 44.0469 124.391 41.6055 124.391 37.7188C124.391 33.832 125.895 31.4297 128.199 31.4297C130.338 31.4297 131.793 33.4219 132.047 36.7227H133.746V30.3945H135.816ZM128.199 33.4805C127.086 33.4609 126.383 34.9648 126.402 37.7188C126.383 40.4727 127.086 41.9766 128.199 41.957C129.371 41.9766 130.074 40.4727 130.074 37.7188C130.074 34.9648 129.371 33.4609 128.199 33.4805ZM148.023 34.3203C148.023 37.6016 149.586 40.8242 152.398 42.0547L151.09 43.793C149.088 42.8164 147.682 40.9414 146.93 38.6367C146.158 41.0684 144.723 43.0898 142.691 44.125L141.324 42.3672C144.195 41.0195 145.797 37.6211 145.816 34.3203V31.5078H148.023V34.3203ZM156.305 30.082V47.7578H154.156V37.543H150.445V35.7852H154.156V30.082H156.305ZM177.477 30.082V34.418H179.918V36.1953H177.477V40.3945H175.289V30.082H177.477ZM171.715 40.7266C175.328 40.7266 177.613 42.0156 177.633 44.2031C177.613 46.4297 175.328 47.7188 171.715 47.7188C168.062 47.7188 165.738 46.4297 165.738 44.2031C165.738 42.0156 168.062 40.7266 171.715 40.7266ZM171.715 42.4648C169.293 42.4648 167.867 43.0703 167.887 44.2031C167.867 45.3555 169.293 45.9805 171.715 45.9805C174.098 45.9805 175.523 45.3555 175.523 44.2031C175.523 43.0703 174.098 42.4648 171.715 42.4648ZM172.125 31.332V33.0898H166.363V37.5234C169.742 37.5137 171.627 37.416 173.707 36.9766L173.922 38.7148C171.637 39.2031 169.547 39.2812 165.641 39.2812H164.215V31.332H172.125ZM195.602 30.1016V43.1289H193.434V36.625H189.879V40.2578H181.617V31.2539H183.785V34.1055H187.73V31.2539H189.879V34.8672H193.434V30.1016H195.602ZM195.992 45.6289V47.3867H183.961V41.8398H186.168V45.6289H195.992ZM183.785 38.5391H187.73V35.7852H183.785V38.5391ZM212.887 30.082V39.2031H210.719V37.2891H207.164V38.6367H198.902V30.8633H201.07V33.0898H205.016V30.8633H207.164V32.4258H210.719V30.082H212.887ZM212.887 39.9258V44.457H203.434V45.8047H213.453V47.5234H201.266V42.8555H210.719V41.625H201.246V39.9258H212.887ZM201.07 36.918H205.016V34.75H201.07V36.918ZM207.164 35.6289H210.719V34.0664H207.164V35.6289ZM226.832 33.6758C226.832 35.8633 228.336 38.0117 231.148 38.8906L230.035 40.5898C228.033 39.9355 226.578 38.6172 225.777 36.9375C224.977 38.7637 223.482 40.2188 221.383 40.9414L220.27 39.2227C223.102 38.2852 224.625 36 224.645 33.6758V33.168H220.836V31.4297H230.543V33.168H226.832V33.6758ZM234.84 30.1016V42.9141H232.652V30.1016H234.84ZM235.328 45.6289V47.3867H223.16V41.7422H225.348V45.6289H235.328ZM252.516 30.082V41.1758H250.445V36.3711H248.727V40.5898H246.695V30.4336H248.727V34.6133H250.445V30.082H252.516ZM246.109 31.9961V33.6953H237.32V31.9961H240.66V30.2383H242.809V31.9961H246.109ZM241.734 34.418C243.98 34.418 245.562 35.6289 245.582 37.4648C245.562 39.3008 243.98 40.5117 241.734 40.5117C239.527 40.5117 237.926 39.3008 237.945 37.4648C237.926 35.6289 239.527 34.418 241.734 34.418ZM241.734 35.9805C240.641 35.9805 239.879 36.5469 239.879 37.4648C239.879 38.3828 240.621 38.9492 241.734 38.9492C242.848 38.9492 243.609 38.3828 243.609 37.4648C243.609 36.5469 242.848 35.9805 241.734 35.9805ZM246.559 41.3906C250.328 41.3906 252.594 42.543 252.613 44.5742C252.594 46.5664 250.328 47.7188 246.559 47.7188C242.789 47.7188 240.504 46.5664 240.504 44.5742C240.504 42.543 242.789 41.3906 246.559 41.3906ZM246.559 43.0508C244.039 43.0312 242.672 43.5391 242.672 44.5742C242.672 45.5508 244.039 46.0586 246.559 46.0586C249.059 46.0586 250.426 45.5508 250.426 44.5742C250.426 43.5391 249.059 43.0312 246.559 43.0508ZM269.039 38.1094V39.8281H263.805V43.8711H270.836V45.6484H254.703V43.8711H261.656V39.8281H256.656V31.3906H268.902V33.1289H258.824V38.1094H269.039ZM277.262 31.1758C279.977 31.1758 282.047 32.9336 282.066 35.4336C282.047 37.5918 280.523 39.1836 278.375 39.5938V42.1914C279.84 42.123 281.314 42.0059 282.691 41.8203L282.848 43.4414C279.156 44.1055 275.113 44.125 272.086 44.0859L271.773 42.3086C273.102 42.3086 274.625 42.3086 276.207 42.2695V39.5938C273.99 39.2227 272.457 37.6211 272.477 35.4336C272.457 32.9336 274.488 31.1758 277.262 31.1758ZM277.262 33.0117C275.719 33.0312 274.586 33.9492 274.586 35.4336C274.586 36.918 275.719 37.8555 277.262 37.8359C278.785 37.8555 279.918 36.918 279.918 35.4336C279.918 33.9492 278.785 33.0312 277.262 33.0117ZM285.875 30.082V37.1328H288.434V38.9688H285.875V47.7383H283.707V30.082H285.875ZM55.9824 59.0781C59.7715 59.0781 62.5645 60.9727 62.5645 63.8438C62.5645 66.4902 60.2891 68.2578 57.0566 68.5703V71.8125H64.0879V73.5898H47.9551V71.8125H54.9082V68.5703C51.6953 68.2578 49.4199 66.4902 49.4395 63.8438C49.4199 60.9727 52.2129 59.0781 55.9824 59.0781ZM55.9824 60.8359C53.4043 60.8164 51.5488 61.9883 51.5684 63.8438C51.5488 65.7578 53.4043 66.8906 55.9824 66.8906C58.5996 66.8906 60.4355 65.7578 60.4355 63.8438C60.4355 61.9883 58.5996 60.8164 55.9824 60.8359ZM79.498 61.8906V63.6289H67.3105V58.3164H69.4395V61.8906H79.498ZM81.3535 64.9766V66.7148H65.2207V64.9766H81.3535ZM79.3809 67.9453V72.457H69.3418V73.8242H79.9668V75.5234H67.1543V70.875H77.2324V69.625H67.1348V67.9453H79.3809ZM88.248 59.3125C91.041 59.293 93.0918 61.0703 93.1113 63.5703C93.0918 66.0898 91.041 67.8477 88.248 67.8477C85.4746 67.8477 83.4043 66.0898 83.4043 63.5703C83.4043 61.0703 85.4746 59.293 88.248 59.3125ZM88.248 61.1875C86.7051 61.1875 85.5527 62.1055 85.5527 63.5703C85.5527 65.0547 86.7051 65.9531 88.248 65.9531C89.8105 65.9531 90.9824 65.0547 90.9824 63.5703C90.9824 62.1055 89.8105 61.1875 88.248 61.1875ZM97.2324 58.082V75.7578H95.0645V58.082H97.2324ZM82.6035 70.2891C85.7871 70.2891 90.2012 70.25 94.0098 69.7031L94.1855 71.2852C90.2207 72.0469 85.9824 72.0664 82.877 72.0664L82.6035 70.2891ZM110.904 61.8516C110.904 63.7852 112.408 65.6992 115.182 66.4414L114.166 68.1211C112.125 67.5645 110.66 66.373 109.85 64.8398C109.088 66.5781 107.613 67.9453 105.514 68.5703L104.498 66.8906C107.252 66.0508 108.736 63.9805 108.736 61.8516V61.7539H105.045V60.0352H108.736V58.0039H110.924V60.0352H114.596V61.7539H110.904V61.8516ZM119.342 58.082V68.7656H117.174V64.6836H114.068V62.9258H117.174V58.082H119.342ZM113.365 69.1172C117.096 69.1172 119.4 70.3086 119.4 72.3984C119.4 74.5078 117.096 75.7188 113.365 75.7188C109.654 75.7188 107.35 74.5078 107.369 72.3984C107.35 70.3086 109.654 69.1172 113.365 69.1172ZM113.365 70.7773C110.904 70.7969 109.518 71.3438 109.518 72.3984C109.518 73.4531 110.904 74.0391 113.365 74.0391C115.865 74.0391 117.232 73.4531 117.232 72.3984C117.232 71.3438 115.865 70.7969 113.365 70.7773ZM137.975 71.793V73.5508H121.842V71.793H128.756V67.7109H130.904V71.793H137.975ZM130.963 60.4453C130.963 63.1211 133.639 65.7578 137.35 66.3438L136.412 68.1406C133.424 67.5742 130.982 65.8652 129.811 63.5508C128.639 65.8555 126.217 67.5938 123.248 68.1406L122.311 66.3438C126.002 65.7578 128.639 63.1016 128.658 60.4453V59.1562H130.963V60.4453ZM155.24 66.0898V67.7305H139.107V66.0898H155.24ZM153.287 68.7852V72.8086H143.17V74.0391H153.814V75.543H141.002V71.4023H151.139V70.3086H140.982V68.7852H153.287ZM153.248 58.4727V62.457H143.307V63.6094H153.561V65.0938H141.158V61.0508H151.08V59.9766H141.1V58.4727H153.248ZM175.084 58.1016V63.6484H177.545V65.4453H175.084V71.2852H172.916V58.1016H175.084ZM171.646 60.0547V61.793H161.178V60.0547H165.338V58.082H167.506V60.0547H171.646ZM166.412 62.5156C168.951 62.5156 170.709 63.8633 170.729 65.8945C170.709 67.9062 168.951 69.2344 166.412 69.2344C163.854 69.2344 162.076 67.9062 162.076 65.8945C162.076 63.8633 163.854 62.5156 166.412 62.5156ZM166.412 64.1953C165.064 64.1953 164.186 64.8203 164.186 65.8945C164.186 66.9492 165.064 67.5742 166.412 67.5547C167.76 67.5742 168.658 66.9492 168.658 65.8945C168.658 64.8203 167.76 64.1953 166.412 64.1953ZM175.787 73.6289V75.3867H163.775V70.25H165.943V73.6289H175.787ZM192.74 63.0625V64.7812H180.553V58.6289H182.74V63.0625H192.74ZM194.557 66.5391V68.2578H187.74V71.5586H185.592V68.2578H178.443V66.5391H194.557ZM192.877 73.6289V75.3867H180.396V70.1328H182.545V73.6289H192.877ZM210.963 58.082V75.7383H208.873V58.082H210.963ZM207.33 58.3945V74.8789H205.26V66.4805H203.58C203.375 69.918 201.9 72.0469 199.713 72.0273C197.408 72.0469 195.904 69.6055 195.904 65.7188C195.904 61.832 197.408 59.4297 199.713 59.4297C201.852 59.4297 203.307 61.4219 203.561 64.7227H205.26V58.3945H207.33ZM199.713 61.4805C198.6 61.4609 197.896 62.9648 197.916 65.7188C197.896 68.4727 198.6 69.9766 199.713 69.957C200.885 69.9766 201.588 68.4727 201.588 65.7188C201.588 62.9648 200.885 61.4609 199.713 61.4805ZM231.744 58.1016V63.2383H234.127V65.0352H231.744V70.0352H229.576V58.1016H231.744ZM217.604 67.9258C218.932 67.9258 220.465 67.916 222.057 67.8672V66.793C220.094 66.5488 218.854 65.6016 218.854 64.2148C218.854 62.5938 220.553 61.5781 223.111 61.5977C225.689 61.5781 227.369 62.5938 227.369 64.2148C227.369 65.5918 226.158 66.5293 224.225 66.7734V67.7891C225.729 67.7207 227.242 67.6035 228.658 67.418L228.834 68.9219C225.064 69.5859 220.943 69.625 217.838 69.625L217.604 67.9258ZM231.744 70.7969V75.7383H229.576V72.4961H219.83V70.7969H231.744ZM228.189 59.4883V61.0898H218.053V59.4883H222.057V57.9453H224.225V59.4883H228.189ZM223.111 63.0625C221.744 63.043 220.924 63.4531 220.943 64.2148C220.924 64.9375 221.744 65.4062 223.111 65.3867C224.479 65.4062 225.299 64.9375 225.299 64.2148C225.299 63.4531 224.479 63.043 223.111 63.0625ZM249.752 58.1016V70.8555H247.564V58.1016H249.752ZM250.24 73.6289V75.3867H238.072V69.5664H240.26V73.6289H250.24ZM240.123 59.2539C242.799 59.2539 244.869 61.1094 244.869 63.668C244.869 66.2852 242.799 68.1016 240.123 68.1016C237.428 68.1016 235.357 66.2852 235.357 63.668C235.357 61.1094 237.428 59.2539 240.123 59.2539ZM240.123 61.1484C238.619 61.1484 237.467 62.1445 237.486 63.668C237.467 65.2305 238.619 66.207 240.123 66.207C241.588 66.207 242.74 65.2305 242.74 63.668C242.74 62.1445 241.588 61.1484 240.123 61.1484ZM266.256 58.043V62.0273H268.736V63.7852H266.256V67.6719H264.088V58.043H266.256ZM266.256 68.4531V72.7109H256.881V73.9609H266.803V75.582H254.732V71.207H264.088V70.0352H254.713V68.4531H266.256ZM262.818 59.5078V61.168H252.35V59.5078H256.51V57.9453H258.678V59.5078H262.818ZM257.584 61.7148C260.201 61.7344 261.881 62.8477 261.9 64.6055C261.881 66.4219 260.201 67.4961 257.584 67.4961C254.967 67.4961 253.248 66.4219 253.248 64.6055C253.248 62.8477 254.967 61.7344 257.584 61.7148ZM257.584 63.2773C256.217 63.2773 255.357 63.7656 255.357 64.6055C255.357 65.4648 256.217 65.9336 257.584 65.9336C258.951 65.9336 259.83 65.4648 259.83 64.6055C259.83 63.7656 258.951 63.2773 257.584 63.2773ZM283.561 59.5469C283.561 61.7734 286.041 64.0195 289.811 64.5078L288.951 66.2656C285.953 65.8164 283.57 64.3418 282.428 62.3398C281.266 64.3418 278.893 65.8164 275.924 66.2656L275.064 64.5078C278.795 64.0195 281.275 61.7734 281.275 59.5469V58.6484H283.561V59.5469ZM290.455 67.7891V69.5859H283.443V75.7383H281.295V69.5859H274.361V67.7891H290.455ZM302.662 69.5664C302.662 71.0312 303.336 72.5742 304.85 73.5312C306.383 72.5059 307.096 70.9043 307.115 69.5664V68.8438H309.244V69.5664C309.225 71.4219 310.318 73.1406 312.643 73.8828L311.588 75.4648C309.869 74.8887 308.727 73.7656 308.111 72.3594C307.545 73.7461 306.5 74.9863 304.908 75.6211C303.229 75.0156 302.174 73.8242 301.627 72.418C300.992 73.7754 299.869 74.8789 298.229 75.4648L297.154 73.8828C299.439 73.082 300.533 71.2852 300.553 69.5664V68.8438H302.662V69.5664ZM311.1 58.1016V68.1016H308.912V58.1016H311.1ZM301.471 59.0391C304.186 59.0391 306.217 60.7578 306.217 63.2383C306.217 65.6992 304.186 67.418 301.471 67.418C298.736 67.418 296.705 65.6992 296.705 63.2383C296.705 60.7578 298.736 59.0391 301.471 59.0391ZM301.471 60.875C299.928 60.875 298.814 61.793 298.834 63.2383C298.814 64.6836 299.928 65.6211 301.471 65.6211C302.994 65.6211 304.088 64.6836 304.088 63.2383C304.088 61.793 302.994 60.875 301.471 60.875ZM318.502 59.3711C320.895 59.3711 322.662 61.3633 322.975 64.5859H326.334V58.082H328.482V75.7578H326.334V66.3438H322.994C322.76 69.752 320.963 71.8516 318.502 71.8516C315.846 71.8516 313.971 69.4492 313.971 65.6016C313.971 61.793 315.846 59.3711 318.502 59.3711ZM318.502 61.3242C317.037 61.3242 316.041 62.9062 316.061 65.6016C316.041 68.3164 317.037 69.8984 318.502 69.8984C319.967 69.8984 320.943 68.3164 320.963 65.6016C320.943 62.9062 319.967 61.3242 318.502 61.3242ZM347.096 71.8125V73.5898H330.963V71.8125H334.693V67.3398C333.287 66.5391 332.438 65.2793 332.447 63.707C332.428 60.8945 335.201 59.0391 338.99 59.0391C342.799 59.0391 345.572 60.8945 345.572 63.707C345.572 65.25 344.752 66.4902 343.385 67.3008V71.8125H347.096ZM338.99 60.7578C336.354 60.7578 334.557 61.8711 334.576 63.707C334.557 65.5234 336.354 66.6562 338.99 66.6562C341.627 66.6562 343.443 65.5234 343.443 63.707C343.443 61.8711 341.627 60.7578 338.99 60.7578ZM336.842 71.8125H341.178V68.1211C340.504 68.2773 339.771 68.3555 338.99 68.3555C338.229 68.3555 337.506 68.2773 336.842 68.1406V71.8125Z" fill="black"/>
<g clip-path="url(#clip0_6885_30248)">
<rect x="79.0156" y="191" width="237" height="513" rx="22" fill="white"/>
<rect x="96.4668" y="476.113" width="202.099" height="41.7939" rx="4.58016" fill="#EFF4FF"/>
<path d="M96.4668 480.693C96.4668 478.164 98.5174 476.113 101.047 476.113H101.619V517.907H101.047C98.5174 517.907 96.4668 515.857 96.4668 513.327V480.693Z" fill="#4D83FD"/>
<path d="M253.793 484.994V489.852H253.182V485.625H253.156L251.975 486.41V485.799L253.182 484.994H253.793ZM256.805 484.994V489.852H256.195V485.625H256.168L254.987 486.41V485.799L256.195 484.994H256.805ZM258.516 489.207C258.281 489.207 258.08 489.013 258.087 488.771C258.08 488.537 258.281 488.342 258.516 488.342C258.751 488.342 258.946 488.537 258.946 488.771C258.946 489.013 258.751 489.207 258.516 489.207ZM258.516 486.51C258.281 486.51 258.08 486.316 258.087 486.074C258.08 485.839 258.281 485.645 258.516 485.645C258.751 485.645 258.946 485.839 258.946 486.074C258.946 486.316 258.751 486.51 258.516 486.51ZM261.522 489.919C260.556 489.919 259.865 489.402 259.831 488.63H260.442C260.475 489.093 260.938 489.382 261.515 489.382C262.153 489.382 262.622 489.033 262.622 488.53C262.622 488 262.2 487.624 261.441 487.624H261.046V487.094H261.441C262.032 487.094 262.441 486.765 262.441 486.262C262.441 485.779 262.086 485.45 261.535 485.45C261.019 485.45 260.542 485.739 260.516 486.215H259.932C259.965 485.444 260.677 484.927 261.542 484.927C262.468 484.927 263.032 485.531 263.025 486.229C263.032 486.779 262.709 487.188 262.2 487.329V487.362C262.83 487.463 263.219 487.913 263.213 488.53C263.219 489.328 262.488 489.919 261.522 489.919ZM265.675 489.919C264.595 489.919 263.978 489.013 263.978 487.423C263.978 485.846 264.608 484.927 265.675 484.927C266.742 484.927 267.372 485.846 267.372 487.423C267.372 489.013 266.748 489.919 265.675 489.919ZM265.675 489.382C266.373 489.382 266.782 488.677 266.782 487.423C266.782 486.168 266.373 485.45 265.675 485.45C264.977 485.45 264.561 486.168 264.561 487.423C264.561 488.677 264.97 489.382 265.675 489.382ZM271.995 487.161V487.691H269.868V487.161H271.995ZM277.53 484.82C277.53 486.329 276.423 487.396 274.665 487.866L274.451 487.45C275.927 487.061 276.856 486.272 276.973 485.249H274.766V484.82H277.53ZM279.308 484.437V487.805H278.785V484.437H279.308ZM279.308 488.094V490.314H275.43V488.094H279.308ZM275.947 488.516V489.885H278.791V488.516H275.947ZM285.474 485.323V485.759H280.59V485.323H282.777V484.531H283.293V485.323H285.474ZM285.782 489.275V489.711H280.321V489.275H281.764V488.168C281.321 487.98 281.076 487.674 281.079 487.269C281.073 486.557 281.824 486.148 283.038 486.148C284.246 486.148 284.997 486.557 284.997 487.269C284.997 487.674 284.749 487.983 284.306 488.168V489.275H285.782ZM283.038 486.564C282.146 486.564 281.603 486.826 281.609 487.269C281.603 487.705 282.146 487.966 283.038 487.966C283.917 487.966 284.461 487.705 284.461 487.269C284.461 486.826 283.917 486.564 283.038 486.564ZM282.294 489.275H283.79V488.315C283.565 488.362 283.313 488.382 283.038 488.382C282.767 488.382 282.515 488.362 282.294 488.322V489.275ZM291.204 484.431V487.986H290.673V486.423H289.473V485.987H290.673V484.431H291.204ZM289.224 488.174C290.465 488.174 291.224 488.577 291.224 489.281C291.224 489.986 290.465 490.388 289.224 490.395C287.983 490.388 287.225 489.986 287.225 489.281C287.225 488.577 287.983 488.174 289.224 488.174ZM289.224 488.584C288.312 488.584 287.742 488.845 287.748 489.281C287.742 489.711 288.312 489.972 289.224 489.972C290.137 489.972 290.7 489.711 290.7 489.281C290.7 488.845 290.137 488.584 289.224 488.584ZM288.332 485.524C288.332 486.302 288.929 487.04 289.801 487.342L289.526 487.765C288.855 487.523 288.335 487.024 288.084 486.403C287.822 487.104 287.269 487.664 286.561 487.933L286.286 487.51C287.171 487.188 287.802 486.383 287.802 485.531V485.309H286.453V484.867H289.667V485.309H288.332V485.524Z" fill="#81A9FF"/>
<path d="M135.577 485.756V488.887H136.91V489.496H135.577V493.709H134.879V485.756H135.577ZM130.451 486.436V488.538H132.777V486.436H133.475V491.804H129.754V486.436H130.451ZM130.451 491.213H132.777V489.102H130.451V491.213ZM143.557 485.756V487.769H144.755V488.368H143.557V490.444H142.859V485.756H143.557ZM143.557 490.882V493.727H142.859V491.446H138.35V490.882H143.557ZM141.258 486.32V486.901H138.413V489.254C140.01 489.245 140.918 489.205 141.982 488.986L142.072 489.558C140.954 489.782 140.005 489.827 138.332 489.827H137.715V486.32H141.258ZM149.98 486.311C149.98 486.848 150.4 487.586 151.178 487.993C151.952 487.599 152.368 486.888 152.368 486.311V485.855H153.066V486.311C153.066 487.009 153.594 487.76 154.578 488.073L154.238 488.601C153.486 488.337 152.972 487.823 152.717 487.232C152.458 487.836 151.952 488.404 151.178 488.682C150.387 488.395 149.881 487.805 149.64 487.197C149.371 487.782 148.857 488.319 148.119 488.601L147.77 488.073C148.736 487.724 149.282 486.919 149.282 486.311V485.855H149.98V486.311ZM154.801 489.138V489.71H147.555V489.138H154.801ZM153.871 490.381V492.215H149.148V493.065H154.113V493.62H148.45V491.696H153.182V490.918H148.432V490.381H153.871ZM162.047 485.756V493.709H161.341V485.756H162.047ZM159.695 486.624C159.686 488.914 158.621 490.936 155.955 492.215L155.571 491.643C157.722 490.623 158.818 489.098 158.979 487.197H155.937V486.624H159.695Z" fill="black"/>
<rect width="9.16036" height="8.20832" transform="translate(165.742 485.178)" fill="#EFF4FF"/>
<path d="M172.659 486.486C173.307 486.486 173.832 487.012 173.832 487.659V491.5C173.832 492.148 173.307 492.673 172.659 492.673H166.915C166.267 492.673 165.742 492.148 165.742 491.5V487.659C165.742 487.012 166.267 486.486 166.915 486.486H172.659Z" fill="#4D83FD"/>
<circle cx="169.906" cy="490.055" r="1.08875" fill="#4D83FD" stroke="#DEDEDE" stroke-width="0.439747"/>
<rect x="167.17" y="485.178" width="2.26034" height="0.951724" rx="0.293165" fill="#4D83FD"/>
<path d="M167.281 487.67H171.972" stroke="#EFF4FF" stroke-width="0.439747" stroke-linecap="round"/>
<rect width="81.8703" height="12.0229" transform="translate(129.101 499.014)" fill="#EFF4FF"/>
<rect x="129.101" y="499.014" width="31.4886" height="12.0229" rx="6.01146" fill="white"/>
<path d="M138.845 502.767V505.935H138.384V502.767H138.845ZM137.8 502.878V505.867H137.339V504.502H136.57V505.523H134.454V503.161H136.57V504.102H137.339V502.878H137.8ZM134.909 503.542V505.154H136.121V503.542H134.909ZM138.845 506.205V508.155H135.235V506.205H138.845ZM135.709 506.587V507.761H138.372V506.587H135.709ZM144.178 502.761V508.241H143.698V505.197H142.388V506.857H139.866V503.192H140.352V504.619H141.914V503.192H142.388V504.797H143.698V502.761H144.178ZM140.352 506.457H141.914V505.006H140.352V506.457ZM148.353 507.792C147.419 507.792 146.767 507.275 146.773 506.55C146.767 505.972 147.166 505.498 147.677 505.418V505.393C147.234 505.289 146.945 504.883 146.945 504.397C146.945 503.714 147.542 503.216 148.353 503.216C149.165 503.216 149.762 503.714 149.768 504.397C149.762 504.883 149.467 505.289 149.03 505.393V505.418C149.534 505.498 149.934 505.972 149.94 506.55C149.934 507.275 149.282 507.792 148.353 507.792ZM148.353 507.306C148.993 507.306 149.387 506.986 149.387 506.519C149.387 506.027 148.95 505.664 148.353 505.664C147.757 505.664 147.314 506.027 147.326 506.519C147.314 506.986 147.714 507.306 148.353 507.306ZM148.353 505.197C148.858 505.197 149.227 504.889 149.227 504.44C149.227 503.997 148.876 503.696 148.353 503.696C147.825 503.696 147.48 503.997 147.48 504.44C147.48 504.889 147.843 505.197 148.353 505.197ZM155.02 502.761V506.002H154.534V505.141H153.255V505.609H150.746V503.179H153.255V503.653H154.534V502.761H155.02ZM151.226 503.573V505.215H152.782V503.573H151.226ZM153.206 506.162C154.344 506.162 155.039 506.537 155.039 507.195C155.039 507.847 154.344 508.216 153.206 508.216C152.068 508.216 151.373 507.847 151.373 507.195C151.373 506.537 152.068 506.162 153.206 506.162ZM153.206 506.537C152.369 506.543 151.847 506.783 151.853 507.195C151.847 507.589 152.369 507.835 153.206 507.835C154.042 507.835 154.559 507.589 154.559 507.195C154.559 506.783 154.042 506.543 153.206 506.537ZM153.255 504.735H154.534V504.053H153.255V504.735Z" fill="#81A9FF"/>
<path d="M166.928 502.699C166.928 504.208 165.821 505.275 164.063 505.745L163.848 505.329C165.324 504.939 166.254 504.151 166.371 503.128H164.164V502.699H166.928ZM168.706 502.316V505.684H168.183V502.316H168.706ZM168.706 505.973V508.193H164.828V505.973H168.706ZM165.345 506.395V507.764H168.189V506.395H165.345ZM174.872 503.202V503.638H169.987V503.202H172.175V502.41H172.691V503.202H174.872ZM175.18 507.153V507.59H169.719V507.153H171.161V506.046C170.719 505.859 170.474 505.553 170.477 505.147C170.47 504.436 171.222 504.027 172.436 504.027C173.644 504.027 174.395 504.436 174.395 505.147C174.395 505.553 174.147 505.862 173.704 506.046V507.153H175.18ZM172.436 504.443C171.544 504.443 171 504.705 171.007 505.147C171 505.584 171.544 505.845 172.436 505.845C173.315 505.845 173.859 505.584 173.859 505.147C173.859 504.705 173.315 504.443 172.436 504.443ZM171.691 507.153H173.188V506.194C172.963 506.241 172.711 506.261 172.436 506.261C172.164 506.261 171.913 506.241 171.691 506.201V507.153ZM180.601 502.309V505.865H180.071V504.302H178.87V503.866H180.071V502.309H180.601ZM178.622 506.053C179.863 506.053 180.621 506.456 180.621 507.16C180.621 507.865 179.863 508.267 178.622 508.274C177.381 508.267 176.623 507.865 176.623 507.16C176.623 506.456 177.381 506.053 178.622 506.053ZM178.622 506.462C177.71 506.462 177.139 506.724 177.146 507.16C177.139 507.59 177.71 507.851 178.622 507.851C179.535 507.851 180.098 507.59 180.098 507.16C180.098 506.724 179.535 506.462 178.622 506.462ZM177.73 503.403C177.73 504.181 178.327 504.919 179.199 505.221L178.924 505.644C178.253 505.402 177.733 504.903 177.482 504.282C177.22 504.983 176.666 505.543 175.959 505.812L175.683 505.389C176.569 505.067 177.2 504.262 177.2 503.41V503.188H175.851V502.746H179.065V503.188H177.73V503.403ZM182.574 507.281L182.05 509.106H181.554L181.923 507.281H182.574ZM189.739 502.309V503.866H190.638V504.302H189.739V505.919H189.216V502.309H189.739ZM189.739 506.234V508.274H189.216V506.664H185.834V506.234H189.739ZM185.848 502.685V503.624H187.586V502.685H188.109V505.503H185.331V502.685H185.848ZM185.848 505.074H187.586V504.047H185.848V505.074ZM195.677 502.316V504.282H196.576V504.725H195.677V506.784H195.154V502.316H195.677ZM194.583 503.047V503.477H191.027V503.047H192.544V502.316H193.067V503.047H194.583ZM192.805 503.806C193.657 503.806 194.234 504.242 194.241 504.919C194.234 505.59 193.657 506.02 192.805 506.02C191.947 506.02 191.363 505.59 191.37 504.919C191.363 504.242 191.947 503.806 192.805 503.806ZM192.805 504.222C192.242 504.222 191.866 504.497 191.873 504.919C191.866 505.342 192.242 505.61 192.805 505.604C193.362 505.61 193.738 505.342 193.745 504.919C193.738 504.497 193.362 504.222 192.805 504.222ZM195.952 507.704V508.146H191.947V506.429H192.463V507.704H195.952ZM202.534 504.691V505.134H201.568V508.274H201.044V502.309H201.568V504.691H202.534ZM197.723 502.9V506.315C198.595 506.311 199.484 506.244 200.467 506.04L200.534 506.489C199.508 506.697 198.582 506.758 197.676 506.758H197.2V502.9H197.723ZM210.055 505.147V505.59H204.614V505.147H210.055ZM209.417 504.148V504.577H205.305V502.551H209.377V502.994H205.821V504.148H209.417ZM207.331 506.114C208.612 506.114 209.377 506.503 209.384 507.187C209.377 507.878 208.612 508.26 207.331 508.26C206.043 508.26 205.271 507.878 205.271 507.187C205.271 506.503 206.043 506.114 207.331 506.114ZM207.331 506.523C206.371 506.53 205.801 506.771 205.808 507.187C205.801 507.61 206.371 507.845 207.331 507.845C208.277 507.845 208.854 507.61 208.854 507.187C208.854 506.771 208.277 506.53 207.331 506.523Z" fill="#81A9FF"/>
<rect x="109.062" y="490.426" width="12.5954" height="12.5954" rx="2.8626" fill="#4D83FD" stroke="#4D83FD" stroke-width="1.14504"/>
<path d="M111.237 496.723L114.535 499.746L119.481 494.25" stroke="white" stroke-width="1.71756" stroke-linecap="round" stroke-linejoin="round"/>
<path d="M288.198 503.691L285.399 506.49L282.6 503.691" stroke="#81A9FF" stroke-width="0.52481" stroke-linecap="round" stroke-linejoin="round"/>
<rect x="96.4668" y="522.486" width="202.099" height="37.2138" rx="4.58016" fill="#EFF4FF"/>
<path d="M96.4668 527.066C96.4668 524.537 98.5174 522.486 101.047 522.486H101.619V559.7H101.047C98.5174 559.7 96.4668 557.649 96.4668 555.12V527.066Z" fill="#4D83FD"/>
<rect x="109.062" y="534.51" width="12.5954" height="12.5954" rx="2.8626" fill="#4D83FD" stroke="#4D83FD" stroke-width="1.14504"/>
<path d="M111.237 540.807L114.535 543.83L119.481 538.334" stroke="white" stroke-width="1.71756" stroke-linecap="round" stroke-linejoin="round"/>
<path d="M135.577 532.129V535.26H136.91V535.869H135.577V540.082H134.879V532.129H135.577ZM130.451 532.809V534.911H132.777V532.809H133.475V538.177H129.754V532.809H130.451ZM130.451 537.586H132.777V535.475H130.451V537.586ZM143.557 532.129V534.142H144.755V534.741H143.557V536.817H142.859V532.129H143.557ZM143.557 537.255V540.1H142.859V537.819H138.35V537.255H143.557ZM141.258 532.693V533.274H138.413V535.627C140.01 535.618 140.918 535.578 141.982 535.359L142.072 535.931C140.954 536.155 140.005 536.2 138.332 536.2H137.715V532.693H141.258ZM153.773 532.129V534.16H154.971V534.741H153.773V536.701H153.075V532.129H153.773ZM151.456 532.684V533.257H148.629V535.582C150.226 535.582 151.134 535.533 152.198 535.305L152.288 535.887C151.169 536.119 150.221 536.173 148.548 536.173H147.931V532.684H151.456ZM150.919 537.076V540.082H150.23V537.649H148.387V537.076H150.919ZM153.773 537.076V540.082H153.075V537.649H151.304V537.076H153.773ZM162.047 532.129V540.082H161.341V532.129H162.047ZM159.695 532.997C159.686 535.287 158.621 537.309 155.955 538.588L155.571 538.016C157.722 536.996 158.818 535.471 158.979 533.57H155.937V532.997H159.695Z" fill="black"/>
<path d="M172.659 532.859C173.307 532.859 173.832 533.385 173.832 534.032V537.873C173.832 538.521 173.307 539.046 172.659 539.046H166.915C166.267 539.046 165.742 538.521 165.742 537.873V534.032C165.742 533.385 166.267 532.859 166.915 532.859H172.659Z" fill="#4D83FD"/>
<circle cx="169.906" cy="536.428" r="1.08875" fill="#4D83FD" stroke="#DEDEDE" stroke-width="0.439747"/>
<rect x="167.17" y="531.551" width="2.26034" height="0.951724" rx="0.293165" fill="#4D83FD"/>
<path d="M167.281 534.043H171.972" stroke="#EFF4FF" stroke-width="0.439747" stroke-linecap="round"/>
<path d="M134.827 545.828V550.202H134.297V547.914H133.069V547.478H134.297V545.828H134.827ZM134.995 551.215V551.658H130.996V549.806H131.526V551.215H134.995ZM131.955 547.056C131.955 547.827 132.552 548.579 133.425 548.874L133.15 549.297C132.475 549.055 131.955 548.552 131.7 547.935C131.442 548.622 130.892 549.172 130.184 549.437L129.909 549.008C130.788 548.699 131.425 547.914 131.425 547.056V546.747H130.077V546.311H133.29V546.747H131.955V547.056ZM140.932 545.821V551.786H140.422V545.821H140.932ZM139.745 545.949V551.484H139.242V549.525H138.289C138.081 550.122 137.685 550.471 137.175 550.471C136.397 550.471 135.894 549.666 135.894 548.397C135.894 547.129 136.397 546.324 137.175 546.324C137.685 546.324 138.081 546.673 138.289 547.27H139.242V545.949H139.745ZM137.175 546.821C136.685 546.821 136.383 547.425 136.383 548.397C136.383 549.364 136.685 549.974 137.175 549.967C137.658 549.974 137.974 549.364 137.974 548.397C137.974 547.425 137.658 546.821 137.175 546.821ZM138.403 547.706C138.443 547.918 138.463 548.149 138.463 548.397C138.463 548.642 138.443 548.874 138.41 549.082H139.242V547.706H138.403ZM143.401 546.183C143.904 546.18 144.334 546.368 144.609 546.687H146.172V545.821H146.702V549.357H146.172V548.505H144.616C144.334 548.824 143.904 549.011 143.401 549.008C142.509 549.015 141.851 548.431 141.851 547.599C141.851 546.76 142.509 546.177 143.401 546.183ZM143.401 546.64C142.791 546.633 142.355 547.036 142.355 547.599C142.355 548.156 142.791 548.559 143.401 548.559C143.992 548.559 144.434 548.156 144.434 547.599C144.434 547.036 143.992 546.633 143.401 546.64ZM144.723 549.498C145.957 549.498 146.722 549.914 146.722 550.632C146.722 551.356 145.957 551.772 144.723 551.772C143.482 551.772 142.724 551.356 142.724 550.632C142.724 549.914 143.482 549.498 144.723 549.498ZM144.723 549.907C143.811 549.907 143.24 550.182 143.24 550.632C143.24 551.081 143.811 551.35 144.723 551.35C145.642 551.35 146.206 551.081 146.206 550.632C146.206 550.182 145.642 549.907 144.723 549.907ZM144.864 547.116C144.914 547.264 144.944 547.425 144.944 547.599C144.944 547.767 144.914 547.924 144.864 548.069H146.172V547.116H144.864Z" fill="#81A9FF"/>
<path d="M277.267 532.512V537.369H276.656V533.142H276.629L275.448 533.927V533.317L276.656 532.512H277.267ZM280.279 532.512V537.369H279.668V533.142H279.642L278.461 533.927V533.317L279.668 532.512H280.279ZM281.99 536.725C281.755 536.725 281.554 536.53 281.56 536.289C281.554 536.054 281.755 535.86 281.99 535.86C282.225 535.86 282.419 536.054 282.419 536.289C282.419 536.53 282.225 536.725 281.99 536.725ZM281.99 534.028C281.755 534.028 281.554 533.833 281.56 533.592C281.554 533.357 281.755 533.162 281.99 533.162C282.225 533.162 282.419 533.357 282.419 533.592C282.419 533.833 282.225 534.028 281.99 534.028ZM284.996 537.436C284.029 537.436 283.338 536.92 283.305 536.148H283.915C283.949 536.611 284.412 536.899 284.989 536.899C285.626 536.899 286.096 536.551 286.096 536.047C286.096 535.517 285.673 535.142 284.915 535.142H284.519V534.612H284.915C285.505 534.612 285.915 534.283 285.915 533.78C285.915 533.297 285.559 532.968 285.009 532.968C284.492 532.968 284.016 533.256 283.989 533.733H283.405C283.439 532.961 284.15 532.445 285.016 532.445C285.942 532.445 286.505 533.048 286.498 533.746C286.505 534.296 286.183 534.706 285.673 534.846V534.88C286.304 534.981 286.693 535.43 286.686 536.047C286.693 536.846 285.962 537.436 284.996 537.436ZM289.149 537.436C288.068 537.436 287.451 536.53 287.451 534.94C287.451 533.364 288.082 532.445 289.149 532.445C290.215 532.445 290.846 533.364 290.846 534.94C290.846 536.53 290.222 537.436 289.149 537.436ZM289.149 536.899C289.846 536.899 290.256 536.195 290.256 534.94C290.256 533.686 289.846 532.968 289.149 532.968C288.451 532.968 288.035 533.686 288.035 534.94C288.035 536.195 288.444 536.899 289.149 536.899Z" fill="#81A9FF"/>
<rect x="96.4668" y="564.281" width="202.099" height="41.7939" rx="4.58016" fill="#EFF4FF"/>
<path d="M96.4668 568.861C96.4668 566.332 98.5174 564.281 101.047 564.281H101.619V606.075H101.047C98.5174 606.075 96.4668 604.025 96.4668 601.495V568.861Z" fill="#4D83FD"/>
<path d="M261.809 573.162V578.02H261.198V573.793H261.171L259.99 574.578V573.967L261.198 573.162H261.809ZM264.821 573.162V578.02H264.21V573.793H264.184L263.003 574.578V573.967L264.21 573.162H264.821ZM268.021 574.202C268.015 575.289 268.759 576.389 269.638 576.785L269.316 577.201C268.639 576.869 268.051 576.168 267.766 575.316C267.488 576.218 266.901 576.97 266.203 577.322L265.868 576.879C266.753 576.47 267.491 575.336 267.498 574.202V573.115H268.021V574.202ZM270.819 572.598V578.576H270.289V572.598H270.819ZM276.502 572.598V574.417H277.401V574.859H276.502V576.966H275.972V572.598H276.502ZM274.892 573.061C274.892 574.598 273.791 575.738 272.074 576.275L271.846 575.852C273.275 575.406 274.207 574.554 274.321 573.504H272.094V573.061H274.892ZM276.777 577.993V578.436H272.765V576.523H273.288V577.993H276.777ZM284.164 572.605V573.974H285.069V574.417H284.164V575.973H283.64V572.605H284.164ZM284.164 576.302V578.482H280.386V576.302H284.164ZM280.903 576.718V578.053H283.654V576.718H280.903ZM280.319 572.907V575.074C281.168 575.071 282.044 575.004 283.01 574.806L283.077 575.249C282.064 575.45 281.165 575.517 280.266 575.517H279.789V572.907H280.319ZM288.156 572.733C289.451 572.733 290.262 573.149 290.262 573.867C290.262 574.571 289.451 574.98 288.156 574.98C286.861 574.98 286.042 574.571 286.042 573.867C286.042 573.149 286.861 572.733 288.156 572.733ZM288.156 573.155C287.19 573.155 286.579 573.424 286.586 573.867C286.579 574.303 287.19 574.558 288.156 574.564C289.108 574.558 289.726 574.303 289.726 573.867C289.726 573.424 289.108 573.155 288.156 573.155ZM290.209 576.523V578.482H286.103V576.523H290.209ZM286.626 576.946V578.053H289.692V576.946H286.626ZM290.873 575.497V575.933H285.438V575.497H290.873Z" fill="#81A9FF"/>
<path d="M132.133 575.642C132.133 576.617 132.938 577.494 134.11 577.834L133.779 578.397C132.862 578.111 132.156 577.516 131.802 576.751C131.458 577.619 130.724 578.281 129.789 578.603L129.432 578.048C130.621 577.681 131.444 576.733 131.444 575.642V575.481H129.646V574.899H131.444V573.889H132.151V574.899H133.931V575.481H132.133V575.642ZM135.64 573.924V576H136.839V576.581H135.64V578.809H134.942V573.924H135.64ZM133.09 579.005C134.727 579.005 135.711 579.524 135.711 580.428C135.711 581.34 134.727 581.85 133.09 581.85C131.444 581.85 130.451 581.34 130.451 580.428C130.451 579.524 131.444 579.005 133.09 579.005ZM133.09 579.56C131.883 579.56 131.149 579.873 131.158 580.428C131.149 580.982 131.883 581.304 133.09 581.304C134.298 581.304 135.032 580.982 135.032 580.428C135.032 579.873 134.298 579.56 133.09 579.56ZM144.612 577.995V578.576H141.374V580.204H140.676V578.576H137.331V577.995H144.612ZM143.664 574.318V577.082H138.279V574.318H143.664ZM138.968 574.873V576.519H142.966V574.873H138.968ZM143.798 581.117V581.707H138.261V579.417H138.968V581.117H143.798ZM153.773 573.924V575.955H154.971V576.536H153.773V578.495H153.075V573.924H153.773ZM151.456 574.479V575.051H148.629V577.377C150.226 577.377 151.134 577.328 152.198 577.1L152.288 577.681C151.169 577.914 150.221 577.968 148.548 577.968H147.931V574.479H151.456ZM150.919 578.871V581.877H150.23V579.444H148.387V578.871H150.919ZM153.773 578.871V581.877H153.075V579.444H151.304V578.871H153.773ZM162.047 573.924V581.877H161.341V573.924H162.047ZM159.695 574.792C159.686 577.082 158.621 579.104 155.955 580.383L155.571 579.811C157.722 578.791 158.818 577.265 158.979 575.365H155.937V574.792H159.695Z" fill="black"/>
<rect width="33.2061" height="12.0229" transform="translate(129.101 587.182)" fill="#EFF4FF"/>
<rect x="129.101" y="587.182" width="33.2061" height="12.0229" rx="6.01146" fill="white"/>
<path d="M138.892 590.935V594.103H138.431V590.935H138.892ZM137.847 591.046V594.035H137.386V592.67H136.617V593.691H134.501V591.329H136.617V592.27H137.386V591.046H137.847ZM134.956 591.71V593.322H136.168V591.71H134.956ZM138.892 594.373V596.323H135.282V594.373H138.892ZM135.756 594.755V595.929H138.419V594.755H135.756ZM144.224 590.929V596.409H143.745V593.365H142.435V595.025H139.913V591.36H140.399V592.786H141.961V591.36H142.435V592.965H143.745V590.929H144.224ZM140.399 594.625H141.961V593.174H140.399V594.625ZM151.248 590.935V594.945H150.762V592.848H149.637V592.448H150.762V590.935H151.248ZM151.402 595.874V596.28H147.736V594.582H148.222V595.874H151.402ZM148.616 592.061C148.616 592.768 149.163 593.457 149.963 593.727L149.71 594.115C149.092 593.894 148.616 593.432 148.382 592.866C148.145 593.497 147.641 594.001 146.992 594.244L146.74 593.85C147.546 593.568 148.13 592.848 148.13 592.061V591.778H146.894V591.378H149.84V591.778H148.616V592.061ZM153.757 592.614C153.757 593.494 154.206 594.392 154.95 594.791L154.674 595.154C154.129 594.859 153.736 594.293 153.536 593.635C153.339 594.336 152.948 594.945 152.404 595.277L152.115 594.908C152.859 594.478 153.296 593.518 153.302 592.614V592.344H152.263V591.944H153.302V591.132H153.763V591.944H154.784V592.344H153.757V592.614ZM156.832 590.929V596.397H156.371V590.929H156.832ZM155.725 591.064V596.114H155.27V593.5H154.409V593.088H155.27V591.064H155.725Z" fill="#81A9FF"/>
<rect x="109.062" y="578.594" width="12.5954" height="12.5954" rx="2.8626" fill="#4D83FD" stroke="#4D83FD" stroke-width="1.14504"/>
<path d="M111.237 584.891L114.535 587.914L119.481 582.418" stroke="white" stroke-width="1.71756" stroke-linecap="round" stroke-linejoin="round"/>
<rect x="96.4668" y="610.656" width="202.099" height="41.7939" rx="4.58016" fill="#EFF4FF"/>
<path d="M96.4668 615.236C96.4668 612.707 98.5174 610.656 101.047 610.656H101.619V652.45H101.047C98.5174 652.45 96.4668 650.4 96.4668 647.87V615.236Z" fill="#4D83FD"/>
<path d="M261.809 619.537V624.395H261.198V620.168H261.171L259.99 620.953V620.342L261.198 619.537H261.809ZM264.821 619.537V624.395H264.21V620.168H264.184L263.003 620.953V620.342L264.21 619.537H264.821ZM268.021 620.577C268.015 621.664 268.759 622.764 269.638 623.16L269.316 623.576C268.639 623.244 268.051 622.543 267.766 621.691C267.488 622.593 266.901 623.345 266.203 623.697L265.868 623.254C266.753 622.845 267.491 621.711 267.498 620.577V619.49H268.021V620.577ZM270.819 618.973V624.951H270.289V618.973H270.819ZM276.502 618.973V620.792H277.401V621.234H276.502V623.341H275.972V618.973H276.502ZM274.892 619.436C274.892 620.973 273.791 622.113 272.074 622.65L271.846 622.227C273.275 621.781 274.207 620.929 274.321 619.879H272.094V619.436H274.892ZM276.777 624.368V624.811H272.765V622.898H273.288V624.368H276.777ZM284.164 618.98V620.349H285.069V620.792H284.164V622.348H283.64V618.98H284.164ZM284.164 622.677V624.857H280.386V622.677H284.164ZM280.903 623.093V624.428H283.654V623.093H280.903ZM280.319 619.282V621.449C281.168 621.446 282.044 621.379 283.01 621.181L283.077 621.624C282.064 621.825 281.165 621.892 280.266 621.892H279.789V619.282H280.319ZM288.156 619.108C289.451 619.108 290.262 619.524 290.262 620.242C290.262 620.946 289.451 621.355 288.156 621.355C286.861 621.355 286.042 620.946 286.042 620.242C286.042 619.524 286.861 619.108 288.156 619.108ZM288.156 619.53C287.19 619.53 286.579 619.799 286.586 620.242C286.579 620.678 287.19 620.933 288.156 620.939C289.108 620.933 289.726 620.678 289.726 620.242C289.726 619.799 289.108 619.53 288.156 619.53ZM290.209 622.898V624.857H286.103V622.898H290.209ZM286.626 623.321V624.428H289.692V623.321H286.626ZM290.873 621.872V622.308H285.438V621.872H290.873Z" fill="#81A9FF"/>
<path d="M131.775 622.026C131.775 622.965 132.402 623.886 133.412 624.253L133.072 624.799C132.294 624.49 131.744 623.895 131.462 623.171C131.185 623.958 130.626 624.607 129.834 624.942L129.485 624.414C130.496 623.994 131.104 623.037 131.113 622.026V621.927H129.646V621.355H131.113V620.398H131.775V621.355H133.216V621.927H131.775V622.026ZM136.177 620.308V625.175H135.506V623.019H134.468V625.139H133.788V620.451H134.468V622.437H135.506V620.308H136.177ZM136.177 625.604V628.252H135.488V626.177H130.818V625.604H136.177ZM139.996 621.587C139.996 622.67 140.819 623.663 141.973 624.056L141.589 624.611C140.708 624.289 140.014 623.632 139.665 622.804C139.325 623.739 138.619 624.477 137.688 624.835L137.313 624.271C138.502 623.824 139.299 622.759 139.308 621.534V620.711H139.996V621.587ZM143.557 620.299V622.375H144.755V622.965H143.557V625.139H142.859V620.299H143.557ZM141.007 625.345C142.644 625.345 143.628 625.872 143.628 626.785C143.628 627.715 142.644 628.234 141.007 628.234C139.37 628.234 138.368 627.715 138.368 626.785C138.368 625.872 139.37 625.345 141.007 625.345ZM141.007 625.908C139.808 625.908 139.066 626.239 139.075 626.785C139.066 627.348 139.808 627.67 141.007 627.679C142.215 627.67 142.948 627.348 142.948 626.785C142.948 626.239 142.215 625.908 141.007 625.908ZM153.773 620.299V622.33H154.971V622.911H153.773V624.87H153.075V620.299H153.773ZM151.456 620.854V621.426H148.629V623.752C150.226 623.752 151.134 623.703 152.198 623.475L152.288 624.056C151.169 624.289 150.221 624.343 148.548 624.343H147.931V620.854H151.456ZM150.919 625.246V628.252H150.23V625.819H148.387V625.246H150.919ZM153.773 625.246V628.252H153.075V625.819H151.304V625.246H153.773ZM162.047 620.299V628.252H161.341V620.299H162.047ZM159.695 621.167C159.686 623.457 158.621 625.479 155.955 626.758L155.571 626.186C157.722 625.166 158.818 623.64 158.979 621.74H155.937V621.167H159.695Z" fill="black"/>
<rect width="33.2061" height="12.0229" transform="translate(129.101 633.557)" fill="#EFF4FF"/>
<rect x="129.101" y="633.557" width="33.2061" height="12.0229" rx="6.01146" fill="white"/>
<path d="M138.892 637.31V640.478H138.431V637.31H138.892ZM137.847 637.421V640.41H137.386V639.045H136.617V640.066H134.501V637.704H136.617V638.645H137.386V637.421H137.847ZM134.956 638.085V639.697H136.168V638.085H134.956ZM138.892 640.748V642.698H135.282V640.748H138.892ZM135.756 641.13V642.304H138.419V641.13H135.756ZM144.224 637.304V642.784H143.745V639.74H142.435V641.4H139.913V637.735H140.399V639.161H141.961V637.735H142.435V639.34H143.745V637.304H144.224ZM140.399 641H141.961V639.549H140.399V641ZM151.248 637.31V641.32H150.762V639.223H149.637V638.823H150.762V637.31H151.248ZM151.402 642.249V642.655H147.736V640.957H148.222V642.249H151.402ZM148.616 638.436C148.616 639.143 149.163 639.832 149.963 640.102L149.71 640.49C149.092 640.269 148.616 639.807 148.382 639.241C148.145 639.872 147.641 640.376 146.992 640.619L146.74 640.225C147.546 639.943 148.13 639.223 148.13 638.436V638.153H146.894V637.753H149.84V638.153H148.616V638.436ZM153.757 638.989C153.757 639.869 154.206 640.767 154.95 641.166L154.674 641.529C154.129 641.234 153.736 640.668 153.536 640.01C153.339 640.711 152.948 641.32 152.404 641.652L152.115 641.283C152.859 640.853 153.296 639.893 153.302 638.989V638.719H152.263V638.319H153.302V637.507H153.763V638.319H154.784V638.719H153.757V638.989ZM156.832 637.304V642.772H156.371V637.304H156.832ZM155.725 637.439V642.489H155.27V639.875H154.409V639.463H155.27V637.439H155.725Z" fill="#81A9FF"/>
<rect x="109.062" y="624.969" width="12.5954" height="12.5954" rx="2.8626" fill="#4D83FD" stroke="#4D83FD" stroke-width="1.14504"/>
<path d="M111.237 631.266L114.535 634.289L119.481 628.793" stroke="white" stroke-width="1.71756" stroke-linecap="round" stroke-linejoin="round"/>
<circle cx="197.803" cy="267.144" r="179.199" fill="url(#paint0_linear_6885_30248)"/>
<circle cx="198.948" cy="342.143" r="58.397" fill="white"/>
<circle cx="198.375" cy="342.144" r="71.8512" stroke="#E5E5E5" stroke-width="2.8626"/>
<path d="M198.375 270.293C207.811 270.293 217.154 272.151 225.872 275.762C234.589 279.373 242.51 284.665 249.182 291.337C255.854 298.009 261.146 305.93 264.757 314.648C268.368 323.365 270.226 332.708 270.226 342.144C270.226 351.579 268.368 360.923 264.757 369.64C261.146 378.358 255.854 386.278 249.182 392.95C242.51 399.622 234.589 404.915 225.872 408.526C217.154 412.137 207.811 413.995 198.375 413.995C188.94 413.995 179.596 412.137 170.879 408.526C162.162 404.915 154.241 399.622 147.569 392.95C140.897 386.278 135.604 378.357 131.993 369.64C128.383 360.923 126.524 351.579 126.524 342.144C126.524 332.708 128.383 323.365 131.993 314.648C135.604 305.93 140.897 298.009 147.569 291.337C154.241 284.665 162.162 279.373 170.879 275.762C179.596 272.151 188.94 270.293 198.375 270.293L198.375 270.293Z" stroke="white" stroke-width="2.8626"/>
<circle cx="199.234" cy="268.575" r="7.72901" fill="white"/>
<path d="M183.455 324.243V327.579H184.591V328.411H183.455V332.329H182.453V324.243H183.455ZM176.961 330.084C177.574 330.084 178.285 330.084 179.027 330.066V329.306C178.146 329.158 177.569 328.604 177.578 327.848C177.569 326.935 178.374 326.327 179.537 326.327C180.682 326.327 181.496 326.935 181.505 327.848C181.496 328.608 180.91 329.163 180.029 329.306V330.03C180.709 329.995 181.389 329.941 182.024 329.851L182.087 330.576C180.351 330.889 178.482 330.907 177.104 330.907L176.961 330.084ZM181.935 325.173V325.96H177.113V325.173H179.027V324.278H180.029V325.173H181.935ZM179.537 327.087C178.92 327.096 178.517 327.373 178.517 327.848C178.517 328.313 178.92 328.59 179.537 328.581C180.145 328.59 180.548 328.313 180.548 327.848C180.548 327.373 180.145 327.096 179.537 327.087ZM187.874 325.701C187.874 326.694 188.519 327.624 189.78 328.009L189.306 328.787C188.398 328.505 187.754 327.928 187.4 327.195C187.043 328.044 186.358 328.72 185.388 329.046L184.887 328.259C186.193 327.83 186.873 326.783 186.873 325.71V325.611H185.164V324.806H189.556V325.611H187.874V325.701ZM191.354 324.243V326.184H192.481V326.998H191.354V329.064H190.361V324.243H191.354ZM188.724 329.243C190.397 329.243 191.426 329.807 191.435 330.773C191.426 331.748 190.397 332.32 188.724 332.32C187.034 332.32 185.987 331.748 185.987 330.773C185.987 329.807 187.034 329.243 188.724 329.243ZM188.724 330.021C187.615 330.021 186.98 330.281 186.98 330.773C186.98 331.274 187.615 331.542 188.724 331.542C189.834 331.542 190.451 331.274 190.451 330.773C190.451 330.281 189.834 330.021 188.724 330.021ZM199.611 324.243V328.366H198.627V324.243H199.611ZM199.629 328.742V330.844H195.255V331.471H199.871V332.258H194.28V330.102H198.636V329.511H194.262V328.742H199.629ZM195.908 325.066C195.908 326.094 196.588 327.06 197.867 327.445L197.384 328.214C196.444 327.928 195.773 327.324 195.407 326.55C195.04 327.391 194.351 328.049 193.385 328.358L192.884 327.579C194.19 327.159 194.879 326.121 194.879 325.066V324.439H195.908V325.066ZM205.891 325.969C205.891 326.855 206.58 327.731 207.85 328.071L207.385 328.841C206.45 328.586 205.779 328.04 205.408 327.338C205.059 328.134 204.384 328.76 203.422 329.046L202.957 328.277C204.218 327.892 204.898 326.944 204.898 325.969V325.924H203.207V325.137H204.898V324.207H205.9V325.137H207.582V325.924H205.891V325.969ZM209.755 324.243V329.136H208.762V327.266H207.34V326.461H208.762V324.243H209.755ZM207.018 329.297C208.727 329.297 209.782 329.842 209.782 330.8C209.782 331.766 208.727 332.32 207.018 332.32C205.318 332.32 204.263 331.766 204.272 330.8C204.263 329.842 205.318 329.297 207.018 329.297ZM207.018 330.057C205.891 330.066 205.256 330.317 205.256 330.8C205.256 331.283 205.891 331.551 207.018 331.551C208.163 331.551 208.789 331.283 208.789 330.8C208.789 330.317 208.163 330.066 207.018 330.057ZM218.29 330.522V331.327H210.9V330.522H214.067V328.653H215.051V330.522H218.29ZM215.078 325.325C215.078 326.55 216.304 327.758 218.003 328.027L217.574 328.85C216.205 328.59 215.087 327.807 214.55 326.747C214.014 327.803 212.904 328.599 211.545 328.85L211.115 328.027C212.806 327.758 214.014 326.542 214.023 325.325V324.735H215.078V325.325Z" fill="#4D83FD"/>
<path d="M176.546 340.351V366.258H171.858V344.896H171.715L165.668 348.76V344.502L172.073 340.351H176.546ZM189.466 366.616C183.24 366.616 179.519 361.785 179.519 353.305C179.519 344.86 183.24 339.993 189.466 339.993C195.657 339.993 199.414 344.86 199.414 353.305C199.414 361.785 195.692 366.616 189.466 366.616ZM189.466 362.715C192.722 362.715 194.726 359.531 194.726 353.305C194.726 347.114 192.687 343.858 189.466 343.858C186.246 343.858 184.206 347.114 184.206 353.305C184.206 359.531 186.21 362.715 189.466 362.715ZM210.67 366.616C204.443 366.616 200.722 361.785 200.722 353.305C200.722 344.86 204.443 339.993 210.67 339.993C216.86 339.993 220.617 344.86 220.617 353.305C220.617 361.785 216.896 366.616 210.67 366.616ZM210.67 362.715C213.926 362.715 215.93 359.531 215.93 353.305C215.93 347.114 213.89 343.858 210.67 343.858C207.449 343.858 205.41 347.114 205.41 353.305C205.41 359.531 207.413 362.715 210.67 362.715ZM225.167 361.28C223.785 361.28 223.033 360.26 223.033 358.77C223.033 357.294 223.811 356.275 225.167 356.275C226.576 356.275 227.314 357.294 227.314 358.77C227.314 360.273 226.549 361.28 225.167 361.28ZM225.167 360.206C225.771 360.206 226.066 359.643 226.066 358.77C226.066 357.925 225.797 357.335 225.167 357.348C224.576 357.348 224.268 357.925 224.268 358.77C224.268 359.643 224.576 360.206 225.167 360.206ZM231.514 366.513C230.132 366.526 229.38 365.493 229.38 364.017C229.38 362.527 230.158 361.508 231.514 361.508C232.909 361.508 233.661 362.527 233.661 364.017C233.661 365.506 232.896 366.526 231.514 366.513ZM231.514 365.439C232.131 365.439 232.413 364.876 232.413 364.017C232.413 363.158 232.144 362.568 231.514 362.581C230.923 362.581 230.615 363.172 230.615 364.017C230.615 364.876 230.923 365.439 231.514 365.439ZM224.281 366.258L230.963 356.543H232.319L225.636 366.258H224.281Z" fill="#4D83FD"/>
<path d="M293.803 233.402C293.848 233.477 293.875 233.564 293.875 233.657V242.806C293.875 243.081 293.652 243.305 293.376 243.305H280.077C279.802 243.305 279.578 243.081 279.578 242.806V233.749L286.185 239.052C286.353 239.187 286.592 239.187 286.761 239.053L293.701 233.519C293.743 233.485 293.776 233.445 293.803 233.402ZM286.474 238.102L280.314 233.158H292.675L286.474 238.102Z" fill="white"/>
<path d="M193.947 376.782C194.965 376.782 195.677 377.329 195.677 378.159C195.677 378.875 195.114 379.396 194.276 379.498V380.179C194.926 380.151 195.587 380.093 196.194 379.999L196.241 380.46C194.769 380.727 193.102 380.742 191.897 380.742L191.818 380.233C192.358 380.237 192.993 380.233 193.658 380.21V379.505C192.797 379.412 192.218 378.887 192.225 378.159C192.218 377.329 192.93 376.782 193.947 376.782ZM193.947 377.259C193.274 377.259 192.797 377.619 192.805 378.159C192.797 378.684 193.274 379.044 193.947 379.051C194.628 379.044 195.09 378.684 195.098 378.159C195.09 377.619 194.628 377.259 193.947 377.259ZM197.258 376.461V378.817H198.3V379.341H197.258V381.783H196.64V376.461H197.258ZM197.509 382.738V383.255H192.836V381.321H193.454V382.738H197.509ZM205.125 382.034V382.55H198.753V382.034H200.546V380.711H199.552V378.566H203.716V377.478H199.536V376.969H204.319V379.075H200.162V380.202H204.483V380.711H203.395V382.034H205.125ZM201.149 382.034H202.792V380.711H201.149V382.034Z" fill="#8E8E8E"/>
<rect x="204.578" y="429.74" width="11.4504" height="5.15268" rx="2.57634" fill="#4D83FD"/>
<circle cx="183.109" cy="432.317" r="2.57634" fill="#D9D9D9"/>
<circle cx="195.131" cy="432.317" r="2.57634" fill="#D9D9D9"/>
<path d="M198.132 309.898H191.351C191.012 309.898 190.736 310.164 190.736 310.492V314.617C190.736 314.945 191.012 315.21 191.351 315.21H198.132C198.472 315.21 198.747 314.945 198.747 314.617V310.492C198.747 310.164 198.472 309.898 198.132 309.898Z" fill="url(#paint1_linear_6885_30248)"/>
<path d="M203.778 306.378V307.861C203.778 309.67 202.258 311.139 200.384 311.139H191.343C189.47 311.139 187.948 309.671 187.948 307.861V306.378C187.948 306.281 188.029 306.203 188.129 306.203H203.599C203.698 306.203 203.779 306.281 203.779 306.378H203.778Z" fill="url(#paint2_linear_6885_30248)"/>
<path d="M203.756 315.611C203.608 314.641 202.744 313.896 201.698 313.896H190.031C188.986 313.896 188.12 314.641 187.973 315.611H203.757H203.756Z" fill="url(#paint3_linear_6885_30248)"/>
<path d="M192.96 306.846V304.84H203.712C203.932 304.84 204.11 305.012 204.11 305.224V306.462C204.11 306.674 203.932 306.846 203.712 306.846H192.96Z" fill="#F99DF9"/>
<path d="M187.817 296.764H192.346C192.685 296.764 192.961 297.03 192.961 297.357V306.846H187.818C187.479 306.846 187.203 306.58 187.203 306.252V297.357C187.203 297.03 187.479 296.764 187.818 296.764H187.817Z" fill="#FECFFF"/>
<path d="M190.911 297.928H189.251C189.129 297.928 189.03 298.023 189.03 298.141C189.03 298.259 189.129 298.354 189.251 298.354H190.911C191.033 298.354 191.132 298.259 191.132 298.141C191.132 298.023 191.033 297.928 190.911 297.928Z" fill="#F99DF9"/>
<path d="M203.669 315.371H188.064C187.939 315.371 187.838 315.469 187.838 315.59V316.156C187.838 316.276 187.939 316.374 188.064 316.374H203.669C203.794 316.374 203.896 316.276 203.896 316.156V315.59C203.896 315.469 203.794 315.371 203.669 315.371Z" fill="#F99DF9"/>
<path d="M197.986 298.961L198.06 299.227C198.307 300.12 198.971 300.85 199.857 301.203C198.971 301.555 198.307 302.285 198.06 303.179L197.986 303.445L197.913 303.179C197.666 302.286 197.001 301.556 196.116 301.203C197.001 300.851 197.666 300.121 197.913 299.227L197.986 298.961Z" fill="#78F4BD"/>
<path d="M205.782 309.297L205.895 309.704C206.038 310.218 206.42 310.638 206.929 310.841L207.141 310.925L206.929 311.01C206.42 311.212 206.037 311.633 205.895 312.146L205.782 312.554L205.67 312.146C205.527 311.633 205.145 311.212 204.636 311.01L204.424 310.925L204.636 310.841C205.145 310.638 205.528 310.218 205.67 309.704L205.782 309.297Z" fill="#78F4BD"/>
<path d="M200.569 297.846L200.605 297.978C200.728 298.422 201.059 298.785 201.499 298.96C201.059 299.136 200.728 299.498 200.605 299.943L200.569 300.075L200.532 299.943C200.409 299.498 200.079 299.136 199.639 298.96C200.079 298.785 200.409 298.422 200.532 297.978L200.569 297.846Z" fill="#78F4BD"/>
<rect opacity="0.61" x="96.9443" y="231.076" width="62.4046" height="17.1756" rx="4.58016" fill="#81A9FF"/>
<path d="M107.392 242.036C105.698 241.822 104.387 240.353 104.387 238.574C104.387 236.646 105.925 235.084 107.822 235.084C109.719 235.084 111.257 236.646 111.257 238.574C111.257 240.353 109.946 241.822 108.251 242.036V242.941C109.946 242.981 111.257 243.256 111.257 243.59C111.257 243.951 109.719 244.244 107.822 244.244C105.925 244.244 104.387 243.951 104.387 243.59C104.387 243.256 105.698 242.981 107.392 242.941V242.036ZM107.822 239.446C108.296 239.446 108.681 239.055 108.681 238.574C108.681 238.092 108.296 237.701 107.822 237.701C107.348 237.701 106.963 238.092 106.963 238.574C106.963 239.055 107.348 239.446 107.822 239.446Z" fill="white"/>
<path d="M121.057 236.218V236.782H120.225V237.701H121.023V238.264H116.568V237.701H117.367V236.782H116.535V236.218H121.057ZM121.567 238.647V239.237H116.038V238.647H121.567ZM120.876 239.647V241.089H117.427V241.498H121.043V242.055H116.696V240.572H120.144V240.19H116.689V239.647H120.876ZM118.111 237.701H119.473V236.782H118.111V237.701ZM124.311 236.674V238.902H122.875V240.042C123.502 240.036 124.096 240.009 124.78 239.881L124.841 240.492C124.029 240.64 123.345 240.66 122.58 240.66H122.157V238.311H123.593V237.271H122.15V236.674H124.311ZM127.196 236.044V242.109H126.484V236.044H127.196ZM125.948 236.171V241.8H125.243V238.761H124.579V238.15H125.243V236.171H125.948ZM132.959 236.044V242.116H132.207V236.044H132.959ZM129.691 236.487C130.604 236.487 131.268 237.318 131.275 238.627C131.268 239.948 130.604 240.774 129.691 240.774C128.772 240.774 128.108 239.948 128.108 238.627C128.108 237.318 128.772 236.487 129.691 236.487ZM129.691 237.157C129.175 237.157 128.826 237.701 128.826 238.627C128.826 239.559 129.175 240.103 129.691 240.103C130.201 240.103 130.55 239.559 130.55 238.627C130.55 237.701 130.201 237.157 129.691 237.157ZM136.984 236.876C136.984 237.815 137.904 238.754 139.172 238.976L138.836 239.6C137.82 239.385 136.988 238.771 136.595 237.956C136.193 238.764 135.361 239.382 134.348 239.6L134.019 238.976C135.274 238.748 136.186 237.808 136.193 236.876V236.426H136.984V236.876ZM139.393 240.72V241.337H133.851V240.72H139.393ZM146.464 236.044V242.116H145.713V236.044H146.464ZM143.197 236.487C144.11 236.487 144.774 237.318 144.78 238.627C144.774 239.948 144.11 240.774 143.197 240.774C142.278 240.774 141.614 239.948 141.614 238.627C141.614 237.318 142.278 236.487 143.197 236.487ZM143.197 237.157C142.68 237.157 142.332 237.701 142.332 238.627C142.332 239.559 142.68 240.103 143.197 240.103C143.707 240.103 144.056 239.559 144.056 238.627C144.056 237.701 143.707 237.157 143.197 237.157ZM152.892 239.13V239.72H147.35V239.13H152.892ZM152.208 236.171V237.728H148.793V238.164H152.328V238.734H148.055V237.184H151.463V236.755H148.034V236.171H152.208ZM152.228 240.156V242.035H148.075V240.156H152.228ZM148.806 240.747V241.431H151.49V240.747H148.806Z" fill="white"/>
<g filter="url(#filter0_d_6885_30248)">
<rect x="79.1016" y="631.268" width="225" height="47.5191" fill="white"/>
</g>
<path d="M264.796 650.427L263.266 648.896C263.174 648.805 263.174 648.655 263.266 648.563L264.796 647.033V644.869C264.796 644.74 264.901 644.635 265.03 644.635H267.194L268.725 643.104C268.805 643.024 268.929 643.014 269.021 643.074L269.058 643.104L270.588 644.635H272.752C272.882 644.635 272.987 644.739 272.987 644.869V647.033L274.518 648.563C274.609 648.655 274.609 648.805 274.518 648.896L272.987 650.427V652.591C272.987 652.721 272.882 652.826 272.752 652.826H270.588L269.058 654.356C268.966 654.448 268.816 654.448 268.725 654.356L267.194 652.826H265.03C264.901 652.826 264.796 652.721 264.796 652.591V650.427Z" stroke="#4D83FD" stroke-width="0.632785"/>
<circle cx="269.049" cy="648.888" r="0.917538" stroke="#4D83FD" stroke-width="0.632785"/>
<path d="M268.462 658.162V661.255H267.824V659.712H266.556V659.196H267.824V658.162H268.462ZM268.462 661.537V663.033H265.167V663.59H268.67V664.1H264.543V662.55H267.831V662.04H264.53V661.537H268.462ZM265.563 658.88C265.563 659.645 266.113 660.356 267.019 660.645L266.684 661.141C266.023 660.913 265.523 660.46 265.261 659.887C264.996 660.531 264.48 661.037 263.772 661.282L263.43 660.772C264.369 660.47 264.926 659.726 264.933 658.88V658.357H265.563V658.88ZM274.399 658.162V661.738H273.762V660.215H272.641V659.692H273.762V658.162H274.399ZM272.386 661.906C273.648 661.906 274.419 662.322 274.419 663.04C274.419 663.758 273.648 664.167 272.386 664.174C271.125 664.167 270.347 663.758 270.354 663.04C270.347 662.322 271.125 661.906 272.386 661.906ZM272.386 662.403C271.508 662.403 270.984 662.631 270.984 663.04C270.984 663.442 271.508 663.677 272.386 663.671C273.265 663.677 273.789 663.442 273.789 663.04C273.789 662.631 273.265 662.403 272.386 662.403ZM271.541 659.222C271.541 659.987 272.085 660.725 272.99 661.034L272.662 661.537C271.987 661.302 271.491 660.823 271.232 660.229C270.967 660.903 270.441 661.443 269.723 661.705L269.387 661.195C270.32 660.873 270.89 660.061 270.89 659.229V659.095H269.589V658.578H272.829V659.095H271.541V659.222Z" fill="#4D83FD"/>
<path d="M191.498 642.853C191.728 642.674 192.049 642.674 192.278 642.853L197.367 646.811C197.522 646.931 197.613 647.116 197.613 647.312V653.999C197.613 654.35 197.329 654.636 196.978 654.636H186.799C186.448 654.636 186.163 654.35 186.163 653.999V647.312C186.163 647.116 186.254 646.931 186.408 646.811L191.498 642.853ZM191.856 649.716C191.171 649.716 190.616 650.271 190.616 650.956C190.616 651.641 191.171 652.196 191.856 652.196C192.541 652.196 193.097 651.641 193.097 650.956C193.097 650.271 192.542 649.716 191.856 649.716Z" fill="#4D83FD"/>
<path d="M194.088 662.409V664.147H189.935V662.409H194.088ZM190.566 662.899V663.657H193.471V662.899H190.566ZM194.451 658.686V659.175H189.56V658.686H191.7V658.129H192.337V658.686H194.451ZM192.015 659.39C193.283 659.39 193.988 659.679 193.988 660.242C193.988 660.755 193.401 661.041 192.337 661.087V661.497H194.759V662H189.278V661.497H191.7V661.087C190.637 661.041 190.036 660.755 190.043 660.242C190.036 659.679 190.754 659.39 192.015 659.39ZM192.015 659.826C191.177 659.833 190.72 659.967 190.72 660.242C190.72 660.51 191.177 660.658 192.015 660.658C192.861 660.658 193.31 660.51 193.31 660.242C193.31 659.967 192.861 659.833 192.015 659.826Z" fill="#4D83FD"/>
<path d="M121.494 647.148V654.141C121.494 654.298 121.367 654.425 121.21 654.425H110.39C110.232 654.425 110.105 654.298 110.104 654.141V647.148H121.494ZM113.68 643.035V644.237H117.919V643.035H118.489V644.237H121.21C121.367 644.237 121.494 644.365 121.494 644.522V645.883H110.104V644.522C110.104 644.365 110.232 644.237 110.39 644.237H113.11V643.035H113.68Z" stroke="#4D83FD" stroke-width="0.632785"/>
<circle cx="112.161" cy="649.268" r="0.854259" stroke="#4D83FD" stroke-width="0.632785"/>
<circle cx="115.768" cy="649.268" r="0.854259" stroke="#4D83FD" stroke-width="0.632785"/>
<circle cx="119.375" cy="649.268" r="0.854259" stroke="#4D83FD" stroke-width="0.632785"/>
<path d="M109.581 658.46C109.581 659.895 108.856 660.922 107.239 661.526L106.957 661.076C107.739 660.794 108.266 660.422 108.588 659.956L107.031 660.13L106.937 659.614L108.829 659.5C108.886 659.332 108.926 659.161 108.95 658.976H107.212V658.46H109.581ZM112.023 658.124V661.257H111.419V659.976H110.694V661.217H110.091V658.231H110.694V659.453H111.419V658.124H112.023ZM112.023 661.512V662.982H108.635V663.552H112.251V664.055H108.004V662.512H111.399V662.015H107.991V661.512H112.023ZM117.813 658.124V662.546H117.182V658.124H117.813ZM117.981 663.485V664.001H113.841V662.197H114.478V663.485H117.981ZM115.901 658.54V660.331H113.774V661.197C114.881 661.194 115.632 661.157 116.525 660.996L116.592 661.519C115.646 661.687 114.847 661.72 113.653 661.72H113.15V659.848H115.27V659.05H113.137V658.54H115.901ZM121.825 658.674V659.204H119.712V662.136C120.718 662.133 121.412 662.096 122.201 661.942L122.274 662.465C121.409 662.626 120.678 662.666 119.544 662.666H119.067V658.674H121.825ZM123.791 658.117V664.142H123.153V660.794H121.483V660.264H123.153V658.117H123.791Z" fill="#4D83FD"/>
<path d="M192.757 236.84L192.936 238.283C191.383 238.612 189.926 238.681 187.096 238.681H186.024V232.883H191.699V234.325H187.824V237.225C190.119 237.211 191.383 237.128 192.757 236.84ZM191.397 243.243C193.004 243.243 193.897 242.886 193.897 242.116C193.897 241.36 193.004 241.003 191.397 241.003C189.803 241.003 188.91 241.36 188.91 242.116C188.91 242.886 189.803 243.243 191.397 243.243ZM191.397 239.56C194.021 239.56 195.684 240.522 195.684 242.116C195.684 243.737 194.021 244.699 191.397 244.699C188.8 244.699 187.123 243.737 187.123 242.116C187.123 240.522 188.8 239.56 191.397 239.56ZM195.574 235.026H197.223V236.496H195.574V239.341H193.746V232.017H195.574V235.026ZM202.965 237.966V236.18H200.561V237.966H202.965ZM204.738 236.854V239.409H198.761V232.869H200.561V234.792H202.965V232.883H204.738V235.397H206.991V232.044H208.805V241.374H206.991V236.854H204.738ZM202.264 243.023H209.08V244.466H200.451V240.467H202.264V243.023Z" fill="white"/>
<path d="M111.953 203.868C112.321 203.868 112.669 203.936 112.999 204.072C113.328 204.205 113.62 204.414 113.873 204.699C114.13 204.981 114.331 205.344 114.477 205.788C114.622 206.228 114.695 206.759 114.695 207.38V207.389C114.695 208.159 114.584 208.818 114.362 209.366C114.141 209.914 113.822 210.336 113.407 210.63C112.995 210.922 112.503 211.068 111.929 211.068C111.508 211.068 111.128 210.992 110.789 210.839C110.453 210.684 110.174 210.472 109.952 210.203C109.734 209.93 109.586 209.62 109.51 209.271L109.501 209.219H110.703L110.722 209.266C110.782 209.425 110.868 209.564 110.979 209.685C111.093 209.805 111.229 209.898 111.388 209.965C111.549 210.028 111.73 210.06 111.929 210.06C112.29 210.06 112.585 209.954 112.813 209.742C113.045 209.526 113.217 209.239 113.331 208.881C113.448 208.52 113.515 208.121 113.531 207.684C113.534 207.636 113.536 207.59 113.536 207.546C113.536 207.499 113.536 207.453 113.536 207.408L113.322 206.263C113.322 206.003 113.262 205.767 113.141 205.555C113.021 205.343 112.858 205.175 112.652 205.051C112.449 204.928 112.219 204.866 111.963 204.866C111.715 204.866 111.489 204.926 111.283 205.046C111.077 205.167 110.912 205.331 110.789 205.541C110.665 205.747 110.603 205.978 110.603 206.234V206.244C110.603 206.51 110.662 206.746 110.779 206.952C110.896 207.155 111.056 207.315 111.259 207.432C111.462 207.549 111.693 207.608 111.953 207.608C112.213 207.608 112.446 207.551 112.652 207.437C112.858 207.323 113.021 207.164 113.141 206.962C113.262 206.759 113.322 206.529 113.322 206.272V206.263H113.607V207.527H113.441C113.358 207.708 113.236 207.876 113.075 208.031C112.913 208.186 112.713 208.311 112.476 208.406C112.241 208.501 111.966 208.549 111.649 208.549C111.212 208.549 110.825 208.451 110.489 208.254C110.153 208.058 109.889 207.788 109.696 207.446C109.506 207.104 109.411 206.718 109.411 206.287V206.277C109.411 205.811 109.518 205.398 109.734 205.037C109.952 204.672 110.253 204.387 110.637 204.181C111.023 203.972 111.462 203.868 111.953 203.868ZM116.853 209.975C116.637 209.975 116.457 209.903 116.311 209.761C116.168 209.615 116.097 209.438 116.097 209.228C116.097 209.016 116.168 208.839 116.311 208.696C116.457 208.55 116.637 208.478 116.853 208.478C117.071 208.478 117.252 208.55 117.394 208.696C117.537 208.839 117.608 209.016 117.608 209.228C117.608 209.438 117.537 209.615 117.394 209.761C117.252 209.903 117.071 209.975 116.853 209.975ZM116.853 206.448C116.637 206.448 116.457 206.377 116.311 206.234C116.168 206.089 116.097 205.911 116.097 205.702C116.097 205.49 116.168 205.312 116.311 205.17C116.457 205.024 116.637 204.951 116.853 204.951C117.071 204.951 117.252 205.024 117.394 205.17C117.537 205.312 117.608 205.49 117.608 205.702C117.608 205.911 117.537 206.089 117.394 206.234C117.252 206.377 117.071 206.448 116.853 206.448ZM122.337 210.896V209.58H118.982V208.577C119.162 208.27 119.343 207.961 119.524 207.651C119.707 207.34 119.893 207.031 120.08 206.724C120.27 206.413 120.458 206.108 120.645 205.807C120.835 205.503 121.024 205.203 121.211 204.909C121.401 204.611 121.591 204.321 121.781 204.039H123.506V208.568H124.433V209.58H123.506V210.896H122.337ZM120.122 208.596H122.356V205.018H122.285C122.145 205.233 122.001 205.455 121.852 205.683C121.706 205.911 121.559 206.144 121.41 206.382C121.261 206.619 121.114 206.859 120.968 207.099C120.823 207.337 120.678 207.576 120.536 207.817C120.393 208.055 120.255 208.291 120.122 208.525V208.596ZM127.27 210.896V205.246H127.184L125.478 206.448V205.298L127.27 204.039H128.491V210.896H127.27Z" fill="white"/>
<rect opacity="0.35" x="270.161" y="203.851" width="13.7405" height="6.87023" rx="2.17557" stroke="white" stroke-width="0.57252"/>
<path opacity="0.4" d="M284.761 206.301V208.634C285.221 208.436 285.521 207.977 285.521 207.467C285.521 206.958 285.221 206.498 284.761 206.301" fill="white"/>
<rect x="271.02" y="204.709" width="12.0229" height="5.15268" rx="1.4313" fill="white"/>
<path fill-rule="evenodd" clip-rule="evenodd" d="M260.869 205.342C262.293 205.342 263.663 205.87 264.695 206.816C264.772 206.889 264.896 206.888 264.973 206.814L265.716 206.091C265.755 206.053 265.776 206.002 265.776 205.949C265.776 205.896 265.753 205.845 265.714 205.808C263.006 203.304 258.732 203.304 256.024 205.808C255.985 205.845 255.962 205.896 255.962 205.949C255.962 206.002 255.983 206.053 256.022 206.091L256.765 206.814C256.841 206.889 256.966 206.889 257.043 206.816C258.075 205.87 259.445 205.342 260.869 205.342ZM260.867 207.758C261.644 207.758 262.394 208.051 262.97 208.58C263.048 208.655 263.17 208.653 263.246 208.576L263.983 207.821C264.022 207.781 264.044 207.728 264.043 207.672C264.043 207.616 264.02 207.563 263.98 207.524C262.226 205.869 259.51 205.869 257.756 207.524C257.716 207.563 257.693 207.616 257.693 207.672C257.692 207.728 257.714 207.781 257.753 207.821L258.49 208.576C258.566 208.653 258.688 208.655 258.766 208.58C259.342 208.051 260.091 207.758 260.867 207.758ZM262.313 209.357C262.314 209.418 262.292 209.476 262.254 209.518L261.008 210.923C260.971 210.965 260.921 210.988 260.869 210.988C260.817 210.988 260.768 210.965 260.731 210.923L259.485 209.518C259.446 209.476 259.425 209.418 259.426 209.357C259.427 209.297 259.451 209.24 259.491 209.199C260.287 208.447 261.452 208.447 262.248 209.199C262.288 209.24 262.311 209.297 262.313 209.357Z" fill="white"/>
<path fill-rule="evenodd" clip-rule="evenodd" d="M251.669 204.527C251.669 204.165 251.396 203.871 251.058 203.871H250.448C250.11 203.871 249.837 204.165 249.837 204.527V210.215C249.837 210.577 250.11 210.871 250.448 210.871H251.058C251.396 210.871 251.669 210.577 251.669 210.215V204.527ZM247.413 205.271H248.024C248.361 205.271 248.634 205.572 248.634 205.943V210.199C248.634 210.57 248.361 210.871 248.024 210.871H247.413C247.076 210.871 246.802 210.57 246.802 210.199V205.943C246.802 205.572 247.076 205.271 247.413 205.271ZM244.933 206.788H244.322C243.985 206.788 243.712 207.092 243.712 207.468V210.19C243.712 210.566 243.985 210.871 244.322 210.871H244.933C245.27 210.871 245.544 210.566 245.544 210.19V207.468C245.544 207.092 245.27 206.788 244.933 206.788ZM241.898 208.188H241.287C240.95 208.188 240.677 208.488 240.677 208.858V210.2C240.677 210.571 240.95 210.871 241.287 210.871H241.898C242.235 210.871 242.509 210.571 242.509 210.2V208.858C242.509 208.488 242.235 208.188 241.898 208.188Z" fill="white"/>
<path d="M276.057 462.186H287.507" stroke="#81A9FF" stroke-width="1.14504" stroke-linecap="round"/>
<path d="M276.057 454.551H287.507" stroke="#81A9FF" stroke-width="1.14504" stroke-linecap="round"/>
<path d="M276.057 458.367H287.507" stroke="#81A9FF" stroke-width="1.14504" stroke-linecap="round"/>
<ellipse cx="278.302" cy="454.551" rx="1.79614" ry="1.9084" fill="#81A9FF"/>
<ellipse cx="285.037" cy="458.367" rx="1.79614" ry="1.9084" fill="#81A9FF"/>
<ellipse cx="280.547" cy="462.184" rx="1.79614" ry="1.9084" fill="#81A9FF"/>
<rect width="79.5802" height="2.8626" rx="1.4313" transform="matrix(-1 0 0 1 237.52 696.318)" fill="black"/>
<path d="M98.8107 455.217V455.914H96.5016V457.487C97.7892 457.479 98.5602 457.428 99.4369 457.252L99.5308 457.925C98.5837 458.145 97.7149 458.168 96.212 458.168H95.6406V455.217H98.8107ZM100.948 454.834V456.227H101.934V456.939H100.948V458.372H100.079V454.834H100.948ZM100.948 458.677V460.555H97.1904V461.119H101.167V461.823H96.3294V459.898H100.079V459.373H96.3216V458.677H100.948ZM104.885 455.851C104.877 456.814 105.441 457.691 106.552 458.043L106.082 458.724C105.311 458.454 104.771 457.941 104.47 457.268C104.157 458.039 103.566 458.645 102.709 458.943L102.247 458.238C103.421 457.855 104.008 456.908 104.008 455.89V455.217H104.885V455.851ZM108.219 454.834V458.998H107.35V456.916H105.941V456.203H107.35V454.834H108.219ZM105.824 459.186C107.327 459.186 108.243 459.687 108.243 460.548C108.243 461.409 107.327 461.902 105.824 461.902C104.329 461.902 103.413 461.409 103.421 460.548C103.413 459.687 104.329 459.186 105.824 459.186ZM105.824 459.859C104.838 459.859 104.282 460.101 104.282 460.548C104.282 460.978 104.838 461.221 105.824 461.221C106.81 461.221 107.374 460.978 107.374 460.548C107.374 460.101 106.81 459.859 105.824 459.859ZM117.049 454.841V460.007H116.18V457.417H114.927V456.712H116.18V454.841H117.049ZM117.229 461.064V461.769H112.407V459.553H113.276V461.064H117.229ZM113.722 456.25C113.722 457.103 114.293 457.98 115.389 458.34L114.951 459.037C114.16 458.767 113.601 458.231 113.291 457.557C112.978 458.305 112.387 458.896 111.554 459.186L111.108 458.481C112.235 458.113 112.837 457.182 112.837 456.242V456.055H111.366V455.35H115.186V456.055H113.722V456.25ZM120.211 456.994C120.211 458.09 120.665 459.193 121.651 459.726L121.166 460.368C120.508 460.019 120.062 459.397 119.812 458.653C119.561 459.456 119.115 460.141 118.45 460.532L117.941 459.874C118.943 459.295 119.389 458.113 119.389 456.994V456.775H118.184V456.07H119.389V455.084H120.211V456.07H121.393V456.775H120.211V456.994ZM124.14 454.834V461.91H123.311V454.834H124.14ZM122.7 454.967V461.565H121.878V458.27H120.954V457.55H121.878V454.967H122.7Z" fill="#4D83FD"/>
<path d="M127.765 457.508L130.627 460.37L133.49 457.508" stroke="#4D83FD" stroke-width="0.687024" stroke-linecap="round" stroke-linejoin="round"/>
</g>
<rect x="74.3956" y="186.38" width="246.24" height="522.24" rx="26.62" stroke="#E0EAFF" stroke-width="9.24"/>
<rect y="556" width="395" height="117" fill="url(#paint4_linear_6885_30248)"/>
<defs>
<filter id="filter0_d_6885_30248" x="66.5634" y="615.867" width="250.076" height="72.5959" filterUnits="userSpaceOnUse" color-interpolation-filters="sRGB">
<feFlood flood-opacity="0" result="BackgroundImageFix"/>
<feColorMatrix in="SourceAlpha" type="matrix" values="0 0 0 0 0 0 0 0 0 0 0 0 0 0 0 0 0 0 127 0" result="hardAlpha"/>
<feOffset dy="-2.8626"/>
<feGaussianBlur stdDeviation="6.26909"/>
<feComposite in2="hardAlpha" operator="out"/>
<feColorMatrix type="matrix" values="0 0 0 0 0 0 0 0 0 0 0 0 0 0 0 0 0 0 0.1 0"/>
<feBlend mode="normal" in2="BackgroundImageFix" result="effect1_dropShadow_6885_30248"/>
<feBlend mode="normal" in="SourceGraphic" in2="effect1_dropShadow_6885_30248" result="shape"/>
</filter>
<linearGradient id="paint0_linear_6885_30248" x1="197.803" y1="87.9453" x2="197.803" y2="446.343" gradientUnits="userSpaceOnUse">
<stop offset="0.432692" stop-color="#4D83FD"/>
<stop offset="1" stop-color="#96B6FF"/>
</linearGradient>
<linearGradient id="paint1_linear_6885_30248" x1="194.742" y1="315.21" x2="194.742" y2="309.898" gradientUnits="userSpaceOnUse">
<stop stop-color="#FECFFF"/>
<stop offset="0.81" stop-color="#FAA9FA"/>
</linearGradient>
<linearGradient id="paint2_linear_6885_30248" x1="195.863" y1="311.139" x2="195.863" y2="306.204" gradientUnits="userSpaceOnUse">
<stop stop-color="#FECFFF"/>
<stop offset="0.45" stop-color="#FDCCFE"/>
<stop offset="0.68" stop-color="#FCC4FD"/>
<stop offset="0.87" stop-color="#FBB7FB"/>
<stop offset="1" stop-color="#FAA9FA"/>
</linearGradient>
<linearGradient id="paint3_linear_6885_30248" x1="195.864" y1="313.966" x2="195.864" y2="315.959" gradientUnits="userSpaceOnUse">
<stop stop-color="#FECFFF"/>
<stop offset="0.4" stop-color="#FDCCFE"/>
<stop offset="0.66" stop-color="#FCC3FD"/>
<stop offset="0.88" stop-color="#FBB4FB"/>
<stop offset="1" stop-color="#FAA9FA"/>
</linearGradient>
<linearGradient id="paint4_linear_6885_30248" x1="197.5" y1="556" x2="197.704" y2="627.113" gradientUnits="userSpaceOnUse">
<stop stop-color="white" stop-opacity="0"/>
<stop offset="1" stop-color="white"/>
</linearGradient>
<clipPath id="clip0_6885_30248">
<rect x="79.0156" y="191" width="237" height="513" rx="22" fill="white"/>
</clipPath>
</defs>
</svg>
