<svg width="396" height="639" viewBox="0 0 396 639" fill="none" xmlns="http://www.w3.org/2000/svg">
<rect x="3.01611" width="392" height="610" fill="white"/>
<path d="M326.016 120.701L338.309 133.177L355.993 129.93L358.199 146.869L374.52 154.092L365.796 169.025L374.52 183.958L358.199 191.18L355.993 208.12L338.309 204.873L326.016 217.349L313.723 204.873L296.039 208.12L293.833 191.18L277.512 183.958L286.236 169.025L277.512 154.092L293.833 146.869L296.039 129.93L313.723 133.177L326.016 120.701Z" fill="#FEE1FF"/>
<path d="M62.0161 386.957L71.4164 396.498L84.9397 394.015L86.6264 406.968L99.1073 412.491L92.4361 423.911L99.1073 435.33L86.6264 440.853L84.9397 453.807L71.4164 451.324L62.0161 460.864L52.6158 451.324L39.0925 453.807L37.4058 440.853L24.9249 435.33L31.5961 423.911L24.9249 412.491L37.4058 406.968L39.0925 394.015L52.6158 396.498L62.0161 386.957Z" fill="#B0FFDA"/>
<path d="M122.068 47.5193H109.83V42.395H122.068V47.5193ZM107.931 39.6395H114.879V38.6036C113.332 38.5253 112.146 38.2767 111.322 37.8577C110.503 37.4388 110.095 36.8587 110.1 36.1174C110.095 35.2979 110.597 34.6763 111.605 34.2528C112.618 33.8292 114.071 33.6151 115.963 33.6105C117.864 33.6151 119.317 33.8292 120.321 34.2528C121.324 34.6717 121.826 35.2933 121.826 36.1174C121.826 36.8633 121.419 37.4457 120.604 37.8646C119.789 38.279 118.606 38.5253 117.054 38.6036V39.6395H124.016V41.3453H107.931V39.6395ZM108.725 31.4213H114.879V29.895H117.054V31.4213H123.145V33.0718H108.725V31.4213ZM119.955 45.8826V44.0249H111.971V45.8826H119.955ZM112.427 36.1174C112.423 36.8034 113.601 37.151 115.963 37.1602C118.325 37.1556 119.506 36.808 119.506 36.1174C119.506 35.7629 119.216 35.5051 118.636 35.3439C118.056 35.1782 117.165 35.0907 115.963 35.0815C114.771 35.0907 113.882 35.1782 113.297 35.3439C112.713 35.5051 112.423 35.7629 112.427 36.1174ZM140.444 47.7265H138.359V30.0884H140.444V47.7265ZM125.396 37.7127C125.396 36.4328 125.55 35.3186 125.859 34.3702C126.172 33.4217 126.616 32.6943 127.192 32.1878C127.767 31.6814 128.439 31.4282 129.208 31.4282C129.913 31.4282 130.539 31.64 131.087 32.0635C131.639 32.4871 132.083 33.0994 132.419 33.9006C132.756 34.6971 132.965 35.6409 133.048 36.732H134.754V30.3923H136.819V46.884H134.754V38.4793H133.062C132.997 39.6211 132.797 40.611 132.461 41.4489C132.125 42.2822 131.678 42.9222 131.121 43.3688C130.569 43.8154 129.931 44.0387 129.208 44.0387C128.439 44.0387 127.767 43.7831 127.192 43.2721C126.616 42.7564 126.172 42.0221 125.859 41.0691C125.55 40.116 125.396 38.9972 125.396 37.7127ZM127.406 37.7127C127.401 38.6243 127.47 39.3978 127.613 40.0331C127.756 40.6685 127.963 41.1496 128.234 41.4765C128.506 41.8034 128.831 41.9645 129.208 41.9599C129.595 41.9645 129.926 41.8034 130.203 41.4765C130.483 41.1496 130.698 40.6685 130.845 40.0331C130.997 39.3978 131.073 38.6243 131.073 37.7127C131.073 36.8057 130.997 36.0345 130.845 35.3992C130.698 34.7638 130.483 34.2827 130.203 33.9558C129.926 33.6289 129.595 33.4678 129.208 33.4724C128.831 33.4678 128.506 33.6289 128.234 33.9558C127.963 34.2827 127.756 34.7638 127.613 35.3992C127.47 36.0345 127.401 36.8057 127.406 37.7127ZM149.021 34.3287C149.021 35.4337 149.191 36.5018 149.532 37.5331C149.877 38.5599 150.379 39.4715 151.037 40.268C151.7 41.0599 152.49 41.6584 153.406 42.0635L152.087 43.797C151.111 43.3181 150.271 42.6344 149.566 41.7459C148.867 40.8573 148.321 39.8214 147.93 38.6381C147.534 39.8904 146.977 40.9931 146.258 41.9461C145.54 42.8992 144.686 43.6243 143.696 44.1215L142.329 42.3605C143.259 41.9277 144.06 41.2924 144.732 40.4544C145.409 39.6119 145.925 38.6588 146.279 37.5953C146.634 36.5272 146.813 35.4383 146.818 34.3287V31.5041H149.021V34.3287ZM151.452 35.7928H155.147V30.0884H157.301V47.768H155.147V37.547H151.452V35.7928ZM178.483 34.4185H180.928V36.1934H178.483V40.4061H176.28V30.0884H178.483V34.4185ZM165.217 31.3315H173.117V33.0856H167.371V37.5331C169.135 37.5239 170.546 37.4825 171.605 37.4088C172.668 37.3306 173.706 37.1855 174.719 36.9738L174.92 38.721C173.833 38.9512 172.703 39.1031 171.529 39.1768C170.355 39.2505 168.729 39.2873 166.653 39.2873H165.217V31.3315ZM166.743 44.2044C166.743 43.4816 166.984 42.86 167.468 42.3398C167.951 41.8195 168.642 41.4213 169.54 41.145C170.442 40.8642 171.501 40.7215 172.717 40.7169C173.918 40.7215 174.963 40.8619 175.852 41.1381C176.74 41.4144 177.424 41.8149 177.903 42.3398C178.382 42.86 178.621 43.4816 178.621 44.2044C178.621 44.9365 178.382 45.5649 177.903 46.0898C177.424 46.6192 176.74 47.0221 175.852 47.2983C174.963 47.5746 173.918 47.7127 172.717 47.7127C171.501 47.7127 170.442 47.5746 169.54 47.2983C168.642 47.0221 167.951 46.6192 167.468 46.0898C166.984 45.5649 166.743 44.9365 166.743 44.2044ZM168.884 44.2044C168.884 44.5773 169.031 44.8973 169.326 45.1644C169.625 45.4314 170.058 45.634 170.624 45.7721C171.195 45.9102 171.879 45.9793 172.675 45.9793C173.476 45.9793 174.162 45.9125 174.733 45.779C175.309 45.6409 175.751 45.4383 176.059 45.1713C176.368 44.9042 176.522 44.582 176.522 44.2044C176.522 43.8315 176.37 43.5161 176.066 43.2583C175.767 42.9959 175.336 42.7979 174.775 42.6644C174.213 42.5308 173.541 42.4641 172.758 42.4641C171.524 42.4641 170.569 42.6137 169.892 42.913C169.215 43.2076 168.879 43.6381 168.884 44.2044ZM196.604 43.1271H194.435V36.6285H190.886V40.268H182.612V31.2624H184.794V34.1077H188.738V31.2624H190.886V34.8743H194.435V30.1022H196.604V43.1271ZM188.738 38.5414V35.779H184.794V38.5414H188.738ZM184.967 41.8425H187.163V45.634H196.991V47.395H184.967V41.8425ZM213.882 39.2113H211.721V37.2845H208.171V38.6381H199.897V30.8619H202.08V33.0856H206.023V30.8619H208.171V32.4227H211.721V30.0884H213.882V39.2113ZM206.023 36.9185V34.7431H202.08V36.9185H206.023ZM202.245 39.9365H213.882V44.4669H204.442V45.7997H214.448V47.5193H202.266V42.8577H211.721V41.6215H202.245V39.9365ZM211.721 35.6202V34.0663H208.171V35.6202H211.721ZM227.84 33.6727C227.84 34.4139 228.006 35.1298 228.337 35.8204C228.674 36.511 229.164 37.1257 229.808 37.6644C230.458 38.1984 231.238 38.6036 232.15 38.8798L231.038 40.5856C230.052 40.2726 229.198 39.8006 228.476 39.1699C227.753 38.5345 227.186 37.7887 226.777 36.9323C226.367 37.8669 225.789 38.6796 225.043 39.3702C224.297 40.0608 223.413 40.581 222.391 40.9309L221.266 39.2182C222.186 38.9144 222.976 38.477 223.634 37.9061C224.293 37.3352 224.79 36.6837 225.126 35.9517C225.462 35.2196 225.633 34.4599 225.637 33.6727V33.1685H221.839V31.4213H231.556V33.1685H227.84V33.6727ZM224.152 41.732H226.342V45.634H236.328V47.395H224.152V41.732ZM233.655 30.1022H235.831V42.9199H233.655V30.1022ZM253.516 41.1865H251.451V36.3798H249.725V40.5856H247.694V30.4268H249.725V34.605H251.451V30.0884H253.516V41.1865ZM238.323 32.0014H241.658V30.2334H243.813V32.0014H247.114V33.7003H238.323V32.0014ZM238.937 37.471C238.937 36.8679 239.099 36.3338 239.421 35.8688C239.743 35.4038 240.192 35.0447 240.768 34.7914C241.348 34.5382 242.004 34.4116 242.736 34.4116C243.477 34.4116 244.138 34.5382 244.718 34.7914C245.303 35.0447 245.758 35.4038 246.085 35.8688C246.412 36.3292 246.576 36.8633 246.576 37.471C246.576 38.0695 246.412 38.599 246.085 39.0594C245.758 39.5198 245.303 39.8766 244.718 40.1298C244.138 40.3831 243.477 40.5097 242.736 40.5097C242.004 40.5097 241.348 40.3831 240.768 40.1298C240.192 39.8766 239.743 39.5198 239.421 39.0594C239.099 38.599 238.937 38.0695 238.937 37.471ZM240.878 37.471C240.878 37.7703 240.954 38.0327 241.106 38.2583C241.263 38.4793 241.481 38.6496 241.762 38.7693C242.043 38.889 242.368 38.9489 242.736 38.9489C243.104 38.9489 243.429 38.889 243.71 38.7693C243.995 38.6496 244.216 38.4793 244.373 38.2583C244.529 38.0327 244.607 37.7703 244.607 37.471C244.607 37.1671 244.529 36.9047 244.373 36.6837C244.216 36.4581 243.995 36.2855 243.71 36.1657C243.429 36.046 243.104 35.9862 242.736 35.9862C242.368 35.9862 242.043 36.046 241.762 36.1657C241.481 36.2855 241.263 36.4581 241.106 36.6837C240.954 36.9047 240.878 37.1671 240.878 37.471ZM241.513 44.5635C241.509 43.8959 241.746 43.325 242.225 42.8508C242.708 42.3766 243.403 42.0152 244.31 41.7666C245.217 41.518 246.299 41.3936 247.556 41.3936C248.809 41.3936 249.888 41.518 250.795 41.7666C251.702 42.0152 252.397 42.3766 252.881 42.8508C253.364 43.325 253.606 43.8959 253.606 44.5635C253.606 45.2265 253.364 45.7951 252.881 46.2693C252.397 46.7436 251.702 47.1027 250.795 47.3467C249.888 47.5907 248.809 47.7127 247.556 47.7127C246.304 47.7127 245.222 47.5907 244.31 47.3467C243.403 47.1027 242.708 46.7436 242.225 46.2693C241.746 45.7951 241.509 45.2265 241.513 44.5635ZM243.675 44.5635C243.67 45.0516 244.002 45.4245 244.67 45.6823C245.337 45.9401 246.299 46.0645 247.556 46.0552C248.809 46.0599 249.764 45.9355 250.422 45.6823C251.085 45.4291 251.421 45.0562 251.431 44.5635C251.426 44.0571 251.094 43.675 250.436 43.4171C249.778 43.1593 248.818 43.035 247.556 43.0442C246.29 43.035 245.326 43.1593 244.663 43.4171C244 43.675 243.67 44.0571 243.675 44.5635ZM270.035 39.8329H264.814V43.866H271.844V45.6478H255.705V43.866H262.659V39.8329H257.659V31.3936H269.897V33.134H259.835V38.1064H270.035V39.8329ZM278.266 31.1727C279.164 31.1727 279.976 31.3545 280.704 31.7182C281.431 32.082 282.005 32.5884 282.424 33.2376C282.843 33.8821 283.054 34.6142 283.059 35.4337C283.054 36.1427 282.895 36.7873 282.582 37.3674C282.269 37.9475 281.834 38.4286 281.277 38.8108C280.72 39.1929 280.085 39.4507 279.371 39.5843V42.1878C281.024 42.1096 282.467 41.9876 283.701 41.8218L283.853 43.4309C282.453 43.6842 280.992 43.8591 279.468 43.9558C277.944 44.0525 276.362 44.1008 274.723 44.1008C274.323 44.1008 273.777 44.0962 273.087 44.087L272.776 42.3191H272.928C274.802 42.3099 276.226 42.2937 277.203 42.2707V39.5981C276.466 39.4692 275.814 39.2136 275.248 38.8315C274.682 38.4494 274.242 37.9659 273.929 37.3812C273.621 36.7965 273.469 36.1473 273.473 35.4337C273.469 34.6096 273.671 33.8752 274.081 33.2307C274.491 32.5861 275.059 32.082 275.787 31.7182C276.519 31.3545 277.345 31.1727 278.266 31.1727ZM275.587 35.4337C275.587 35.9171 275.699 36.343 275.925 36.7113C276.155 37.075 276.473 37.3559 276.878 37.5539C277.288 37.7518 277.75 37.8485 278.266 37.8439C278.768 37.8485 279.219 37.7518 279.62 37.5539C280.025 37.3559 280.343 37.075 280.573 36.7113C280.803 36.343 280.92 35.9171 280.925 35.4337C280.92 34.9457 280.803 34.5198 280.573 34.1561C280.343 33.7924 280.027 33.5138 279.627 33.3204C279.226 33.1225 278.773 33.0212 278.266 33.0166C277.75 33.0212 277.288 33.1225 276.878 33.3204C276.473 33.5138 276.155 33.7924 275.925 34.1561C275.699 34.5198 275.587 34.9457 275.587 35.4337ZM284.703 30.0884H286.871V37.1326H289.426V38.9627H286.871V47.7265H284.703V30.0884ZM56.9884 59.076C58.2453 59.076 59.3733 59.2762 60.3724 59.6768C61.3715 60.0727 62.1542 60.6321 62.7205 61.355C63.2868 62.0732 63.5699 62.8996 63.5699 63.8343C63.5699 64.7044 63.3374 65.4779 62.8724 66.1547C62.412 66.8315 61.7651 67.3771 60.9318 67.7914C60.1031 68.2058 59.1477 68.4659 58.0658 68.5718V71.8108H65.0961V73.5925H48.9566V71.8108H55.9111V68.5718C54.8383 68.4659 53.8876 68.2058 53.0589 67.7914C52.2301 67.3771 51.5856 66.8315 51.1252 66.1547C50.6647 65.4733 50.4345 64.6998 50.4345 63.8343C50.4345 62.8996 50.7154 62.0732 51.2771 61.355C51.8434 60.6321 52.6238 60.0727 53.6182 59.6768C54.6173 59.2762 55.7407 59.076 56.9884 59.076ZM52.5616 63.8343C52.5616 64.4604 52.7481 65.0037 53.121 65.4641C53.4985 65.9245 54.0211 66.2767 54.6887 66.5207C55.3563 66.7647 56.1229 66.889 56.9884 66.8936C57.8586 66.889 58.6298 66.7647 59.3019 66.5207C59.9741 66.2767 60.4967 65.9245 60.8696 65.4641C61.2472 65.0037 61.4359 64.4604 61.4359 63.8343C61.4359 63.2311 61.2472 62.7017 60.8696 62.2459C60.4967 61.7901 59.9718 61.4401 59.295 61.1961C58.6229 60.9521 57.854 60.8301 56.9884 60.8301C56.1275 60.8301 55.3609 60.9521 54.6887 61.1961C54.0211 61.4401 53.4985 61.7901 53.121 62.2459C52.7481 62.7017 52.5616 63.2311 52.5616 63.8343ZM80.4959 63.6202H68.3067V58.3232H70.4476V61.8798H80.4959V63.6202ZM66.2211 64.9876H82.3606V66.7141H66.2211V64.9876ZM68.1272 67.9572H80.3785V72.4599H70.344V73.8273H80.9587V75.5193H68.1548V70.8785H78.2308V69.6354H68.1272V67.9572ZM89.2521 59.3039C90.1729 59.3039 91.0016 59.4857 91.7383 59.8494C92.4749 60.2132 93.0527 60.7196 93.4717 61.3688C93.8907 62.0134 94.1002 62.7477 94.1002 63.5718C94.1002 64.3959 93.8907 65.1326 93.4717 65.7818C93.0527 66.4309 92.4749 66.9374 91.7383 67.3011C91.0062 67.6602 90.1775 67.8398 89.2521 67.8398C88.3359 67.8398 87.5072 67.6602 86.7659 67.3011C86.0293 66.9374 85.4515 66.4309 85.0325 65.7818C84.6135 65.1326 84.404 64.3959 84.404 63.5718C84.404 62.7523 84.6135 62.018 85.0325 61.3688C85.4515 60.7196 86.0293 60.2132 86.7659 59.8494C87.5072 59.4857 88.3359 59.3039 89.2521 59.3039ZM84.2107 70.2776C86.2088 70.2776 88.108 70.2408 89.9082 70.1671C91.7084 70.0889 93.4096 69.9346 95.0118 69.7044L95.1775 71.279C93.9574 71.5138 92.6913 71.6888 91.3792 71.8039C90.0716 71.919 88.84 71.9926 87.6844 72.0249C86.5334 72.0525 85.2627 72.0663 83.8723 72.0663L83.6098 70.2776H84.2107ZM86.5587 63.5718C86.5541 64.0552 86.6669 64.4765 86.8971 64.8356C87.1319 65.1948 87.4542 65.471 87.864 65.6644C88.2737 65.8577 88.7364 65.9544 89.2521 65.9544C89.7724 65.9544 90.2397 65.8577 90.654 65.6644C91.0684 65.471 91.393 65.1948 91.6278 64.8356C91.8626 64.4765 91.98 64.0552 91.98 63.5718C91.98 63.093 91.8626 62.674 91.6278 62.3149C91.393 61.9558 91.0684 61.6796 90.654 61.4862C90.2397 61.2882 89.7724 61.1892 89.2521 61.1892C88.7364 61.1892 88.2737 61.2882 87.864 61.4862C87.4542 61.6796 87.1319 61.9558 86.8971 62.3149C86.6669 62.674 86.5541 63.093 86.5587 63.5718ZM96.0615 58.0884H98.23V75.768H96.0615V58.0884ZM111.898 61.8453C111.898 62.4991 112.064 63.1321 112.395 63.7445C112.731 64.3522 113.222 64.8932 113.866 65.3674C114.515 65.837 115.291 66.1915 116.194 66.4309L115.165 68.116C114.17 67.849 113.307 67.4346 112.575 66.8729C111.843 66.3066 111.27 65.6344 110.855 64.8564C110.464 65.7403 109.9 66.5046 109.163 67.1492C108.431 67.7937 107.552 68.2703 106.525 68.5787L105.496 66.8798C106.394 66.6128 107.16 66.2215 107.796 65.7058C108.436 65.1855 108.919 64.5939 109.246 63.9309C109.573 63.2634 109.736 62.5681 109.736 61.8453V61.7555H106.042V60.029H109.736V58.0124H111.926V60.029H115.586V61.7555H111.898V61.8453ZM108.362 72.3909C108.362 71.7003 108.601 71.111 109.08 70.6229C109.564 70.1303 110.257 69.7551 111.159 69.4972C112.061 69.2394 113.132 69.1105 114.37 69.1105C115.613 69.1105 116.686 69.2394 117.589 69.4972C118.491 69.7551 119.184 70.1303 119.667 70.6229C120.151 71.111 120.392 71.7003 120.392 72.3909C120.392 73.0861 120.151 73.6823 119.667 74.1796C119.184 74.6814 118.489 75.0612 117.582 75.3191C116.679 75.5815 115.609 75.7127 114.37 75.7127C113.132 75.7127 112.061 75.5815 111.159 75.3191C110.257 75.0612 109.564 74.6814 109.08 74.1796C108.601 73.6823 108.362 73.0861 108.362 72.3909ZM110.524 72.3909C110.519 72.7408 110.666 73.0401 110.966 73.2887C111.265 73.5327 111.702 73.7192 112.278 73.8481C112.858 73.977 113.555 74.0414 114.37 74.0414C115.613 74.0414 116.566 73.8987 117.229 73.6133C117.897 73.3278 118.233 72.9203 118.238 72.3909C118.233 71.8706 117.899 71.4747 117.236 71.203C116.573 70.9268 115.618 70.7864 114.37 70.7818C113.132 70.7864 112.179 70.9268 111.511 71.203C110.848 71.4747 110.519 71.8706 110.524 72.3909ZM115.061 62.9296H118.176V58.0884H120.344V68.7652H118.176V64.6837H115.061V62.9296ZM138.983 73.5511H122.843V71.797H129.749V67.7017H131.904V71.797H138.983V73.5511ZM123.306 66.3412C124.512 66.1478 125.597 65.7541 126.559 65.1602C127.526 64.5663 128.283 63.8527 128.831 63.0193C129.379 62.186 129.655 61.3296 129.66 60.4503V59.1588H131.966V60.4503C131.966 61.3296 132.24 62.186 132.788 63.0193C133.336 63.8527 134.098 64.5663 135.074 65.1602C136.05 65.7541 137.144 66.1478 138.354 66.3412L137.415 68.1506C136.43 67.9618 135.507 67.6533 134.646 67.2251C133.789 66.7924 133.034 66.2652 132.381 65.6436C131.727 65.0175 131.204 64.3223 130.813 63.558C130.426 64.3223 129.908 65.0175 129.259 65.6436C128.61 66.2698 127.857 66.7993 127.001 67.232C126.144 67.6602 125.226 67.9664 124.245 68.1506L123.306 66.3412ZM156.247 67.7224H140.108V66.0925H156.247V67.7224ZM141.986 68.779H154.286V72.8052H144.169V74.0345H154.825V75.5401H142.007V71.3964H152.131V70.3122H141.986V68.779ZM142.111 58.482H154.251V62.4599H144.307V63.5994H154.555V65.0981H142.152V61.0511H152.083V59.9738H142.111V58.482ZM176.089 63.6478H178.555V65.4365H176.089V71.2928H173.907V58.1022H176.089V63.6478ZM162.174 60.0566H166.338V58.0884H168.5V60.0566H172.65V61.7831H162.174V60.0566ZM163.085 65.8992C163.085 65.2316 163.267 64.6423 163.631 64.1312C163.994 63.6202 164.503 63.2242 165.157 62.9434C165.815 62.6625 166.57 62.5221 167.422 62.5221C168.26 62.5221 169.004 62.6625 169.653 62.9434C170.307 63.2242 170.815 63.6202 171.179 64.1312C171.543 64.6423 171.725 65.2316 171.725 65.8992C171.725 66.5622 171.543 67.1469 171.179 67.6533C170.815 68.1552 170.307 68.5442 169.653 68.8204C169.004 69.0921 168.26 69.2279 167.422 69.2279C166.57 69.2279 165.815 69.0921 165.157 68.8204C164.503 68.5442 163.994 68.1552 163.631 67.6533C163.267 67.1469 163.085 66.5622 163.085 65.8992ZM164.777 70.2569H166.939V73.634H176.78V75.395H164.777V70.2569ZM165.192 65.8992C165.187 66.2445 165.277 66.5437 165.461 66.797C165.645 67.0456 165.905 67.2366 166.241 67.3702C166.577 67.5037 166.971 67.5681 167.422 67.5635C167.864 67.5635 168.253 67.4991 168.589 67.3702C168.93 67.2366 169.192 67.0456 169.377 66.797C169.565 66.5437 169.662 66.2445 169.667 65.8992C169.662 65.5447 169.565 65.2408 169.377 64.9876C169.192 64.7297 168.932 64.5341 168.596 64.4006C168.26 64.2624 167.869 64.1934 167.422 64.1934C166.971 64.1934 166.577 64.2624 166.241 64.4006C165.905 64.5341 165.645 64.7297 165.461 64.9876C165.277 65.2408 165.187 65.5447 165.192 65.8992ZM193.747 64.7942H181.565V58.6271H183.741V63.0608H193.747V64.7942ZM179.445 66.5345H195.557V68.261H188.747V71.5552H186.586V68.261H179.445V66.5345ZM181.399 70.1326H183.554V73.634H193.872V75.395H181.399V70.1326ZM211.958 75.7265H209.872V58.0884H211.958V75.7265ZM196.91 65.7127C196.91 64.4328 197.064 63.3186 197.372 62.3702C197.685 61.4217 198.13 60.6943 198.705 60.1878C199.281 59.6814 199.953 59.4282 200.722 59.4282C201.426 59.4282 202.052 59.64 202.6 60.0635C203.153 60.4871 203.597 61.0994 203.933 61.9006C204.269 62.6971 204.479 63.6409 204.562 64.732H206.267V58.3923H208.332V74.884H206.267V66.4793H204.575C204.511 67.6211 204.311 68.611 203.975 69.4489C203.638 70.2822 203.192 70.9222 202.635 71.3688C202.082 71.8154 201.445 72.0387 200.722 72.0387C199.953 72.0387 199.281 71.7831 198.705 71.2721C198.13 70.7564 197.685 70.0221 197.372 69.0691C197.064 68.116 196.91 66.9972 196.91 65.7127ZM198.919 65.7127C198.915 66.6243 198.984 67.3978 199.126 68.0331C199.269 68.6685 199.476 69.1496 199.748 69.4765C200.02 69.8034 200.344 69.9645 200.722 69.9599C201.109 69.9645 201.44 69.8034 201.716 69.4765C201.997 69.1496 202.211 68.6685 202.359 68.0331C202.51 67.3978 202.586 66.6243 202.586 65.7127C202.586 64.8057 202.51 64.0345 202.359 63.3992C202.211 62.7638 201.997 62.2827 201.716 61.9558C201.44 61.6289 201.109 61.4678 200.722 61.4724C200.344 61.4678 200.02 61.6289 199.748 61.9558C199.476 62.2827 199.269 62.7638 199.126 63.3992C198.984 64.0345 198.915 64.8057 198.919 65.7127ZM232.753 63.2472H235.136V65.0359H232.753V70.0359H230.578V58.1022H232.753V63.2472ZM218.602 67.9227C220.329 67.9227 221.812 67.9065 223.05 67.8743V66.7831C222.396 66.7003 221.828 66.546 221.344 66.3204C220.865 66.0902 220.497 65.7956 220.239 65.4365C219.981 65.0773 219.855 64.6676 219.859 64.2072C219.855 63.6731 220.027 63.2104 220.377 62.8191C220.732 62.4231 221.229 62.1192 221.869 61.9075C222.514 61.6957 223.262 61.5898 224.114 61.5898C224.965 61.5898 225.711 61.6957 226.351 61.9075C226.996 62.1192 227.493 62.4231 227.843 62.8191C228.197 63.2104 228.377 63.6731 228.381 64.2072C228.377 64.663 228.246 65.0704 227.988 65.4296C227.73 65.7841 227.364 66.0764 226.89 66.3066C226.42 66.5368 225.863 66.6934 225.219 66.7762V67.7983C226.848 67.7155 228.331 67.5866 229.666 67.4116L229.825 68.9309C228.167 69.221 226.459 69.4098 224.701 69.4972C222.942 69.5801 220.987 69.6238 218.837 69.6285L218.602 67.9227ZM219.058 59.4972H223.05V57.9503H225.219V59.4972H229.196V61.0925H219.058V59.4972ZM220.819 70.7956H232.753V75.7265H230.578V72.4876H220.819V70.7956ZM221.938 64.2072C221.929 64.5755 222.115 64.8656 222.498 65.0773C222.88 65.2891 223.409 65.395 224.086 65.395C224.777 65.395 225.318 65.2914 225.709 65.0843C226.1 64.8725 226.296 64.5801 226.296 64.2072C226.296 63.8296 226.105 63.5442 225.723 63.3508C225.341 63.1529 224.804 63.0539 224.114 63.0539C223.418 63.0539 222.88 63.1529 222.498 63.3508C222.12 63.5488 221.934 63.8343 221.938 64.2072ZM250.743 70.8577H248.567V58.1022H250.743V70.8577ZM236.364 63.6685C236.364 62.826 236.571 62.0709 236.986 61.4033C237.405 60.7311 237.976 60.2063 238.698 59.8287C239.426 59.4512 240.234 59.2624 241.122 59.2624C242.011 59.2624 242.817 59.4512 243.54 59.8287C244.262 60.2063 244.831 60.7311 245.245 61.4033C245.664 62.0709 245.874 62.826 245.874 63.6685C245.874 64.5249 245.664 65.2891 245.245 65.9613C244.831 66.6335 244.262 67.1584 243.54 67.5359C242.817 67.9088 242.011 68.0953 241.122 68.0953C240.234 68.0953 239.426 67.9088 238.698 67.5359C237.976 67.1584 237.405 66.6335 236.986 65.9613C236.571 65.2845 236.364 64.5203 236.364 63.6685ZM238.484 63.6685C238.484 64.1796 238.597 64.6262 238.823 65.0083C239.048 65.3904 239.361 65.6851 239.762 65.8923C240.163 66.0994 240.616 66.203 241.122 66.203C241.615 66.203 242.059 66.0994 242.455 65.8923C242.851 65.6851 243.164 65.3904 243.395 65.0083C243.625 64.6262 243.74 64.1796 243.74 63.6685C243.74 63.1713 243.625 62.7316 243.395 62.3494C243.164 61.9673 242.849 61.6727 242.448 61.4655C242.052 61.2583 241.61 61.1547 241.122 61.1547C240.621 61.1547 240.167 61.2583 239.762 61.4655C239.361 61.6727 239.048 61.9673 238.823 62.3494C238.597 62.7316 238.484 63.1713 238.484 63.6685ZM239.064 69.5594H241.254V73.634H251.24V75.395H239.064V69.5594ZM267.261 62.0249H269.74V63.779H267.261V67.674H265.079V58.047H267.261V62.0249ZM253.345 59.4972H257.51V57.9503H259.671V59.4972H263.822V61.1685H253.345V59.4972ZM254.257 64.6077C254.257 64.0276 254.434 63.5212 254.789 63.0884C255.148 62.651 255.654 62.3149 256.308 62.0801C256.962 61.8407 257.724 61.721 258.594 61.721C259.455 61.721 260.21 61.8407 260.859 62.0801C261.508 62.3149 262.01 62.651 262.365 63.0884C262.719 63.5212 262.897 64.0276 262.897 64.6077C262.897 65.2017 262.719 65.7173 262.365 66.1547C262.01 66.5875 261.508 66.919 260.859 67.1492C260.215 67.3794 259.46 67.4945 258.594 67.4945C257.724 67.4945 256.96 67.3794 256.301 67.1492C255.647 66.919 255.143 66.5875 254.789 66.1547C254.434 65.7173 254.257 65.2017 254.257 64.6077ZM255.707 68.4475H267.261V72.7224H257.876V73.9655H267.814V75.5815H255.735V71.2099H265.093V70.029H255.707V68.4475ZM256.363 64.6077C256.359 65.0313 256.554 65.3582 256.95 65.5884C257.346 65.814 257.894 65.9268 258.594 65.9268C259.285 65.9268 259.83 65.814 260.231 65.5884C260.631 65.3582 260.834 65.0313 260.839 64.6077C260.834 64.1888 260.629 63.8619 260.224 63.6271C259.823 63.3877 259.28 63.268 258.594 63.268C258.134 63.268 257.735 63.3209 257.399 63.4268C257.063 63.5327 256.805 63.6869 256.626 63.8895C256.446 64.0921 256.359 64.3315 256.363 64.6077ZM284.555 59.5525C284.555 60.2937 284.817 61.0166 285.342 61.721C285.867 62.4208 286.604 63.0216 287.552 63.5235C288.505 64.0207 289.589 64.3476 290.805 64.5041L289.949 66.2583C288.959 66.111 288.04 65.8577 287.193 65.4986C286.346 65.1349 285.6 64.686 284.955 64.1519C284.315 63.6133 283.804 63.0124 283.422 62.3494C283.036 63.0124 282.52 63.6133 281.875 64.1519C281.235 64.686 280.494 65.1349 279.652 65.4986C278.809 65.8577 277.897 66.111 276.917 66.2583L276.054 64.5041C277.264 64.3476 278.342 64.0207 279.286 63.5235C280.234 63.0216 280.968 62.4208 281.489 61.721C282.013 61.0212 282.276 60.2983 282.276 59.5525V58.6478H284.555V59.5525ZM275.363 67.7914H291.447V69.5801H284.437V75.7265H282.29V69.5801H275.363V67.7914ZM303.665 69.5732C303.665 70.3467 303.847 71.0856 304.21 71.7901C304.579 72.4899 305.127 73.0723 305.854 73.5373C306.347 73.2058 306.761 72.8191 307.097 72.3771C307.438 71.9305 307.691 71.4678 307.857 70.989C308.023 70.5055 308.105 70.0336 308.105 69.5732V68.8481H310.246V69.5732C310.242 70.1994 310.364 70.7956 310.612 71.3619C310.861 71.9282 311.241 72.4323 311.752 72.8743C312.268 73.3117 312.901 73.6501 313.651 73.8895L312.588 75.471C311.754 75.1901 311.045 74.7804 310.46 74.2417C309.88 73.7076 309.431 73.0792 309.114 72.3564C308.814 73.093 308.398 73.7445 307.864 74.3108C307.33 74.8817 306.678 75.3214 305.909 75.6298C305.104 75.3306 304.427 74.9047 303.879 74.3522C303.336 73.7997 302.917 73.1552 302.622 72.4185C302.295 73.1183 301.846 73.7307 301.275 74.2555C300.704 74.7804 300.018 75.1855 299.217 75.471L298.147 73.8895C298.884 73.6317 299.505 73.2749 300.012 72.8191C300.523 72.3633 300.905 71.8568 301.158 71.2997C301.416 70.738 301.547 70.1625 301.552 69.5732V68.8481H303.665V69.5732ZM297.712 63.2472C297.712 62.4323 297.917 61.7072 298.326 61.0718C298.736 60.4319 299.303 59.9346 300.025 59.5801C300.753 59.221 301.568 59.0414 302.47 59.0414C303.368 59.0414 304.178 59.221 304.901 59.5801C305.624 59.9346 306.19 60.4319 306.6 61.0718C307.014 61.7072 307.221 62.4323 307.221 63.2472C307.221 64.0483 307.014 64.7666 306.6 65.4019C306.19 66.0373 305.624 66.5322 304.901 66.8867C304.178 67.2413 303.368 67.4185 302.47 67.4185C301.568 67.4185 300.755 67.2413 300.032 66.8867C299.309 66.5322 298.741 66.0373 298.326 65.4019C297.917 64.7666 297.712 64.0483 297.712 63.2472ZM299.832 63.2472C299.832 63.7169 299.942 64.1312 300.163 64.4903C300.389 64.8494 300.702 65.128 301.103 65.326C301.503 65.5193 301.959 65.616 302.47 65.616C302.972 65.616 303.421 65.5193 303.817 65.326C304.213 65.128 304.524 64.8494 304.749 64.4903C304.975 64.1312 305.088 63.7169 305.088 63.2472C305.088 62.7684 304.975 62.3494 304.749 61.9903C304.528 61.6312 304.217 61.355 303.817 61.1616C303.421 60.9682 302.972 60.8715 302.47 60.8715C301.959 60.8715 301.503 60.9682 301.103 61.1616C300.702 61.355 300.389 61.6312 300.163 61.9903C299.942 62.3494 299.832 62.7684 299.832 63.2472ZM309.915 58.1022H312.09V68.1022H309.915V58.1022ZM319.5 59.366C320.292 59.366 321.008 59.5778 321.648 60.0014C322.287 60.425 322.808 61.0304 323.208 61.8177C323.613 62.6004 323.867 63.5212 323.968 64.5801H327.324V58.0884H329.479V75.768H327.324V66.3343H323.989C323.915 67.4576 323.678 68.436 323.277 69.2693C322.877 70.0981 322.35 70.7357 321.696 71.1823C321.047 71.6289 320.315 71.8522 319.5 71.8522C318.62 71.8522 317.835 71.599 317.145 71.0925C316.459 70.5815 315.925 69.8541 315.543 68.9102C315.16 67.9618 314.972 66.8591 314.976 65.6022C314.972 64.3545 315.16 63.261 315.543 62.3218C315.925 61.378 316.459 60.6506 317.145 60.1395C317.835 59.6238 318.62 59.366 319.5 59.366ZM317.055 65.6022C317.055 66.4908 317.156 67.2574 317.359 67.9019C317.561 68.5465 317.847 69.0391 318.215 69.3798C318.588 69.7205 319.016 69.8909 319.5 69.8909C319.988 69.8909 320.416 69.7228 320.784 69.3867C321.157 69.046 321.445 68.5534 321.648 67.9088C321.855 67.2597 321.958 66.4908 321.958 65.6022C321.958 64.7182 321.855 63.9563 321.648 63.3163C321.445 62.6717 321.157 62.1791 320.784 61.8384C320.416 61.4977 319.988 61.3273 319.5 61.3273C319.016 61.3273 318.588 61.4977 318.215 61.8384C317.847 62.1791 317.561 62.6717 317.359 63.3163C317.156 63.9563 317.055 64.7182 317.055 65.6022ZM348.104 73.5925H331.964V71.8108H335.694V67.3425C334.976 66.9328 334.418 66.4171 334.022 65.7956C333.631 65.1694 333.438 64.4719 333.442 63.703C333.442 62.7822 333.721 61.9696 334.278 61.2652C334.84 60.5562 335.618 60.006 336.612 59.6146C337.607 59.2233 338.735 59.0276 339.996 59.0276C341.258 59.0276 342.388 59.2233 343.387 59.6146C344.386 60.006 345.167 60.5562 345.728 61.2652C346.295 61.9696 346.578 62.7822 346.578 63.703C346.578 64.4581 346.387 65.1441 346.005 65.761C345.622 66.3734 345.081 66.8867 344.382 67.3011V71.8108H348.104V73.5925ZM335.569 63.703C335.569 64.297 335.754 64.8195 336.122 65.2707C336.49 65.7173 337.008 66.0626 337.676 66.3066C338.348 66.546 339.121 66.6657 339.996 66.6657C340.866 66.6657 341.638 66.5437 342.31 66.2997C342.982 66.0557 343.505 65.7104 343.877 65.2638C344.255 64.8172 344.444 64.297 344.444 63.703C344.444 63.0999 344.257 62.5773 343.884 62.1354C343.511 61.6888 342.989 61.3481 342.317 61.1133C341.644 60.8785 340.871 60.761 339.996 60.761C339.117 60.761 338.343 60.8785 337.676 61.1133C337.008 61.3481 336.49 61.6888 336.122 62.1354C335.754 62.5773 335.569 63.0999 335.569 63.703ZM342.185 71.8108V68.1367C341.499 68.2841 340.77 68.3577 339.996 68.3577C339.241 68.3577 338.523 68.2841 337.842 68.1367V71.8108H342.185Z" fill="black"/>
<g clip-path="url(#clip0_2124_964)">
<rect x="80" y="172.815" width="237" height="425.441" rx="22" fill="white"/>
<circle cx="198.802" cy="270.51" r="188.756" fill="url(#paint0_linear_2124_964)"/>
<circle cx="200.008" cy="349.51" r="61.5114" fill="white"/>
<circle cx="199.405" cy="349.51" r="75.6832" stroke="#E5E5E5" stroke-width="3.01527"/>
<path d="M199.405 273.827C209.344 273.827 219.185 275.785 228.367 279.588C237.55 283.391 245.893 288.966 252.921 295.994C259.949 303.022 265.523 311.365 269.327 320.547C273.13 329.73 275.088 339.571 275.088 349.51C275.088 359.449 273.13 369.291 269.327 378.473C265.523 387.655 259.949 395.998 252.921 403.026C245.893 410.054 237.55 415.629 228.367 419.432C219.185 423.236 209.344 425.193 199.405 425.193C189.466 425.193 179.624 423.236 170.442 419.432C161.26 415.629 152.916 410.054 145.889 403.026C138.861 395.998 133.286 387.655 129.482 378.473C125.679 369.291 123.721 359.449 123.721 349.51C123.721 339.571 125.679 329.73 129.483 320.547C133.286 311.365 138.861 303.022 145.889 295.994C152.916 288.966 161.26 283.391 170.442 279.588C179.624 275.785 189.466 273.827 199.405 273.827L199.405 273.827Z" stroke="white" stroke-width="3.01527"/>
<circle cx="200.309" cy="272.018" r="8.14122" fill="white"/>
<path d="M184.622 334.639H185.815V335.508H184.622V339.633H183.569V331.124H184.622V334.639ZM177.782 337.278C178.626 337.278 179.352 337.27 179.961 337.254V336.455C179.652 336.404 179.382 336.307 179.151 336.165C178.92 336.023 178.741 335.845 178.615 335.632C178.49 335.419 178.428 335.18 178.428 334.915C178.428 334.6 178.515 334.322 178.688 334.082C178.861 333.84 179.105 333.653 179.418 333.519C179.731 333.386 180.09 333.32 180.494 333.32C180.894 333.32 181.25 333.386 181.563 333.519C181.877 333.653 182.121 333.84 182.296 334.082C182.474 334.325 182.564 334.602 182.566 334.915C182.564 335.18 182.499 335.42 182.37 335.635C182.241 335.848 182.06 336.026 181.827 336.168C181.593 336.31 181.322 336.407 181.014 336.458V337.214C181.791 337.174 182.491 337.111 183.113 337.024L183.183 337.794C182.374 337.941 181.546 338.035 180.697 338.077C179.851 338.119 178.929 338.141 177.932 338.141L177.782 337.278ZM177.942 332.103H179.961V331.157H181.014V332.103H183.019V332.933H177.942V332.103ZM179.421 334.915C179.421 335.078 179.464 335.218 179.551 335.335C179.64 335.453 179.765 335.543 179.928 335.605C180.09 335.665 180.279 335.695 180.494 335.695C180.705 335.695 180.89 335.665 181.05 335.605C181.213 335.543 181.338 335.453 181.427 335.335C181.516 335.218 181.56 335.078 181.56 334.915C181.56 334.753 181.516 334.612 181.427 334.492C181.338 334.372 181.213 334.281 181.05 334.219C180.89 334.155 180.705 334.122 180.494 334.122C180.279 334.122 180.09 334.155 179.928 334.219C179.765 334.281 179.64 334.372 179.551 334.492C179.464 334.612 179.421 334.753 179.421 334.915ZM189.28 332.66C189.28 333.013 189.355 333.349 189.506 333.669C189.657 333.987 189.883 334.27 190.182 334.519C190.485 334.765 190.851 334.954 191.282 335.085L190.785 335.908C190.317 335.762 189.913 335.545 189.573 335.259C189.235 334.97 188.97 334.629 188.776 334.236C188.583 334.693 188.308 335.09 187.95 335.425C187.593 335.758 187.163 336.009 186.661 336.178L186.128 335.349C186.572 335.204 186.952 334.994 187.267 334.719C187.583 334.443 187.82 334.129 187.98 333.776C188.142 333.421 188.224 333.051 188.227 332.666V332.56H186.421V331.714H191.045V332.56H189.28V332.66ZM187.29 338.001C187.29 337.665 187.406 337.377 187.637 337.134C187.868 336.892 188.2 336.708 188.633 336.581C189.066 336.452 189.579 336.388 190.172 336.388C190.759 336.388 191.265 336.452 191.692 336.581C192.12 336.708 192.449 336.892 192.678 337.134C192.907 337.374 193.021 337.663 193.021 338.001C193.021 338.341 192.907 338.633 192.678 338.877C192.449 339.121 192.12 339.307 191.692 339.433C191.265 339.562 190.759 339.627 190.172 339.627C189.582 339.627 189.069 339.562 188.633 339.433C188.2 339.307 187.868 339.121 187.637 338.877C187.406 338.633 187.29 338.341 187.29 338.001ZM188.337 338.001C188.334 338.261 188.491 338.459 188.806 338.597C189.122 338.735 189.57 338.804 190.152 338.804C190.746 338.804 191.2 338.736 191.515 338.6C191.833 338.463 191.992 338.263 191.992 338.001C191.992 337.743 191.835 337.548 191.522 337.414C191.209 337.279 190.759 337.211 190.172 337.211C189.584 337.211 189.13 337.279 188.81 337.414C188.492 337.55 188.334 337.745 188.337 338.001ZM191.892 331.124H192.944V333.166H194.134V334.026H192.944V336.201H191.892V331.124ZM201.64 335.469H200.604V331.124H201.64V335.469ZM194.557 334.632C195.003 334.49 195.384 334.284 195.7 334.013C196.015 333.739 196.254 333.428 196.416 333.08C196.578 332.729 196.659 332.363 196.659 331.983V331.33H197.742V331.983C197.74 332.35 197.817 332.7 197.975 333.033C198.135 333.366 198.37 333.659 198.681 333.913C198.992 334.166 199.368 334.358 199.808 334.489L199.291 335.302C198.805 335.153 198.385 334.929 198.032 334.629C197.681 334.327 197.406 333.969 197.209 333.556C197.011 334.007 196.731 334.397 196.369 334.726C196.009 335.054 195.581 335.297 195.083 335.455L194.557 334.632ZM195.999 335.858H201.653V338.071H197.046V338.73H201.91V339.563H196.026V337.291H200.611V336.675H195.999V335.858ZM208.251 332.936C208.251 333.252 208.331 333.557 208.491 333.853C208.653 334.146 208.889 334.407 209.2 334.636C209.514 334.862 209.888 335.033 210.323 335.149L209.827 335.962C209.347 335.833 208.93 335.633 208.577 335.362C208.224 335.089 207.948 334.764 207.748 334.389C207.559 334.815 207.287 335.184 206.931 335.495C206.578 335.806 206.154 336.036 205.659 336.185L205.162 335.365C205.595 335.236 205.965 335.048 206.272 334.799C206.58 334.548 206.814 334.262 206.971 333.943C207.129 333.62 207.208 333.285 207.208 332.936V332.893H205.425V332.06H207.208V331.087H208.264V332.06H210.03V332.893H208.251V332.936ZM206.545 338.024C206.545 337.691 206.66 337.406 206.891 337.171C207.125 336.933 207.459 336.752 207.894 336.628C208.33 336.504 208.846 336.441 209.444 336.441C210.043 336.441 210.561 336.504 210.996 336.628C211.432 336.752 211.766 336.933 211.999 337.171C212.232 337.406 212.349 337.691 212.349 338.024C212.349 338.359 212.232 338.647 211.999 338.887C211.766 339.129 211.43 339.312 210.993 339.437C210.557 339.563 210.041 339.627 209.444 339.627C208.846 339.627 208.33 339.563 207.894 339.437C207.459 339.312 207.125 339.129 206.891 338.887C206.66 338.647 206.545 338.359 206.545 338.024ZM207.588 338.024C207.586 338.193 207.657 338.337 207.801 338.457C207.945 338.575 208.156 338.665 208.434 338.727C208.714 338.789 209.05 338.82 209.444 338.82C210.043 338.82 210.503 338.751 210.823 338.614C211.145 338.476 211.307 338.279 211.309 338.024C211.307 337.773 211.146 337.582 210.826 337.451C210.506 337.318 210.045 337.25 209.444 337.248C208.846 337.25 208.386 337.318 208.064 337.451C207.744 337.582 207.586 337.773 207.588 338.024ZM209.777 333.459H211.279V331.124H212.326V336.275H211.279V334.306H209.777V333.459ZM221.318 338.584H213.531V337.737H216.863V335.762H217.903V337.737H221.318V338.584ZM213.755 335.105C214.336 335.012 214.86 334.822 215.324 334.536C215.79 334.249 216.156 333.905 216.42 333.503C216.684 333.101 216.818 332.688 216.82 332.263V331.64H217.933V332.263C217.933 332.688 218.065 333.101 218.329 333.503C218.593 333.905 218.961 334.249 219.432 334.536C219.903 334.822 220.43 335.012 221.014 335.105L220.561 335.978C220.086 335.887 219.641 335.738 219.225 335.532C218.812 335.323 218.448 335.069 218.132 334.769C217.817 334.467 217.565 334.131 217.376 333.763C217.19 334.131 216.94 334.467 216.627 334.769C216.313 335.071 215.95 335.326 215.537 335.535C215.124 335.742 214.681 335.889 214.208 335.978L213.755 335.105Z" fill="#4D83FD"/>
<path d="M176.737 374.831H171.806V352.321H171.646L165.262 356.399V351.908L172.032 347.537H176.737V374.831ZM190.351 375.35C188.165 375.35 186.286 374.795 184.713 373.684C183.141 372.565 181.937 370.948 181.102 368.833C180.275 366.71 179.862 364.169 179.862 361.21C179.862 358.26 180.28 355.733 181.115 353.627C181.95 351.521 183.154 349.918 184.727 348.816C186.299 347.714 188.174 347.163 190.351 347.163C192.519 347.163 194.389 347.719 195.961 348.829C197.534 349.931 198.738 351.535 199.573 353.64C200.417 355.746 200.839 358.269 200.839 361.21C200.839 364.178 200.422 366.723 199.586 368.847C198.751 370.961 197.547 372.574 195.975 373.684C194.411 374.795 192.536 375.35 190.351 375.35ZM184.807 361.21C184.807 363.369 185.029 365.195 185.473 366.688C185.917 368.171 186.553 369.295 187.379 370.059C188.214 370.815 189.205 371.192 190.351 371.192C191.497 371.192 192.483 370.815 193.309 370.059C194.136 369.295 194.771 368.171 195.215 366.688C195.659 365.195 195.882 363.369 195.882 361.21C195.882 359.069 195.655 357.257 195.202 355.773C194.758 354.28 194.122 353.156 193.296 352.401C192.47 351.637 191.488 351.255 190.351 351.255C189.205 351.255 188.218 351.637 187.392 352.401C186.566 353.156 185.926 354.28 185.473 355.773C185.029 357.257 184.807 359.069 184.807 361.21ZM212.685 375.35C210.499 375.35 208.62 374.795 207.047 373.684C205.475 372.565 204.271 370.948 203.436 368.833C202.61 366.71 202.196 364.169 202.196 361.21C202.196 358.26 202.614 355.733 203.449 353.627C204.284 351.521 205.488 349.918 207.061 348.816C208.633 347.714 210.508 347.163 212.685 347.163C214.853 347.163 216.723 347.719 218.296 348.829C219.868 349.931 221.072 351.535 221.907 353.64C222.751 355.746 223.173 358.269 223.173 361.21C223.173 364.178 222.756 366.723 221.921 368.847C221.085 370.961 219.882 372.574 218.309 373.684C216.745 374.795 214.87 375.35 212.685 375.35ZM207.141 361.21C207.141 363.369 207.363 365.195 207.807 366.688C208.251 368.171 208.887 369.295 209.713 370.059C210.548 370.815 211.539 371.192 212.685 371.192C213.831 371.192 214.817 370.815 215.643 370.059C216.47 369.295 217.105 368.171 217.549 366.688C217.993 365.195 218.216 363.369 218.216 361.21C218.216 359.069 217.989 357.257 217.536 355.773C217.092 354.28 216.456 353.156 215.63 352.401C214.804 351.637 213.822 351.255 212.685 351.255C211.539 351.255 210.553 351.637 209.726 352.401C208.9 353.156 208.26 354.28 207.807 355.773C207.363 357.257 207.141 359.069 207.141 361.21ZM230.901 372.372C230.901 371.969 230.986 371.6 231.156 371.267C231.325 370.931 231.574 370.664 231.9 370.468C232.227 370.271 232.615 370.173 233.065 370.173C233.518 370.173 233.908 370.271 234.234 370.468C234.561 370.664 234.807 370.929 234.974 371.262C235.14 371.595 235.224 371.965 235.224 372.372V372.911C235.224 373.315 235.139 373.684 234.969 374.021C234.799 374.354 234.551 374.619 234.224 374.816C233.898 375.012 233.511 375.11 233.065 375.11C232.612 375.11 232.222 375.012 231.895 374.816C231.569 374.619 231.32 374.354 231.151 374.021C230.984 373.684 230.901 373.315 230.901 372.911V372.372ZM225.698 366.514C225.698 366.111 225.783 365.743 225.953 365.41C226.126 365.073 226.376 364.807 226.703 364.61C227.032 364.414 227.419 364.315 227.862 364.315C228.319 364.315 228.708 364.414 229.032 364.61C229.358 364.807 229.605 365.072 229.771 365.405C229.938 365.738 230.021 366.108 230.021 366.514V367.054C230.021 367.457 229.936 367.825 229.766 368.159C229.6 368.492 229.353 368.757 229.027 368.953C228.7 369.15 228.312 369.248 227.862 369.248C227.409 369.248 227.019 369.15 226.693 368.953C226.366 368.757 226.118 368.492 225.948 368.159C225.781 367.825 225.698 367.457 225.698 367.054V366.514ZM233.305 364.595H234.549L227.512 374.831H226.268L233.305 364.595ZM227.012 367.054C227.012 367.354 227.081 367.606 227.217 367.809C227.354 368.012 227.569 368.114 227.862 368.114C228.159 368.114 228.373 368.014 228.507 367.814C228.643 367.611 228.712 367.357 228.712 367.054V366.514C228.712 366.208 228.647 365.955 228.517 365.755C228.387 365.552 228.169 365.45 227.862 365.45C227.572 365.45 227.357 365.553 227.217 365.76C227.081 365.966 227.012 366.218 227.012 366.514V367.054ZM232.205 372.911C232.205 373.211 232.273 373.463 232.41 373.666C232.547 373.869 232.765 373.971 233.065 373.971C233.361 373.971 233.576 373.869 233.709 373.666C233.846 373.463 233.914 373.211 233.914 372.911V372.372C233.914 372.065 233.848 371.812 233.714 371.612C233.584 371.409 233.368 371.307 233.065 371.307C232.771 371.307 232.555 371.41 232.415 371.617C232.275 371.82 232.205 372.072 232.205 372.372V372.911Z" fill="#4D83FD"/>
<path d="M303.538 218.967C303.596 219.065 303.632 219.177 303.632 219.3V231.262C303.632 231.622 303.34 231.915 302.98 231.915H285.59C285.23 231.915 284.938 231.622 284.938 231.262V219.421L293.577 226.354C293.797 226.531 294.109 226.531 294.33 226.355L303.406 219.119C303.46 219.076 303.503 219.023 303.538 218.967ZM293.955 225.111L285.902 218.647H302.062L293.955 225.111Z" fill="white"/>
<path d="M194.74 386.57C195.813 386.57 196.559 387.147 196.565 388.016C196.559 388.777 195.97 389.325 195.084 389.435V390.153C195.769 390.115 196.466 390.054 197.107 389.957L197.159 390.441C195.603 390.721 193.848 390.744 192.577 390.744L192.501 390.208C193.069 390.211 193.737 390.205 194.437 390.182V389.438C193.53 389.339 192.921 388.788 192.926 388.016C192.921 387.147 193.667 386.57 194.74 386.57ZM193.533 388.016C193.527 388.575 194.028 388.954 194.74 388.96C195.457 388.954 195.947 388.575 195.953 388.016C195.947 387.45 195.457 387.071 194.74 387.071C194.028 387.071 193.527 387.45 193.533 388.016ZM193.574 393.386V391.351H194.221V392.843H198.495V393.386H193.574ZM197.579 391.841V386.232H198.226V388.715H199.323V389.263H198.226V391.841H197.579ZM206.514 392.097V392.645H199.803V392.097H201.692V390.709H200.643V388.447H205.028V387.304H200.625V386.768H205.669V388.984H201.284V390.173H205.838V390.709H204.689V392.097H206.514ZM202.322 392.097H204.054V390.709H202.322V392.097Z" fill="#8E8E8E"/>
<rect x="205.938" y="441.777" width="12.0611" height="5.42748" rx="2.71374" fill="#4D83FD"/>
<circle cx="183.324" cy="444.491" r="2.71374" fill="#D9D9D9"/>
<circle cx="195.988" cy="444.491" r="2.71374" fill="#D9D9D9"/>
<path d="M199.602 315.544H192.459C192.101 315.544 191.811 315.824 191.811 316.169V320.514C191.811 320.859 192.101 321.139 192.459 321.139H199.602C199.96 321.139 200.25 320.859 200.25 320.514V316.169C200.25 315.824 199.96 315.544 199.602 315.544Z" fill="url(#paint1_linear_2124_964)"/>
<path d="M205.55 311.836V313.398C205.55 315.303 203.948 316.851 201.974 316.851H192.451C190.478 316.851 188.875 315.304 188.875 313.398V311.836C188.875 311.734 188.96 311.652 189.065 311.652H205.36C205.465 311.652 205.551 311.734 205.551 311.836H205.55Z" fill="url(#paint2_linear_2124_964)"/>
<path d="M205.526 321.563C205.37 320.542 204.459 319.757 203.358 319.757H191.069C189.967 319.757 189.055 320.542 188.9 321.563H205.527H205.526Z" fill="url(#paint3_linear_2124_964)"/>
<path d="M194.154 312.33V310.217H205.479C205.711 310.217 205.898 310.398 205.898 310.621V311.926C205.898 312.149 205.711 312.33 205.479 312.33H194.154Z" fill="#F99DF9"/>
<path d="M188.737 301.71H193.507C193.865 301.71 194.155 301.99 194.155 302.335V312.33H188.738C188.381 312.33 188.09 312.049 188.09 311.704V302.335C188.09 301.99 188.381 301.71 188.738 301.71H188.737Z" fill="#FECFFF"/>
<path d="M191.995 302.936H190.247C190.118 302.936 190.014 303.037 190.014 303.161C190.014 303.285 190.118 303.385 190.247 303.385H191.995C192.124 303.385 192.228 303.285 192.228 303.161C192.228 303.037 192.124 302.936 191.995 302.936Z" fill="#F99DF9"/>
<path d="M205.434 321.309H188.997C188.865 321.309 188.758 321.412 188.758 321.539V322.135C188.758 322.263 188.865 322.366 188.997 322.366H205.434C205.565 322.366 205.672 322.263 205.672 322.135V321.539C205.672 321.412 205.565 321.309 205.434 321.309Z" fill="#F99DF9"/>
<path d="M199.449 304.023L199.526 304.304C199.786 305.244 200.486 306.014 201.419 306.385C200.486 306.756 199.786 307.525 199.526 308.466L199.449 308.747L199.371 308.466C199.111 307.526 198.411 306.757 197.479 306.385C198.411 306.015 199.111 305.245 199.371 304.304L199.449 304.023Z" fill="#78F4BD"/>
<path d="M207.66 314.911L207.779 315.34C207.929 315.881 208.332 316.324 208.868 316.537L209.091 316.626L208.868 316.715C208.332 316.928 207.928 317.371 207.779 317.912L207.66 318.341L207.542 317.912C207.391 317.371 206.989 316.928 206.453 316.715L206.229 316.626L206.453 316.537C206.989 316.324 207.392 315.881 207.542 315.34L207.66 314.911Z" fill="#78F4BD"/>
<path d="M202.169 302.85L202.207 302.989C202.337 303.457 202.685 303.839 203.148 304.024C202.685 304.209 202.337 304.591 202.207 305.059L202.169 305.198L202.13 305.059C202.001 304.591 201.652 304.209 201.189 304.024C201.652 303.839 202.001 303.457 202.13 302.989L202.169 302.85Z" fill="#78F4BD"/>
<rect opacity="0.61" x="92.5641" y="216.235" width="65.7328" height="18.0916" rx="4.82443" fill="#81A9FF"/>
<path d="M103.57 227.78C101.785 227.554 100.404 226.007 100.404 224.132C100.404 222.102 102.024 220.457 104.022 220.457C106.02 220.457 107.64 222.102 107.64 224.132C107.64 226.007 106.259 227.554 104.474 227.78V228.732C106.259 228.775 107.64 229.065 107.64 229.416C107.64 229.797 106.02 230.105 104.022 230.105C102.024 230.105 100.404 229.797 100.404 229.416C100.404 229.065 101.785 228.775 103.57 228.732V227.78ZM104.022 225.051C104.522 225.051 104.927 224.64 104.927 224.132C104.927 223.625 104.522 223.213 104.022 223.213C103.522 223.213 103.118 223.625 103.118 224.132C103.118 224.64 103.522 225.051 104.022 225.051Z" fill="white"/>
<path d="M117.962 223.474H117.083V224.446H117.927V225.041H113.234V224.446H114.079V223.474H113.2V222.882H117.962V223.474ZM112.677 225.44H118.497V226.063H112.677V225.44ZM113.362 226.495H117.772V228.009H114.139V228.444H117.947V229.029H113.369V227.467H116.998V227.065H113.362V226.495ZM116.296 224.446V223.474H114.861V224.446H116.296ZM121.388 225.708H119.881V226.905C120.256 226.901 120.6 226.889 120.913 226.867C121.228 226.844 121.552 226.802 121.885 226.742L121.95 227.382C121.559 227.454 121.183 227.501 120.823 227.524C120.465 227.546 120.046 227.558 119.566 227.559H119.121V225.083H120.631V223.991H119.114V223.361H121.388V225.708ZM121.67 224.918H122.375V222.832H123.112V228.761H122.375V225.555H121.67V224.918ZM123.682 222.699H124.427V229.081H123.682V222.699ZM130.501 229.096H129.709V222.699H130.501V229.096ZM125.391 225.418C125.391 224.966 125.462 224.571 125.603 224.231C125.746 223.889 125.944 223.626 126.195 223.441C126.449 223.255 126.737 223.162 127.06 223.162C127.378 223.162 127.663 223.255 127.915 223.441C128.168 223.626 128.365 223.889 128.507 224.231C128.65 224.571 128.722 224.966 128.722 225.418C128.722 225.873 128.65 226.272 128.507 226.615C128.365 226.956 128.168 227.22 127.915 227.405C127.663 227.588 127.378 227.679 127.06 227.679C126.737 227.679 126.449 227.588 126.195 227.405C125.942 227.22 125.745 226.956 125.603 226.615C125.462 226.272 125.391 225.873 125.391 225.418ZM126.148 225.418C126.148 225.739 126.185 226.018 126.26 226.253C126.337 226.486 126.444 226.664 126.58 226.787C126.719 226.909 126.878 226.97 127.06 226.97C127.238 226.97 127.395 226.908 127.53 226.785C127.666 226.662 127.772 226.483 127.847 226.25C127.924 226.017 127.962 225.739 127.962 225.418C127.962 225.098 127.924 224.822 127.847 224.591C127.772 224.358 127.666 224.179 127.53 224.056C127.395 223.933 127.238 223.871 127.06 223.871C126.878 223.871 126.719 223.933 126.58 224.056C126.444 224.179 126.337 224.358 126.26 224.591C126.185 224.822 126.148 225.098 126.148 225.418ZM134.741 223.571C134.741 223.899 134.84 224.219 135.039 224.531C135.237 224.842 135.511 225.111 135.861 225.335C136.212 225.559 136.606 225.709 137.043 225.785L136.69 226.44C136.335 226.367 136.004 226.249 135.696 226.088C135.389 225.924 135.119 225.725 134.884 225.49C134.65 225.256 134.465 224.996 134.326 224.711C134.186 224.994 133.999 225.253 133.764 225.488C133.531 225.721 133.26 225.919 132.952 226.083C132.645 226.246 132.316 226.365 131.962 226.44L131.618 225.785C132.047 225.707 132.436 225.555 132.785 225.33C133.133 225.106 133.406 224.837 133.604 224.526C133.804 224.214 133.905 223.896 133.907 223.571V223.102H134.741V223.571ZM131.44 227.622H137.28V228.272H131.44V227.622ZM144.727 229.096H143.935V222.699H144.727V229.096ZM139.617 225.418C139.617 224.966 139.688 224.571 139.829 224.231C139.972 223.889 140.17 223.626 140.421 223.441C140.675 223.255 140.963 223.162 141.286 223.162C141.604 223.162 141.889 223.255 142.141 223.441C142.394 223.626 142.591 223.889 142.733 224.231C142.876 224.571 142.948 224.966 142.948 225.418C142.948 225.873 142.876 226.272 142.733 226.615C142.591 226.956 142.394 227.22 142.141 227.405C141.889 227.588 141.604 227.679 141.286 227.679C140.963 227.679 140.675 227.588 140.421 227.405C140.168 227.22 139.971 226.956 139.829 226.615C139.688 226.272 139.617 225.873 139.617 225.418ZM140.374 225.418C140.374 225.739 140.411 226.018 140.486 226.253C140.563 226.486 140.67 226.664 140.806 226.787C140.944 226.909 141.104 226.97 141.286 226.97C141.464 226.97 141.621 226.908 141.756 226.785C141.892 226.662 141.998 226.483 142.073 226.25C142.15 226.017 142.188 225.739 142.188 225.418C142.188 225.098 142.15 224.822 142.073 224.591C141.998 224.358 141.892 224.179 141.756 224.056C141.621 223.933 141.464 223.871 141.286 223.871C141.104 223.871 140.944 223.933 140.806 224.056C140.67 224.179 140.563 224.358 140.486 224.591C140.411 224.822 140.374 225.098 140.374 225.418ZM151.498 226.57H145.659V225.945H151.498V226.57ZM146.383 222.832H150.776V224.468H147.178V224.928H150.901V225.53H146.398V223.899H149.992V223.444H146.383V222.832ZM146.423 227.027H150.794V229.006H146.423V227.027ZM150.017 228.372V227.652H147.193V228.372H150.017Z" fill="white"/>
<rect x="92.0609" y="572.037" width="212.878" height="32.6065" rx="4.82443" fill="#DEDEDE"/>
<rect x="280.817" y="581.956" width="13.8702" height="13.3504" rx="3.01527" fill="#8E8E8E" stroke="#8E8E8E" stroke-width="1.20611"/>
<path d="M283.229 588.631L286.847 591.833L292.275 586.011" stroke="white" stroke-width="1.80916" stroke-linecap="round" stroke-linejoin="round"/>
<path d="M103.864 598.739C102.729 598.739 102.075 597.784 102.075 596.11C102.075 594.451 102.739 593.481 103.864 593.481C104.988 593.481 105.653 594.451 105.653 596.11C105.653 597.784 104.998 598.739 103.864 598.739ZM102.694 596.11C102.694 597.435 103.124 598.174 103.864 598.174C104.603 598.174 105.033 597.435 105.033 596.11C105.033 594.786 104.598 594.036 103.864 594.036C103.129 594.036 102.694 594.786 102.694 596.11ZM108.205 593.481C109.084 593.491 110.064 594.021 110.064 595.905C110.064 597.724 109.319 598.739 108.12 598.739C107.22 598.739 106.585 598.189 106.455 597.375H107.085C107.2 597.834 107.55 598.174 108.12 598.174C108.954 598.174 109.464 597.455 109.469 596.21H109.399C109.104 596.635 108.634 596.89 108.09 596.89C107.175 596.89 106.415 596.185 106.415 595.196C106.415 594.246 107.115 593.471 108.205 593.481ZM107.035 595.191C107.035 595.825 107.515 596.33 108.185 596.33C108.849 596.33 109.369 595.78 109.369 595.181C109.369 594.591 108.879 594.041 108.205 594.041C107.535 594.041 107.03 594.561 107.035 595.191ZM113.195 598.709C112.945 598.709 112.735 598.504 112.74 598.254C112.735 598.004 112.945 597.799 113.195 597.799C113.444 597.799 113.649 598.004 113.649 598.254C113.649 598.504 113.444 598.709 113.195 598.709ZM112.745 595.41C112.74 595.161 112.95 594.956 113.2 594.956C113.449 594.956 113.654 595.161 113.654 595.41C113.654 595.66 113.449 595.865 113.2 595.865C112.95 595.865 112.74 595.66 112.745 595.41ZM118.178 598.739C117.158 598.739 116.428 598.194 116.393 597.385H117.038C117.073 597.869 117.558 598.174 118.168 598.174C118.842 598.174 119.332 597.809 119.332 597.275C119.332 596.72 118.887 596.325 118.088 596.325H117.673V595.765H118.088C118.712 595.765 119.147 595.415 119.147 594.886C119.147 594.376 118.772 594.036 118.188 594.036C117.643 594.036 117.143 594.336 117.118 594.836H116.503C116.533 594.026 117.288 593.481 118.198 593.481C119.172 593.481 119.767 594.121 119.762 594.856C119.767 595.435 119.427 595.86 118.892 596.01V596.05C119.557 596.15 119.962 596.625 119.957 597.28C119.962 598.119 119.197 598.739 118.178 598.739ZM122.549 598.739C121.415 598.739 120.76 597.784 120.76 596.11C120.76 594.451 121.425 593.481 122.549 593.481C123.673 593.481 124.338 594.451 124.338 596.11C124.338 597.784 123.683 598.739 122.549 598.739ZM121.38 596.11C121.38 597.435 121.809 598.174 122.549 598.174C123.289 598.174 123.718 597.435 123.718 596.11C123.718 594.786 123.284 594.036 122.549 594.036C121.814 594.036 121.38 594.786 121.38 596.11ZM128.691 593.256C129.611 593.256 130.25 593.751 130.255 594.496C130.25 595.148 129.746 595.618 128.986 595.713V596.328C129.573 596.295 130.17 596.243 130.72 596.16L130.765 596.575C129.431 596.815 127.926 596.835 126.837 596.835L126.772 596.375C127.259 596.378 127.832 596.373 128.431 596.353V595.715C127.654 595.63 127.132 595.158 127.137 594.496C127.132 593.751 127.772 593.256 128.691 593.256ZM127.657 594.496C127.652 594.976 128.081 595.301 128.691 595.306C129.306 595.301 129.726 594.976 129.731 594.496C129.726 594.011 129.306 593.686 128.691 593.686C128.081 593.686 127.652 594.011 127.657 594.496ZM127.692 599.099V597.355H128.246V598.634H131.91V599.099H127.692ZM131.125 597.774V592.967H131.68V595.096H132.619V595.565H131.68V597.774H131.125ZM138.784 597.994V598.464H133.031V597.994H134.651V596.805H133.751V594.866H137.509V593.886H133.736V593.426H138.059V595.325H134.301V596.345H138.204V596.805H137.219V597.994H138.784ZM135.19 597.994H136.675V596.805H135.19V597.994ZM143.156 593.311L141.507 599.439H140.952L142.601 593.311H143.156ZM150.673 592.967V596.605H150.143V592.967H150.673ZM145.625 596.13V593.416H148.059V594.496H148.938V593.097H149.468V596.53H148.938V594.961H148.059V596.13H145.625ZM146.145 595.705H147.539V593.856H146.145V595.705ZM146.524 599.159V596.915H150.673V599.159H146.524ZM147.069 598.704H150.128V597.355H147.069V598.704ZM156.797 592.962V599.254H156.247V595.76H154.738V597.664H151.844V593.451H152.404V595.091H154.198V593.451H154.738V595.301H156.247V592.962H156.797ZM152.404 597.205H154.198V595.535H152.404V597.205ZM160.2 598.669H159.53L161.404 593.551H162.074L163.948 598.669H163.278L162.768 597.23H160.709L160.2 598.669ZM160.907 596.67H162.571L161.759 594.376H161.719L160.907 596.67Z" fill="#8E8E8E"/>
<path d="M109.779 588.709H101.993V587.843H105.348V586.454H102.916V583.668H107.82V582.609H102.903V581.763H108.856V584.498H103.962V585.598H109.053V586.454H106.388V587.843H109.779V588.709ZM117.419 589.712H116.363V581.183H117.419V589.712ZM110.779 581.876H111.828V584.005H113.89V581.876H114.927V587.7H110.779V581.876ZM113.89 586.84V584.825H111.828V586.84H113.89ZM127.631 584.421H128.944V585.304H127.631V589.692H126.582V581.183H127.631V584.421ZM121.257 581.876H122.3V584.005H124.309V581.876H125.349V587.7H121.257V581.876ZM124.309 586.84V584.825H122.3V586.84H124.309ZM136.02 583.229H137.21V584.105H136.02V586.171H134.967V581.183H136.02V583.229ZM129.656 581.776H133.475V582.622H130.699V584.801C131.548 584.797 132.222 584.777 132.722 584.741C133.222 584.706 133.712 584.638 134.194 584.538L134.311 585.364C133.796 585.475 133.266 585.55 132.722 585.588C132.18 585.625 131.451 585.644 130.536 585.644H130.35H129.656V581.776ZM130.343 586.614H136.02V589.706H134.967V587.443H130.343V586.614ZM147.062 585.481H146.016V583.928H144.367V583.075H146.016V581.183H147.062V585.481ZM140.045 584.855C140.989 584.639 141.721 584.318 142.241 583.892C142.763 583.465 143.066 582.961 143.151 582.379H140.509V581.533H144.277C144.277 582.61 143.946 583.496 143.284 584.192C142.622 584.887 141.661 585.387 140.402 585.691L140.045 584.855ZM141.451 585.824H147.062V588.07H142.511V588.773H147.282V589.612H141.465V587.287H146.009V586.654H141.451V585.824ZM151.543 585.194H149.534V586.79C150.034 586.786 150.492 586.769 150.91 586.74C151.33 586.709 151.762 586.654 152.206 586.574L152.293 587.427C151.771 587.522 151.27 587.586 150.79 587.617C150.313 587.645 149.754 587.661 149.114 587.663H148.521V584.361H150.534V582.905H148.511V582.066H151.543V585.194ZM151.92 584.142H152.859V581.36H153.842V589.266H152.859V584.991H151.92V584.142ZM154.602 581.183H155.595V589.692H154.602V581.183ZM164.393 588.709H156.607V587.843H159.962V586.454H157.53V583.668H162.434V582.609H157.517V581.763H163.47V584.498H158.576V585.598H163.667V586.454H161.002V587.843H164.393V588.709ZM173.956 583.205H175.145V584.065H173.956V586.031H172.903V581.183H173.956V583.205ZM167.592 581.756H171.377V582.589H168.635V584.725C169.47 584.722 170.14 584.704 170.644 584.668C171.148 584.63 171.644 584.559 172.13 584.455L172.247 585.301C171.707 585.414 171.153 585.491 170.584 585.531C170.016 585.569 169.249 585.588 168.285 585.588H167.592V581.756ZM168.079 586.407H170.864V589.686H169.828V587.243H168.079V586.407ZM171.251 586.407H173.956V589.686H172.903V587.243H171.251V586.407ZM182.685 589.692H181.629V581.183H182.685V589.692ZM175.632 587.35C176.369 586.999 176.981 586.605 177.467 586.167C177.956 585.727 178.331 585.24 178.594 584.705C178.856 584.167 179.018 583.571 179.08 582.915H176.065V582.086H180.146C180.144 582.972 180.015 583.787 179.76 584.531C179.506 585.273 179.087 585.954 178.5 586.574C177.916 587.193 177.143 587.732 176.181 588.19L175.632 587.35Z" fill="#8E8E8E"/>
<rect x="92.0609" y="494.846" width="212.878" height="32.6065" rx="4.82443" fill="#DEDEDE"/>
<rect x="280.817" y="504.765" width="13.8702" height="13.3504" rx="3.01527" fill="#8E8E8E" stroke="#8E8E8E" stroke-width="1.20611"/>
<path d="M283.229 511.44L286.847 514.643L292.275 508.82" stroke="white" stroke-width="1.80916" stroke-linecap="round" stroke-linejoin="round"/>
<path d="M103.879 516.066C104.798 516.066 105.438 516.56 105.443 517.305C105.438 517.957 104.933 518.427 104.174 518.522V519.137C104.761 519.104 105.358 519.052 105.908 518.969L105.953 519.384C104.618 519.624 103.114 519.644 102.025 519.644L101.96 519.184C102.447 519.187 103.019 519.182 103.619 519.162V518.524C102.842 518.439 102.319 517.967 102.324 517.305C102.319 516.56 102.959 516.066 103.879 516.066ZM102.844 517.305C102.839 517.785 103.269 518.11 103.879 518.115C104.493 518.11 104.913 517.785 104.918 517.305C104.913 516.82 104.493 516.495 103.879 516.495C103.269 516.495 102.839 516.82 102.844 517.305ZM102.879 521.908V520.164H103.434V521.443H107.097V521.908H102.879ZM106.313 520.583V515.776H106.867V517.905H107.807V518.374H106.867V520.583H106.313ZM113.971 520.803V521.273H108.219V520.803H109.838V519.614H108.939V517.675H112.697V516.695H108.924V516.235H113.247V518.135H109.488V519.154H113.392V519.614H112.407V520.803H113.971ZM110.378 520.803H111.862V519.614H110.378V520.803ZM119.446 515.771V518.364H120.401V518.829H119.446V522.053H118.891V515.771H119.446ZM114.448 520.314C115.4 519.344 115.783 518.172 115.85 516.92H114.648V516.455H116.377C116.372 517.95 116.038 519.424 114.898 520.628L114.448 520.314ZM116.252 520.738C117.237 519.626 117.532 518.23 117.584 516.92H116.577V516.455H118.107C118.102 517.945 117.882 519.679 116.707 521.048L116.252 520.738ZM122.977 517.7C122.977 518.764 123.751 519.849 124.676 520.249L124.366 520.688C123.631 520.354 122.999 519.631 122.704 518.764C122.409 519.684 121.775 520.483 121.057 520.843L120.728 520.404C121.627 519.974 122.412 518.784 122.417 517.7V516.88H120.933V516.415H124.471V516.88H122.977V517.7ZM125.35 522.053V515.771H125.905V522.053H125.35ZM130.727 516.29C131.607 516.3 132.586 516.83 132.586 518.714C132.586 520.533 131.842 521.548 130.642 521.548C129.743 521.548 129.108 520.998 128.978 520.184H129.608C129.723 520.643 130.073 520.983 130.642 520.983C131.477 520.983 131.987 520.264 131.992 519.019H131.922C131.627 519.444 131.157 519.699 130.612 519.699C129.698 519.699 128.938 518.994 128.938 518.005C128.938 517.055 129.638 516.28 130.727 516.29ZM129.558 518C129.558 518.634 130.038 519.139 130.707 519.139C131.372 519.139 131.892 518.589 131.892 517.99C131.892 517.4 131.402 516.85 130.727 516.85C130.058 516.85 129.553 517.37 129.558 518ZM135.47 517.46C135.465 518.604 136.245 519.759 137.169 520.179L136.83 520.618C136.115 520.269 135.498 519.524 135.198 518.629C134.908 519.576 134.288 520.374 133.551 520.743L133.201 520.279C134.136 519.849 134.911 518.649 134.915 517.46V516.315H135.47V517.46ZM137.859 522.063V515.771H138.414V522.063H137.859ZM144.403 515.771V517.68H145.348V518.15H144.403V520.369H143.844V515.771H144.403ZM139.501 519.194C141.007 518.724 141.984 517.832 142.102 516.72H139.76V516.255H142.704C142.704 517.875 141.55 519.074 139.74 519.639L139.501 519.194ZM140.465 521.913V519.899H141.02V521.453H144.688V521.913H140.465ZM149.615 516.121L147.966 522.248H147.411L149.06 516.121H149.615ZM157.132 515.776V519.414H156.602V515.776H157.132ZM152.084 518.939V516.225H154.518V517.305H155.398V515.906H155.927V519.339H155.398V517.77H154.518V518.939H152.084ZM152.604 518.514H153.998V516.665H152.604V518.514ZM152.984 521.968V519.724H157.132V521.968H152.984ZM153.528 521.513H156.587V520.164H153.528V521.513ZM163.256 515.771V522.063H162.706V518.569H161.197V520.473H158.304V516.26H158.863V517.9H160.657V516.26H161.197V518.11H162.706V515.771H163.256ZM158.863 520.014H160.657V518.344H158.863V520.014ZM166.659 521.478H165.989L167.863 516.36H168.533L170.407 521.478H169.737L169.228 520.039H167.169L166.659 521.478ZM167.366 519.479H169.03L168.218 517.185H168.178L167.366 519.479Z" fill="#8E8E8E"/>
<path d="M109.753 509.12H101.993V508.273H105.341V507.454H102.996V504.195H104.032V505.045H107.71V504.195H108.753V507.454H106.391V508.273H109.753V509.12ZM102.853 509.789H108.806V512.501H107.754V510.619H102.853V509.789ZM107.71 506.621V505.825H104.032V506.621H107.71ZM117.246 508.693H114.727V510.639H118.118V511.499H110.332V510.639H113.687V508.693H111.275V504.622H117.179V505.461H112.324V507.86H117.246V508.693ZM127.631 507.231H128.944V508.113H127.631V512.501H126.582V503.992H127.631V507.231ZM121.257 504.685H122.3V506.814H124.309V504.685H125.349V510.509H121.257V504.685ZM124.309 509.649V507.634H122.3V509.649H124.309ZM136.02 506.038H137.21V506.914H136.02V508.98H134.967V503.992H136.02V506.038ZM129.656 504.585H133.475V505.431H130.699V507.61C131.548 507.606 132.222 507.586 132.722 507.55C133.222 507.515 133.712 507.447 134.194 507.347L134.311 508.173C133.796 508.284 133.266 508.359 132.722 508.397C132.18 508.434 131.451 508.453 130.536 508.453H130.35H129.656V504.585ZM130.343 509.423H136.02V512.515H134.967V510.252H130.343V509.423ZM142.678 504.432C142.678 504.634 142.719 504.839 142.801 505.048C142.885 505.255 143.012 505.452 143.181 505.641C143.349 505.828 143.558 505.988 143.807 506.121C144.051 505.99 144.257 505.832 144.423 505.648C144.59 505.464 144.713 505.267 144.793 505.058C144.875 504.849 144.916 504.641 144.916 504.432V504.095H145.976V504.432C145.974 504.687 146.029 504.934 146.143 505.171C146.256 505.407 146.429 505.619 146.662 505.808C146.896 505.994 147.185 506.139 147.532 506.241L147.046 507.017C146.666 506.895 146.341 506.719 146.073 506.488C145.806 506.254 145.597 505.982 145.446 505.671C145.297 506.004 145.085 506.298 144.81 506.551C144.537 506.802 144.201 506.992 143.804 507.121C143.402 506.99 143.064 506.796 142.791 506.541C142.518 506.283 142.307 505.987 142.158 505.651C142.007 505.962 141.798 506.235 141.531 506.471C141.265 506.706 140.943 506.888 140.565 507.017L140.082 506.241C140.42 506.134 140.705 505.983 140.938 505.788C141.174 505.59 141.349 505.374 141.465 505.138C141.58 504.9 141.638 504.665 141.638 504.432V504.095H142.678V504.432ZM139.929 507.454H147.689V508.283H139.929V507.454ZM140.842 508.836H146.722V510.962H141.878V511.632H146.956V512.431H140.852V510.222H145.689V509.616H140.842V508.836ZM155.378 512.501H154.322V503.992H155.378V512.501ZM148.325 510.159C149.062 509.808 149.674 509.414 150.16 508.976C150.649 508.537 151.024 508.049 151.287 507.514C151.549 506.976 151.711 506.38 151.773 505.725H148.758V504.895H152.839C152.837 505.781 152.708 506.596 152.453 507.34C152.199 508.082 151.78 508.763 151.193 509.383C150.609 510.003 149.836 510.541 148.874 510.999L148.325 510.159Z" fill="#8E8E8E"/>
<path d="M166.286 504.128C166.968 504.128 167.521 504.681 167.521 505.363V509.408C167.521 510.09 166.968 510.643 166.286 510.644H160.235C159.553 510.644 159 510.09 159 509.408V505.363C159 504.681 159.553 504.128 160.235 504.128H166.286Z" fill="#8E8E8E"/>
<circle cx="167.02" cy="509.767" r="1.62903" fill="#DEDEDE"/>
<circle cx="163.386" cy="507.887" r="1.14681" fill="#8E8E8E" stroke="#DEDEDE" stroke-width="0.4632"/>
<rect x="160.504" y="502.75" width="2.38089" height="1.00248" rx="0.3088" fill="#8E8E8E"/>
<path d="M167.02 509.015V510.518" stroke="#8E8E8E" stroke-width="0.4632" stroke-linecap="round"/>
<path d="M166.268 509.767H167.772" stroke="#8E8E8E" stroke-width="0.4632" stroke-linecap="round"/>
<path d="M160.621 505.375H165.562" stroke="#DEDEDE" stroke-width="0.4632" stroke-linecap="round"/>
<rect x="92.0609" y="533.441" width="212.878" height="32.6065" rx="4.82443" fill="#DEDEDE"/>
<rect x="280.817" y="543.36" width="13.8702" height="13.3504" rx="3.01527" fill="#8E8E8E" stroke="#8E8E8E" stroke-width="1.20611"/>
<path d="M283.229 550.035L286.847 553.238L292.275 547.415" stroke="white" stroke-width="1.80916" stroke-linecap="round" stroke-linejoin="round"/>
<path d="M103.879 554.661C104.798 554.661 105.438 555.156 105.443 555.9C105.438 556.552 104.933 557.022 104.174 557.117V557.732C104.761 557.699 105.358 557.647 105.908 557.564L105.953 557.979C104.618 558.219 103.114 558.239 102.025 558.239L101.96 557.779C102.447 557.782 103.019 557.777 103.619 557.757V557.12C102.842 557.035 102.319 556.562 102.324 555.9C102.319 555.156 102.959 554.661 103.879 554.661ZM102.844 555.9C102.839 556.38 103.269 556.705 103.879 556.71C104.493 556.705 104.913 556.38 104.918 555.9C104.913 555.415 104.493 555.091 103.879 555.091C103.269 555.091 102.839 555.415 102.844 555.9ZM102.879 560.503V558.759H103.434V560.038H107.097V560.503H102.879ZM106.313 559.179V554.371H106.867V556.5H107.807V556.97H106.867V559.179H106.313ZM113.971 559.399V559.868H108.219V559.399H109.838V558.209H108.939V556.27H112.697V555.29H108.924V554.831H113.247V556.73H109.488V557.749H113.392V558.209H112.407V559.399H113.971ZM110.378 559.399H111.862V558.209H110.378V559.399ZM119.446 554.366V556.96H120.401V557.424H119.446V560.648H118.891V554.366H119.446ZM114.448 558.909C115.4 557.939 115.783 556.767 115.85 555.515H114.648V555.051H116.377C116.372 556.545 116.038 558.019 114.898 559.224L114.448 558.909ZM116.252 559.334C117.237 558.222 117.532 556.825 117.584 555.515H116.577V555.051H118.107C118.102 556.54 117.882 558.274 116.707 559.643L116.252 559.334ZM122.977 556.295C122.977 557.36 123.751 558.444 124.676 558.844L124.366 559.284C123.631 558.949 122.999 558.227 122.704 557.36C122.409 558.279 121.775 559.079 121.057 559.439L120.728 558.999C121.627 558.569 122.412 557.379 122.417 556.295V555.475H120.933V555.011H124.471V555.475H122.977V556.295ZM125.35 560.648V554.366H125.905V560.648H125.35ZM130.832 554.956V560.073H130.193V555.62H130.163L128.918 556.445V555.805L130.193 554.956H130.832ZM134.005 554.956V560.073H133.366V555.62H133.336L132.091 556.445V555.805L133.366 554.956H134.005ZM137.378 556.055C137.373 557.2 138.153 558.354 139.078 558.774L138.738 559.214C138.023 558.864 137.406 558.119 137.106 557.225C136.816 558.172 136.196 558.969 135.459 559.339L135.109 558.874C136.044 558.444 136.819 557.245 136.824 556.055V554.911H137.378V556.055ZM139.767 560.658V554.366H140.322V560.658H139.767ZM146.311 554.366V556.275H147.256V556.745H146.311V558.964H145.752V554.366H146.311ZM141.409 557.789C142.915 557.32 143.893 556.427 144.01 555.315H141.669V554.851H144.612C144.612 556.47 143.458 557.669 141.649 558.234L141.409 557.789ZM142.373 560.508V558.494H142.928V560.048H146.596V560.508H142.373ZM153.34 554.716L151.69 560.843H151.136L152.785 554.716H153.34ZM160.856 554.371V558.009H160.326V554.371H160.856ZM155.808 557.534V554.821H158.242V555.9H159.122V554.501H159.652V557.934H159.122V556.365H158.242V557.534H155.808ZM156.328 557.11H157.723V555.26H156.328V557.11ZM156.708 560.563V558.319H160.856V560.563H156.708ZM157.253 560.108H160.311V558.759H157.253V560.108ZM166.981 554.366V560.658H166.431V557.165H164.921V559.069H162.028V554.856H162.588V556.495H164.382V554.856H164.921V556.705H166.431V554.366H166.981ZM162.588 558.609H164.382V556.94H162.588V558.609ZM170.383 560.073H169.714L171.588 554.956H172.257L174.132 560.073H173.462L172.952 558.634H170.893L170.383 560.073ZM171.09 558.074H172.755L171.943 555.78H171.903L171.09 558.074Z" fill="#8E8E8E"/>
<path d="M105.868 542.754C106.492 542.754 107.034 542.82 107.494 542.954C107.956 543.085 108.311 543.275 108.56 543.523C108.809 543.772 108.933 544.067 108.933 544.406C108.933 544.744 108.809 545.036 108.56 545.283C108.311 545.527 107.956 545.714 107.494 545.842C107.034 545.971 106.492 546.036 105.868 546.036C105.246 546.036 104.704 545.971 104.242 545.842C103.78 545.714 103.423 545.527 103.172 545.283C102.924 545.036 102.799 544.744 102.799 544.406C102.799 544.067 102.924 543.772 103.172 543.523C103.423 543.275 103.78 543.085 104.242 542.954C104.706 542.82 105.248 542.754 105.868 542.754ZM101.993 546.609H109.753V547.452H101.993V546.609ZM102.909 548.128H108.813V550.997H102.909V548.128ZM103.885 544.406C103.883 544.577 103.96 544.724 104.115 544.846C104.273 544.966 104.501 545.058 104.798 545.123C105.096 545.187 105.452 545.219 105.868 545.219C106.281 545.219 106.636 545.187 106.934 545.123C107.232 545.058 107.459 544.966 107.617 544.846C107.777 544.724 107.857 544.577 107.857 544.406C107.857 544.229 107.777 544.079 107.617 543.957C107.459 543.832 107.232 543.738 106.934 543.673C106.636 543.609 106.281 543.577 105.868 543.577C105.45 543.577 105.093 543.609 104.795 543.673C104.5 543.738 104.273 543.832 104.115 543.957C103.96 544.079 103.883 544.229 103.885 544.406ZM107.794 550.15V548.961H103.942V550.15H107.794ZM113.511 543.8C113.508 544.18 113.585 544.542 113.74 544.886C113.898 545.23 114.131 545.536 114.44 545.802C114.749 546.067 115.123 546.268 115.563 546.405L115.04 547.228C114.558 547.068 114.141 546.833 113.79 546.522C113.442 546.211 113.17 545.844 112.974 545.419C112.779 545.877 112.502 546.274 112.145 546.612C111.787 546.947 111.362 547.2 110.868 547.368L110.339 546.549C110.785 546.398 111.165 546.181 111.478 545.899C111.791 545.615 112.028 545.292 112.188 544.929C112.348 544.567 112.428 544.191 112.428 543.8V542.984H113.511V543.8ZM111.615 548.068H117.422V551.097H116.373V548.911H111.615V548.068ZM116.373 542.587H117.422V547.682H116.373V542.587ZM126.431 546.869H123.066V547.512H125.465V549.601H120.62V550.227H125.698V551.027H119.594V548.851H124.432V548.305H119.584V547.512H122.013V546.869H118.671V546.039H126.431V546.869ZM119.647 542.847H125.438V545.503H119.647V542.847ZM124.392 544.683V543.667H120.677V544.683H124.392ZM132.009 544.24C132.007 544.524 132.046 544.811 132.129 545.099C132.213 545.386 132.343 545.66 132.518 545.922C132.694 546.184 132.915 546.409 133.182 546.595C133.446 546.411 133.665 546.19 133.838 545.932C134.013 545.672 134.142 545.398 134.224 545.109C134.309 544.818 134.352 544.529 134.354 544.24V543.224H135.407V544.24C135.405 544.597 135.463 544.943 135.58 545.276C135.7 545.607 135.884 545.907 136.13 546.176C136.379 546.442 136.69 546.651 137.063 546.802L136.5 547.588C136.111 547.422 135.78 547.188 135.507 546.889C135.236 546.589 135.025 546.241 134.874 545.846C134.719 546.266 134.5 546.636 134.218 546.959C133.936 547.278 133.588 547.525 133.175 547.698C132.759 547.525 132.41 547.275 132.125 546.949C131.841 546.622 131.622 546.247 131.469 545.822C131.314 546.22 131.099 546.571 130.826 546.875C130.555 547.18 130.228 547.417 129.846 547.588L129.3 546.802C129.66 546.644 129.964 546.428 130.213 546.152C130.462 545.877 130.647 545.574 130.769 545.243C130.891 544.912 130.954 544.577 130.956 544.24V543.224H132.009V544.24ZM129.3 549.158H137.07V550.01H129.3V549.158ZM140.914 546.599H138.905V548.195C139.405 548.19 139.864 548.174 140.281 548.145C140.701 548.114 141.133 548.058 141.577 547.978L141.664 548.831C141.142 548.927 140.641 548.99 140.161 549.021C139.684 549.05 139.125 549.065 138.485 549.068H137.892V545.766H139.905V544.31H137.882V543.47H140.914V546.599ZM141.291 545.546H142.23V542.764H143.213V550.67H142.23V546.395H141.291V545.546ZM143.973 542.587H144.966V551.097H143.973V542.587ZM153.088 551.097H152.032V542.587H153.088V551.097ZM146.035 548.754C146.772 548.403 147.384 548.009 147.871 547.572C148.359 547.132 148.735 546.644 148.997 546.109C149.259 545.571 149.421 544.975 149.483 544.32H146.468V543.49H150.549C150.547 544.376 150.418 545.192 150.163 545.936C149.91 546.678 149.49 547.358 148.903 547.978C148.319 548.598 147.546 549.136 146.585 549.594L146.035 548.754ZM163.747 551.117H162.708V546.495H160.975V549.051H156.93V543.247H157.98V545.363H159.952V543.247H160.975V545.642H162.708V542.587H163.747V551.117ZM159.952 548.205V546.186H157.98V548.205H159.952ZM172.043 551.117H171V542.587H172.043V551.117ZM165.409 543.327H169.421V546.522H166.495V548.235C167.208 548.23 167.866 548.207 168.468 548.165C169.07 548.12 169.687 548.045 170.32 547.938L170.414 548.794C169.734 548.912 169.065 548.992 168.408 549.034C167.75 549.076 167.002 549.098 166.162 549.098H165.416V545.689H168.355V544.176H165.409V543.327ZM180.395 551.097H179.339V542.587H180.395V551.097ZM173.342 548.754C174.079 548.403 174.691 548.009 175.178 547.572C175.666 547.132 176.042 546.644 176.304 546.109C176.566 545.571 176.728 544.975 176.79 544.32H173.775V543.49H177.856C177.854 544.376 177.725 545.192 177.47 545.936C177.217 546.678 176.797 547.358 176.211 547.978C175.626 548.598 174.853 549.136 173.892 549.594L173.342 548.754Z" fill="#8E8E8E"/>
<path d="M193.294 221.407L193.483 222.926C191.847 223.274 190.313 223.346 187.331 223.346H186.202V217.238H192.18V218.758H188.098V221.812C190.516 221.798 191.847 221.711 193.294 221.407ZM191.862 228.151C193.555 228.151 194.496 227.775 194.496 226.964C194.496 226.168 193.555 225.792 191.862 225.792C190.183 225.792 189.242 226.168 189.242 226.964C189.242 227.775 190.183 228.151 191.862 228.151ZM191.862 224.272C194.626 224.272 196.377 225.286 196.377 226.964C196.377 228.672 194.626 229.685 191.862 229.685C189.126 229.685 187.36 228.672 187.36 226.964C187.36 225.286 189.126 224.272 191.862 224.272ZM196.261 219.496H197.998V221.045H196.261V224.041H194.336V216.327H196.261V219.496ZM204.047 222.594V220.712H201.514V222.594H204.047ZM205.914 221.421V224.113H199.618V217.224H201.514V219.25H204.047V217.238H205.914V219.887H208.288V216.356H210.198V226.183H208.288V221.421H205.914ZM203.309 227.92H210.488V229.439H201.398V225.228H203.309V227.92Z" fill="white"/>
<path d="M114.634 186.038C115.021 186.038 115.388 186.11 115.735 186.254C116.082 186.394 116.389 186.614 116.656 186.914C116.927 187.211 117.138 187.593 117.292 188.061C117.446 188.525 117.522 189.083 117.522 189.738V189.748C117.522 190.559 117.405 191.253 117.172 191.83C116.938 192.407 116.603 192.851 116.166 193.162C115.732 193.469 115.213 193.622 114.609 193.622C114.165 193.622 113.765 193.542 113.407 193.382C113.054 193.218 112.76 192.995 112.526 192.711C112.296 192.424 112.141 192.097 112.061 191.73L112.051 191.675H113.317L113.337 191.725C113.401 191.892 113.491 192.039 113.608 192.165C113.728 192.292 113.871 192.391 114.038 192.461C114.208 192.527 114.399 192.561 114.609 192.561C114.989 192.561 115.3 192.449 115.54 192.225C115.784 191.999 115.965 191.697 116.086 191.319C116.209 190.939 116.279 190.518 116.296 190.058C116.299 190.008 116.301 189.96 116.301 189.913C116.301 189.863 116.301 189.814 116.301 189.768L116.076 188.561C116.076 188.288 116.012 188.039 115.885 187.815C115.759 187.592 115.587 187.415 115.37 187.285C115.156 187.155 114.914 187.09 114.644 187.09C114.384 187.09 114.145 187.153 113.928 187.28C113.711 187.407 113.538 187.58 113.407 187.8C113.277 188.017 113.212 188.261 113.212 188.531V188.541C113.212 188.822 113.274 189.07 113.397 189.287C113.521 189.501 113.689 189.669 113.903 189.793C114.117 189.916 114.36 189.978 114.634 189.978C114.908 189.978 115.153 189.918 115.37 189.798C115.587 189.678 115.759 189.511 115.885 189.297C116.012 189.083 116.076 188.842 116.076 188.571V188.561H116.376V189.893H116.201C116.114 190.083 115.985 190.26 115.815 190.423C115.645 190.587 115.435 190.719 115.185 190.819C114.938 190.919 114.647 190.969 114.314 190.969C113.853 190.969 113.446 190.866 113.092 190.659C112.738 190.452 112.46 190.168 112.256 189.808C112.056 189.447 111.956 189.04 111.956 188.586V188.576C111.956 188.086 112.069 187.65 112.296 187.27C112.526 186.886 112.844 186.586 113.247 186.369C113.654 186.148 114.117 186.038 114.634 186.038ZM119.795 192.471C119.568 192.471 119.378 192.396 119.224 192.246C119.074 192.092 118.999 191.905 118.999 191.685C118.999 191.461 119.074 191.274 119.224 191.124C119.378 190.971 119.568 190.894 119.795 190.894C120.025 190.894 120.215 190.971 120.366 191.124C120.516 191.274 120.591 191.461 120.591 191.685C120.591 191.905 120.516 192.092 120.366 192.246C120.215 192.396 120.025 192.471 119.795 192.471ZM119.795 188.756C119.568 188.756 119.378 188.681 119.224 188.531C119.074 188.378 118.999 188.191 118.999 187.971C118.999 187.747 119.074 187.56 119.224 187.41C119.378 187.256 119.568 187.18 119.795 187.18C120.025 187.18 120.215 187.256 120.366 187.41C120.516 187.56 120.591 187.747 120.591 187.971C120.591 188.191 120.516 188.378 120.366 188.531C120.215 188.681 120.025 188.756 119.795 188.756ZM125.572 193.442V192.055H122.038V190.999C122.228 190.675 122.418 190.35 122.608 190.023C122.802 189.696 122.997 189.37 123.194 189.047C123.394 188.72 123.593 188.398 123.79 188.081C123.99 187.76 124.188 187.445 124.385 187.135C124.585 186.821 124.786 186.516 124.986 186.219H126.803V190.989H127.779V192.055H126.803V193.442H125.572ZM123.239 191.019H125.592V187.25H125.517C125.37 187.477 125.218 187.71 125.061 187.951C124.908 188.191 124.752 188.436 124.595 188.686C124.439 188.937 124.283 189.189 124.13 189.442C123.976 189.693 123.825 189.944 123.674 190.198C123.524 190.448 123.379 190.697 123.239 190.944V191.019ZM130.768 193.442V187.49H130.678L128.88 188.756V187.545L130.768 186.219H132.054V193.442H130.768Z" fill="white"/>
<rect opacity="0.35" x="281.42" y="186.554" width="14.4733" height="7.23664" rx="2.2916" stroke="white" stroke-width="0.603053"/>
<path opacity="0.4" d="M296.798 189.136V191.593C297.283 191.385 297.599 190.901 297.599 190.365C297.599 189.828 297.283 189.344 296.798 189.136" fill="white"/>
<rect x="282.324" y="187.458" width="12.6641" height="5.42748" rx="1.50763" fill="white"/>
<path fill-rule="evenodd" clip-rule="evenodd" d="M271.633 188.124C273.132 188.124 274.575 188.68 275.662 189.677C275.744 189.754 275.875 189.753 275.955 189.675L276.738 188.913C276.779 188.874 276.801 188.82 276.801 188.764C276.801 188.708 276.777 188.655 276.736 188.615C273.883 185.977 269.382 185.977 266.529 188.615C266.487 188.655 266.464 188.708 266.464 188.764C266.463 188.82 266.486 188.873 266.527 188.913L267.309 189.675C267.39 189.753 267.521 189.754 267.603 189.677C268.69 188.68 270.133 188.124 271.633 188.124ZM271.631 190.669C272.449 190.669 273.238 190.978 273.845 191.535C273.927 191.614 274.056 191.612 274.136 191.531L274.913 190.735C274.954 190.694 274.976 190.637 274.976 190.578C274.975 190.519 274.951 190.463 274.91 190.422C273.062 188.679 270.201 188.679 268.353 190.422C268.311 190.463 268.287 190.519 268.287 190.578C268.286 190.637 268.309 190.694 268.35 190.735L269.126 191.531C269.206 191.612 269.335 191.614 269.418 191.535C270.024 190.978 270.813 190.669 271.631 190.669ZM273.153 192.354C273.154 192.417 273.132 192.479 273.091 192.523L271.778 194.003C271.74 194.047 271.688 194.071 271.633 194.071C271.578 194.071 271.526 194.047 271.487 194.003L270.174 192.523C270.134 192.478 270.111 192.417 270.113 192.354C270.114 192.29 270.138 192.23 270.181 192.187C271.019 191.395 272.247 191.395 273.085 192.187C273.127 192.23 273.152 192.29 273.153 192.354Z" fill="white"/>
<path fill-rule="evenodd" clip-rule="evenodd" d="M261.941 187.266C261.941 186.885 261.653 186.575 261.298 186.575H260.655C260.299 186.575 260.011 186.885 260.011 187.266V193.257C260.011 193.639 260.299 193.948 260.655 193.948H261.298C261.653 193.948 261.941 193.639 261.941 193.257V187.266ZM257.458 188.05H258.101C258.457 188.05 258.745 188.367 258.745 188.758V193.241C258.745 193.631 258.457 193.948 258.101 193.948H257.458C257.103 193.948 256.815 193.631 256.815 193.241V188.758C256.815 188.367 257.103 188.05 257.458 188.05ZM254.846 189.647H254.202C253.847 189.647 253.559 189.968 253.559 190.364V193.232C253.559 193.627 253.847 193.948 254.202 193.948H254.846C255.201 193.948 255.489 193.627 255.489 193.232V190.364C255.489 189.968 255.201 189.647 254.846 189.647ZM251.649 191.122H251.006C250.651 191.122 250.363 191.438 250.363 191.829V193.242C250.363 193.632 250.651 193.948 251.006 193.948H251.649C252.004 193.948 252.292 193.632 252.292 193.242V191.829C252.292 191.438 252.004 191.122 251.649 191.122Z" fill="white"/>
<path d="M287.55 477.156H299.611" stroke="#81A9FF" stroke-width="1.20611" stroke-linecap="round"/>
<path d="M287.55 469.116H299.611" stroke="#81A9FF" stroke-width="1.20611" stroke-linecap="round"/>
<path d="M287.55 473.136H299.611" stroke="#81A9FF" stroke-width="1.20611" stroke-linecap="round"/>
<ellipse cx="289.915" cy="469.116" rx="1.89193" ry="2.01018" fill="#81A9FF"/>
<ellipse cx="297.01" cy="473.136" rx="1.89193" ry="2.01018" fill="#81A9FF"/>
<ellipse cx="292.28" cy="477.157" rx="1.89193" ry="2.01018" fill="#81A9FF"/>
<path d="M303.035 218.967C303.093 219.065 303.129 219.177 303.129 219.3V231.262C303.129 231.622 302.837 231.915 302.477 231.915H285.087C284.727 231.915 284.435 231.622 284.435 231.262V219.421L293.074 226.354C293.294 226.531 293.606 226.531 293.827 226.355L302.903 219.119C302.957 219.076 302.999 219.023 303.035 218.967ZM293.452 225.111L285.399 218.647H301.559L293.452 225.111Z" fill="white"/>
<rect width="83.8244" height="3.01527" rx="1.50763" transform="matrix(-1 0 0 1 239.611 590.113)" fill="black"/>
<path d="M100.847 471.122H98.4217V472.781C99.1156 472.777 99.6909 472.758 100.148 472.723C100.604 472.688 101.057 472.625 101.506 472.533L101.608 473.248C101.151 473.351 100.683 473.419 100.203 473.452C99.7229 473.485 99.0874 473.501 98.2964 473.501H98.1185H97.5122V470.393H100.847V471.122ZM98.2264 474.038H103.104V476.017H99.1418V476.609H103.337V477.349H98.2381V475.326H102.188V474.769H98.2264V474.038ZM102.182 469.991H103.104V471.455H104.144V472.207H103.104V473.714H102.182V469.991ZM107.249 471.055C107.247 471.399 107.312 471.725 107.444 472.032C107.576 472.339 107.774 472.609 108.036 472.842C108.3 473.074 108.622 473.249 109.001 473.37L108.508 474.087C108.108 473.945 107.765 473.743 107.479 473.481C107.194 473.218 106.97 472.907 106.809 472.548C106.642 472.964 106.402 473.324 106.089 473.629C105.778 473.933 105.402 474.161 104.96 474.315L104.471 473.577C104.871 473.445 105.21 473.253 105.488 473.003C105.766 472.752 105.975 472.463 106.115 472.137C106.255 471.808 106.326 471.461 106.328 471.096V470.393H107.249V471.055ZM105.704 476.005C105.704 475.706 105.805 475.45 106.007 475.236C106.211 475.02 106.504 474.856 106.885 474.743C107.266 474.628 107.717 474.571 108.24 474.571C108.765 474.571 109.218 474.628 109.599 474.743C109.98 474.856 110.272 475.02 110.476 475.236C110.68 475.45 110.782 475.706 110.782 476.005C110.782 476.305 110.68 476.561 110.476 476.775C110.272 476.991 109.98 477.154 109.599 477.265C109.218 477.376 108.765 477.431 108.24 477.431C107.717 477.431 107.266 477.376 106.885 477.265C106.504 477.154 106.211 476.991 106.007 476.775C105.805 476.561 105.704 476.305 105.704 476.005ZM106.616 476.005C106.614 476.155 106.676 476.283 106.8 476.39C106.926 476.495 107.11 476.575 107.351 476.629C107.592 476.684 107.883 476.711 108.223 476.711C108.749 476.711 109.156 476.651 109.441 476.53C109.727 476.408 109.871 476.233 109.873 476.005C109.871 475.772 109.729 475.594 109.447 475.472C109.165 475.348 108.763 475.285 108.24 475.285C107.717 475.285 107.315 475.348 107.033 475.472C106.753 475.594 106.614 475.772 106.616 476.005ZM108.363 471.431H109.847V469.991H110.762V474.37H109.847V472.183H108.363V471.431ZM120.062 475.443H119.147V472.711H117.826V471.971H119.147V469.997H120.062V475.443ZM113.803 473.828C114.188 473.701 114.517 473.518 114.791 473.277C115.065 473.034 115.272 472.757 115.412 472.446C115.554 472.133 115.625 471.809 115.625 471.475V471.274H114.071V470.533H118.1V471.274H116.558V471.481C116.558 471.784 116.625 472.081 116.759 472.373C116.893 472.663 117.092 472.923 117.357 473.154C117.621 473.386 117.939 473.562 118.31 473.685L117.852 474.411C117.446 474.275 117.095 474.073 116.8 473.804C116.504 473.534 116.273 473.218 116.106 472.857C115.937 473.257 115.697 473.606 115.386 473.903C115.077 474.201 114.707 474.423 114.275 474.571L113.803 473.828ZM115.173 474.962H116.089V476.553H120.249V477.297H115.173V474.962ZM123.394 472.265C123.394 472.662 123.448 473.044 123.557 473.414C123.668 473.783 123.837 474.118 124.065 474.419C124.292 474.721 124.574 474.962 124.91 475.142L124.4 475.816C124.062 475.639 123.773 475.396 123.534 475.087C123.295 474.776 123.106 474.418 122.968 474.011C122.832 474.451 122.644 474.841 122.403 475.183C122.164 475.523 121.875 475.793 121.537 475.991L121.003 475.3C121.342 475.104 121.624 474.845 121.852 474.524C122.079 474.202 122.248 473.847 122.359 473.46C122.47 473.072 122.526 472.673 122.528 472.265V472.032H121.257V471.291H122.528V470.254H123.391V471.291H124.639V472.032H123.394V472.265ZM124.175 472.854H125.152V470.131H126.012V477.078H125.152V473.609H124.175V472.854ZM126.659 469.991H127.528V477.437H126.659V469.991Z" fill="#4D83FD"/>
<path d="M131.35 472.231L134.365 475.246L137.38 472.231" stroke="#4D83FD" stroke-width="0.723664" stroke-linecap="round" stroke-linejoin="round"/>
</g>
<rect x="75.38" y="168.195" width="246.24" height="434.681" rx="26.62" stroke="#E0EAFF" stroke-width="9.24"/>
<rect y="528.139" width="395" height="110.861" fill="url(#paint4_linear_2124_964)"/>
<defs>
<linearGradient id="paint0_linear_2124_964" x1="198.802" y1="81.7544" x2="198.802" y2="459.266" gradientUnits="userSpaceOnUse">
<stop offset="0.432692" stop-color="#4D83FD"/>
<stop offset="1" stop-color="#96B6FF"/>
</linearGradient>
<linearGradient id="paint1_linear_2124_964" x1="196.031" y1="321.139" x2="196.031" y2="315.544" gradientUnits="userSpaceOnUse">
<stop stop-color="#FECFFF"/>
<stop offset="0.81" stop-color="#FAA9FA"/>
</linearGradient>
<linearGradient id="paint2_linear_2124_964" x1="197.212" y1="316.851" x2="197.212" y2="311.653" gradientUnits="userSpaceOnUse">
<stop stop-color="#FECFFF"/>
<stop offset="0.45" stop-color="#FDCCFE"/>
<stop offset="0.68" stop-color="#FCC4FD"/>
<stop offset="0.87" stop-color="#FBB7FB"/>
<stop offset="1" stop-color="#FAA9FA"/>
</linearGradient>
<linearGradient id="paint3_linear_2124_964" x1="197.212" y1="319.83" x2="197.212" y2="321.929" gradientUnits="userSpaceOnUse">
<stop stop-color="#FECFFF"/>
<stop offset="0.4" stop-color="#FDCCFE"/>
<stop offset="0.66" stop-color="#FCC3FD"/>
<stop offset="0.88" stop-color="#FBB4FB"/>
<stop offset="1" stop-color="#FAA9FA"/>
</linearGradient>
<linearGradient id="paint4_linear_2124_964" x1="197.5" y1="528.139" x2="197.683" y2="595.521" gradientUnits="userSpaceOnUse">
<stop stop-color="white" stop-opacity="0"/>
<stop offset="1" stop-color="white"/>
</linearGradient>
<clipPath id="clip0_2124_964">
<rect x="80" y="172.815" width="237" height="425.441" rx="22" fill="white"/>
</clipPath>
</defs>
</svg>
