<svg width="395" height="729" viewBox="0 0 395 729" fill="none" xmlns="http://www.w3.org/2000/svg">
<ellipse cx="69.2539" cy="176.975" rx="48.5" ry="50.3124" fill="url(#paint0_linear_6885_30779)" fill-opacity="0.8"/>
<path d="M46.7284 173.287L46.7239 173.292C44.4563 175.644 44.4563 179.458 46.7238 181.81L58.629 194.16C60.8965 196.512 64.5729 196.512 66.8404 194.16L66.8449 194.155C69.1124 191.803 69.1124 187.989 66.8449 185.637L54.9398 173.287C52.6722 170.935 48.9959 170.935 46.7284 173.287Z" fill="#F9FBFF" fill-opacity="0.67"/>
<path d="M83.4609 159.788L58.5461 185.633C56.2786 187.986 56.2786 191.799 58.5461 194.152L58.5506 194.156C60.8182 196.509 64.4945 196.509 66.762 194.156L91.6768 168.311C93.9443 165.958 93.9443 162.145 91.6768 159.792L91.6723 159.788C89.4048 157.435 85.7284 157.435 83.4609 159.788Z" fill="white"/>
<ellipse cx="36.0964" cy="37.2522" rx="36.0964" ry="37.2522" transform="matrix(-0.961583 -0.274516 -0.256416 0.966566 378.016 436.674)" fill="url(#paint1_linear_6885_30779)" fill-opacity="0.8"/>
<path d="M84.7715 30.1016V43.0312H82.6035V36.6055H79.4199C78.9609 38.6758 77.1348 40.082 74.8887 40.082C72.2324 40.082 70.2207 38.2266 70.2207 35.6289C70.2207 33.0312 72.2324 31.1953 74.8887 31.1953C77.1934 31.1953 79.0586 32.6602 79.459 34.8281H82.6035V30.1016H84.7715ZM85.2207 45.6289V47.3867H73.1895V41.7227H75.3574V45.6289H85.2207ZM74.8887 33.0898C73.4043 33.0898 72.291 34.0664 72.291 35.6289C72.291 37.1914 73.4043 38.207 74.8887 38.207C76.334 38.207 77.4277 37.1914 77.4473 35.6289C77.4277 34.0664 76.334 33.0898 74.8887 33.0898ZM102.467 30.082V47.7383H100.396V30.082H102.467ZM98.873 30.4141V46.8789H96.8223V37.9922H94.2832V36.2344H96.8223V30.4141H98.873ZM92.7207 34.9062C92.7207 37.8945 93.7949 40.8828 96.3145 42.3281L95.0254 43.9297C93.3945 42.9531 92.3105 41.2734 91.7051 39.2617C91.0801 41.4395 89.957 43.2949 88.2871 44.3398L86.959 42.7188C89.5176 41.1758 90.6309 37.9727 90.6309 34.9062V33.7344H87.5645V31.9766H95.5723V33.7344H92.7207V34.9062ZM115.65 33.8516C115.65 35.7852 117.154 37.6992 119.928 38.4414L118.912 40.1211C116.871 39.5645 115.406 38.373 114.596 36.8398C113.834 38.5781 112.359 39.9453 110.26 40.5703L109.244 38.8906C111.998 38.0508 113.482 35.9805 113.482 33.8516V33.7539H109.791V32.0352H113.482V30.0039H115.67V32.0352H119.342V33.7539H115.65V33.8516ZM124.088 30.082V40.7656H121.92V36.6836H118.814V34.9258H121.92V30.082H124.088ZM118.111 41.1172C121.842 41.1172 124.146 42.3086 124.146 44.3984C124.146 46.5078 121.842 47.7188 118.111 47.7188C114.4 47.7188 112.096 46.5078 112.115 44.3984C112.096 42.3086 114.4 41.1172 118.111 41.1172ZM118.111 42.7773C115.65 42.7969 114.264 43.3438 114.264 44.3984C114.264 45.4531 115.65 46.0391 118.111 46.0391C120.611 46.0391 121.979 45.4531 121.979 44.3984C121.979 43.3438 120.611 42.7969 118.111 42.7773ZM142.721 43.793V45.5508H126.588V43.793H133.502V39.7109H135.65V43.793H142.721ZM135.709 32.4453C135.709 35.1211 138.385 37.7578 142.096 38.3438L141.158 40.1406C138.17 39.5742 135.729 37.8652 134.557 35.5508C133.385 37.8555 130.963 39.5938 127.994 40.1406L127.057 38.3438C130.748 37.7578 133.385 35.1016 133.404 32.4453V31.1562H135.709V32.4453ZM157.701 30.082V37.1133H160.416V38.9102H157.701V47.7383H155.553V30.082H157.701ZM154.186 32.7969V34.5352H143.775V32.7969H147.955V30.3359H150.123V32.7969H154.186ZM149.049 35.6875C151.588 35.6875 153.482 37.4062 153.482 39.8477C153.482 42.2891 151.588 43.9883 149.049 43.9883C146.471 43.9883 144.576 42.2891 144.596 39.8477C144.576 37.4062 146.471 35.6875 149.049 35.6875ZM149.049 37.4648C147.662 37.4648 146.666 38.4023 146.666 39.8477C146.666 41.293 147.662 42.2109 149.049 42.1914C150.396 42.2109 151.393 41.293 151.412 39.8477C151.393 38.4023 150.396 37.4648 149.049 37.4648ZM175.572 31.7031V33.4023C175.553 35.5898 175.553 38.0508 174.869 41.7422L172.682 41.5078C173.365 38.0703 173.365 35.5605 173.385 33.4414H162.838V31.7031H175.572ZM177.252 43.6758V45.4531H161.158V43.6758H167.096V37.543H169.244V43.6758H177.252ZM197.975 30.082V38.9492H195.807V35.5117H192.623C192.193 37.4355 190.396 38.7148 188.092 38.7148C185.416 38.7148 183.424 37.0352 183.424 34.6328C183.424 32.2891 185.416 30.6289 188.092 30.6289C190.387 30.6289 192.174 31.8887 192.623 33.7539H195.807V30.082H197.975ZM188.092 32.3867C186.568 32.3867 185.494 33.2852 185.494 34.6328C185.494 36.0586 186.568 36.9375 188.092 36.9375C189.557 36.9375 190.631 36.0586 190.65 34.6328C190.631 33.2852 189.557 32.3867 188.092 32.3867ZM197.975 39.8086V44.3789H188.521V45.8047H198.541V47.5234H186.354V42.7773H195.807V41.4883H186.334V39.8086H197.975ZM209.459 31.8008V43.3633H201.1V31.8008H209.459ZM203.229 33.5V41.625H207.291V33.5H203.229ZM214.303 30.082V36.8594H217.018V38.6953H214.303V47.7383H212.135V30.082H214.303ZM234.205 36.8984V38.6758H231.588V47.6992H229.42V30.082H231.588V36.8984H234.205ZM220.533 31.8008V41.5469C222.887 41.5078 225.396 41.3027 228.053 40.7461L228.287 42.582C225.318 43.168 222.486 43.3438 219.869 43.3438H218.385V31.8008H220.533ZM245.123 30.8438C247.701 30.8438 249.537 32.2695 249.557 34.3984C249.537 36.1465 248.219 37.4648 246.256 37.8359V39.2617C247.721 39.1836 249.195 39.0469 250.572 38.8516L250.748 40.4336C247.076 41.0977 242.975 41.1562 239.986 41.1562L239.752 39.418C241.021 39.4277 242.506 39.418 244.068 39.3594V37.8359C242.047 37.5039 240.689 36.1758 240.709 34.3984C240.689 32.2695 242.525 30.8438 245.123 30.8438ZM245.123 32.5039C243.717 32.5039 242.721 33.207 242.74 34.3984C242.721 35.5508 243.717 36.2734 245.123 36.293C246.529 36.2734 247.486 35.5508 247.506 34.3984C247.486 33.207 246.529 32.5039 245.123 32.5039ZM253.775 30.1016V35.8047H256.158V37.6016H253.775V43.5781H251.607V30.1016H253.775ZM254.4 45.6094V47.3672H242.174V42.3867H244.342V45.6094H254.4ZM273.209 43.8906V45.6875H257.076V43.8906H261.354V40.9805H258.99V35.2188H269.146V33.0508H258.951V31.293H271.295V36.957H261.158V39.2227H271.705V40.9805H269.127V43.8906H273.209ZM263.463 43.8906H266.998V40.9805H263.463V43.8906ZM274.283 38.7734C275.299 38.7734 276.607 38.7637 277.994 38.7148V36.9961H275.318V31.1367H282.623V32.8945H277.428V35.2773H282.682V36.9961H280.045V38.6367C281.119 38.5781 282.164 38.4902 283.092 38.3633L283.209 39.8867C280.416 40.4141 276.783 40.4727 274.518 40.4727L274.283 38.7734ZM289.596 30.082V40.9023H287.506V36.5469H285.904V40.8242H283.873V30.4141H285.904V34.7891H287.506V30.082H289.596ZM280.689 42.0156C280.689 43.3438 281.393 44.7988 282.916 45.707C284.43 44.7695 285.123 43.2949 285.123 42.0156V41.5859H287.252V42.0156C287.252 43.7344 288.385 45.3359 290.689 45.9414L289.674 47.543C287.945 47.0156 286.773 45.9609 286.139 44.6133C285.582 45.9512 284.537 47.1133 282.916 47.7188C281.266 47.1426 280.221 46 279.674 44.6523C279.029 45.9707 277.867 47.0254 276.197 47.543L275.143 45.9414C277.467 45.2969 278.619 43.6562 278.619 42.0156V41.5859H280.689V42.0156ZM305.943 35.082V36.8008H293.717V30.7266H295.865V35.082H305.943ZM307.76 38.8516V40.5703H291.627V38.8516H307.76ZM306.061 45.5703V47.3281H293.561V42.1328H295.729V45.5703H306.061ZM315.592 35.1016C315.592 37.9922 317.291 41.0391 320.143 42.2305L318.951 43.9492C316.861 43.0508 315.338 41.1953 314.537 38.9492C313.717 41.3711 312.174 43.4023 310.104 44.3789L308.854 42.6797C311.646 41.3906 313.385 38.1094 313.385 35.1016V33.6172H309.498V31.8203H319.459V33.6172H315.592V35.1016ZM323.619 30.082V47.7383H321.432V30.082H323.619ZM106.881 59.0391V60.7773H101.119V64.7031C104.332 64.6836 106.256 64.5566 108.443 64.1172L108.678 65.7969C106.314 66.3438 104.146 66.4023 100.396 66.4023H98.9707V59.0391H106.881ZM112.213 58.082V61.5586H114.674V63.3359H112.213V66.9102H110.045V58.082H112.213ZM112.213 67.6719V72.3594H102.838V73.7656H112.76V75.5234H100.689V70.7188H110.045V69.4102H100.67V67.6719H112.213ZM124.01 59.1367V64.4492H118.443V66.6172C121.275 66.627 122.906 66.5391 124.771 66.1875L124.986 67.9453C122.877 68.2969 121.041 68.3555 117.584 68.3555H116.295V62.8281H121.842V60.8555H116.256V59.1367H124.01ZM130.357 58.1016V68.9609H128.189V66.0508H125.064V64.3125H128.189V62.3398H125.064V60.6016H128.189V58.1016H130.357ZM130.357 69.8008V75.7383H128.189V71.5391H118.287V69.8008H130.357ZM148.092 58.082V75.7383H146.002V58.082H148.092ZM144.459 58.3945V74.8789H142.389V66.4805H140.709C140.504 69.918 139.029 72.0469 136.842 72.0273C134.537 72.0469 133.033 69.6055 133.033 65.7188C133.033 61.832 134.537 59.4297 136.842 59.4297C138.98 59.4297 140.436 61.4219 140.689 64.7227H142.389V58.3945H144.459ZM136.842 61.4805C135.729 61.4609 135.025 62.9648 135.045 65.7188C135.025 68.4727 135.729 69.9766 136.842 69.957C138.014 69.9766 138.717 68.4727 138.717 65.7188C138.717 62.9648 138.014 61.4609 136.842 61.4805ZM156.666 62.3203C156.666 65.6016 158.229 68.8242 161.041 70.0547L159.732 71.793C157.73 70.8164 156.324 68.9414 155.572 66.6367C154.801 69.0684 153.365 71.0898 151.334 72.125L149.967 70.3672C152.838 69.0195 154.439 65.6211 154.459 62.3203V59.5078H156.666V62.3203ZM164.947 58.082V75.7578H162.799V65.543H159.088V63.7852H162.799V58.082H164.947ZM186.158 58.1016V63.2383H188.541V65.0352H186.158V70.0352H183.99V58.1016H186.158ZM172.018 67.9258C173.346 67.9258 174.879 67.916 176.471 67.8672V66.793C174.508 66.5488 173.268 65.6016 173.268 64.2148C173.268 62.5938 174.967 61.5781 177.525 61.5977C180.104 61.5781 181.783 62.5938 181.783 64.2148C181.783 65.5918 180.572 66.5293 178.639 66.7734V67.7891C180.143 67.7207 181.656 67.6035 183.072 67.418L183.248 68.9219C179.479 69.5859 175.357 69.625 172.252 69.625L172.018 67.9258ZM186.158 70.7969V75.7383H183.99V72.4961H174.244V70.7969H186.158ZM182.604 59.4883V61.0898H172.467V59.4883H176.471V57.9453H178.639V59.4883H182.604ZM177.525 63.0625C176.158 63.043 175.338 63.4531 175.357 64.2148C175.338 64.9375 176.158 65.4062 177.525 65.3867C178.893 65.4062 179.713 64.9375 179.713 64.2148C179.713 63.4531 178.893 63.043 177.525 63.0625ZM204.166 58.1016V70.8555H201.979V58.1016H204.166ZM204.654 73.6289V75.3867H192.486V69.5664H194.674V73.6289H204.654ZM194.537 59.2539C197.213 59.2539 199.283 61.1094 199.283 63.668C199.283 66.2852 197.213 68.1016 194.537 68.1016C191.842 68.1016 189.771 66.2852 189.771 63.668C189.771 61.1094 191.842 59.2539 194.537 59.2539ZM194.537 61.1484C193.033 61.1484 191.881 62.1445 191.9 63.668C191.881 65.2305 193.033 66.207 194.537 66.207C196.002 66.207 197.154 65.2305 197.154 63.668C197.154 62.1445 196.002 61.1484 194.537 61.1484ZM220.67 58.043V62.0273H223.15V63.7852H220.67V67.6719H218.502V58.043H220.67ZM220.67 68.4531V72.7109H211.295V73.9609H221.217V75.582H209.146V71.207H218.502V70.0352H209.127V68.4531H220.67ZM217.232 59.5078V61.168H206.764V59.5078H210.924V57.9453H213.092V59.5078H217.232ZM211.998 61.7148C214.615 61.7344 216.295 62.8477 216.314 64.6055C216.295 66.4219 214.615 67.4961 211.998 67.4961C209.381 67.4961 207.662 66.4219 207.662 64.6055C207.662 62.8477 209.381 61.7344 211.998 61.7148ZM211.998 63.2773C210.631 63.2773 209.771 63.7656 209.771 64.6055C209.771 65.4648 210.631 65.9336 211.998 65.9336C213.365 65.9336 214.244 65.4648 214.244 64.6055C214.244 63.7656 213.365 63.2773 211.998 63.2773ZM237.975 59.5469C237.975 61.7734 240.455 64.0195 244.225 64.5078L243.365 66.2656C240.367 65.8164 237.984 64.3418 236.842 62.3398C235.68 64.3418 233.307 65.8164 230.338 66.2656L229.479 64.5078C233.209 64.0195 235.689 61.7734 235.689 59.5469V58.6484H237.975V59.5469ZM244.869 67.7891V69.5859H237.857V75.7383H235.709V69.5859H228.775V67.7891H244.869ZM257.076 69.5664C257.076 71.0312 257.75 72.5742 259.264 73.5312C260.797 72.5059 261.51 70.9043 261.529 69.5664V68.8438H263.658V69.5664C263.639 71.4219 264.732 73.1406 267.057 73.8828L266.002 75.4648C264.283 74.8887 263.141 73.7656 262.525 72.3594C261.959 73.7461 260.914 74.9863 259.322 75.6211C257.643 75.0156 256.588 73.8242 256.041 72.418C255.406 73.7754 254.283 74.8789 252.643 75.4648L251.568 73.8828C253.854 73.082 254.947 71.2852 254.967 69.5664V68.8438H257.076V69.5664ZM265.514 58.1016V68.1016H263.326V58.1016H265.514ZM255.885 59.0391C258.6 59.0391 260.631 60.7578 260.631 63.2383C260.631 65.6992 258.6 67.418 255.885 67.418C253.15 67.418 251.119 65.6992 251.119 63.2383C251.119 60.7578 253.15 59.0391 255.885 59.0391ZM255.885 60.875C254.342 60.875 253.229 61.793 253.248 63.2383C253.229 64.6836 254.342 65.6211 255.885 65.6211C257.408 65.6211 258.502 64.6836 258.502 63.2383C258.502 61.793 257.408 60.875 255.885 60.875ZM272.916 59.3711C275.309 59.3711 277.076 61.3633 277.389 64.5859H280.748V58.082H282.896V75.7578H280.748V66.3438H277.408C277.174 69.752 275.377 71.8516 272.916 71.8516C270.26 71.8516 268.385 69.4492 268.385 65.6016C268.385 61.793 270.26 59.3711 272.916 59.3711ZM272.916 61.3242C271.451 61.3242 270.455 62.9062 270.475 65.6016C270.455 68.3164 271.451 69.8984 272.916 69.8984C274.381 69.8984 275.357 68.3164 275.377 65.6016C275.357 62.9062 274.381 61.3242 272.916 61.3242ZM301.51 71.8125V73.5898H285.377V71.8125H289.107V67.3398C287.701 66.5391 286.852 65.2793 286.861 63.707C286.842 60.8945 289.615 59.0391 293.404 59.0391C297.213 59.0391 299.986 60.8945 299.986 63.707C299.986 65.25 299.166 66.4902 297.799 67.3008V71.8125H301.51ZM293.404 60.7578C290.768 60.7578 288.971 61.8711 288.99 63.707C288.971 65.5234 290.768 66.6562 293.404 66.6562C296.041 66.6562 297.857 65.5234 297.857 63.707C297.857 61.8711 296.041 60.7578 293.404 60.7578ZM291.256 71.8125H295.592V68.1211C294.918 68.2773 294.186 68.3555 293.404 68.3555C292.643 68.3555 291.92 68.2773 291.256 68.1406V71.8125Z" fill="black"/>
<g clip-path="url(#clip0_6885_30779)">
<rect x="80.0156" y="186.83" width="236.63" height="532.17" rx="22" fill="white"/>
<g filter="url(#filter0_d_6885_30779)">
<rect x="246.237" y="640.221" width="57.8028" height="33.7183" rx="4.8169" fill="#4D83FD"/>
</g>
<rect x="273.935" y="648.049" width="18.0634" height="18.0634" rx="8.73063" fill="#F9F9F9"/>
<path d="M278.149 657.382L281.762 660.693L287.181 654.672" stroke="#FA9EFA" stroke-width="1.80634" stroke-linecap="round" stroke-linejoin="round"/>
<rect x="90.8926" y="640.221" width="213.148" height="33.7183" rx="4.8169" fill="#F9F9F9"/>
<path d="M290.794 651.66C290.132 651.66 289.59 652.202 289.59 652.864C289.59 653.527 290.132 654.069 290.794 654.069C291.456 654.069 291.998 653.527 291.998 652.864C291.998 652.202 291.456 651.66 290.794 651.66ZM290.794 660.09C290.132 660.09 289.59 660.632 289.59 661.294C289.59 661.956 290.132 662.498 290.794 662.498C291.456 662.498 291.998 661.956 291.998 661.294C291.998 660.632 291.456 660.09 290.794 660.09ZM290.794 655.875C290.132 655.875 289.59 656.417 289.59 657.079C289.59 657.741 290.132 658.283 290.794 658.283C291.456 658.283 291.998 657.741 291.998 657.079C291.998 656.417 291.456 655.875 290.794 655.875Z" fill="#BDBDBD"/>
<path d="M109.497 647.386V650.267H110.724V650.827H109.497V654.704H108.855V647.386H109.497ZM104.78 648.011V649.946H106.92V648.011H107.563V652.95H104.138V648.011H104.78ZM104.78 652.407H106.92V650.464H104.78V652.407ZM116.84 647.386V649.238H117.943V649.789H116.84V651.699H116.198V647.386H116.84ZM116.84 652.103V654.72H116.198V652.621H112.049V652.103H116.84ZM114.724 647.904V648.439H112.107V650.604C113.576 650.596 114.412 650.559 115.391 650.357L115.474 650.884C114.445 651.09 113.572 651.131 112.033 651.131H111.465V647.904H114.724ZM122.751 647.896C122.751 648.39 123.138 649.069 123.854 649.444C124.566 649.081 124.949 648.427 124.949 647.896V647.476H125.591V647.896C125.591 648.538 126.076 649.23 126.982 649.518L126.669 650.003C125.978 649.761 125.504 649.287 125.27 648.744C125.031 649.3 124.566 649.822 123.854 650.078C123.125 649.814 122.66 649.271 122.438 648.711C122.191 649.25 121.718 649.744 121.038 650.003L120.717 649.518C121.606 649.197 122.109 648.456 122.109 647.896V647.476H122.751V647.896ZM127.188 650.497V651.024H120.52V650.497H127.188ZM126.332 651.642V653.329H121.985V654.111H126.554V654.622H121.343V652.852H125.698V652.136H121.326V651.642H126.332ZM133.856 647.386V654.704H133.205V647.386H133.856ZM131.691 648.184C131.682 650.292 130.703 652.152 128.25 653.329L127.896 652.802C129.875 651.864 130.884 650.46 131.032 648.711H128.233V648.184H131.691Z" fill="black"/>
<path d="M108.702 661.142V662.779H109.641V663.245H108.702V664.889H108.145V661.142H108.702ZM106.684 665.009C107.961 665.009 108.751 665.454 108.751 666.202C108.751 666.964 107.961 667.401 106.684 667.401C105.4 667.401 104.603 666.964 104.603 666.202C104.603 665.454 105.4 665.009 106.684 665.009ZM106.684 665.468C105.739 665.461 105.146 665.743 105.146 666.202C105.146 666.667 105.739 666.957 106.684 666.957C107.623 666.957 108.215 666.667 108.215 666.202C108.215 665.743 107.623 665.461 106.684 665.468ZM106.868 661.622V662.081H104.624V663.923C105.894 663.916 106.628 663.877 107.467 663.704L107.524 664.162C106.649 664.339 105.894 664.374 104.567 664.374H104.08V661.622H106.868ZM115.236 661.15V665.792H114.679V663.379H113.197V664.72H110.353V661.566H110.904V662.681H112.653V661.566H113.197V662.914H114.679V661.15H115.236ZM115.377 666.816V667.281H111.179V665.334H111.736V666.816H115.377ZM110.904 664.261H112.653V663.118H110.904V664.261ZM118.63 666.844H117.967L119.836 661.735H120.507L122.377 666.844H121.706L121.198 665.404H119.145L118.63 666.844ZM119.336 664.847H121.001L120.189 662.561H120.147L119.336 664.847Z" fill="#8E8E8E"/>
<path d="M90.8926 645.038C90.8926 642.377 93.0492 640.221 95.7095 640.221H96.3116V673.939H95.7095C93.0492 673.939 90.8926 671.782 90.8926 669.122V645.038Z" fill="#E1E4EA"/>
<g filter="url(#filter1_d_6885_30779)">
<rect x="80.0156" y="649.855" width="236.63" height="49.9753" fill="white"/>
</g>
<path d="M275.309 670.005L273.699 668.396C273.603 668.299 273.603 668.142 273.699 668.046L275.309 666.437V664.16C275.309 664.024 275.419 663.913 275.556 663.913H277.832L279.441 662.304C279.538 662.207 279.694 662.207 279.791 662.304L281.4 663.913H283.677C283.813 663.913 283.924 664.024 283.924 664.16V666.437L285.533 668.046C285.63 668.142 285.63 668.299 285.533 668.396L283.924 670.005V672.281C283.924 672.418 283.813 672.528 283.677 672.528H281.4L279.791 674.138C279.694 674.234 279.538 674.234 279.441 674.138L277.832 672.528H275.556C275.419 672.528 275.309 672.418 275.309 672.281V670.005Z" stroke="#4D83FD" stroke-width="0.665493"/>
<circle cx="279.782" cy="668.388" r="0.964965" stroke="#4D83FD" stroke-width="0.665493"/>
<path d="M279.354 678.83V682.083H278.684V680.46H277.35V679.917H278.684V678.83H279.354ZM279.354 682.379V683.953H275.889V684.539H279.573V685.075H275.233V683.445H278.691V682.909H275.219V682.379H279.354ZM276.306 679.585C276.306 680.39 276.884 681.138 277.837 681.441L277.484 681.963C276.789 681.723 276.263 681.247 275.988 680.644C275.709 681.321 275.166 681.854 274.422 682.111L274.062 681.575C275.05 681.258 275.635 680.474 275.642 679.585V679.035H276.306V679.585ZM285.598 678.83V682.591H284.928V680.989H283.75V680.439H284.928V678.83H285.598ZM283.482 682.768C284.808 682.768 285.62 683.205 285.62 683.96C285.62 684.715 284.808 685.145 283.482 685.152C282.155 685.145 281.337 684.715 281.344 683.96C281.337 683.205 282.155 682.768 283.482 682.768ZM283.482 683.29C282.557 683.29 282.007 683.53 282.007 683.96C282.007 684.383 282.557 684.63 283.482 684.623C284.406 684.63 284.956 684.383 284.956 683.96C284.956 683.53 284.406 683.29 283.482 683.29ZM282.593 679.945C282.593 680.75 283.164 681.526 284.117 681.85L283.771 682.379C283.062 682.133 282.54 681.628 282.268 681.004C281.989 681.713 281.435 682.281 280.68 682.556L280.328 682.02C281.308 681.681 281.908 680.827 281.908 679.952V679.811H280.539V679.268H283.947V679.811H282.593V679.945Z" fill="#4D83FD"/>
<path d="M198.174 662.003C198.507 661.822 198.921 661.852 199.228 662.094L204.298 666.098C204.533 666.283 204.671 666.568 204.671 666.868V673.631C204.671 674.166 204.241 674.609 203.702 674.609H193.562C193.022 674.609 192.593 674.166 192.593 673.631V666.868C192.593 666.568 192.731 666.283 192.966 666.098L198.036 662.094L198.174 662.003ZM198.813 662.619C198.72 662.545 198.594 662.536 198.492 662.592L198.45 662.619L193.38 666.623C193.306 666.681 193.263 666.772 193.263 666.868V673.631C193.263 673.806 193.401 673.939 193.562 673.939H203.702L203.761 673.934C203.895 673.906 204.001 673.784 204.001 673.631V666.868C204.001 666.772 203.957 666.681 203.884 666.623L198.813 662.619ZM198.727 669.305C199.349 669.369 199.836 669.903 199.836 670.553L199.83 670.681C199.767 671.313 199.24 671.807 198.601 671.808L198.474 671.801C197.892 671.741 197.43 671.271 197.371 670.681L197.364 670.553C197.364 669.86 197.918 669.298 198.601 669.298L198.727 669.305ZM198.601 669.967C198.297 669.967 198.033 670.22 198.033 670.553C198.033 670.886 198.297 671.138 198.601 671.138C198.904 671.137 199.167 670.885 199.167 670.553C199.167 670.22 198.904 669.967 198.601 669.967Z" fill="#4D83FD"/>
<path d="M201.133 683.185V685.012H196.765V683.185H201.133ZM197.428 683.7V684.497H200.483V683.7H197.428ZM201.514 679.269V679.784H196.37V679.269H198.621V678.683H199.291V679.269H201.514ZM198.952 680.01C200.286 680.01 201.027 680.313 201.027 680.906C201.027 681.446 200.409 681.745 199.291 681.795V682.225H201.838V682.754H196.073V682.225H198.621V681.795C197.502 681.745 196.871 681.446 196.878 680.906C196.871 680.313 197.626 680.01 198.952 680.01ZM198.952 680.468C198.07 680.475 197.59 680.616 197.59 680.906C197.59 681.188 198.07 681.343 198.952 681.343C199.841 681.343 200.314 681.188 200.314 680.906C200.314 680.616 199.841 680.475 198.952 680.468Z" fill="#4D83FD"/>
<path d="M124.934 673.885C124.933 674.233 124.65 674.516 124.301 674.516H112.921C112.572 674.515 112.289 674.233 112.289 673.885V666.215H124.934V673.885ZM114.618 667.211C114.067 667.211 113.62 667.657 113.62 668.207C113.62 668.757 114.067 669.203 114.618 669.203C115.169 669.203 115.616 668.757 115.616 668.207C115.616 667.657 115.169 667.211 114.618 667.211ZM118.611 667.211C118.06 667.211 117.613 667.657 117.613 668.207C117.613 668.757 118.06 669.203 118.611 669.203C119.163 669.203 119.609 668.757 119.609 668.207C119.609 667.657 119.163 667.211 118.611 667.211ZM122.604 667.211C122.053 667.211 121.605 667.657 121.605 668.207C121.606 668.757 122.053 669.203 122.604 669.203C123.156 669.203 123.602 668.757 123.603 668.207C123.603 667.657 123.156 667.211 122.604 667.211ZM116.715 663.16H120.508V661.898H121.772V663.16H124.301C124.65 663.16 124.934 663.443 124.934 663.791V665.219H112.289V663.791C112.289 663.443 112.572 663.16 112.921 663.16H115.45V661.898H116.715V663.16Z" fill="#4D83FD"/>
<path d="M112.105 679.157C112.105 680.667 111.343 681.747 109.643 682.382L109.346 681.909C110.169 681.612 110.722 681.221 111.061 680.73L109.424 680.914L109.325 680.371L111.315 680.251C111.375 680.074 111.417 679.894 111.442 679.7H109.615V679.157H112.105ZM114.674 678.804V682.099H114.039V680.752H113.277V682.057H112.642V678.917H113.277V680.201H114.039V678.804H114.674ZM114.674 682.367V683.913H111.11V684.512H114.914V685.042H110.447V683.419H114.018V682.897H110.433V682.367H114.674ZM120.763 678.804V683.454H120.1V678.804H120.763ZM120.94 684.442V684.985H116.586V683.087H117.256V684.442H120.94ZM118.752 679.242V681.126H116.515V682.036C117.68 682.032 118.47 681.993 119.408 681.824L119.479 682.375C118.484 682.551 117.644 682.586 116.388 682.586H115.859V680.618H118.089V679.778H115.845V679.242H118.752ZM124.983 679.383V679.94H122.76V683.024C123.818 683.02 124.549 682.981 125.378 682.819L125.455 683.369C124.545 683.539 123.776 683.581 122.584 683.581H122.083V679.383H124.983ZM127.05 678.797V685.133H126.38V681.612H124.623V681.055H126.38V678.797H127.05Z" fill="#4D83FD"/>
<path d="M114.612 200.223C114.999 200.223 115.365 200.295 115.712 200.438C116.058 200.578 116.365 200.798 116.632 201.098C116.901 201.394 117.113 201.776 117.266 202.242C117.42 202.706 117.496 203.264 117.496 203.917V203.927C117.496 204.736 117.38 205.429 117.146 206.006C116.913 206.582 116.578 207.025 116.142 207.335C115.709 207.642 115.19 207.795 114.587 207.795C114.144 207.795 113.744 207.715 113.388 207.555C113.035 207.392 112.741 207.169 112.508 206.886C112.278 206.599 112.123 206.272 112.043 205.906L112.033 205.851H113.298L113.318 205.901C113.381 206.068 113.471 206.214 113.588 206.341C113.708 206.467 113.851 206.566 114.018 206.636C114.188 206.702 114.377 206.736 114.587 206.736C114.967 206.736 115.277 206.624 115.517 206.401C115.76 206.174 115.942 205.873 116.062 205.496C116.185 205.116 116.255 204.696 116.272 204.237C116.275 204.187 116.277 204.138 116.277 204.092C116.277 204.042 116.277 203.993 116.277 203.947L116.052 202.742C116.052 202.469 115.988 202.221 115.862 201.997C115.735 201.774 115.564 201.598 115.347 201.468C115.134 201.338 114.892 201.273 114.622 201.273C114.362 201.273 114.124 201.336 113.908 201.463C113.691 201.589 113.518 201.763 113.388 201.982C113.258 202.199 113.193 202.442 113.193 202.712V202.722C113.193 203.002 113.255 203.25 113.378 203.467C113.501 203.68 113.669 203.848 113.883 203.972C114.096 204.095 114.339 204.157 114.612 204.157C114.886 204.157 115.13 204.097 115.347 203.977C115.564 203.857 115.735 203.69 115.862 203.477C115.988 203.264 116.052 203.022 116.052 202.752V202.742H116.352V204.072H116.177C116.09 204.262 115.962 204.438 115.792 204.601C115.622 204.765 115.412 204.896 115.162 204.996C114.916 205.096 114.626 205.146 114.292 205.146C113.833 205.146 113.426 205.043 113.073 204.836C112.72 204.63 112.442 204.347 112.238 203.987C112.038 203.627 111.938 203.22 111.938 202.767V202.757C111.938 202.267 112.052 201.833 112.278 201.453C112.508 201.07 112.825 200.77 113.228 200.553C113.634 200.333 114.096 200.223 114.612 200.223ZM119.765 206.646C119.539 206.646 119.349 206.571 119.196 206.421C119.046 206.267 118.971 206.081 118.971 205.861C118.971 205.638 119.046 205.451 119.196 205.301C119.349 205.148 119.539 205.071 119.765 205.071C119.995 205.071 120.185 205.148 120.335 205.301C120.485 205.451 120.56 205.638 120.56 205.861C120.56 206.081 120.485 206.267 120.335 206.421C120.185 206.571 119.995 206.646 119.765 206.646ZM119.765 202.937C119.539 202.937 119.349 202.862 119.196 202.712C119.046 202.559 118.971 202.372 118.971 202.152C118.971 201.929 119.046 201.743 119.196 201.593C119.349 201.439 119.539 201.363 119.765 201.363C119.995 201.363 120.185 201.439 120.335 201.593C120.485 201.743 120.56 201.929 120.56 202.152C120.56 202.372 120.485 202.559 120.335 202.712C120.185 202.862 119.995 202.937 119.765 202.937ZM125.533 207.615V206.231H122.004V205.176C122.194 204.853 122.384 204.528 122.574 204.202C122.767 203.875 122.962 203.55 123.159 203.227C123.359 202.9 123.557 202.579 123.754 202.262C123.954 201.942 124.152 201.628 124.348 201.318C124.548 201.005 124.748 200.7 124.948 200.403H126.763V205.166H127.737V206.231H126.763V207.615H125.533ZM123.204 205.196H125.553V201.433H125.478C125.331 201.659 125.18 201.893 125.023 202.132C124.87 202.372 124.715 202.617 124.558 202.867C124.402 203.117 124.247 203.369 124.094 203.622C123.94 203.872 123.789 204.123 123.639 204.377C123.489 204.626 123.344 204.875 123.204 205.121V205.196ZM130.721 207.615V201.673H130.631L128.837 202.937V201.728L130.721 200.403H132.005V207.615H130.721Z" fill="black"/>
<rect opacity="0.35" x="280.974" y="200.721" width="14.4507" height="7.22535" rx="2.28803" stroke="black" stroke-width="0.602113"/>
<path opacity="0.4" d="M296.327 203.299V205.753C296.812 205.545 297.127 205.061 297.127 204.526C297.127 203.99 296.812 203.507 296.327 203.299" fill="black"/>
<rect x="281.877" y="201.625" width="12.6444" height="5.41901" rx="1.50528" fill="black"/>
<path fill-rule="evenodd" clip-rule="evenodd" d="M271.201 202.29C272.698 202.29 274.139 202.845 275.224 203.841C275.306 203.917 275.436 203.916 275.517 203.838L276.298 203.078C276.339 203.038 276.362 202.984 276.361 202.929C276.361 202.873 276.338 202.819 276.296 202.78C273.448 200.146 268.954 200.146 266.105 202.78C266.064 202.819 266.04 202.873 266.04 202.929C266.04 202.984 266.062 203.038 266.103 203.078L266.885 203.838C266.965 203.917 267.096 203.917 267.177 203.841C268.263 202.845 269.703 202.29 271.201 202.29ZM271.199 204.831C272.016 204.831 272.804 205.139 273.41 205.695C273.492 205.774 273.621 205.773 273.701 205.691L274.476 204.897C274.517 204.855 274.539 204.799 274.539 204.74C274.538 204.681 274.515 204.625 274.473 204.584C272.628 202.844 269.771 202.844 267.926 204.584C267.885 204.625 267.861 204.681 267.86 204.74C267.86 204.799 267.883 204.855 267.924 204.897L268.698 205.691C268.778 205.773 268.907 205.774 268.989 205.695C269.595 205.139 270.382 204.831 271.199 204.831ZM272.719 206.513C272.72 206.576 272.698 206.637 272.657 206.682L271.347 208.16C271.308 208.203 271.256 208.228 271.201 208.228C271.147 208.228 271.094 208.203 271.056 208.16L269.745 206.682C269.704 206.637 269.682 206.576 269.683 206.513C269.685 206.449 269.709 206.389 269.751 206.347C270.588 205.556 271.814 205.556 272.651 206.347C272.693 206.389 272.718 206.449 272.719 206.513Z" fill="black"/>
<path fill-rule="evenodd" clip-rule="evenodd" d="M261.524 201.434C261.524 201.053 261.237 200.744 260.882 200.744H260.24C259.885 200.744 259.598 201.053 259.598 201.434V207.416C259.598 207.797 259.885 208.106 260.24 208.106H260.882C261.237 208.106 261.524 207.797 261.524 207.416V201.434ZM257.048 202.216H257.691C258.045 202.216 258.333 202.533 258.333 202.923V207.399C258.333 207.789 258.045 208.106 257.691 208.106H257.048C256.694 208.106 256.406 207.789 256.406 207.399V202.923C256.406 202.533 256.694 202.216 257.048 202.216ZM254.44 203.812H253.798C253.443 203.812 253.156 204.132 253.156 204.527V207.39C253.156 207.785 253.443 208.106 253.798 208.106H254.44C254.795 208.106 255.082 207.785 255.082 207.39V204.527C255.082 204.132 254.795 203.812 254.44 203.812ZM251.248 205.284H250.606C250.251 205.284 249.964 205.6 249.964 205.989V207.4C249.964 207.79 250.251 208.106 250.606 208.106H251.248C251.603 208.106 251.891 207.79 251.891 207.4V205.989C251.891 205.6 251.603 205.284 251.248 205.284Z" fill="black"/>
<path d="M196.498 231.874V235.007H198.262V236.291H196.498V239.325H194.917V231.874H196.498ZM192.334 239.565C194.945 239.565 196.596 240.496 196.61 242.077C196.596 243.685 194.945 244.617 192.334 244.617C189.696 244.617 188.016 243.685 188.016 242.077C188.016 240.496 189.696 239.565 192.334 239.565ZM192.334 240.821C190.585 240.821 189.554 241.258 189.569 242.077C189.554 242.909 190.585 243.361 192.334 243.361C194.056 243.361 195.086 242.909 195.086 242.077C195.086 241.258 194.056 240.821 192.334 240.821ZM192.631 232.777V234.047H188.468V237.25C190.909 237.243 192.271 237.173 193.774 236.855L193.929 238.111C192.278 238.464 190.768 238.52 187.946 238.52H186.915V232.777H192.631ZM209.593 231.888V241.301H208.027V236.601H205.459V239.226H199.489V232.72H201.056V234.781H203.906V232.72H205.459V235.331H208.027V231.888H209.593ZM209.876 243.107V244.377H201.183V240.369H202.777V243.107H209.876ZM201.056 237.984H203.906V235.994H201.056V237.984Z" fill="white"/>
<path d="M188.08 234.279C188.08 236.737 186.787 238.56 183.964 239.618L183.553 238.96C185.011 238.419 185.999 237.69 186.575 236.784L183.635 237.102L183.482 236.326L186.928 236.102C187.046 235.767 187.128 235.414 187.163 235.044H183.988V234.279H188.08ZM192.279 233.691V239.195H191.397V236.867H189.974V239.113H189.092V233.891H189.974V236.09H191.397V233.691H192.279ZM192.279 239.665V242.111H186.281V243.252H192.702V243.993H185.364V241.406H191.373V240.406H185.34V239.665H192.279ZM202.428 233.691V241.382H201.522V233.691H202.428ZM202.733 243.135V243.911H195.572V240.783H196.501V243.135H202.733ZM199.111 234.432V237.455H195.254V239.124C197.194 239.124 198.57 239.066 200.229 238.772L200.323 239.536C198.617 239.83 197.206 239.889 195.207 239.901H194.36V236.725H198.194V235.185H194.337V234.432H199.111ZM209.542 234.679V235.455H205.673V240.783C207.555 240.783 208.802 240.718 210.248 240.442L210.366 241.206C208.825 241.5 207.555 241.571 205.544 241.571H204.744V234.679H209.542ZM212.894 233.68V244.158H211.965V238.254H208.919V237.49H211.965V233.68H212.894Z" fill="black"/>
<g filter="url(#filter2_d_6885_30779)">
<rect x="66.167" y="277.75" width="239.039" height="216.158" rx="9.6338" fill="#4D83FD"/>
</g>
<g filter="url(#filter3_d_6885_30779)">
<rect x="95.6709" y="280.158" width="207.127" height="211.342" rx="9.6338" fill="#F9F9F9"/>
</g>
<path d="M96.991 267.277V266.393L99.3994 264.069C100.086 263.382 100.444 262.978 100.444 262.404C100.444 261.774 99.9451 261.369 99.2771 261.369C98.5715 261.369 98.1199 261.811 98.1293 262.498H96.9627C96.9533 261.209 97.9223 260.372 99.2865 260.372C100.679 260.372 101.62 261.2 101.62 262.348C101.62 263.119 101.243 263.74 99.9074 265.001L98.6938 266.205V266.252H101.723V267.277H96.991ZM105.308 267.371C103.671 267.371 102.692 266.101 102.692 263.872C102.692 261.651 103.671 260.372 105.308 260.372C106.935 260.372 107.923 261.651 107.923 263.872C107.923 266.101 106.945 267.371 105.308 267.371ZM105.308 266.346C106.164 266.346 106.691 265.509 106.691 263.872C106.691 262.244 106.154 261.388 105.308 261.388C104.461 261.388 103.925 262.244 103.925 263.872C103.925 265.509 104.452 266.346 105.308 266.346ZM108.949 267.277V266.393L111.357 264.069C112.044 263.382 112.401 262.978 112.401 262.404C112.401 261.774 111.903 261.369 111.235 261.369C110.529 261.369 110.077 261.811 110.087 262.498H108.92C108.911 261.209 109.88 260.372 111.244 260.372C112.636 260.372 113.577 261.2 113.577 262.348C113.577 263.119 113.201 263.74 111.865 265.001L110.651 266.205V266.252H113.681V267.277H108.949ZM117.171 267.371C115.807 267.371 114.81 266.562 114.772 265.433H115.967C116.005 265.988 116.522 266.384 117.171 266.384C117.933 266.384 118.479 265.829 118.479 265.076C118.479 264.295 117.914 263.74 117.134 263.74C116.607 263.731 116.221 263.919 116.005 264.323H114.866L115.28 260.466H119.307V261.491H116.287L116.08 263.298H116.146C116.409 262.997 116.908 262.78 117.463 262.78C118.733 262.78 119.664 263.731 119.664 265.038C119.664 266.402 118.639 267.371 117.171 267.371ZM127.539 259.619V265.885H126.494V263.053H124.274V262.225H126.494V261.454H124.274V260.626H126.494V259.619H127.539ZM127.755 267.099V267.945H121.95V265.33H123.004V267.099H127.755ZM121.941 260.184V263.862C123.023 263.848 124.044 263.782 125.187 263.58L125.29 264.427C123.983 264.671 122.835 264.718 121.574 264.728H120.906V260.184H121.941ZM133.729 267.371C132.365 267.371 131.368 266.562 131.33 265.433H132.525C132.563 265.988 133.08 266.384 133.729 266.384C134.491 266.384 135.037 265.829 135.037 265.076C135.037 264.295 134.472 263.74 133.692 263.74C133.165 263.731 132.779 263.919 132.563 264.323H131.424L131.838 260.466H135.865V261.491H132.845L132.638 263.298H132.704C132.967 262.997 133.466 262.78 134.021 262.78C135.291 262.78 136.222 263.731 136.222 265.038C136.222 266.402 135.197 267.371 133.729 267.371ZM144.106 259.619V264.577H143.053V264.229H141.463V263.589H143.053V259.619H144.106ZM136.966 262.686C138.612 262.686 140.663 262.667 142.488 262.489L142.545 263.147C141.768 263.255 140.969 263.321 140.183 263.354V264.587H139.148V263.401C138.419 263.42 137.718 263.425 137.078 263.42L136.966 262.686ZM144.106 264.841V266.75H139.271V267.296H144.332V268.039H138.245V266.064H143.071V265.556H138.207V264.841H144.106ZM139.713 259.751C140.973 259.751 141.839 260.259 141.839 261.03C141.839 261.821 140.973 262.301 139.713 262.301C138.424 262.301 137.568 261.821 137.568 261.03C137.568 260.259 138.424 259.751 139.713 259.751ZM139.713 260.447C138.998 260.447 138.556 260.673 138.565 261.03C138.556 261.388 138.998 261.604 139.713 261.604C140.409 261.604 140.861 261.388 140.861 261.03C140.861 260.673 140.409 260.447 139.713 260.447Z" fill="black"/>
<path d="M119.189 294.908C120.44 294.917 121.353 295.67 121.353 296.761C121.353 297.853 120.44 298.605 119.189 298.605C117.919 298.605 117.016 297.853 117.016 296.761C117.016 295.67 117.919 294.917 119.189 294.908ZM119.189 295.529C118.352 295.529 117.731 296.037 117.74 296.761C117.731 297.495 118.352 298.003 119.189 298.003C120.017 298.003 120.638 297.495 120.638 296.761C120.638 296.037 120.017 295.529 119.189 295.529ZM123.724 294.598V298.897H122.99V294.598H123.724ZM123.724 299.302V301.315H119.029V302.256H124.025V302.848H118.305V300.76H122.99V299.894H118.286V299.302H123.724Z" fill="#8E8E8E"/>
<path d="M151.412 294.607V299.537H150.668V299.076H148.975V298.587H150.668V294.607H151.412ZM144.487 297.759C146.105 297.768 148.175 297.749 149.982 297.552L150.029 298.031C149.21 298.149 148.359 298.22 147.526 298.257V299.565H146.802V298.285C146.011 298.314 145.254 298.318 144.572 298.314L144.487 297.759ZM151.412 299.838V301.569H146.529V302.322H151.684V302.867H145.804V301.051H150.678V300.374H145.767V299.838H151.412ZM147.216 294.767C148.457 294.767 149.285 295.256 149.295 296.028C149.285 296.808 148.457 297.279 147.216 297.279C145.955 297.279 145.136 296.808 145.136 296.028C145.136 295.256 145.955 294.767 147.216 294.767ZM147.216 295.284C146.369 295.284 145.823 295.576 145.833 296.028C145.823 296.47 146.369 296.771 147.216 296.771C148.053 296.771 148.599 296.47 148.599 296.028C148.599 295.576 148.053 295.284 147.216 295.284Z" fill="#8E8E8E"/>
<path d="M178.704 294.598V298.163H180.04V298.784H178.704V302.961H177.961V294.598H178.704ZM172.109 300.732C172.791 300.732 173.586 300.732 174.414 300.703V299.772C173.44 299.664 172.805 299.095 172.815 298.267C172.805 297.326 173.605 296.714 174.791 296.714C175.957 296.714 176.766 297.326 176.776 298.267C176.766 299.095 176.122 299.664 175.157 299.781V300.675C175.938 300.637 176.724 300.576 177.453 300.468L177.5 301.033C175.675 301.343 173.699 301.362 172.232 301.362L172.109 300.732ZM177.302 295.623V296.225H172.26V295.623H174.414V294.616H175.157V295.623H177.302ZM174.791 297.288C174.019 297.288 173.502 297.683 173.502 298.267C173.502 298.85 174.019 299.226 174.791 299.217C175.553 299.226 176.07 298.85 176.07 298.267C176.07 297.683 175.553 297.288 174.791 297.288Z" fill="#8E8E8E"/>
<path d="M234.258 294.955V297.777H231.783V298.85H235.227V299.452H227.606V298.85H231.05V297.777H228.594V294.955H234.258ZM229.319 295.548V297.185H233.524V295.548H229.319ZM234.286 300.327V302.961H233.543V300.92H228.453V300.327H234.286Z" fill="#8E8E8E"/>
<path d="M261.955 295.049V295.67C261.955 296.319 261.955 297.081 261.739 298.126H262.962V298.737H255.304V298.126H260.995C261.221 297.077 261.221 296.319 261.221 295.67V295.661H256.273V295.049H261.955ZM261.993 299.894V302.848H256.244V299.894H261.993ZM256.978 300.478V302.246H261.259V300.478H256.978Z" fill="#8E8E8E"/>
<path d="M289.775 298.953V299.556H287.178V301.305H290.659V301.917H283.001V301.305H286.444V299.556H283.989V295.284H289.681V295.896H284.741V297.091H289.502V297.693H284.741V298.953H289.775Z" fill="#8E8E8E"/>
<path d="M204.285 295.237C204.285 296.31 205.48 297.392 207.295 297.627L206.881 298.474C205.437 298.257 204.289 297.547 203.739 296.583C203.179 297.547 202.036 298.257 200.606 298.474L200.192 297.627C201.989 297.392 203.184 296.31 203.184 295.237V294.805H204.285V295.237ZM207.606 299.207V300.073H204.228V303.037H203.193V300.073H199.854V299.207H207.606Z" fill="black"/>
<path d="M114.991 327.488L114.981 326.867L117.305 324.421C118.114 323.565 118.5 323.104 118.5 322.474C118.5 321.778 117.907 321.317 117.145 321.317C116.336 321.317 115.819 321.834 115.819 322.596H115.019C115.01 321.392 115.941 320.583 117.173 320.583C118.406 320.583 119.29 321.411 119.29 322.474C119.29 323.236 118.933 323.829 117.729 325.07L116.167 326.679V326.736H119.413V327.488H114.991ZM120.861 327.488L123.985 321.477V321.43H120.382V320.677H124.86V321.467L121.746 327.488H120.861Z" fill="#8E8E8E"/>
<path d="M142.925 327.488L142.915 326.867L145.239 324.421C146.048 323.565 146.434 323.104 146.434 322.474C146.434 321.778 145.841 321.317 145.079 321.317C144.27 321.317 143.753 321.834 143.753 322.596H142.953C142.943 321.392 143.875 320.583 145.107 320.583C146.34 320.583 147.224 321.411 147.224 322.474C147.224 323.236 146.867 323.829 145.662 325.07L144.101 326.679V326.736H147.346V327.488H142.925ZM150.856 327.582C149.426 327.582 148.428 326.792 148.438 325.682C148.428 324.798 149.04 324.073 149.821 323.951V323.913C149.143 323.753 148.701 323.132 148.701 322.389C148.701 321.345 149.614 320.583 150.856 320.583C152.097 320.583 153.01 321.345 153.019 322.389C153.01 323.132 152.558 323.753 151.89 323.913V323.951C152.662 324.073 153.273 324.798 153.283 325.682C153.273 326.792 152.276 327.582 150.856 327.582ZM150.856 326.839C151.834 326.839 152.436 326.35 152.436 325.635C152.436 324.882 151.768 324.327 150.856 324.327C149.943 324.327 149.266 324.882 149.284 325.635C149.266 326.35 149.877 326.839 150.856 326.839ZM150.856 323.612C151.627 323.612 152.192 323.142 152.192 322.455C152.192 321.778 151.655 321.317 150.856 321.317C150.047 321.317 149.52 321.778 149.52 322.455C149.52 323.142 150.075 323.612 150.856 323.612Z" fill="#8E8E8E"/>
<path d="M170.589 327.488L170.58 326.867L172.903 324.421C173.712 323.565 174.098 323.104 174.098 322.474C174.098 321.778 173.505 321.317 172.743 321.317C171.934 321.317 171.417 321.834 171.417 322.596H170.617C170.608 321.392 171.539 320.583 172.772 320.583C174.004 320.583 174.888 321.411 174.888 322.474C174.888 323.236 174.531 323.829 173.327 325.07L171.765 326.679V326.736H175.011V327.488H170.589ZM178.511 320.583C179.687 320.592 180.985 321.298 180.985 323.81C180.985 326.228 179.997 327.582 178.398 327.582C177.203 327.582 176.356 326.849 176.187 325.767H177.024C177.175 326.378 177.636 326.83 178.398 326.83C179.508 326.83 180.185 325.87 180.195 324.214H180.1C179.705 324.779 179.084 325.117 178.36 325.117C177.137 325.117 176.13 324.186 176.13 322.869C176.13 321.599 177.062 320.573 178.511 320.583ZM178.511 321.326C177.617 321.326 176.949 322.022 176.958 322.86C176.958 323.706 177.589 324.374 178.482 324.374C179.367 324.374 180.063 323.64 180.063 322.841C180.063 322.06 179.414 321.326 178.511 321.326Z" fill="#8E8E8E"/>
<path d="M200.577 327.582C199.222 327.582 198.253 326.858 198.206 325.776H199.062C199.109 326.425 199.759 326.83 200.568 326.83C201.461 326.83 202.12 326.341 202.12 325.635C202.12 324.892 201.527 324.365 200.464 324.365H199.909V323.622H200.464C201.292 323.622 201.866 323.161 201.866 322.455C201.866 321.778 201.367 321.317 200.596 321.317C199.872 321.317 199.204 321.721 199.166 322.389H198.347C198.394 321.307 199.392 320.583 200.605 320.583C201.904 320.583 202.694 321.43 202.685 322.408C202.694 323.179 202.242 323.753 201.527 323.951V323.998C202.412 324.139 202.957 324.769 202.948 325.635C202.957 326.754 201.932 327.582 200.577 327.582ZM206.401 327.582C204.886 327.582 204.02 326.312 204.02 324.083C204.02 321.872 204.905 320.583 206.401 320.583C207.897 320.583 208.781 321.872 208.781 324.083C208.781 326.312 207.906 327.582 206.401 327.582ZM206.401 326.83C207.379 326.83 207.953 325.842 207.953 324.083C207.953 322.323 207.379 321.317 206.401 321.317C205.422 321.317 204.839 322.323 204.839 324.083C204.839 325.842 205.413 326.83 206.401 326.83Z" fill="#8E8E8E"/>
<path d="M232.173 320.677V327.488H231.317V321.561H231.28L229.624 322.662V321.806L231.317 320.677H232.173Z" fill="black"/>
<path d="M256.645 327.488L256.635 326.867L258.959 324.421C259.768 323.565 260.154 323.104 260.154 322.474C260.154 321.778 259.561 321.317 258.799 321.317C257.99 321.317 257.473 321.834 257.473 322.596H256.673C256.663 321.392 257.595 320.583 258.827 320.583C260.06 320.583 260.944 321.411 260.944 322.474C260.944 323.236 260.587 323.829 259.382 325.07L257.821 326.679V326.736H261.066V327.488H256.645Z" fill="black"/>
<path d="M286.548 327.582C285.193 327.582 284.224 326.858 284.177 325.776H285.033C285.08 326.425 285.73 326.83 286.539 326.83C287.432 326.83 288.091 326.341 288.091 325.635C288.091 324.892 287.498 324.365 286.435 324.365H285.88V323.622H286.435C287.263 323.622 287.837 323.161 287.837 322.455C287.837 321.778 287.338 321.317 286.567 321.317C285.843 321.317 285.175 321.721 285.137 322.389H284.318C284.365 321.307 285.363 320.583 286.576 320.583C287.875 320.583 288.665 321.43 288.656 322.408C288.665 323.179 288.213 323.753 287.498 323.951V323.998C288.383 324.139 288.928 324.769 288.919 325.635C288.928 326.754 287.903 327.582 286.548 327.582Z" fill="black"/>
<path d="M118.311 358.61V357.913L121.378 353.191H122.423V357.866H123.373V358.61H122.423V360.002H121.613V358.61H118.311ZM119.224 357.866H121.613V354.263H121.529L119.224 357.81V357.866Z" fill="black"/>
<path d="M148.03 360.096C146.797 360.096 145.866 359.334 145.819 358.29H146.637C146.703 358.901 147.296 359.353 148.03 359.353C148.914 359.353 149.554 358.704 149.554 357.848C149.554 356.963 148.886 356.314 147.973 356.305C147.399 356.295 146.957 356.474 146.703 356.916H145.885L146.365 353.191H150.053V353.943H147.07L146.816 355.938H146.882C147.183 355.702 147.644 355.543 148.124 355.543C149.422 355.543 150.382 356.502 150.382 357.829C150.382 359.146 149.385 360.096 148.03 360.096Z" fill="black"/>
<path d="M175.798 360.096C174.612 360.077 173.314 359.381 173.314 356.86C173.314 354.451 174.302 353.096 175.901 353.096C177.096 353.096 177.933 353.83 178.112 354.903H177.275C177.115 354.301 176.663 353.849 175.901 353.849C174.782 353.849 174.114 354.809 174.114 356.446H174.198C174.593 355.881 175.214 355.543 175.948 355.543C177.162 355.543 178.168 356.483 178.168 357.8C178.168 359.08 177.228 360.105 175.798 360.096ZM175.798 359.353C176.682 359.353 177.341 358.657 177.35 357.81C177.341 356.973 176.71 356.286 175.816 356.286C174.923 356.286 174.236 357.01 174.227 357.819C174.227 358.619 174.885 359.353 175.798 359.353Z" fill="black"/>
<path d="M202.238 360.002L205.362 353.99V353.943H201.759V353.191H206.237V353.981L203.123 360.002H202.238Z" fill="black"/>
<path d="M231.131 360.096C229.701 360.096 228.704 359.306 228.713 358.196C228.704 357.311 229.315 356.587 230.096 356.465V356.427C229.419 356.267 228.977 355.646 228.977 354.903C228.977 353.859 229.889 353.096 231.131 353.096C232.373 353.096 233.285 353.859 233.295 354.903C233.285 355.646 232.834 356.267 232.166 356.427V356.465C232.937 356.587 233.549 357.311 233.558 358.196C233.549 359.306 232.552 360.096 231.131 360.096ZM231.131 359.353C232.109 359.353 232.712 358.864 232.712 358.149C232.712 357.396 232.044 356.841 231.131 356.841C230.218 356.841 229.541 357.396 229.56 358.149C229.541 358.864 230.153 359.353 231.131 359.353ZM231.131 356.126C231.902 356.126 232.467 355.655 232.467 354.969C232.467 354.291 231.931 353.83 231.131 353.83C230.322 353.83 229.795 354.291 229.795 354.969C229.795 355.655 230.35 356.126 231.131 356.126Z" fill="black"/>
<path d="M258.785 353.096C259.961 353.106 261.259 353.811 261.259 356.323C261.259 358.741 260.271 360.096 258.672 360.096C257.477 360.096 256.631 359.362 256.461 358.28H257.299C257.449 358.892 257.91 359.343 258.672 359.343C259.782 359.343 260.46 358.384 260.469 356.728H260.375C259.98 357.292 259.359 357.631 258.634 357.631C257.411 357.631 256.405 356.7 256.405 355.383C256.405 354.113 257.336 353.087 258.785 353.096ZM258.785 353.84C257.891 353.84 257.223 354.536 257.233 355.373C257.233 356.22 257.863 356.888 258.757 356.888C259.641 356.888 260.337 356.154 260.337 355.354C260.337 354.574 259.688 353.84 258.785 353.84Z" fill="black"/>
<path d="M284.188 353.191V360.002H283.332V354.075H283.294L281.638 355.176V354.32L283.332 353.191H284.188ZM288.233 360.096C286.719 360.096 285.853 358.826 285.853 356.596C285.853 354.385 286.737 353.096 288.233 353.096C289.729 353.096 290.613 354.385 290.613 356.596C290.613 358.826 289.738 360.096 288.233 360.096ZM288.233 359.343C289.212 359.343 289.786 358.356 289.786 356.596C289.786 354.837 289.212 353.83 288.233 353.83C287.255 353.83 286.671 354.837 286.671 356.596C286.671 358.356 287.245 359.343 288.233 359.343Z" fill="black"/>
<path d="M118.864 385.706V392.518H118.008V386.591H117.97L116.314 387.691V386.835L118.008 385.706H118.864ZM123.088 385.706V392.518H122.232V386.591H122.194L120.539 387.691V386.835L122.232 385.706H123.088Z" fill="black"/>
<path d="M145.745 385.706V392.518H144.889V386.591H144.851L143.195 387.691V386.835L144.889 385.706H145.745ZM147.56 392.518L147.551 391.897L149.875 389.451C150.684 388.594 151.07 388.133 151.07 387.503C151.07 386.807 150.477 386.346 149.715 386.346C148.906 386.346 148.388 386.863 148.388 387.625H147.589C147.579 386.421 148.511 385.612 149.743 385.612C150.976 385.612 151.86 386.44 151.86 387.503C151.86 388.265 151.502 388.858 150.298 390.1L148.736 391.708V391.765H151.982V392.518H147.56Z" fill="black"/>
<path d="M173.796 385.706V392.518H172.94V386.591H172.902L171.247 387.691V386.835L172.94 385.706H173.796ZM177.964 392.612C176.609 392.612 175.64 391.887 175.593 390.805H176.449C176.496 391.454 177.145 391.859 177.955 391.859C178.848 391.859 179.507 391.37 179.507 390.664C179.507 389.921 178.914 389.394 177.851 389.394H177.296V388.651H177.851C178.679 388.651 179.253 388.19 179.253 387.484C179.253 386.807 178.754 386.346 177.983 386.346C177.258 386.346 176.59 386.75 176.553 387.418H175.734C175.781 386.337 176.779 385.612 177.992 385.612C179.29 385.612 180.081 386.459 180.071 387.437C180.081 388.209 179.629 388.783 178.914 388.98V389.027C179.798 389.168 180.344 389.799 180.335 390.664C180.344 391.784 179.319 392.612 177.964 392.612Z" fill="black"/>
<path d="M201.54 385.706V392.518H200.307V386.901H200.269L198.679 387.917V386.798L200.364 385.706H201.54ZM203.073 391.247V390.269L206.018 385.706H207.542V390.241H208.436V391.247H207.542V392.518H206.375V391.247H203.073ZM204.324 390.241H206.394V387.099H206.319L204.324 390.194V390.241Z" fill="#4D83FD"/>
<path d="M228.789 385.706V392.518H227.932V386.591H227.895L226.239 387.691V386.835L227.932 385.706H228.789ZM232.825 392.612C231.592 392.612 230.661 391.85 230.614 390.805H231.432C231.498 391.417 232.091 391.868 232.825 391.868C233.709 391.868 234.349 391.219 234.349 390.363C234.349 389.479 233.681 388.83 232.768 388.82C232.194 388.811 231.752 388.99 231.498 389.432H230.68L231.159 385.706H234.847V386.459H231.865L231.611 388.453H231.677C231.978 388.218 232.439 388.058 232.919 388.058C234.217 388.058 235.177 389.018 235.177 390.344C235.177 391.661 234.179 392.612 232.825 392.612Z" fill="black"/>
<path d="M256.906 385.706V392.518H256.05V386.591H256.012L254.356 387.691V386.835L256.05 385.706H256.906ZM261.092 392.612C259.907 392.593 258.609 391.897 258.609 389.375C258.609 386.967 259.597 385.612 261.196 385.612C262.391 385.612 263.228 386.346 263.407 387.418H262.569C262.409 386.816 261.958 386.365 261.196 386.365C260.076 386.365 259.408 387.324 259.408 388.961H259.493C259.888 388.397 260.509 388.058 261.243 388.058C262.457 388.058 263.463 388.999 263.463 390.316C263.463 391.596 262.522 392.621 261.092 392.612ZM261.092 391.868C261.977 391.868 262.635 391.172 262.645 390.326C262.635 389.488 262.005 388.801 261.111 388.801C260.217 388.801 259.531 389.526 259.521 390.335C259.521 391.135 260.18 391.868 261.092 391.868Z" fill="black"/>
<path d="M285.002 385.706V392.518H284.146V386.591H284.108L282.452 387.691V386.835L284.146 385.706H285.002ZM287.034 392.518L290.158 386.506V386.459H286.554V385.706H291.033V386.496L287.918 392.518H287.034Z" fill="black"/>
<path d="M118.453 418.22V425.031H117.597V419.104H117.56L115.904 420.205V419.349L117.597 418.22H118.453ZM122.546 425.125C121.116 425.125 120.119 424.335 120.128 423.225C120.119 422.341 120.73 421.616 121.511 421.494V421.456C120.834 421.296 120.391 420.675 120.391 419.932C120.391 418.888 121.304 418.126 122.546 418.126C123.788 418.126 124.7 418.888 124.71 419.932C124.7 420.675 124.249 421.296 123.581 421.456V421.494C124.352 421.616 124.964 422.341 124.973 423.225C124.964 424.335 123.966 425.125 122.546 425.125ZM122.546 424.382C123.524 424.382 124.126 423.893 124.126 423.178C124.126 422.425 123.458 421.87 122.546 421.87C121.633 421.87 120.956 422.425 120.975 423.178C120.956 423.893 121.567 424.382 122.546 424.382ZM122.546 421.155C123.317 421.155 123.882 420.685 123.882 419.998C123.882 419.321 123.346 418.86 122.546 418.86C121.737 418.86 121.21 419.321 121.21 419.998C121.21 420.685 121.765 421.155 122.546 421.155Z" fill="black"/>
<path d="M146.118 418.22V425.031H145.262V419.104H145.224L143.568 420.205V419.349L145.262 418.22H146.118ZM150.201 418.126C151.377 418.135 152.675 418.841 152.675 421.353C152.675 423.771 151.687 425.125 150.088 425.125C148.893 425.125 148.046 424.392 147.877 423.31H148.714C148.865 423.921 149.326 424.373 150.088 424.373C151.198 424.373 151.875 423.413 151.885 421.757H151.791C151.396 422.322 150.775 422.66 150.05 422.66C148.827 422.66 147.821 421.729 147.821 420.412C147.821 419.142 148.752 418.116 150.201 418.126ZM150.201 418.869C149.307 418.869 148.639 419.565 148.648 420.403C148.648 421.249 149.279 421.917 150.173 421.917C151.057 421.917 151.753 421.183 151.753 420.384C151.753 419.603 151.104 418.869 150.201 418.869Z" fill="black"/>
<path d="M170.674 425.031L170.664 424.41L172.988 421.964C173.797 421.108 174.183 420.647 174.183 420.017C174.183 419.321 173.59 418.86 172.828 418.86C172.019 418.86 171.502 419.377 171.502 420.139H170.702C170.692 418.935 171.624 418.126 172.856 418.126C174.089 418.126 174.973 418.954 174.973 420.017C174.973 420.779 174.616 421.372 173.411 422.613L171.85 424.222V424.279H175.095V425.031H170.674ZM178.558 425.125C177.043 425.125 176.177 423.855 176.177 421.626C176.177 419.415 177.062 418.126 178.558 418.126C180.053 418.126 180.938 419.415 180.938 421.626C180.938 423.855 180.063 425.125 178.558 425.125ZM178.558 424.373C179.536 424.373 180.11 423.385 180.11 421.626C180.11 419.866 179.536 418.86 178.558 418.86C177.579 418.86 176.996 419.866 176.996 421.626C176.996 423.385 177.57 424.373 178.558 424.373Z" fill="black"/>
<path d="M198.73 425.031L198.72 424.41L201.044 421.964C201.853 421.108 202.239 420.647 202.239 420.017C202.239 419.321 201.646 418.86 200.884 418.86C200.075 418.86 199.558 419.377 199.558 420.139H198.758C198.749 418.935 199.68 418.126 200.912 418.126C202.145 418.126 203.029 418.954 203.029 420.017C203.029 420.779 202.672 421.372 201.468 422.613L199.906 424.222V424.279H203.152V425.031H198.73ZM206.793 418.22V425.031H205.936V419.104H205.899L204.243 420.205V419.349L205.936 418.22H206.793Z" fill="black"/>
<path d="M226.111 425.031L226.101 424.41L228.425 421.964C229.234 421.108 229.62 420.647 229.62 420.017C229.62 419.321 229.027 418.86 228.265 418.86C227.456 418.86 226.938 419.377 226.938 420.139H226.139C226.129 418.935 227.061 418.126 228.293 418.126C229.526 418.126 230.41 418.954 230.41 420.017C230.41 420.779 230.052 421.372 228.848 422.613L227.287 424.222V424.279H230.532V425.031H226.111ZM231.765 425.031L231.755 424.41L234.079 421.964C234.888 421.108 235.274 420.647 235.274 420.017C235.274 419.321 234.681 418.86 233.919 418.86C233.11 418.86 232.593 419.377 232.593 420.139H231.793C231.784 418.935 232.715 418.126 233.947 418.126C235.18 418.126 236.064 418.954 236.064 420.017C236.064 420.779 235.707 421.372 234.502 422.613L232.941 424.222V424.279H236.187V425.031H231.765Z" fill="black"/>
<path d="M254.264 425.031L254.254 424.41L256.578 421.964C257.387 421.108 257.773 420.647 257.773 420.017C257.773 419.321 257.18 418.86 256.418 418.86C255.609 418.86 255.091 419.377 255.091 420.139H254.292C254.282 418.935 255.214 418.126 256.446 418.126C257.679 418.126 258.563 418.954 258.563 420.017C258.563 420.779 258.205 421.372 257.001 422.613L255.44 424.222V424.279H258.685V425.031H254.264ZM262.27 425.125C260.915 425.125 259.946 424.401 259.899 423.319H260.755C260.802 423.968 261.451 424.373 262.26 424.373C263.154 424.373 263.813 423.883 263.813 423.178C263.813 422.435 263.22 421.908 262.157 421.908H261.602V421.165H262.157C262.985 421.165 263.559 420.704 263.559 419.998C263.559 419.321 263.06 418.86 262.289 418.86C261.564 418.86 260.896 419.264 260.859 419.932H260.04C260.087 418.85 261.084 418.126 262.298 418.126C263.596 418.126 264.387 418.972 264.377 419.951C264.387 420.722 263.935 421.296 263.22 421.494V421.541C264.104 421.682 264.65 422.312 264.641 423.178C264.65 424.297 263.625 425.125 262.27 425.125Z" fill="black"/>
<path d="M281.341 425.031L281.332 424.41L283.655 421.964C284.464 421.108 284.85 420.647 284.85 420.017C284.85 419.321 284.258 418.86 283.495 418.86C282.686 418.86 282.169 419.377 282.169 420.139H281.369C281.36 418.935 282.291 418.126 283.524 418.126C284.756 418.126 285.64 418.954 285.64 420.017C285.64 420.779 285.283 421.372 284.079 422.613L282.517 424.222V424.279H285.763V425.031H281.341ZM286.675 423.639V422.943L289.742 418.22H290.787V422.896H291.737V423.639H290.787V425.031H289.978V423.639H286.675ZM287.588 422.896H289.978V419.292H289.893L287.588 422.839V422.896Z" fill="black"/>
<path d="M115.274 457.545L115.265 456.924L117.589 454.478C118.398 453.622 118.784 453.161 118.784 452.53C118.784 451.834 118.191 451.373 117.429 451.373C116.62 451.373 116.102 451.891 116.102 452.653H115.303C115.293 451.449 116.225 450.639 117.457 450.639C118.69 450.639 119.574 451.467 119.574 452.53C119.574 453.293 119.216 453.885 118.012 455.127L116.45 456.736V456.792H119.696V457.545H115.274ZM123.149 457.639C121.916 457.639 120.985 456.877 120.938 455.833H121.757C121.822 456.444 122.415 456.896 123.149 456.896C124.033 456.896 124.673 456.247 124.673 455.39C124.673 454.506 124.005 453.857 123.092 453.848C122.519 453.838 122.076 454.017 121.822 454.459H121.004L121.484 450.734H125.172V451.486H122.189L121.935 453.481H122.001C122.302 453.245 122.763 453.086 123.243 453.086C124.541 453.086 125.501 454.045 125.501 455.372C125.501 456.689 124.504 457.639 123.149 457.639Z" fill="black"/>
<path d="M142.289 457.545L142.28 456.924L144.604 454.478C145.413 453.622 145.798 453.161 145.798 452.53C145.798 451.834 145.206 451.373 144.444 451.373C143.635 451.373 143.117 451.891 143.117 452.653H142.317C142.308 451.449 143.239 450.639 144.472 450.639C145.704 450.639 146.589 451.467 146.589 452.53C146.589 453.293 146.231 453.885 145.027 455.127L143.465 456.736V456.792H146.711V457.545H142.289ZM150.314 457.639C149.129 457.62 147.831 456.924 147.831 454.403C147.831 451.994 148.818 450.639 150.418 450.639C151.613 450.639 152.45 451.373 152.629 452.446H151.791C151.631 451.844 151.18 451.392 150.418 451.392C149.298 451.392 148.63 452.352 148.63 453.989H148.715C149.11 453.424 149.731 453.086 150.465 453.086C151.678 453.086 152.685 454.026 152.685 455.343C152.685 456.623 151.744 457.648 150.314 457.639ZM150.314 456.896C151.199 456.896 151.857 456.2 151.867 455.353C151.857 454.516 151.227 453.829 150.333 453.829C149.439 453.829 148.752 454.553 148.743 455.362C148.743 456.162 149.402 456.896 150.314 456.896Z" fill="black"/>
<path d="M170.385 457.545L170.376 456.924L172.7 454.478C173.509 453.622 173.895 453.161 173.895 452.53C173.895 451.834 173.302 451.373 172.54 451.373C171.731 451.373 171.213 451.891 171.213 452.653H170.414C170.404 451.449 171.336 450.639 172.568 450.639C173.8 450.639 174.685 451.467 174.685 452.53C174.685 453.293 174.327 453.885 173.123 455.127L171.561 456.736V456.792H174.807V457.545H170.385ZM176.256 457.545L179.379 451.533V451.486H175.776V450.734H180.254V451.524L177.14 457.545H176.256Z" fill="black"/>
<path d="M197.717 457.545L197.707 456.924L200.031 454.478C200.84 453.622 201.226 453.161 201.226 452.53C201.226 451.834 200.633 451.373 199.871 451.373C199.062 451.373 198.545 451.891 198.545 452.653H197.745C197.735 451.449 198.667 450.639 199.899 450.639C201.132 450.639 202.016 451.467 202.016 452.53C202.016 453.293 201.659 453.885 200.454 455.127L198.893 456.736V456.792H202.138V457.545H197.717ZM205.648 457.639C204.218 457.639 203.22 456.849 203.23 455.739C203.22 454.854 203.832 454.13 204.613 454.008V453.97C203.935 453.81 203.493 453.189 203.493 452.446C203.493 451.401 204.406 450.639 205.648 450.639C206.889 450.639 207.802 451.401 207.811 452.446C207.802 453.189 207.35 453.81 206.682 453.97V454.008C207.454 454.13 208.065 454.854 208.075 455.739C208.065 456.849 207.068 457.639 205.648 457.639ZM205.648 456.896C206.626 456.896 207.228 456.407 207.228 455.692C207.228 454.939 206.56 454.384 205.648 454.384C204.735 454.384 204.058 454.939 204.076 455.692C204.058 456.407 204.669 456.896 205.648 456.896ZM205.648 453.669C206.419 453.669 206.984 453.198 206.984 452.512C206.984 451.834 206.447 451.373 205.648 451.373C204.839 451.373 204.312 451.834 204.312 452.512C204.312 453.198 204.867 453.669 205.648 453.669Z" fill="black"/>
<path d="M225.381 457.545L225.372 456.924L227.695 454.478C228.504 453.622 228.89 453.161 228.89 452.53C228.89 451.834 228.297 451.373 227.535 451.373C226.726 451.373 226.209 451.891 226.209 452.653H225.409C225.4 451.449 226.331 450.639 227.564 450.639C228.796 450.639 229.68 451.467 229.68 452.53C229.68 453.293 229.323 453.885 228.119 455.127L226.557 456.736V456.792H229.803V457.545H225.381ZM233.303 450.639C234.479 450.649 235.777 451.354 235.777 453.866C235.777 456.284 234.789 457.639 233.19 457.639C231.995 457.639 231.148 456.905 230.979 455.823H231.816C231.967 456.435 232.428 456.886 233.19 456.886C234.3 456.886 234.977 455.927 234.987 454.271H234.892C234.497 454.835 233.876 455.174 233.152 455.174C231.929 455.174 230.922 454.243 230.922 452.926C230.922 451.656 231.854 450.63 233.303 450.639ZM233.303 451.383C232.409 451.383 231.741 452.079 231.75 452.916C231.75 453.763 232.381 454.431 233.274 454.431C234.159 454.431 234.855 453.697 234.855 452.897C234.855 452.117 234.206 451.383 233.303 451.383Z" fill="black"/>
<path d="M256.573 457.639C255.218 457.639 254.249 456.915 254.202 455.833H255.059C255.106 456.482 255.755 456.886 256.564 456.886C257.458 456.886 258.116 456.397 258.116 455.692C258.116 454.948 257.523 454.421 256.46 454.421H255.905V453.678H256.46C257.288 453.678 257.862 453.217 257.862 452.512C257.862 451.834 257.363 451.373 256.592 451.373C255.868 451.373 255.2 451.778 255.162 452.446H254.344C254.391 451.364 255.388 450.639 256.601 450.639C257.9 450.639 258.69 451.486 258.681 452.465C258.69 453.236 258.238 453.81 257.523 454.008V454.055C258.408 454.196 258.953 454.826 258.944 455.692C258.953 456.811 257.928 457.639 256.573 457.639ZM262.397 457.639C260.882 457.639 260.017 456.369 260.017 454.139C260.017 451.928 260.901 450.639 262.397 450.639C263.893 450.639 264.777 451.928 264.777 454.139C264.777 456.369 263.902 457.639 262.397 457.639ZM262.397 456.886C263.375 456.886 263.949 455.899 263.949 454.139C263.949 452.38 263.375 451.373 262.397 451.373C261.418 451.373 260.835 452.38 260.835 454.139C260.835 455.899 261.409 456.886 262.397 456.886Z" fill="black"/>
<path d="M285.07 457.639C283.715 457.639 282.746 456.915 282.699 455.833H283.555C283.602 456.482 284.251 456.886 285.06 456.886C285.954 456.886 286.613 456.397 286.613 455.692C286.613 454.948 286.02 454.421 284.957 454.421H284.402V453.678H284.957C285.785 453.678 286.359 453.217 286.359 452.512C286.359 451.834 285.86 451.373 285.089 451.373C284.364 451.373 283.696 451.778 283.659 452.446H282.84C282.887 451.364 283.884 450.639 285.098 450.639C286.396 450.639 287.187 451.486 287.177 452.465C287.187 453.236 286.735 453.81 286.02 454.008V454.055C286.904 454.196 287.45 454.826 287.441 455.692C287.45 456.811 286.425 457.639 285.07 457.639ZM291.072 450.734V457.545H290.216V451.618H290.178L288.523 452.719V451.862L290.216 450.734H291.072Z" fill="black"/>
<path d="M271.488 324.111C271.488 331.094 265.827 336.756 258.844 336.756C251.86 336.756 246.199 331.094 246.199 324.111C246.199 317.128 251.86 311.467 258.844 311.467C265.827 311.467 271.488 317.128 271.488 324.111ZM249.766 324.111C249.766 329.125 253.83 333.189 258.844 333.189C263.857 333.189 267.921 329.125 267.921 324.111C267.921 319.098 263.857 315.033 258.844 315.033C253.83 315.033 249.766 319.098 249.766 324.111Z" fill="#DEDEDE"/>
<path d="M249.438 329.542C248.585 330.034 248.283 331.135 248.891 331.91C249.935 333.243 251.241 334.358 252.735 335.182C254.751 336.294 257.033 336.835 259.333 336.746C261.634 336.657 263.867 335.941 265.791 334.676C267.715 333.41 269.257 331.644 270.251 329.566C271.244 327.489 271.651 325.18 271.429 322.888C271.206 320.596 270.362 318.409 268.987 316.561C267.612 314.714 265.758 313.278 263.627 312.406C262.048 311.761 260.36 311.444 258.667 311.468C257.682 311.482 257.015 312.407 257.167 313.38V313.38C257.319 314.353 258.235 315 259.22 315.041C260.265 315.084 261.3 315.309 262.278 315.708C263.808 316.333 265.139 317.365 266.126 318.691C267.113 320.017 267.719 321.588 267.879 323.233C268.039 324.878 267.746 326.536 267.033 328.028C266.32 329.519 265.213 330.787 263.832 331.696C262.45 332.604 260.847 333.118 259.195 333.182C257.543 333.246 255.905 332.858 254.458 332.059C253.534 331.549 252.709 330.884 252.019 330.097C251.37 329.357 250.291 329.049 249.438 329.542V329.542Z" fill="#4D83FD"/>
<path d="M188.396 356.627C188.396 363.61 182.735 369.271 175.752 369.271C168.768 369.271 163.107 363.61 163.107 356.627C163.107 349.643 168.768 343.982 175.752 343.982C182.735 343.982 188.396 349.643 188.396 356.627ZM166.674 356.627C166.674 361.64 170.738 365.705 175.752 365.705C180.765 365.705 184.83 361.64 184.83 356.627C184.83 351.613 180.765 347.549 175.752 347.549C170.738 347.549 166.674 351.613 166.674 356.627Z" fill="#DEDEDE"/>
<path d="M188.396 356.627C188.396 363.61 182.735 369.271 175.752 369.271C168.768 369.271 163.107 363.61 163.107 356.627C163.107 349.643 168.768 343.982 175.752 343.982C182.735 343.982 188.396 349.643 188.396 356.627ZM166.674 356.627C166.674 361.64 170.738 365.705 175.752 365.705C180.765 365.705 184.83 361.64 184.83 356.627C184.83 351.613 180.765 347.549 175.752 347.549C170.738 347.549 166.674 351.613 166.674 356.627Z" fill="#4D83FD"/>
<path d="M160.699 324.111C160.699 331.094 155.038 336.756 148.055 336.756C141.071 336.756 135.41 331.094 135.41 324.111C135.41 317.128 141.071 311.467 148.055 311.467C155.038 311.467 160.699 317.128 160.699 324.111ZM138.977 324.111C138.977 329.125 143.041 333.189 148.055 333.189C153.068 333.189 157.132 329.125 157.132 324.111C157.132 319.098 153.068 315.033 148.055 315.033C143.041 315.033 138.977 319.098 138.977 324.111Z" fill="#DEDEDE"/>
<path d="M140.375 331.791C139.678 332.488 139.672 333.629 140.459 334.22C141.682 335.139 143.066 335.831 144.545 336.259C146.597 336.852 148.766 336.915 150.849 336.443C152.932 335.971 154.862 334.978 156.458 333.559C158.054 332.139 159.265 330.338 159.976 328.324C160.688 326.31 160.878 324.148 160.528 322.041C160.179 319.934 159.301 317.949 157.977 316.273C156.652 314.597 154.925 313.284 152.956 312.456C151.537 311.859 150.026 311.528 148.497 311.475C147.513 311.44 146.801 312.332 146.905 313.311V313.311C147.009 314.29 147.893 314.981 148.874 315.07C149.8 315.154 150.71 315.38 151.574 315.743C152.987 316.338 154.227 317.281 155.178 318.484C156.129 319.687 156.759 321.112 157.01 322.625C157.261 324.138 157.125 325.69 156.614 327.136C156.103 328.582 155.234 329.875 154.088 330.894C152.942 331.913 151.557 332.626 150.061 332.965C148.565 333.303 147.008 333.258 145.535 332.832C144.635 332.572 143.785 332.176 143.012 331.66C142.193 331.113 141.071 331.095 140.375 331.791V331.791Z" fill="#8E8E8E"/>
<path d="M152.331 265.754C152.09 266.043 151.647 266.043 151.406 265.754L149.303 263.232C148.976 262.84 149.255 262.244 149.765 262.244L153.972 262.244C154.482 262.244 154.761 262.84 154.434 263.232L152.331 265.754Z" fill="#8E8E8E"/>
<path d="M216.093 389.14C216.093 396.124 210.432 401.785 203.449 401.785C196.466 401.785 190.805 396.124 190.805 389.14C190.805 382.157 196.466 376.496 203.449 376.496C210.432 376.496 216.093 382.157 216.093 389.14ZM194.371 389.14C194.371 394.154 198.435 398.218 203.449 398.218C208.463 398.218 212.527 394.154 212.527 389.14C212.527 384.127 208.463 380.063 203.449 380.063C198.435 380.063 194.371 384.127 194.371 389.14Z" fill="#DEDEDE"/>
<path d="M193.213 385.509C192.285 385.179 191.252 385.664 191.057 386.629C190.63 388.734 190.745 390.923 191.404 392.987C192.245 395.62 193.925 397.905 196.188 399.492C198.451 401.08 201.172 401.882 203.934 401.776C206.697 401.669 209.348 400.661 211.482 398.905C213.617 397.149 215.117 394.741 215.754 392.051C216.39 389.362 216.128 386.537 215.006 384.011C213.885 381.484 211.966 379.395 209.544 378.062C207.646 377.018 205.52 376.483 203.373 376.496C202.388 376.502 201.713 377.422 201.858 378.397V378.397C202.002 379.371 202.914 380.025 203.897 380.074C205.266 380.141 206.611 380.519 207.825 381.187C209.564 382.144 210.941 383.644 211.746 385.458C212.551 387.271 212.74 389.299 212.283 391.23C211.826 393.162 210.749 394.89 209.217 396.151C207.684 397.412 205.781 398.135 203.798 398.212C201.814 398.288 199.861 397.712 198.236 396.573C196.612 395.433 195.405 393.792 194.801 391.902C194.38 390.581 194.268 389.19 194.466 387.833C194.608 386.859 194.141 385.838 193.213 385.509V385.509Z" fill="#4D83FD"/>
<path d="M99.3799 510.765C99.3799 511.464 99.9232 512.155 100.925 512.424L100.558 513.03C99.8209 512.829 99.2917 512.399 98.9989 511.845C98.7237 512.473 98.1909 512.967 97.4324 513.193L97.0655 512.586C98.0604 512.283 98.5967 511.535 98.5967 510.765V510.73H97.2631V510.109H98.5967V509.375H99.3869V510.109H100.713V510.73H99.3799V510.765ZM102.428 509.404V513.263H101.645V511.789H100.523V511.154H101.645V509.404H102.428ZM100.269 513.39C101.617 513.39 102.449 513.821 102.449 514.576C102.449 515.338 101.617 515.775 100.269 515.775C98.9283 515.775 98.0957 515.338 98.1027 514.576C98.0957 513.821 98.9283 513.39 100.269 513.39ZM100.269 513.99C99.3799 513.997 98.8789 514.195 98.8789 514.576C98.8789 514.957 99.3799 515.168 100.269 515.168C101.172 515.168 101.666 514.957 101.666 514.576C101.666 514.195 101.172 513.997 100.269 513.99ZM109.16 514.357V514.992H103.331V514.357H105.829V512.882H106.605V514.357H109.16ZM106.626 510.257C106.626 511.224 107.593 512.177 108.934 512.388L108.595 513.037C107.515 512.833 106.633 512.215 106.21 511.379C105.787 512.212 104.912 512.84 103.839 513.037L103.501 512.388C104.834 512.177 105.787 511.217 105.794 510.257V509.792H106.626V510.257ZM116.364 509.665V511.88H114.586V512.551H117.105V513.186H111.29V512.551H113.795V511.88H112.024V509.665H116.364ZM112.786 510.279V511.259H115.588V510.279H112.786ZM116.392 513.722V515.782H115.609V514.343H111.933V513.722H116.392ZM123.356 512.854V513.489H117.528V512.854H120.054V512.325H118.269V510.631H121.853V510.159H118.248V509.545H122.636V511.203H119.045V511.711H122.763V512.325H120.83V512.854H123.356ZM122.672 513.891V515.74H121.881V514.512H118.177V513.891H122.672Z" fill="#4D83FD"/>
<g filter="url(#filter4_d_6885_30779)">
<rect x="247.403" y="524.615" width="57.8028" height="33.7183" rx="4.8169" fill="#4D83FD"/>
</g>
<rect x="275.101" y="532.443" width="18.0634" height="18.0634" rx="8.73063" fill="#F9F9F9"/>
<path d="M279.315 541.776L282.928 545.088L288.347 539.067" stroke="#FA9EFA" stroke-width="1.80634" stroke-linecap="round" stroke-linejoin="round"/>
<g filter="url(#filter5_d_6885_30779)">
<rect x="92.6602" y="524.615" width="212.546" height="33.7183" rx="4.8169" fill="#EFF4FF"/>
</g>
<path d="M292.562 535.453C291.899 535.453 291.357 535.995 291.357 536.657C291.357 537.32 291.899 537.862 292.562 537.862C293.224 537.862 293.766 537.32 293.766 536.657C293.766 535.995 293.224 535.453 292.562 535.453ZM292.562 543.883C291.899 543.883 291.357 544.425 291.357 545.087C291.357 545.749 291.899 546.291 292.562 546.291C293.224 546.291 293.766 545.749 293.766 545.087C293.766 544.425 293.224 543.883 292.562 543.883ZM292.562 539.668C291.899 539.668 291.357 540.21 291.357 540.872C291.357 541.534 291.899 542.076 292.562 542.076C293.224 542.076 293.766 541.534 293.766 540.872C293.766 540.21 293.224 539.668 292.562 539.668Z" fill="#BDBDBD"/>
<path d="M92.6602 529.432C92.6602 526.772 94.8168 524.615 97.4771 524.615H98.0792V558.334H97.4771C94.8168 558.334 92.6602 556.177 92.6602 553.517V529.432Z" fill="#4D83FD"/>
<path d="M111.265 531.78V534.661H112.491V535.221H111.265V539.098H110.623V531.78H111.265ZM106.548 532.406V534.34H108.688V532.406H109.33V537.345H105.906V532.406H106.548ZM106.548 536.802H108.688V534.859H106.548V536.802ZM118.608 531.78V533.632H119.711V534.184H118.608V536.094H117.966V531.78H118.608ZM118.608 536.497V539.115H117.966V537.016H113.817V536.497H118.608ZM116.492 532.299V532.834H113.874V534.999C115.344 534.991 116.179 534.954 117.159 534.752L117.241 535.279C116.212 535.485 115.34 535.526 113.8 535.526H113.232V532.299H116.492ZM124.518 532.291C124.518 532.784 124.905 533.464 125.621 533.838C126.333 533.476 126.716 532.822 126.716 532.291V531.871H127.358V532.291C127.358 532.933 127.844 533.624 128.749 533.912L128.437 534.398C127.745 534.155 127.272 533.682 127.037 533.138C126.798 533.694 126.333 534.217 125.621 534.472C124.893 534.209 124.428 533.665 124.205 533.106C123.958 533.645 123.485 534.139 122.806 534.398L122.485 533.912C123.374 533.591 123.876 532.85 123.876 532.291V531.871H124.518V532.291ZM128.955 534.892V535.419H122.287V534.892H128.955ZM128.099 536.036V537.724H123.753V538.506H128.321V539.016H123.111V537.246H127.465V536.53H123.094V536.036H128.099ZM135.623 531.78V539.098H134.973V531.78H135.623ZM133.458 532.579C133.45 534.686 132.47 536.547 130.017 537.724L129.663 537.197C131.643 536.258 132.651 534.855 132.8 533.106H130.001V532.579H133.458Z" fill="#483636"/>
<path d="M146.298 532.014C146.979 532.014 147.531 532.566 147.531 533.247V537.286C147.531 537.967 146.979 538.52 146.298 538.52H140.257C139.576 538.52 139.023 537.967 139.023 537.286V533.247C139.023 532.566 139.576 532.014 140.257 532.014H146.298Z" fill="#81A9FF"/>
<circle cx="143.403" cy="535.765" r="1.14502" fill="#81A9FF" stroke="#DEDEDE" stroke-width="0.462478"/>
<rect x="140.524" y="530.637" width="2.37718" height="1.00092" rx="0.308318" fill="#81A9FF"/>
<path d="M140.643 533.258H145.576" stroke="#EFF4FF" stroke-width="0.462478" stroke-linecap="round"/>
<path d="M110.47 545.537V547.174H111.408V547.64H110.47V549.284H109.912V545.537H110.47ZM108.452 549.404C109.729 549.404 110.519 549.848 110.519 550.596C110.519 551.358 109.729 551.796 108.452 551.796C107.167 551.796 106.37 551.358 106.37 550.596C106.37 549.848 107.167 549.404 108.452 549.404ZM108.452 549.862C107.506 549.855 106.913 550.138 106.913 550.596C106.913 551.062 107.506 551.351 108.452 551.351C109.39 551.351 109.983 551.062 109.983 550.596C109.983 550.138 109.39 549.855 108.452 549.862ZM108.635 546.017V546.475H106.391V548.317C107.661 548.31 108.395 548.271 109.235 548.098L109.291 548.557C108.416 548.733 107.661 548.769 106.335 548.769H105.848V546.017H108.635ZM117.004 545.544V550.187H116.446V547.774H114.964V549.114H112.121V545.96H112.671V547.075H114.421V545.96H114.964V547.308H116.446V545.544H117.004ZM117.145 551.21V551.676H112.946V549.728H113.504V551.21H117.145ZM112.671 548.656H114.421V547.513H112.671V548.656ZM120.397 551.238H119.734L121.604 546.13H122.274L124.144 551.238H123.474L122.966 549.799H120.913L120.397 551.238ZM121.103 549.241H122.768L121.957 546.955H121.915L121.103 549.241ZM128.392 545.89L126.741 552.007H126.19L127.835 545.89H128.392ZM130.953 551.238L133.296 546.729V546.694H130.593V546.13H133.952V546.722L131.617 551.238H130.953ZM137.028 550.561C136.782 550.561 136.57 550.356 136.577 550.102C136.57 549.855 136.782 549.651 137.028 549.651C137.275 549.651 137.48 549.855 137.48 550.102C137.48 550.356 137.275 550.561 137.028 550.561ZM137.028 547.724C136.782 547.724 136.57 547.52 136.577 547.266C136.57 547.019 136.782 546.814 137.028 546.814C137.275 546.814 137.48 547.019 137.48 547.266C137.48 547.52 137.275 547.724 137.028 547.724ZM142.003 551.309C140.987 551.309 140.26 550.766 140.225 549.954H140.867C140.902 550.441 141.389 550.744 141.996 550.744C142.666 550.744 143.16 550.377 143.16 549.848C143.16 549.291 142.716 548.896 141.918 548.896H141.502V548.338H141.918C142.539 548.338 142.97 547.993 142.97 547.463C142.97 546.955 142.596 546.61 142.017 546.61C141.474 546.61 140.973 546.913 140.945 547.414H140.331C140.366 546.602 141.114 546.059 142.024 546.059C142.998 546.059 143.591 546.694 143.584 547.428C143.591 548.007 143.252 548.437 142.716 548.585V548.621C143.379 548.726 143.788 549.199 143.781 549.848C143.788 550.688 143.019 551.309 142.003 551.309ZM146.371 551.309C145.235 551.309 144.585 550.356 144.585 548.684C144.585 547.026 145.249 546.059 146.371 546.059C147.493 546.059 148.156 547.026 148.156 548.684C148.156 550.356 147.5 551.309 146.371 551.309ZM146.371 550.744C147.104 550.744 147.535 550.003 147.535 548.684C147.535 547.365 147.104 546.61 146.371 546.61C145.637 546.61 145.199 547.365 145.199 548.684C145.199 550.003 145.63 550.744 146.371 550.744Z" fill="#4D83FD"/>
<path d="M272.589 508.851V511.406H273.605V511.871H272.589V515.124H272.039V508.851H272.589ZM270.966 509.529C270.966 511.307 270.134 512.923 268.088 513.932L267.777 513.494C269.4 512.686 270.282 511.48 270.409 509.995H268.066V509.529H270.966ZM279.85 511.356V511.822H278.834V515.124H278.284V508.851H278.834V511.356H279.85ZM274.791 509.472V513.064C275.708 513.06 276.643 512.99 277.677 512.775L277.747 513.247C276.668 513.466 275.694 513.53 274.741 513.53H274.24V509.472H274.791ZM285.078 508.851V511.335H286.13V511.801H285.078V515.138H284.528V508.851H285.078ZM283.427 509.465V509.924H281.05V513.099C282.186 513.099 282.99 513.046 283.921 512.873L283.992 513.353C283.011 513.53 282.186 513.565 280.993 513.565H280.499V509.465H283.427ZM291.429 509.331C291.429 510.15 292.572 510.898 293.659 511.067L293.44 511.505C292.487 511.342 291.545 510.813 291.147 510.079C290.752 510.827 289.799 511.349 288.846 511.512L288.628 511.074C289.721 510.905 290.857 510.178 290.857 509.331V509.014H291.429V509.331ZM294.018 512.048V512.506H291.464V513.791H290.914V512.506H288.275V512.048H294.018ZM293.376 514.525V514.99H289.009V513.177H289.566V514.525H293.376Z" fill="#797C82"/>
<path d="M302.195 510.767L299.786 513.176L297.378 510.767" stroke="#797C82" stroke-width="0.451584" stroke-linecap="round" stroke-linejoin="round"/>
<path d="M137.216 505.348V506.552H136.614L133.001 511.971V516.186H130.593V511.971L126.98 506.552H126.378V505.348H137.216Z" fill="#81A9FF"/>
<path d="M126.378 505.936H137.216" stroke="#81A9FF" stroke-width="1.20423" stroke-linecap="round"/>
<g filter="url(#filter6_d_6885_30779)">
<rect x="246.237" y="563.15" width="57.8028" height="33.7183" rx="4.8169" fill="#4D83FD"/>
</g>
<rect x="273.935" y="570.979" width="18.0634" height="18.0634" rx="8.73063" fill="#F9F9F9"/>
<path d="M278.149 580.311L281.762 583.623L287.181 577.602" stroke="#FA9EFA" stroke-width="1.80634" stroke-linecap="round" stroke-linejoin="round"/>
<rect x="90.8926" y="563.15" width="213.148" height="33.7183" rx="4.8169" fill="#F9F9F9"/>
<path d="M290.794 574.59C290.132 574.59 289.59 575.132 289.59 575.794C289.59 576.456 290.132 576.998 290.794 576.998C291.456 576.998 291.998 576.456 291.998 575.794C291.998 575.132 291.456 574.59 290.794 574.59ZM290.794 583.019C290.132 583.019 289.59 583.561 289.59 584.224C289.59 584.886 290.132 585.428 290.794 585.428C291.456 585.428 291.998 584.886 291.998 584.224C291.998 583.561 291.456 583.019 290.794 583.019ZM290.794 578.805C290.132 578.805 289.59 579.347 289.59 580.009C289.59 580.671 290.132 581.213 290.794 581.213C291.456 581.213 291.998 580.671 291.998 580.009C291.998 579.347 291.456 578.805 290.794 578.805Z" fill="#BDBDBD"/>
<path d="M108.702 584.115V585.752H109.641V586.218H108.702V587.862H108.145V584.115H108.702ZM106.684 587.982C107.961 587.982 108.751 588.426 108.751 589.174C108.751 589.936 107.961 590.374 106.684 590.374C105.4 590.374 104.603 589.936 104.603 589.174C104.603 588.426 105.4 587.982 106.684 587.982ZM106.684 588.44C105.739 588.433 105.146 588.716 105.146 589.174C105.146 589.64 105.739 589.929 106.684 589.929C107.623 589.929 108.215 589.64 108.215 589.174C108.215 588.716 107.623 588.433 106.684 588.44ZM106.868 584.595V585.054H104.624V586.895C105.894 586.888 106.628 586.849 107.467 586.676L107.524 587.135C106.649 587.312 105.894 587.347 104.567 587.347H104.08V584.595H106.868ZM115.236 584.122V588.765H114.679V586.352H113.197V587.693H110.353V584.539H110.904V585.653H112.653V584.539H113.197V585.886H114.679V584.122H115.236ZM115.377 589.788V590.254H111.179V588.306H111.736V589.788H115.377ZM110.904 587.234H112.653V586.091H110.904V587.234ZM118.63 589.816H117.967L119.836 584.708H120.507L122.377 589.816H121.706L121.198 588.377H119.145L118.63 589.816ZM119.336 587.82H121.001L120.189 585.533H120.147L119.336 587.82Z" fill="#8E8E8E"/>
<path d="M109.497 570.315V573.197H110.724V573.756H109.497V577.634H108.855V570.315H109.497ZM104.78 570.941V572.875H106.92V570.941H107.563V575.88H104.138V570.941H104.78ZM104.78 575.337H106.92V573.394H104.78V575.337ZM116.84 570.315V572.168H117.943V572.719H116.84V574.629H116.198V570.315H116.84ZM116.84 575.032V577.65H116.198V575.551H112.049V575.032H116.84ZM114.724 570.834V571.369H112.107V573.534C113.576 573.526 114.412 573.489 115.391 573.287L115.474 573.814C114.445 574.02 113.572 574.061 112.033 574.061H111.465V570.834H114.724ZM122.751 570.826C122.751 571.32 123.138 571.999 123.854 572.373C124.566 572.011 124.949 571.357 124.949 570.826V570.406H125.591V570.826C125.591 571.468 126.076 572.159 126.982 572.447L126.669 572.933C125.978 572.69 125.504 572.217 125.27 571.674C125.031 572.229 124.566 572.752 123.854 573.007C123.125 572.744 122.66 572.2 122.438 571.641C122.191 572.18 121.718 572.674 121.038 572.933L120.717 572.447C121.606 572.126 122.109 571.385 122.109 570.826V570.406H122.751V570.826ZM127.188 573.427V573.954H120.52V573.427H127.188ZM126.332 574.571V576.259H121.985V577.041H126.554V577.551H121.343V575.781H125.698V575.065H121.326V574.571H126.332ZM133.856 570.315V577.634H133.205V570.315H133.856ZM131.691 571.114C131.682 573.221 130.703 575.082 128.25 576.259L127.896 575.732C129.875 574.794 130.884 573.39 131.032 571.641H128.233V571.114H131.691Z" fill="black"/>
<path d="M144.53 570.549C145.211 570.549 145.764 571.101 145.764 571.782V575.821C145.764 576.502 145.211 577.055 144.53 577.055H138.489C137.808 577.055 137.256 576.502 137.256 575.821V571.782C137.256 571.101 137.808 570.549 138.489 570.549H144.53Z" fill="#81A9FF"/>
<circle cx="141.635" cy="574.3" r="1.14502" fill="#81A9FF" stroke="white" stroke-width="0.462478"/>
<rect x="138.757" y="569.172" width="2.37718" height="1.00092" rx="0.308318" fill="#81A9FF"/>
<path d="M138.875 571.793H143.808" stroke="white" stroke-width="0.462478" stroke-linecap="round"/>
<path d="M90.8926 567.967C90.8926 565.307 93.0492 563.15 95.7095 563.15H96.3116V596.869H95.7095C93.0492 596.869 90.8926 594.712 90.8926 592.052V567.967Z" fill="#E1E4EA"/>
<g filter="url(#filter7_d_6885_30779)">
<rect x="246.237" y="601.686" width="57.8028" height="33.7183" rx="4.8169" fill="#4D83FD"/>
</g>
<rect x="273.935" y="609.514" width="18.0634" height="18.0634" rx="8.73063" fill="#F9F9F9"/>
<path d="M278.149 618.847L281.762 622.158L287.181 616.137" stroke="#FA9EFA" stroke-width="1.80634" stroke-linecap="round" stroke-linejoin="round"/>
<rect x="90.8926" y="601.686" width="213.148" height="33.7183" rx="4.8169" fill="#F9F9F9"/>
<path d="M290.794 613.125C290.132 613.125 289.59 613.667 289.59 614.329C289.59 614.992 290.132 615.533 290.794 615.533C291.456 615.533 291.998 614.992 291.998 614.329C291.998 613.667 291.456 613.125 290.794 613.125ZM290.794 621.555C290.132 621.555 289.59 622.096 289.59 622.759C289.59 623.421 290.132 623.963 290.794 623.963C291.456 623.963 291.998 623.421 291.998 622.759C291.998 622.096 291.456 621.555 290.794 621.555ZM290.794 617.34C290.132 617.34 289.59 617.882 289.59 618.544C289.59 619.206 290.132 619.748 290.794 619.748C291.456 619.748 291.998 619.206 291.998 618.544C291.998 617.882 291.456 617.34 290.794 617.34Z" fill="#BDBDBD"/>
<path d="M109.497 608.85V611.732H110.724V612.291H109.497V616.169H108.855V608.85H109.497ZM104.78 609.476V611.411H106.92V609.476H107.563V614.415H104.138V609.476H104.78ZM104.78 613.872H106.92V611.929H104.78V613.872ZM116.84 608.85V610.703H117.943V611.254H116.84V613.164H116.198V608.85H116.84ZM116.84 613.567V616.185H116.198V614.086H112.049V613.567H116.84ZM114.724 609.369V609.904H112.107V612.069C113.576 612.061 114.412 612.024 115.391 611.822L115.474 612.349C114.445 612.555 113.572 612.596 112.033 612.596H111.465V609.369H114.724ZM122.751 609.361C122.751 609.855 123.138 610.534 123.854 610.908C124.566 610.546 124.949 609.892 124.949 609.361V608.941H125.591V609.361C125.591 610.003 126.076 610.694 126.982 610.983L126.669 611.468C125.978 611.225 125.504 610.752 125.27 610.209C125.031 610.764 124.566 611.287 123.854 611.542C123.125 611.279 122.66 610.736 122.438 610.176C122.191 610.715 121.718 611.209 121.038 611.468L120.717 610.983C121.606 610.662 122.109 609.921 122.109 609.361V608.941H122.751V609.361ZM127.188 611.962V612.489H120.52V611.962H127.188ZM126.332 613.106V614.794H121.985V615.576H126.554V616.086H121.343V614.317H125.698V613.6H121.326V613.106H126.332ZM133.856 608.85V616.169H133.205V608.85H133.856ZM131.691 609.649C131.682 611.756 130.703 613.617 128.25 614.794L127.896 614.267C129.875 613.329 130.884 611.925 131.032 610.176H128.233V609.649H131.691Z" fill="black"/>
<path d="M108.702 622.607V624.244H109.641V624.71H108.702V626.354H108.145V622.607H108.702ZM106.684 626.474C107.961 626.474 108.751 626.919 108.751 627.666C108.751 628.429 107.961 628.866 106.684 628.866C105.4 628.866 104.603 628.429 104.603 627.666C104.603 626.919 105.4 626.474 106.684 626.474ZM106.684 626.933C105.739 626.926 105.146 627.208 105.146 627.666C105.146 628.132 105.739 628.421 106.684 628.421C107.623 628.421 108.215 628.132 108.215 627.666C108.215 627.208 107.623 626.926 106.684 626.933ZM106.868 623.087V623.546H104.624V625.387C105.894 625.38 106.628 625.342 107.467 625.169L107.524 625.627C106.649 625.804 105.894 625.839 104.567 625.839H104.08V623.087H106.868ZM115.236 622.614V627.257H114.679V624.844H113.197V626.185H110.353V623.031H110.904V624.146H112.653V623.031H113.197V624.378H114.679V622.614H115.236ZM115.377 628.28V628.746H111.179V626.799H111.736V628.28H115.377ZM110.904 625.726H112.653V624.583H110.904V625.726ZM118.63 628.309H117.967L119.836 623.2H120.507L122.377 628.309H121.706L121.198 626.869H119.145L118.63 628.309ZM119.336 626.312H121.001L120.189 624.026H120.147L119.336 626.312Z" fill="#8E8E8E"/>
<path d="M90.8926 606.502C90.8926 603.842 93.0492 601.686 95.7095 601.686H96.3116V635.404H95.7095C93.0492 635.404 90.8926 633.247 90.8926 630.587V606.502Z" fill="#E1E4EA"/>
</g>
<rect x="75.3956" y="182.21" width="245.87" height="541.41" rx="26.62" stroke="#E0EAFF" stroke-width="9.24"/>
<rect y="590.367" width="395" height="116.185" fill="url(#paint2_linear_6885_30779)"/>
<defs>
<filter id="filter0_d_6885_30779" x="241.42" y="635.404" width="67.4365" height="43.3526" filterUnits="userSpaceOnUse" color-interpolation-filters="sRGB">
<feFlood flood-opacity="0" result="BackgroundImageFix"/>
<feColorMatrix in="SourceAlpha" type="matrix" values="0 0 0 0 0 0 0 0 0 0 0 0 0 0 0 0 0 0 127 0" result="hardAlpha"/>
<feOffset/>
<feGaussianBlur stdDeviation="2.40845"/>
<feComposite in2="hardAlpha" operator="out"/>
<feColorMatrix type="matrix" values="0 0 0 0 0 0 0 0 0 0 0 0 0 0 0 0 0 0 0.05 0"/>
<feBlend mode="normal" in2="BackgroundImageFix" result="effect1_dropShadow_6885_30779"/>
<feBlend mode="normal" in="SourceGraphic" in2="effect1_dropShadow_6885_30779" result="shape"/>
</filter>
<filter id="filter1_d_6885_30779" x="66.8294" y="633.659" width="263.002" height="76.3471" filterUnits="userSpaceOnUse" color-interpolation-filters="sRGB">
<feFlood flood-opacity="0" result="BackgroundImageFix"/>
<feColorMatrix in="SourceAlpha" type="matrix" values="0 0 0 0 0 0 0 0 0 0 0 0 0 0 0 0 0 0 127 0" result="hardAlpha"/>
<feOffset dy="-3.01056"/>
<feGaussianBlur stdDeviation="6.59313"/>
<feComposite in2="hardAlpha" operator="out"/>
<feColorMatrix type="matrix" values="0 0 0 0 0 0 0 0 0 0 0 0 0 0 0 0 0 0 0.1 0"/>
<feBlend mode="normal" in2="BackgroundImageFix" result="effect1_dropShadow_6885_30779"/>
<feBlend mode="normal" in="SourceGraphic" in2="effect1_dropShadow_6885_30779" result="shape"/>
</filter>
<filter id="filter2_d_6885_30779" x="61.3501" y="275.342" width="248.673" height="225.792" filterUnits="userSpaceOnUse" color-interpolation-filters="sRGB">
<feFlood flood-opacity="0" result="BackgroundImageFix"/>
<feColorMatrix in="SourceAlpha" type="matrix" values="0 0 0 0 0 0 0 0 0 0 0 0 0 0 0 0 0 0 127 0" result="hardAlpha"/>
<feOffset dy="2.40845"/>
<feGaussianBlur stdDeviation="2.40845"/>
<feComposite in2="hardAlpha" operator="out"/>
<feColorMatrix type="matrix" values="0 0 0 0 0 0 0 0 0 0 0 0 0 0 0 0 0 0 0.05 0"/>
<feBlend mode="normal" in2="BackgroundImageFix" result="effect1_dropShadow_6885_30779"/>
<feBlend mode="normal" in="SourceGraphic" in2="effect1_dropShadow_6885_30779" result="shape"/>
</filter>
<filter id="filter3_d_6885_30779" x="90.854" y="275.341" width="216.761" height="220.976" filterUnits="userSpaceOnUse" color-interpolation-filters="sRGB">
<feFlood flood-opacity="0" result="BackgroundImageFix"/>
<feColorMatrix in="SourceAlpha" type="matrix" values="0 0 0 0 0 0 0 0 0 0 0 0 0 0 0 0 0 0 127 0" result="hardAlpha"/>
<feOffset/>
<feGaussianBlur stdDeviation="2.40845"/>
<feComposite in2="hardAlpha" operator="out"/>
<feColorMatrix type="matrix" values="0 0 0 0 0 0 0 0 0 0 0 0 0 0 0 0 0 0 0.05 0"/>
<feBlend mode="normal" in2="BackgroundImageFix" result="effect1_dropShadow_6885_30779"/>
<feBlend mode="normal" in="SourceGraphic" in2="effect1_dropShadow_6885_30779" result="shape"/>
</filter>
<filter id="filter4_d_6885_30779" x="242.586" y="519.798" width="67.4365" height="43.3526" filterUnits="userSpaceOnUse" color-interpolation-filters="sRGB">
<feFlood flood-opacity="0" result="BackgroundImageFix"/>
<feColorMatrix in="SourceAlpha" type="matrix" values="0 0 0 0 0 0 0 0 0 0 0 0 0 0 0 0 0 0 127 0" result="hardAlpha"/>
<feOffset/>
<feGaussianBlur stdDeviation="2.40845"/>
<feComposite in2="hardAlpha" operator="out"/>
<feColorMatrix type="matrix" values="0 0 0 0 0 0 0 0 0 0 0 0 0 0 0 0 0 0 0.05 0"/>
<feBlend mode="normal" in2="BackgroundImageFix" result="effect1_dropShadow_6885_30779"/>
<feBlend mode="normal" in="SourceGraphic" in2="effect1_dropShadow_6885_30779" result="shape"/>
</filter>
<filter id="filter5_d_6885_30779" x="87.8433" y="519.798" width="222.18" height="43.3526" filterUnits="userSpaceOnUse" color-interpolation-filters="sRGB">
<feFlood flood-opacity="0" result="BackgroundImageFix"/>
<feColorMatrix in="SourceAlpha" type="matrix" values="0 0 0 0 0 0 0 0 0 0 0 0 0 0 0 0 0 0 127 0" result="hardAlpha"/>
<feOffset/>
<feGaussianBlur stdDeviation="2.40845"/>
<feComposite in2="hardAlpha" operator="out"/>
<feColorMatrix type="matrix" values="0 0 0 0 0 0 0 0 0 0 0 0 0 0 0 0 0 0 0.05 0"/>
<feBlend mode="normal" in2="BackgroundImageFix" result="effect1_dropShadow_6885_30779"/>
<feBlend mode="normal" in="SourceGraphic" in2="effect1_dropShadow_6885_30779" result="shape"/>
</filter>
<filter id="filter6_d_6885_30779" x="241.42" y="558.333" width="67.4365" height="43.3526" filterUnits="userSpaceOnUse" color-interpolation-filters="sRGB">
<feFlood flood-opacity="0" result="BackgroundImageFix"/>
<feColorMatrix in="SourceAlpha" type="matrix" values="0 0 0 0 0 0 0 0 0 0 0 0 0 0 0 0 0 0 127 0" result="hardAlpha"/>
<feOffset/>
<feGaussianBlur stdDeviation="2.40845"/>
<feComposite in2="hardAlpha" operator="out"/>
<feColorMatrix type="matrix" values="0 0 0 0 0 0 0 0 0 0 0 0 0 0 0 0 0 0 0.05 0"/>
<feBlend mode="normal" in2="BackgroundImageFix" result="effect1_dropShadow_6885_30779"/>
<feBlend mode="normal" in="SourceGraphic" in2="effect1_dropShadow_6885_30779" result="shape"/>
</filter>
<filter id="filter7_d_6885_30779" x="241.42" y="596.869" width="67.4365" height="43.3526" filterUnits="userSpaceOnUse" color-interpolation-filters="sRGB">
<feFlood flood-opacity="0" result="BackgroundImageFix"/>
<feColorMatrix in="SourceAlpha" type="matrix" values="0 0 0 0 0 0 0 0 0 0 0 0 0 0 0 0 0 0 127 0" result="hardAlpha"/>
<feOffset/>
<feGaussianBlur stdDeviation="2.40845"/>
<feComposite in2="hardAlpha" operator="out"/>
<feColorMatrix type="matrix" values="0 0 0 0 0 0 0 0 0 0 0 0 0 0 0 0 0 0 0.05 0"/>
<feBlend mode="normal" in2="BackgroundImageFix" result="effect1_dropShadow_6885_30779"/>
<feBlend mode="normal" in="SourceGraphic" in2="effect1_dropShadow_6885_30779" result="shape"/>
</filter>
<linearGradient id="paint0_linear_6885_30779" x1="103.452" y1="137.752" x2="45.4739" y2="200.276" gradientUnits="userSpaceOnUse">
<stop stop-color="#D4E2FF"/>
<stop offset="1" stop-color="#BCD4FF"/>
</linearGradient>
<linearGradient id="paint1_linear_6885_30779" x1="14.0539" y1="5.19088" x2="59.8247" y2="66.4158" gradientUnits="userSpaceOnUse">
<stop stop-color="#D4E2FF"/>
<stop offset="1" stop-color="#BCD4FF"/>
</linearGradient>
<linearGradient id="paint2_linear_6885_30779" x1="197.5" y1="590.367" x2="197.701" y2="660.985" gradientUnits="userSpaceOnUse">
<stop stop-color="white" stop-opacity="0"/>
<stop offset="1" stop-color="white"/>
</linearGradient>
<clipPath id="clip0_6885_30779">
<rect x="80.0156" y="186.83" width="236.63" height="532.17" rx="22" fill="white"/>
</clipPath>
</defs>
</svg>
