<svg width="394" height="610" viewBox="0 0 394 610" fill="none" xmlns="http://www.w3.org/2000/svg">
<rect x="1.01611" width="392" height="610" fill="white"/>
<ellipse cx="221.016" cy="466.5" rx="152" ry="142.5" fill="url(#paint0_radial_3089_8772)" fill-opacity="0.58"/>
<rect x="-33.9839" y="301" width="177.652" height="105.387" rx="52.6935" fill="#E0EAFF"/>
<ellipse cx="90.9749" cy="354.694" rx="45.6677" ry="45.6677" transform="rotate(-180 90.9749 354.694)" fill="#5F8FFC"/>
<path d="M114.938 382.131C115.025 383.861 113.645 385.309 111.915 385.309H70.4155C68.6711 385.309 67.2831 383.836 67.395 382.094L67.9875 375.17C68.35 369.349 70.8319 364.139 74.6521 360.271C78.8824 355.98 84.7598 353.339 91.2234 353.339C97.687 353.339 103.084 355.771 107.271 359.753C107.407 359.881 107.542 360.014 107.677 360.146C111.629 364.095 114.178 369.465 114.474 375.458L114.94 382.129L114.938 382.131Z" fill="url(#paint1_linear_3089_8772)"/>
<path d="M101.821 355.889L103.52 385.31H77.4244L79.1232 356.678C80.3978 355.874 81.754 355.196 83.1755 354.657V363.706C83.1755 364.158 83.5344 364.524 83.9769 364.524H96.9657C97.4083 364.524 97.7672 364.158 97.7672 363.706V354.195C99.1784 354.628 100.535 355.198 101.819 355.891L101.821 355.889Z" fill="url(#paint2_linear_3089_8772)"/>
<path d="M106.194 335.963C106.613 337.541 106.836 339.211 106.836 340.939C106.836 342.667 106.613 344.337 106.194 345.917C106.366 345.94 106.542 345.952 106.718 345.952C109.25 345.952 111.303 343.709 111.303 340.941C111.303 338.173 109.25 335.93 106.718 335.93C106.542 335.93 106.366 335.942 106.194 335.967V335.963Z" fill="url(#paint3_linear_3089_8772)"/>
<path d="M76.5111 336.163C76.0926 337.742 75.8689 339.411 75.8689 341.139C75.8689 342.867 76.0926 344.537 76.5111 346.117C76.3392 346.14 76.1631 346.153 75.987 346.153C73.4554 346.153 71.4024 343.909 71.4024 341.141C71.4024 338.374 73.4554 336.13 75.987 336.13C76.1631 336.13 76.3392 336.142 76.5111 336.167V336.163Z" fill="url(#paint4_linear_3089_8772)"/>
<path d="M107.361 340.938C107.361 350.339 100.138 357.959 91.2251 357.959C82.3128 357.959 75.0868 350.337 75.0868 340.938C75.0868 339.567 75.2401 338.234 75.5322 336.956C77.2289 329.475 83.6097 323.915 91.2231 323.915C98.8365 323.915 105.217 329.477 106.912 336.958C107.206 338.234 107.357 339.569 107.357 340.938H107.361Z" fill="white"/>
<path d="M107.137 334.21C104.431 327.516 98.3341 323.077 91.3981 323.077C84.4622 323.077 78.6698 327.299 75.8647 333.713C75.7301 334.019 75.4317 334.21 75.1085 334.21H71.5846C71.1185 334.21 70.7415 334.591 70.7415 335.065C70.7415 335.302 70.8368 335.515 70.988 335.67C71.1434 335.824 71.3547 335.921 71.5846 335.921H106.565C107.149 335.921 107.555 335.316 107.346 334.751C107.28 334.568 107.209 334.388 107.137 334.21Z" fill="url(#paint5_linear_3089_8772)"/>
<path d="M95.5523 333.931H78.4704C78.3286 333.931 78.2136 334.046 78.2136 334.188V334.207C78.2136 334.349 78.3286 334.464 78.4704 334.464H95.5523C95.6941 334.464 95.8091 334.349 95.8091 334.207V334.188C95.8091 334.046 95.6941 333.931 95.5523 333.931Z" fill="#CDCDCD"/>
<circle cx="18.7097" cy="354.693" r="45.6677" fill="white"/>
<path d="M18.2483 358.749C21.0395 358.749 23.3023 356.617 23.3023 353.988C23.3023 351.358 21.0395 349.227 18.2483 349.227C15.457 349.227 13.1942 351.358 13.1942 353.988C13.1942 356.617 15.457 358.749 18.2483 358.749Z" fill="#78F5BE"/>
<path d="M8.18975 355.968H-4.23604C-5.09454 355.968 -5.76623 356.711 -5.67872 357.565L-3.34212 380.697C-3.26644 381.437 -2.64441 382.002 -1.89943 382.002H18.2788C19.0238 382.002 19.6482 381.439 19.7215 380.697L22.0581 357.565C22.1456 356.711 21.4741 355.968 20.6155 355.968H8.18975Z" fill="url(#paint6_linear_3089_8772)"/>
<path d="M-1.71981 356.374C0.671773 356.374 2.61055 354.774 2.61055 352.801C2.61055 350.827 0.671773 349.227 -1.71981 349.227C-4.11139 349.227 -6.05005 350.827 -6.05005 352.801C-6.05005 354.774 -4.11139 356.374 -1.71981 356.374Z" fill="#78F5BE"/>
<path d="M4.12091 355.195C7.57179 355.195 10.3693 352.682 10.3693 349.582C10.3693 346.483 7.57179 343.97 4.12091 343.97C0.67003 343.97 -2.12744 346.483 -2.12744 349.582C-2.12744 352.682 0.67003 355.195 4.12091 355.195Z" fill="#78F5BE"/>
<path d="M11.1715 356.943C14.4225 356.943 17.058 354.575 17.058 351.654C17.058 348.734 14.4225 346.366 11.1715 346.366C7.92043 346.366 5.28491 348.734 5.28491 351.654C5.28491 354.575 7.92043 356.943 11.1715 356.943Z" fill="#78F5BE"/>
<path d="M23.3108 352.186H-6.93769C-7.46276 352.186 -7.88843 352.612 -7.88843 353.137V356.914C-7.88843 357.439 -7.46276 357.864 -6.93769 357.864H23.3108C23.8359 357.864 24.2616 357.439 24.2616 356.914V353.137C24.2616 352.612 23.8359 352.186 23.3108 352.186Z" fill="#FA9EFA"/>
<path d="M9.10872 350.611C10.5951 350.611 11.8002 349.406 11.8002 347.92C11.8002 346.433 10.5951 345.229 9.10872 345.229C7.62231 345.229 6.41736 346.433 6.41736 347.92C6.41736 349.406 7.62231 350.611 9.10872 350.611Z" fill="#78F5BE"/>
<path d="M8.18926 357.038C9.20807 357.038 10.0339 356.212 10.0339 355.193C10.0339 354.175 9.20807 353.349 8.18926 353.349C7.17046 353.349 6.34448 354.175 6.34448 355.193C6.34448 356.212 7.17046 357.038 8.18926 357.038Z" fill="#E5E5E5"/>
<path d="M8.18893 356.115C8.69833 356.115 9.11126 355.702 9.11126 355.192C9.11126 354.683 8.69833 354.27 8.18893 354.27C7.67952 354.27 7.26648 354.683 7.26648 355.192C7.26648 355.702 7.67952 356.115 8.18893 356.115Z" fill="#AFAFAF"/>
<path d="M16.6304 356.679C18.1169 356.679 19.3218 355.474 19.3218 353.988C19.3218 352.501 18.1169 351.296 16.6304 351.296C15.144 351.296 13.9391 352.501 13.9391 353.988C13.9391 355.474 15.144 356.679 16.6304 356.679Z" fill="#78F5BE"/>
<path d="M19.3218 351.353H13.9391V354.139H19.3218V351.353Z" fill="#78F5BE"/>
<path d="M8.37147 355.218L8.11401 355.418C7.84103 355.631 7.79226 356.025 8.00507 356.298L20.8549 372.781C21.0678 373.054 21.4615 373.102 21.7344 372.889L21.9919 372.689C22.2649 372.476 22.3137 372.082 22.1009 371.809L9.25105 355.327C9.03823 355.054 8.64445 355.005 8.37147 355.218Z" fill="#E5E5E5"/>
<path d="M43.8369 383.297H12.011C11.4386 383.297 11.0343 382.727 11.214 382.174L13.7068 374.535C13.8203 374.185 14.1395 373.951 14.5014 373.951H41.3467C41.7086 373.951 42.0302 374.185 42.1438 374.535L44.634 382.174C44.8137 382.727 44.4092 383.297 43.8369 383.297Z" fill="url(#paint7_linear_3089_8772)"/>
<path d="M28.0911 375.352H27.7552V383.296H28.0911V375.352Z" fill="#1BEAA5"/>
<path d="M31.6557 383.296H31.3176L30.6245 375.38L30.9606 375.352L31.6557 383.296Z" fill="#1BEAA5"/>
<path d="M35.0893 383.297H34.7509L33.7814 375.402L34.1149 375.362L35.0893 383.297Z" fill="#1BEAA5"/>
<path d="M38.4941 383.293H38.1536L36.7393 375.274L37.0705 375.217L38.4941 383.293Z" fill="#1BEAA5"/>
<path d="M42.1841 383.296H41.834L39.6653 375.208L39.9916 375.121L42.1841 383.296Z" fill="#1BEAA5"/>
<path d="M24.3406 383.296H24.6787L25.3716 375.38L25.0358 375.352L24.3406 383.296Z" fill="#1BEAA5"/>
<path d="M20.905 383.297H21.2432L22.2128 375.402L21.8793 375.362L20.905 383.297Z" fill="#1BEAA5"/>
<path d="M17.4998 383.293H17.8404L19.2547 375.274L18.9235 375.217L17.4998 383.293Z" fill="#1BEAA5"/>
<path d="M13.8104 383.296H14.1604L16.3291 375.208L16.0028 375.121L13.8104 383.296Z" fill="#1BEAA5"/>
<path d="M28.5586 327.092H27.2885C26.8875 327.092 26.5624 327.417 26.5624 327.818V372.273C26.5624 372.674 26.8875 372.999 27.2885 372.999H28.5586C28.9595 372.999 29.2847 372.674 29.2847 372.273V327.818C29.2847 327.417 28.9595 327.092 28.5586 327.092Z" fill="#4D83FD"/>
<path d="M29.5406 371.761H26.3075C26.0567 371.761 25.8534 371.964 25.8534 372.215V373.378C25.8534 373.629 26.0567 373.832 26.3075 373.832H29.5406C29.7914 373.832 29.9947 373.629 29.9947 373.378V372.215C29.9947 371.964 29.7914 371.761 29.5406 371.761Z" fill="#A6C6FF"/>
<path d="M42.5835 372.788H13.2644C13.0084 372.788 12.8009 372.996 12.8009 373.252V375.047C12.8009 375.303 13.0084 375.51 13.2644 375.51H42.5835C42.8395 375.51 43.047 375.303 43.047 375.047V373.252C43.047 372.996 42.8395 372.788 42.5835 372.788Z" fill="#4D83FD"/>
<rect x="62.0161" y="183" width="177.652" height="105.387" rx="52.6935" fill="#E0EAFF"/>
<ellipse cx="186.975" cy="236.698" rx="45.6677" ry="45.6677" transform="rotate(-180 186.975 236.698)" fill="#5F8FFC"/>
<path d="M210.938 264.136C211.025 265.866 209.645 267.314 207.915 267.314H166.415C164.671 267.314 163.283 265.841 163.395 264.099L163.987 257.175C164.35 251.354 166.832 246.143 170.652 242.276C174.882 237.985 180.76 235.344 187.223 235.344C193.687 235.344 199.084 237.776 203.271 241.758C203.407 241.886 203.542 242.019 203.677 242.151C207.629 246.1 210.178 251.47 210.474 257.463L210.94 264.134L210.938 264.136Z" fill="url(#paint8_linear_3089_8772)"/>
<path d="M197.821 237.893L199.52 267.313H173.424L175.123 238.681C176.398 237.878 177.754 237.2 179.175 236.661V245.71C179.175 246.161 179.534 246.528 179.977 246.528H192.966C193.408 246.528 193.767 246.161 193.767 245.71V236.199C195.178 236.632 196.534 237.202 197.819 237.895L197.821 237.893Z" fill="url(#paint9_linear_3089_8772)"/>
<path d="M202.194 217.967C202.613 219.545 202.836 221.215 202.836 222.943C202.836 224.671 202.613 226.34 202.194 227.921C202.366 227.944 202.542 227.956 202.718 227.956C205.25 227.956 207.303 225.713 207.303 222.945C207.303 220.177 205.25 217.934 202.718 217.934C202.542 217.934 202.366 217.946 202.194 217.971V217.967Z" fill="url(#paint10_linear_3089_8772)"/>
<path d="M172.511 218.168C172.093 219.747 171.869 221.416 171.869 223.144C171.869 224.872 172.093 226.542 172.511 228.122C172.339 228.145 172.163 228.158 171.987 228.158C169.456 228.158 167.402 225.914 167.402 223.146C167.402 220.378 169.456 218.135 171.987 218.135C172.163 218.135 172.339 218.147 172.511 218.172V218.168Z" fill="url(#paint11_linear_3089_8772)"/>
<path d="M203.362 222.943C203.362 232.344 196.138 239.964 187.225 239.964C178.313 239.964 171.087 232.342 171.087 222.943C171.087 221.571 171.24 220.239 171.532 218.961C173.229 211.48 179.61 205.92 187.223 205.92C194.837 205.92 201.217 211.482 202.912 218.963C203.206 220.239 203.357 221.574 203.357 222.943H203.362Z" fill="white"/>
<path d="M203.136 216.215C200.431 209.522 194.334 205.082 187.398 205.082C180.462 205.082 174.67 209.304 171.864 215.718C171.73 216.025 171.431 216.215 171.108 216.215H167.584C167.118 216.215 166.741 216.596 166.741 217.071C166.741 217.307 166.837 217.52 166.988 217.676C167.143 217.829 167.354 217.926 167.584 217.926H202.565C203.149 217.926 203.555 217.321 203.346 216.756C203.279 216.574 203.209 216.393 203.136 216.215Z" fill="url(#paint12_linear_3089_8772)"/>
<path d="M191.552 215.936H174.47C174.328 215.936 174.213 216.051 174.213 216.193V216.212C174.213 216.354 174.328 216.469 174.47 216.469H191.552C191.694 216.469 191.809 216.354 191.809 216.212V216.193C191.809 216.051 191.694 215.936 191.552 215.936Z" fill="#CDCDCD"/>
<circle cx="114.71" cy="236.697" r="45.6677" fill="white"/>
<path d="M102.68 236.916C102.683 236.861 102.688 236.805 102.688 236.748C102.688 234.726 101.048 233.086 99.0262 233.086C97.2859 233.086 95.8298 234.303 95.4576 235.93C95.0351 235.626 94.517 235.445 93.9562 235.445C92.5302 235.445 91.376 236.599 91.376 238.025C91.376 239.451 92.4296 240.497 93.7625 240.595C93.9813 242.072 95.2513 243.206 96.7904 243.206C97.8115 243.206 98.7119 242.705 99.2702 241.938C99.8109 242.421 100.523 242.715 101.305 242.715C102.997 242.715 104.37 241.342 104.37 239.65C104.37 238.453 103.681 237.419 102.68 236.914V236.916Z" fill="#E5E5E5"/>
<path d="M108.411 243.245C107.425 243.519 106.11 243.715 104.724 243.856L106.764 243.099L110.732 238.768L109.55 236.588C109.55 236.588 107.901 239.244 104.158 240.828C100.416 242.412 96.4957 241.615 96.4957 241.615C96.4957 241.615 95.042 242.075 94.9515 243.886C94.9138 244.666 95.1326 245.292 95.4168 245.77C95.3061 246.243 95.3438 246.932 95.8569 247.885C96.9886 249.99 99.7599 251.705 99.7599 251.705C103.5 253.941 105.081 253.465 105.081 253.465C105.081 253.465 105.102 254.848 106.985 256.126C108.585 257.212 109.799 256.948 109.799 256.948C109.799 256.948 111.15 258.487 114.57 258.895C117.988 259.302 120.656 258.676 120.656 258.676C120.656 258.676 121.994 259.886 123.608 259.808C125.22 259.73 125.671 258.865 125.796 258.095C125.919 257.325 125.937 255.834 124.788 255.568C124.687 255.545 128.148 249.162 128.351 248.229C129.581 242.641 120.782 239.812 108.416 243.245H108.411Z" fill="#2BEF91"/>
<path d="M130.638 250.899C128.709 254.606 126.685 257.405 125.228 259.231C125.193 258.874 125.075 258.147 124.58 257.403C124.539 257.342 124.502 257.287 124.461 257.232C124.021 256.641 123.4 256.211 122.714 255.959L121.243 255.416C121.243 255.416 123.496 254.805 125.405 252.149C127.653 249.031 127.655 247.233 127.678 247.094C127.608 247.293 126.471 250.376 124.145 252.632C121.509 255.187 117.189 255.323 117.189 255.323C117.189 255.323 115.468 255.501 112.984 254.692C111.289 254.141 110.33 253.13 110.33 253.13C110.33 253.13 108.977 252.999 107.999 252.655C107.023 252.313 106.417 251.302 106.417 251.302C106.417 251.302 108.96 250.783 111.178 248.568C113.997 245.744 114.545 243.07 114.545 243.07C114.545 243.07 113.263 245.485 110.318 247.552C107.142 249.78 104.265 249.747 104.265 249.747C104.265 249.747 101.32 248.895 99.6272 247.524C97.9322 246.151 96.9715 244.212 96.9715 244.212C96.9715 244.212 96.9992 243.367 97.0394 242.638C97.0922 241.697 96.4409 241.612 96.4409 241.612C96.4409 241.612 99.8007 241.333 103.789 240.216C107.778 239.102 108.859 235.594 108.859 235.594L111.14 236.165C111.14 236.165 111.022 236.519 110.793 237.08L132.949 242.781C133.191 245.18 133.022 246.327 130.643 250.899H130.638Z" fill="url(#paint13_linear_3089_8772)"/>
<g opacity="0.88">
<path d="M108.653 263.986L108.66 263.997C108.66 263.997 104.561 264.208 102.489 263.997C102.484 263.997 102.479 263.997 102.476 263.997C102.449 263.997 102.421 263.997 102.393 263.997C101.709 263.997 101.081 263.732 100.61 263.305C99.8507 263.73 98.9807 263.969 98.0502 263.969C97.1197 263.969 96.2043 263.715 95.4348 263.275C94.4565 263.74 93.3599 263.997 92.2056 263.997C88.0385 263.997 84.661 260.616 84.661 256.449C84.661 253.457 86.4039 250.869 88.9288 249.649C89.7864 247.658 91.7705 246.262 94.0766 246.262C95.5403 246.262 96.8732 246.823 97.8716 247.743C98.533 247.429 99.2749 247.253 100.054 247.253C102.876 247.253 105.167 249.541 105.167 252.365C105.167 252.773 105.119 253.168 105.026 253.547C106.606 254.151 107.725 255.682 107.725 257.478C107.725 257.976 107.639 258.451 107.478 258.896C107.778 258.778 108.102 258.713 108.442 258.713C109.903 258.713 111.082 259.895 111.082 261.356C111.082 262.817 110.013 263.883 108.65 263.986H108.653Z" fill="url(#paint14_linear_3089_8772)"/>
</g>
<path d="M137.629 210.164L124.275 239.336C123.842 240.282 122.67 240.664 121.659 240.191C120.648 239.716 120.181 238.564 120.613 237.619L133.967 208.446C134.4 207.501 135.572 207.119 136.583 207.591C137.594 208.067 138.061 209.219 137.629 210.164Z" fill="#4D83FD"/>
<path d="M128.583 239.148L117.787 234.076C116.959 233.686 116.6 232.693 116.984 231.855C117.369 231.018 118.35 230.653 119.177 231.043L129.974 236.115C130.801 236.505 131.161 237.499 130.776 238.336C130.391 239.174 129.41 239.538 128.583 239.148Z" fill="#85B1FF"/>
<path d="M132.26 248.48L108.1 237.128C107.805 236.99 107.68 236.638 107.815 236.341C109.583 232.483 114.105 230.806 117.915 232.596L129.34 237.965C133.15 239.756 134.805 244.336 133.037 248.193C132.901 248.49 132.551 248.621 132.26 248.483V248.48Z" fill="#4D83FD"/>
<rect x="249.668" y="183" width="177.652" height="105.387" rx="52.6935" fill="#E0EAFF"/>
<ellipse cx="374.627" cy="236.696" rx="45.6677" ry="45.6677" transform="rotate(-180 374.627 236.696)" fill="#5F8FFC"/>
<path d="M398.59 264.134C398.677 265.864 397.298 267.312 395.568 267.312H354.068C352.323 267.312 350.935 265.839 351.047 264.097L351.64 257.174C352.002 251.352 354.484 246.142 358.304 242.274C362.535 237.984 368.412 235.342 374.876 235.342C381.339 235.342 386.736 237.774 390.923 241.756C391.06 241.885 391.194 242.017 391.329 242.15C395.282 246.098 397.83 251.468 398.126 257.462L398.592 264.132L398.59 264.134Z" fill="url(#paint15_linear_3089_8772)"/>
<path d="M385.474 237.891L387.172 267.312H361.077L362.775 238.68C364.05 237.877 365.406 237.199 366.828 236.66V245.708C366.828 246.16 367.187 246.526 367.629 246.526H380.618C381.06 246.526 381.419 246.16 381.419 245.708V236.198C382.831 236.631 384.187 237.201 385.472 237.893L385.474 237.891Z" fill="url(#paint16_linear_3089_8772)"/>
<path d="M389.846 217.965C390.265 219.544 390.489 221.214 390.489 222.941C390.489 224.669 390.265 226.339 389.846 227.92C390.018 227.942 390.194 227.955 390.371 227.955C392.902 227.955 394.955 225.711 394.955 222.944C394.955 220.176 392.902 217.932 390.371 217.932C390.194 217.932 390.018 217.945 389.846 217.969V217.965Z" fill="url(#paint17_linear_3089_8772)"/>
<path d="M360.164 218.164C359.745 219.743 359.521 221.413 359.521 223.141C359.521 224.868 359.745 226.538 360.164 228.119C359.992 228.142 359.816 228.154 359.639 228.154C357.108 228.154 355.055 225.91 355.055 223.143C355.055 220.375 357.108 218.131 359.639 218.131C359.816 218.131 359.992 218.144 360.164 218.169V218.164Z" fill="url(#paint18_linear_3089_8772)"/>
<path d="M391.014 222.939C391.014 232.341 383.79 239.96 374.878 239.96C365.965 239.96 358.739 232.339 358.739 222.939C358.739 221.568 358.893 220.236 359.185 218.958C360.881 211.477 367.262 205.917 374.876 205.917C382.489 205.917 388.87 211.479 390.564 218.96C390.859 220.236 391.01 221.57 391.01 222.939H391.014Z" fill="white"/>
<path d="M390.789 216.214C388.083 209.52 381.986 205.081 375.05 205.081C368.114 205.081 362.322 209.303 359.517 215.717C359.382 216.023 359.084 216.214 358.761 216.214H355.237C354.771 216.214 354.394 216.595 354.394 217.069C354.394 217.306 354.489 217.519 354.64 217.674C354.795 217.828 355.007 217.925 355.237 217.925H390.217C390.801 217.925 391.207 217.32 390.998 216.754C390.932 216.572 390.861 216.392 390.789 216.214Z" fill="url(#paint19_linear_3089_8772)"/>
<path d="M379.204 215.934H362.123C361.981 215.934 361.866 216.049 361.866 216.191V216.21C361.866 216.352 361.981 216.467 362.123 216.467H379.204C379.346 216.467 379.461 216.352 379.461 216.21V216.191C379.461 216.049 379.346 215.934 379.204 215.934Z" fill="#CDCDCD"/>
<circle cx="302.362" cy="236.697" r="45.6677" fill="white"/>
<path d="M320.019 220.482L313.582 223.326C313.422 223.397 313.241 223.4 313.077 223.335L305.627 220.381C305.446 220.309 305.306 220.161 305.246 219.974L303.359 214.143C303.294 213.941 303.333 213.718 303.46 213.546L305.844 210.407C305.951 210.265 306.114 210.173 306.293 210.152L314.611 209.216C314.783 209.195 314.955 209.245 315.092 209.352L319.502 212.865C319.678 213.005 319.77 213.225 319.746 213.445L319.523 215.525C319.517 215.593 319.52 215.665 319.535 215.733L320.4 219.742C320.465 220.045 320.308 220.351 320.025 220.479L320.019 220.482Z" fill="url(#paint20_linear_3089_8772)"/>
<path d="M301.626 216.477L299.065 225.22C299.002 225.437 298.848 225.613 298.643 225.705L289.189 229.919C288.96 230.02 288.684 230.011 288.44 229.892L280.77 226.156C280.503 226.026 280.304 225.779 280.238 225.497L279.023 220.287C278.966 220.052 279.011 219.812 279.142 219.627L285.296 210.917C285.424 210.736 285.623 210.62 285.852 210.596L293.279 209.767C293.573 209.734 293.879 209.856 294.09 210.088L296.06 212.266C296.125 212.337 296.203 212.4 296.286 212.453L301.186 215.428C301.558 215.654 301.742 216.091 301.629 216.477H301.626Z" fill="url(#paint21_linear_3089_8772)"/>
<path d="M310.408 219.358C310.067 221.468 308.402 223.189 306.298 223.584C305.276 223.778 304.295 223.67 303.425 223.332C302.471 222.96 301.395 223.052 300.548 223.626C299.722 224.185 298.726 224.511 297.653 224.511C295.647 224.511 293.912 223.373 293.056 221.709H294.907C295.104 221.709 295.276 221.564 295.3 221.367L295.487 220.116C295.517 219.929 295.407 219.745 295.228 219.682L292.346 218.648C292.233 218.606 292.147 218.523 292.105 218.41L291.27 216.128C291.228 216.015 291.136 215.929 291.023 215.887L288.836 215.135C288.673 215.079 288.569 214.909 288.61 214.74C289.065 212.865 290.765 211.429 292.741 211.382C293.734 211.358 294.652 211.664 295.395 212.199C296.025 209.441 298.486 207.385 301.431 207.385C304.857 207.385 307.63 210.161 307.63 213.584C307.63 213.679 307.621 213.771 307.618 213.866C309.55 214.838 310.792 216.978 310.406 219.361L310.408 219.358Z" fill="url(#paint22_linear_3089_8772)"/>
<path d="M321.749 223.753L307 231.994C305.868 232.627 304.441 232.226 303.808 231.094C303.466 230.485 303.428 229.786 303.648 229.174C303.012 229.04 302.438 228.639 302.096 228.027C301.755 227.415 301.716 226.713 301.939 226.104C301.303 225.973 300.726 225.575 300.385 224.963C299.752 223.831 300.156 222.404 301.288 221.771L316.037 213.53C318.376 212.223 321.229 212.692 323.036 214.499L324.777 213.527L326.388 216.413L324.62 217.403C325.155 219.854 324.055 222.473 321.749 223.759V223.753Z" fill="#E5E5E5"/>
<path d="M327.131 216.23L325.309 212.968C325.266 212.891 325.168 212.863 325.09 212.906L323.453 213.821C323.376 213.864 323.348 213.962 323.392 214.039L325.213 217.301C325.257 217.378 325.354 217.406 325.432 217.362L327.069 216.448C327.146 216.405 327.174 216.307 327.131 216.23Z" fill="url(#paint23_linear_3089_8772)"/>
<path d="M315.34 213.921L302.99 220.82L308.702 231.045L321.052 224.146L315.34 213.921Z" fill="url(#paint24_linear_3089_8772)"/>
<path d="M308.307 220.282L299.469 216.377C299.249 216.279 299 216.276 298.777 216.365L288.548 220.425C288.298 220.523 288.108 220.728 288.025 220.983L285.43 228.987C285.341 229.266 285.392 229.572 285.57 229.807L288.842 234.116C288.99 234.312 289.213 234.437 289.457 234.464L300.878 235.75C301.115 235.777 301.35 235.709 301.538 235.56L307.594 230.737C307.835 230.547 307.96 230.244 307.927 229.941L307.621 227.085C307.612 226.99 307.615 226.894 307.636 226.799L308.822 221.296C308.911 220.88 308.697 220.457 308.307 220.285V220.282Z" fill="#D1D1D1"/>
<path d="M322.415 224.396L319.13 263.609L318.827 267.193C318.712 268.566 317.757 269.609 316.613 269.609H285.659C284.515 269.609 283.561 268.566 283.445 267.193L283.142 263.609L279.858 224.396C279.727 222.815 280.753 221.441 282.072 221.441H320.2C321.517 221.441 322.545 222.815 322.415 224.396Z" fill="url(#paint25_linear_3089_8772)"/>
<path d="M324.32 221.441H277.95C277.256 221.441 276.693 222.004 276.693 222.699V225.715C276.693 226.409 277.256 226.972 277.95 226.972H324.32C325.014 226.972 325.576 226.409 325.576 225.715V222.699C325.576 222.004 325.014 221.441 324.32 221.441Z" fill="#A6C6FF"/>
<path d="M301.297 230.096H301.21C301.056 230.096 300.931 230.221 300.931 230.375V260.334C300.931 260.488 301.056 260.613 301.21 260.613H301.297C301.451 260.613 301.576 260.488 301.576 260.334V230.375C301.576 230.221 301.451 230.096 301.297 230.096Z" fill="#A6C6FF"/>
<path d="M290.277 230.12C290.099 230.128 289.962 230.295 289.971 230.488L291.401 260.26C291.41 260.453 291.561 260.602 291.739 260.593C291.918 260.584 292.054 260.417 292.046 260.224L290.616 230.452C290.607 230.259 290.456 230.111 290.277 230.12Z" fill="#A6C6FF"/>
<path d="M312.124 230.12C312.302 230.128 312.438 230.295 312.43 230.488L311 260.26C310.991 260.453 310.84 260.602 310.661 260.593C310.483 260.584 310.346 260.417 310.355 260.224L311.785 230.452C311.794 230.259 311.945 230.111 312.124 230.12Z" fill="#A6C6FF"/>
<path d="M319.128 263.426L318.825 267.117C318.709 268.531 317.755 269.607 316.611 269.607H285.656C284.512 269.607 283.558 268.531 283.442 267.117L283.139 263.426H319.125H319.128Z" fill="#A6C6FF"/>
<path d="M82.8481 30.082V47.7383H80.7583V38.6953H78.8833V46.8789H76.8325V30.3945H78.8833V36.8984H80.7583V30.082H82.8481ZM75.0942 31.9961V43.1875H68.1606V31.9961H75.0942ZM70.1919 33.7148V41.4688H73.063V33.7148H70.1919ZM99.6255 30.082V47.7383H97.4771V30.082H99.6255ZM88.063 31.8008V41.4492C90.5435 41.4102 93.1802 41.1855 95.895 40.6484L96.1685 42.4648C93.063 43.1094 90.1724 43.3047 87.438 43.3047H85.9146V31.8008H88.063ZM116.989 30.082V47.7578H114.821V38.1094H111.422V36.332H114.821V30.082H116.989ZM108.668 34.7695C108.668 37.8164 110.309 41.0586 113.161 42.2891L111.872 44.0273C109.821 43.0508 108.356 41.0879 107.594 38.7539C106.803 41.2441 105.309 43.3438 103.258 44.3789L101.95 42.6797C104.782 41.3516 106.442 37.9922 106.461 34.7695V33.5977H102.672V31.8203H112.458V33.5977H108.668V34.7695ZM133.766 35.082V36.8008H121.54V30.7266H123.688V35.082H133.766ZM135.583 38.8516V40.5703H119.45V38.8516H135.583ZM133.883 45.5703V47.3281H121.383V42.1328H123.551V45.5703H133.883ZM148.2 33.1484C148.2 35.3359 149.704 37.5039 152.516 38.3828L151.403 40.0625C149.401 39.4277 147.946 38.0898 147.145 36.4102C146.344 38.2363 144.85 39.6914 142.75 40.3945L141.637 38.7148C144.469 37.7578 145.993 35.4531 146.012 33.1484V32.9336H142.204V31.1953H151.911V32.9336H148.2V33.1484ZM156.208 30.082V40.7266H154.02V30.082H156.208ZM156.208 41.5469V47.7383H154.02V43.3047H144.157V41.5469H156.208ZM173.571 30.082V39.7109H171.403V35.9414H168.356V34.1445H171.403V30.082H173.571ZM164.098 40.4531V42.2891H171.403V40.4531H173.571V47.5234H161.93V40.4531H164.098ZM164.098 45.7656H171.403V43.9883H164.098V45.7656ZM168.922 30.9805V32.7578H165.27C165.29 34.877 166.715 37.0645 169.43 37.9727L168.336 39.6523C166.364 38.9688 164.967 37.6406 164.196 35.9805C163.415 37.8262 161.95 39.3105 159.86 40.0234L158.747 38.3047C161.54 37.3574 163.043 35.0723 163.063 32.7578H159.391V30.9805H168.922ZM187.165 33.8516C187.165 35.7852 188.668 37.6992 191.442 38.4414L190.426 40.1211C188.385 39.5645 186.92 38.373 186.11 36.8398C185.348 38.5781 183.874 39.9453 181.774 40.5703L180.758 38.8906C183.512 38.0508 184.997 35.9805 184.997 33.8516V33.7539H181.305V32.0352H184.997V30.0039H187.184V32.0352H190.856V33.7539H187.165V33.8516ZM195.602 30.082V40.7656H193.434V36.6836H190.329V34.9258H193.434V30.082H195.602ZM189.625 41.1172C193.356 41.1172 195.661 42.3086 195.661 44.3984C195.661 46.5078 193.356 47.7188 189.625 47.7188C185.915 47.7188 183.61 46.5078 183.629 44.3984C183.61 42.3086 185.915 41.1172 189.625 41.1172ZM189.625 42.7773C187.165 42.7969 185.778 43.3438 185.778 44.3984C185.778 45.4531 187.165 46.0391 189.625 46.0391C192.125 46.0391 193.493 45.4531 193.493 44.3984C193.493 43.3438 192.125 42.7969 189.625 42.7773ZM214.235 43.793V45.5508H198.102V43.793H205.016V39.7109H207.165V43.793H214.235ZM207.223 32.4453C207.223 35.1211 209.899 37.7578 213.61 38.3438L212.672 40.1406C209.684 39.5742 207.243 37.8652 206.071 35.5508C204.899 37.8555 202.477 39.5938 199.508 40.1406L198.571 38.3438C202.262 37.7578 204.899 35.1016 204.918 32.4453V31.1562H207.223V32.4453ZM234.059 30.082V34.7305H236.52V36.5469H234.059V41.3516H231.891V30.082H234.059ZM228.356 41.5078C231.969 41.5078 234.254 42.6602 234.254 44.6133C234.254 46.5469 231.969 47.7188 228.356 47.7188C224.684 47.7188 222.438 46.5469 222.458 44.6133C222.438 42.6602 224.684 41.5078 228.356 41.5078ZM228.356 43.168C225.934 43.168 224.586 43.6367 224.606 44.6133C224.586 45.5508 225.934 46.0781 228.356 46.0781C230.739 46.0781 232.086 45.5508 232.086 44.6133C232.086 43.6367 230.739 43.168 228.356 43.168ZM230.622 31.8789V33.5781H220.153V31.8789H224.313V29.9648H226.481V31.8789H230.622ZM225.387 34.2812C227.946 34.2812 229.684 35.5508 229.704 37.4453C229.684 39.3398 227.946 40.5898 225.387 40.5898C222.809 40.5898 221.051 39.3398 221.051 37.4453C221.051 35.5508 222.809 34.2812 225.387 34.2812ZM225.387 35.8828C224.04 35.8828 223.161 36.4688 223.161 37.4453C223.161 38.4023 224.04 38.9492 225.387 38.9492C226.735 38.9492 227.633 38.4023 227.633 37.4453C227.633 36.4688 226.735 35.8828 225.387 35.8828ZM251.461 30.8047V36.9375H246.54V38.793H253.512V40.5508H237.418V38.793H244.352V36.9375H239.45V30.8047H251.461ZM241.559 32.5039V35.2188H249.313V32.5039H241.559ZM251.54 42.0352V47.7383H249.372V43.7539H239.196V42.0352H251.54ZM262.731 30.3555C266.754 30.3555 269.079 31.4297 269.098 33.3828C269.079 35.3555 266.754 36.4102 262.731 36.4297C258.708 36.4102 256.364 35.3555 256.364 33.3828C256.364 31.4297 258.708 30.3555 262.731 30.3555ZM262.731 31.957C260.036 31.957 258.629 32.4648 258.649 33.3828C258.629 34.3594 260.036 34.8086 262.731 34.8086C265.465 34.8086 266.852 34.3594 266.852 33.3828C266.852 32.4648 265.465 31.957 262.731 31.957ZM270.797 37.3672V39.1055H254.704V37.3672H270.797ZM268.786 40.2969V44.6133H258.747V45.9219H269.274V47.582H256.618V43.0703H266.657V41.8984H256.598V40.2969H268.786ZM291.52 30.082V40.5703H289.352V36.2539H286.344V34.4766H289.352V30.082H291.52ZM285.543 41.0195C289.293 41.0195 291.579 42.25 291.579 44.3789C291.579 46.5078 289.293 47.7383 285.543 47.7383C281.813 47.7383 279.528 46.5078 279.547 44.3789C279.528 42.25 281.813 41.0195 285.543 41.0195ZM285.543 42.6797C283.083 42.6797 281.696 43.2656 281.696 44.3789C281.696 45.4727 283.083 46.0586 285.543 46.0586C288.004 46.0586 289.411 45.4727 289.411 44.3789C289.411 43.2656 288.004 42.6797 285.543 42.6797ZM283.219 33.1094C283.219 35.2578 284.645 37.4258 287.379 38.3438L286.286 40.0625C284.323 39.3984 282.926 38.0508 282.165 36.3906C281.383 38.2754 279.909 39.7793 277.809 40.5312L276.676 38.8125C279.508 37.8359 281.012 35.4531 281.012 33.1289V32.9922H277.34V31.2344H286.872V32.9922H283.219V33.1094ZM307.848 30.082V37.1133H310.563V38.9102H307.848V47.7383H305.7V30.082H307.848ZM304.333 32.7969V34.5352H293.922V32.7969H298.102V30.3359H300.27V32.7969H304.333ZM299.196 35.6875C301.735 35.6875 303.629 37.4062 303.629 39.8477C303.629 42.2891 301.735 43.9883 299.196 43.9883C296.618 43.9883 294.723 42.2891 294.743 39.8477C294.723 37.4062 296.618 35.6875 299.196 35.6875ZM299.196 37.4648C297.809 37.4648 296.813 38.4023 296.813 39.8477C296.813 41.293 297.809 42.2109 299.196 42.1914C300.543 42.2109 301.54 41.293 301.559 39.8477C301.54 38.4023 300.543 37.4648 299.196 37.4648ZM325.719 31.7031V33.4023C325.7 35.5898 325.7 38.0508 325.016 41.7422L322.829 41.5078C323.512 38.0703 323.512 35.5605 323.532 33.4414H312.985V31.7031H325.719ZM327.399 43.6758V45.4531H311.305V43.6758H317.243V37.543H319.391V43.6758H327.399ZM141.686 58.1016V68.2969H139.616V58.1016H141.686ZM138.17 58.4336V68.1016H136.12V64.0781H134.225V67.125H127.272V59.3711H134.225V62.2812H136.12V58.4336H138.17ZM129.323 61.0508V65.5039H132.213V61.0508H129.323ZM141.686 69.0391V75.5234H129.792V69.0391H141.686ZM131.92 70.7383V73.7656H139.538V70.7383H131.92ZM158.678 58.082V75.7578H156.53V66.1875H152.936V71.4805H144.538V59.4492H146.725V63.8438H150.807V59.4492H152.936V64.4102H156.53V58.082H158.678ZM146.725 69.7422H150.807V65.543H146.725V69.7422ZM176.393 58.082V75.7383H174.303V58.082H176.393ZM172.76 58.3945V74.8789H170.69V66.4805H169.01C168.805 69.918 167.331 72.0469 165.143 72.0273C162.838 72.0469 161.334 69.6055 161.334 65.7188C161.334 61.832 162.838 59.4297 165.143 59.4297C167.282 59.4297 168.737 61.4219 168.991 64.7227H170.69V58.3945H172.76ZM165.143 61.4805C164.03 61.4609 163.327 62.9648 163.346 65.7188C163.327 68.4727 164.03 69.9766 165.143 69.957C166.315 69.9766 167.018 68.4727 167.018 65.7188C167.018 62.9648 166.315 61.4609 165.143 61.4805ZM193.678 58.082V75.7383H191.608V58.082H193.678ZM189.928 58.5117V74.8984H187.877V66.7734H184.733C183.698 68.8047 182.038 70.5625 179.538 72.0078L178.307 70.4648C181.969 68.3066 183.639 65.543 183.971 61.9883H179.206V60.2305H186.12C186.12 61.9395 185.915 63.541 185.436 65.0352H187.877V58.5117H189.928ZM203.073 59.7031V63.7852H205.944V59.7031H207.956V71.4609H201.022V59.7031H203.073ZM203.073 69.7031H205.944V65.5039H203.073V69.7031ZM215.709 58.082V75.7383H213.62V66.6953H211.745V74.8789H209.694V58.3945H211.745V64.8984H213.62V58.082H215.709ZM232.545 58.082V68.5703H230.377V64.2539H227.37V62.4766H230.377V58.082H232.545ZM226.569 69.0195C230.319 69.0195 232.604 70.25 232.604 72.3789C232.604 74.5078 230.319 75.7383 226.569 75.7383C222.838 75.7383 220.553 74.5078 220.573 72.3789C220.553 70.25 222.838 69.0195 226.569 69.0195ZM226.569 70.6797C224.108 70.6797 222.721 71.2656 222.721 72.3789C222.721 73.4727 224.108 74.0586 226.569 74.0586C229.03 74.0586 230.436 73.4727 230.436 72.3789C230.436 71.2656 229.03 70.6797 226.569 70.6797ZM224.245 61.1094C224.245 63.2578 225.67 65.4258 228.405 66.3438L227.311 68.0625C225.348 67.3984 223.952 66.0508 223.19 64.3906C222.409 66.2754 220.934 67.7793 218.834 68.5312L217.702 66.8125C220.534 65.8359 222.038 63.4531 222.038 61.1289V60.9922H218.366V59.2344H227.897V60.9922H224.245V61.1094ZM243.659 60.8945V62.6328H235.006V60.8945H238.288V58.5898H240.436V60.8945H243.659ZM239.362 63.5703C241.608 63.5703 243.209 65.2695 243.209 67.6719C243.209 70.1133 241.608 71.832 239.362 71.832C237.135 71.832 235.495 70.1133 235.514 67.6719C235.495 65.2695 237.135 63.5703 239.362 63.5703ZM239.362 65.3672C238.209 65.3672 237.409 66.2852 237.428 67.6719C237.409 69.0977 238.209 69.9961 239.362 69.9766C240.495 69.9961 241.295 69.0977 241.295 67.6719C241.295 66.2852 240.495 65.3672 239.362 65.3672ZM250.221 58.082V75.7383H248.151V67.1055H246.432V74.9375H244.401V58.4531H246.432V65.3477H248.151V58.082H250.221ZM268.463 71.8125V73.5898H252.331V71.8125H256.061V67.3398C254.655 66.5391 253.805 65.2793 253.815 63.707C253.795 60.8945 256.569 59.0391 260.358 59.0391C264.167 59.0391 266.94 60.8945 266.94 63.707C266.94 65.25 266.12 66.4902 264.752 67.3008V71.8125H268.463ZM260.358 60.7578C257.721 60.7578 255.924 61.8711 255.944 63.707C255.924 65.5234 257.721 66.6562 260.358 66.6562C262.995 66.6562 264.811 65.5234 264.811 63.707C264.811 61.8711 262.995 60.7578 260.358 60.7578ZM258.209 71.8125H262.545V68.1211C261.872 68.2773 261.139 68.3555 260.358 68.3555C259.596 68.3555 258.874 68.2773 258.209 68.1406V71.8125Z" fill="black"/>
<path d="M317.929 420.386C325.024 424.59 320.118 433.397 319.925 434.729L306.572 420.549C307.992 419.093 312.252 417.022 317.929 420.386Z" fill="url(#paint26_linear_3089_8772)"/>
<rect x="260.68" y="425.827" width="132.79" height="47.5532" rx="23.7766" transform="rotate(27.8903 260.68 425.827)" fill="url(#paint27_linear_3089_8772)"/>
<path d="M169.109 372.736C168.787 377.063 169.015 381.53 169.857 386.037C170.7 390.544 172.101 394.791 173.967 398.715C173.531 398.863 173.077 398.975 172.618 399.061C166.01 400.297 159.555 395.443 158.204 388.216C156.853 380.989 161.118 374.131 167.726 372.895C168.19 372.808 168.649 372.756 169.109 372.736Z" fill="url(#paint28_linear_3089_8772)"/>
<path d="M255.229 363.944C256.312 367.596 256.948 371.471 257.065 375.495C257.181 379.519 256.77 383.424 255.9 387.138C256.302 387.183 256.712 387.195 257.122 387.183C263.021 387.013 267.655 381.646 267.469 375.194C267.282 368.742 262.345 363.652 256.446 363.823C256.031 363.835 255.627 363.875 255.229 363.944Z" fill="url(#paint29_linear_3089_8772)"/>
<circle cx="214.659" cy="375.133" r="48.0018" fill="#FEE1FF"/>
<mask id="mask0_3089_8772" style="mask-type:alpha" maskUnits="userSpaceOnUse" x="166" y="327" width="97" height="97">
<circle cx="214.659" cy="375.133" r="48.0018" fill="#FEE1FF"/>
</mask>
<g mask="url(#mask0_3089_8772)">
<circle cx="175.629" cy="322.646" r="52.9366" fill="#1F00FF"/>
<circle cx="262.661" cy="315.468" r="52.9366" fill="#1F00FF"/>
</g>
<path d="M144.132 488.627C148.119 455.356 176.341 430.312 209.851 430.312H274.171V564H135.101L144.132 488.627Z" fill="url(#paint30_linear_3089_8772)"/>
<mask id="mask1_3089_8772" style="mask-type:alpha" maskUnits="userSpaceOnUse" x="197" y="430" width="40" height="80">
<rect x="197.482" y="430.313" width="39.4781" height="78.9563" fill="#D9D9D9"/>
</mask>
<g mask="url(#mask1_3089_8772)">
<path d="M234.814 485.45L222.208 442.46L232.612 432.085C233.516 431.185 233.516 429.727 232.612 428.826L220.384 416.634C219.481 415.733 218.019 415.733 217.115 416.634L204.887 428.826C203.984 429.727 203.984 431.185 204.887 432.085L215.292 442.46L202.686 485.45C202.488 486.125 202.674 486.863 203.177 487.358L217.386 501.526C218.143 502.281 219.374 502.281 220.13 501.526L234.34 487.358C234.842 486.857 235.029 486.125 234.831 485.45H234.814Z" fill="#1F00FF"/>
</g>
<rect x="245.353" y="388.144" width="63.7033" height="84.3397" rx="6.48912" transform="rotate(5.92881 245.353 388.144)" fill="#BACFFF"/>
<rect x="267.314" y="385.451" width="22.9554" height="10.2972" rx="3.89347" transform="rotate(5.92881 267.314 385.451)" fill="#4D83FD"/>
<rect x="325.379" y="429.614" width="90.8902" height="47.5532" rx="23.7766" transform="rotate(53.2591 325.379 429.614)" fill="#568BFD"/>
<path d="M319.084 426.251C327.775 437.043 332.85 450.84 317.897 462.883C302.945 474.926 290.962 466.649 282.27 455.857C273.579 445.066 276.817 432.965 287.608 424.274C298.4 415.582 310.392 415.46 319.084 426.251Z" fill="#FEE1FF"/>
<rect x="69.7085" y="444.516" width="310.18" height="128.485" fill="url(#paint31_linear_3089_8772)"/>
<rect x="-57.9839" y="183" width="110" height="105" rx="52.5" fill="#E0EAFF"/>
<defs>
<radialGradient id="paint0_radial_3089_8772" cx="0" cy="0" r="1" gradientUnits="userSpaceOnUse" gradientTransform="translate(221.016 466.5) rotate(90) scale(166.731 177.846)">
<stop offset="0.111643" stop-color="#C5D7FF" stop-opacity="0.95"/>
<stop offset="0.334773" stop-color="#CFDEFF" stop-opacity="0.785812"/>
<stop offset="0.515109" stop-color="#DDE7FF" stop-opacity="0.566618"/>
<stop offset="1" stop-color="white" stop-opacity="0"/>
</radialGradient>
<linearGradient id="paint1_linear_3089_8772" x1="91.1654" y1="391.545" x2="91.1654" y2="343.989" gradientUnits="userSpaceOnUse">
<stop offset="0.23" stop-color="#FBFBFB"/>
<stop offset="1" stop-color="#C9C9C9"/>
</linearGradient>
<linearGradient id="paint2_linear_3089_8772" x1="90.4723" y1="385.307" x2="90.4723" y2="354.193" gradientUnits="userSpaceOnUse">
<stop stop-color="#DEDEDE"/>
<stop offset="1" stop-color="#979797"/>
</linearGradient>
<linearGradient id="paint3_linear_3089_8772" x1="111.303" y1="340.937" x2="106.194" y2="340.937" gradientUnits="userSpaceOnUse">
<stop stop-color="white"/>
<stop offset="1" stop-color="#D2D2D2"/>
</linearGradient>
<linearGradient id="paint4_linear_3089_8772" x1="71.4024" y1="341.137" x2="76.5111" y2="341.137" gradientUnits="userSpaceOnUse">
<stop stop-color="white"/>
<stop offset="1" stop-color="#D2D2D2"/>
</linearGradient>
<linearGradient id="paint5_linear_3089_8772" x1="89.0696" y1="323.077" x2="89.0696" y2="335.921" gradientUnits="userSpaceOnUse">
<stop stop-color="white"/>
<stop offset="1" stop-color="#E4E4E4"/>
</linearGradient>
<linearGradient id="paint6_linear_3089_8772" x1="8.1897" y1="382.002" x2="8.1897" y2="355.968" gradientUnits="userSpaceOnUse">
<stop stop-color="#FA9EFA"/>
<stop offset="0.41" stop-color="#FA9BFA"/>
<stop offset="0.61" stop-color="#FA93FA"/>
<stop offset="0.78" stop-color="#FA86FC"/>
<stop offset="0.91" stop-color="#FA73FD"/>
<stop offset="1" stop-color="#FB64FF"/>
</linearGradient>
<linearGradient id="paint7_linear_3089_8772" x1="27.9228" y1="383.297" x2="27.9228" y2="373.951" gradientUnits="userSpaceOnUse">
<stop stop-color="#78F5BE"/>
<stop offset="0.36" stop-color="#75F4BD"/>
<stop offset="0.54" stop-color="#6DF3BB"/>
<stop offset="0.68" stop-color="#60F2B7"/>
<stop offset="0.8" stop-color="#4DF0B2"/>
<stop offset="0.91" stop-color="#35EDAC"/>
<stop offset="1" stop-color="#1BEAA5"/>
</linearGradient>
<linearGradient id="paint8_linear_3089_8772" x1="187.165" y1="273.55" x2="187.165" y2="225.994" gradientUnits="userSpaceOnUse">
<stop offset="0.23" stop-color="#FBFBFB"/>
<stop offset="1" stop-color="#C9C9C9"/>
</linearGradient>
<linearGradient id="paint9_linear_3089_8772" x1="186.472" y1="267.311" x2="186.472" y2="236.197" gradientUnits="userSpaceOnUse">
<stop stop-color="#DEDEDE"/>
<stop offset="1" stop-color="#979797"/>
</linearGradient>
<linearGradient id="paint10_linear_3089_8772" x1="207.303" y1="222.941" x2="202.194" y2="222.941" gradientUnits="userSpaceOnUse">
<stop stop-color="white"/>
<stop offset="1" stop-color="#D2D2D2"/>
</linearGradient>
<linearGradient id="paint11_linear_3089_8772" x1="167.402" y1="223.142" x2="172.511" y2="223.142" gradientUnits="userSpaceOnUse">
<stop stop-color="white"/>
<stop offset="1" stop-color="#D2D2D2"/>
</linearGradient>
<linearGradient id="paint12_linear_3089_8772" x1="185.069" y1="205.082" x2="185.069" y2="217.926" gradientUnits="userSpaceOnUse">
<stop stop-color="white"/>
<stop offset="1" stop-color="#E4E4E4"/>
</linearGradient>
<linearGradient id="paint13_linear_3089_8772" x1="108.578" y1="256.751" x2="118.474" y2="235.923" gradientUnits="userSpaceOnUse">
<stop offset="0.21" stop-color="#78F5BE"/>
<stop offset="0.37" stop-color="#74F4BB"/>
<stop offset="0.52" stop-color="#6AF1B4"/>
<stop offset="0.65" stop-color="#58EDA7"/>
<stop offset="0.77" stop-color="#3FE795"/>
<stop offset="0.9" stop-color="#20E07F"/>
</linearGradient>
<linearGradient id="paint14_linear_3089_8772" x1="100.248" y1="265.583" x2="92.188" y2="244.451" gradientUnits="userSpaceOnUse">
<stop stop-color="#D8D8D8"/>
<stop offset="0.64" stop-color="#E6E6E6"/>
<stop offset="0.9" stop-color="#EDEDED"/>
</linearGradient>
<linearGradient id="paint15_linear_3089_8772" x1="374.818" y1="273.548" x2="374.818" y2="225.993" gradientUnits="userSpaceOnUse">
<stop offset="0.23" stop-color="#FBFBFB"/>
<stop offset="1" stop-color="#C9C9C9"/>
</linearGradient>
<linearGradient id="paint16_linear_3089_8772" x1="374.125" y1="267.31" x2="374.125" y2="236.196" gradientUnits="userSpaceOnUse">
<stop stop-color="#DEDEDE"/>
<stop offset="1" stop-color="#979797"/>
</linearGradient>
<linearGradient id="paint17_linear_3089_8772" x1="394.955" y1="222.939" x2="389.846" y2="222.939" gradientUnits="userSpaceOnUse">
<stop stop-color="white"/>
<stop offset="1" stop-color="#D2D2D2"/>
</linearGradient>
<linearGradient id="paint18_linear_3089_8772" x1="355.055" y1="223.139" x2="360.164" y2="223.139" gradientUnits="userSpaceOnUse">
<stop stop-color="white"/>
<stop offset="1" stop-color="#D2D2D2"/>
</linearGradient>
<linearGradient id="paint19_linear_3089_8772" x1="372.722" y1="205.081" x2="372.722" y2="217.925" gradientUnits="userSpaceOnUse">
<stop stop-color="white"/>
<stop offset="1" stop-color="#E4E4E4"/>
</linearGradient>
<linearGradient id="paint20_linear_3089_8772" x1="313.895" y1="222.871" x2="309.657" y2="206.324" gradientUnits="userSpaceOnUse">
<stop stop-color="#B7B7B7"/>
<stop offset="0.21" stop-color="#AFAFAF"/>
<stop offset="0.52" stop-color="#9A9A9A"/>
<stop offset="0.78" stop-color="#848484"/>
</linearGradient>
<linearGradient id="paint21_linear_3089_8772" x1="293.848" y1="228.209" x2="287.069" y2="210.152" gradientUnits="userSpaceOnUse">
<stop stop-color="#B7B7B7"/>
<stop offset="0.23" stop-color="#A3A3A3"/>
<stop offset="0.66" stop-color="#848484"/>
</linearGradient>
<linearGradient id="paint22_linear_3089_8772" x1="306.527" y1="224.731" x2="295.52" y2="210.357" gradientUnits="userSpaceOnUse">
<stop offset="0.08" stop-color="#FA9EFA"/>
<stop offset="0.51" stop-color="#F986FC"/>
<stop offset="0.89" stop-color="#F86EFF"/>
</linearGradient>
<linearGradient id="paint23_linear_3089_8772" x1="324.271" y1="213.364" x2="326.249" y2="216.906" gradientUnits="userSpaceOnUse">
<stop stop-color="#78F5BE"/>
<stop offset="0.21" stop-color="#74F4BC"/>
<stop offset="0.42" stop-color="#68F3B9"/>
<stop offset="0.62" stop-color="#54F0B4"/>
<stop offset="0.82" stop-color="#39EDAD"/>
<stop offset="1" stop-color="#1BEAA5"/>
</linearGradient>
<linearGradient id="paint24_linear_3089_8772" x1="309.162" y1="217.372" x2="314.874" y2="227.597" gradientUnits="userSpaceOnUse">
<stop stop-color="#78F5BE"/>
<stop offset="0.21" stop-color="#74F4BC"/>
<stop offset="0.42" stop-color="#68F3B9"/>
<stop offset="0.62" stop-color="#54F0B4"/>
<stop offset="0.82" stop-color="#39EDAD"/>
<stop offset="1" stop-color="#1BEAA5"/>
</linearGradient>
<linearGradient id="paint25_linear_3089_8772" x1="301.136" y1="269.514" x2="301.136" y2="215.617" gradientUnits="userSpaceOnUse">
<stop stop-color="#7DACFF"/>
<stop offset="0.14" stop-color="#75A5FE"/>
<stop offset="1" stop-color="#4D83FD"/>
</linearGradient>
<linearGradient id="paint26_linear_3089_8772" x1="321.061" y1="419.798" x2="313.28" y2="427.418" gradientUnits="userSpaceOnUse">
<stop stop-color="#FEE1FF"/>
<stop offset="1" stop-color="#FABCFF"/>
</linearGradient>
<linearGradient id="paint27_linear_3089_8772" x1="327.075" y1="450.052" x2="327.075" y2="473.38" gradientUnits="userSpaceOnUse">
<stop stop-color="#3E78F4"/>
<stop offset="1" stop-color="#5086FD"/>
</linearGradient>
<linearGradient id="paint28_linear_3089_8772" x1="158.198" y1="388.217" x2="171.308" y2="385.766" gradientUnits="userSpaceOnUse">
<stop stop-color="#FEE1FF"/>
<stop offset="0.28" stop-color="#FCD4FF"/>
<stop offset="0.77" stop-color="#F9B4FF"/>
<stop offset="1" stop-color="#F8A4FF"/>
</linearGradient>
<linearGradient id="paint29_linear_3089_8772" x1="267.473" y1="375.194" x2="255.769" y2="375.533" gradientUnits="userSpaceOnUse">
<stop stop-color="#FEE1FF"/>
<stop offset="0.28" stop-color="#FCD4FF"/>
<stop offset="0.77" stop-color="#F9B4FF"/>
<stop offset="1" stop-color="#F8A4FF"/>
</linearGradient>
<linearGradient id="paint30_linear_3089_8772" x1="204.636" y1="430.312" x2="204.636" y2="573.869" gradientUnits="userSpaceOnUse">
<stop stop-color="#5287FD"/>
<stop offset="1" stop-color="#7DACFF"/>
</linearGradient>
<linearGradient id="paint31_linear_3089_8772" x1="224.798" y1="444.516" x2="225.158" y2="547.454" gradientUnits="userSpaceOnUse">
<stop stop-color="white" stop-opacity="0"/>
<stop offset="1" stop-color="white"/>
</linearGradient>
</defs>
</svg>
