<svg width="394" height="610" viewBox="0 0 394 610" fill="none" xmlns="http://www.w3.org/2000/svg">
<rect x="1.01611" width="392" height="610" fill="white"/>
<ellipse cx="214.016" cy="212.5" rx="152" ry="142.5" fill="url(#paint0_radial_3089_8758)" fill-opacity="0.26"/>
<path d="M56.3054 200.832C56.3054 192.628 62.9556 185.978 71.159 185.978H209.073C217.276 185.978 223.926 192.628 223.926 200.832V388.001H56.3054V200.832Z" fill="#E0EAFF"/>
<path d="M69.4808 203.63C69.4808 200.349 72.1409 197.689 75.4223 197.689H204.809C208.091 197.689 210.751 200.349 210.751 203.63V383.609H69.4808V203.63Z" fill="white"/>
<path d="M77.2981 262.635H202.81" stroke="#5F8FFC" stroke-opacity="0.52" stroke-width="0.742677" stroke-linecap="round" stroke-linejoin="round"/>
<path d="M77.2981 319.82H202.81" stroke="#5F8FFC" stroke-opacity="0.52" stroke-width="0.742677" stroke-linecap="round" stroke-linejoin="round"/>
<path d="M77.2981 377.008H202.81" stroke="#5F8FFC" stroke-opacity="0.52" stroke-width="0.742677" stroke-linecap="round" stroke-linejoin="round"/>
<path d="M105.059 224.798L101.755 226.258C101.672 226.294 101.58 226.296 101.496 226.262L97.6718 224.746C97.5787 224.709 97.507 224.633 97.4765 224.537L96.508 221.544C96.4745 221.441 96.4943 221.326 96.5598 221.238L97.783 219.627C97.8379 219.554 97.9219 219.507 98.0135 219.496L102.283 219.016C102.371 219.005 102.459 219.031 102.53 219.086L104.793 220.889C104.883 220.96 104.93 221.073 104.918 221.186L104.804 222.254C104.801 222.289 104.802 222.325 104.81 222.361L105.254 224.418C105.287 224.574 105.207 224.731 105.062 224.796L105.059 224.798Z" fill="url(#paint1_linear_3089_8758)"/>
<path d="M95.6181 222.741L94.3033 227.228C94.2713 227.34 94.192 227.43 94.0868 227.477L89.2348 229.64C89.1174 229.692 88.9756 229.687 88.8506 229.626L84.9139 227.709C84.7767 227.642 84.6745 227.515 84.6409 227.37L84.0169 224.696C83.988 224.576 84.0109 224.452 84.078 224.358L87.2368 219.887C87.3024 219.794 87.4046 219.735 87.5221 219.723L91.3337 219.297C91.4847 219.28 91.6417 219.343 91.75 219.462L92.7613 220.58C92.7948 220.616 92.8346 220.649 92.8773 220.676L95.3923 222.203C95.583 222.319 95.6776 222.543 95.6196 222.741H95.6181Z" fill="url(#paint2_linear_3089_8758)"/>
<path d="M100.126 224.219C99.9504 225.302 99.0962 226.186 98.0163 226.389C97.4916 226.488 96.9883 226.433 96.5414 226.259C96.0518 226.068 95.4997 226.115 95.065 226.41C94.641 226.697 94.13 226.864 93.5794 226.864C92.5498 226.864 91.6591 226.28 91.2198 225.426H92.17C92.2707 225.426 92.3592 225.351 92.3714 225.251L92.4675 224.609C92.4827 224.512 92.4263 224.418 92.3347 224.386L90.8552 223.855C90.7973 223.834 90.7531 223.791 90.7317 223.733L90.3031 222.562C90.2817 222.504 90.2346 222.459 90.1766 222.438L89.0539 222.052C88.9701 222.023 88.9167 221.936 88.9381 221.849C89.1714 220.887 90.0438 220.15 91.0581 220.126C91.5675 220.114 92.0389 220.271 92.4202 220.545C92.7436 219.13 94.0064 218.074 95.518 218.074C97.2766 218.074 98.6997 219.499 98.6997 221.256C98.6997 221.305 98.6951 221.352 98.6936 221.401C99.685 221.9 100.323 222.998 100.124 224.221L100.126 224.219Z" fill="url(#paint3_linear_3089_8758)"/>
<path d="M105.945 226.475L98.3755 230.705C97.7944 231.03 97.0622 230.824 96.7374 230.242C96.562 229.93 96.5421 229.571 96.655 229.257C96.3286 229.189 96.0343 228.983 95.8588 228.668C95.6834 228.354 95.6636 227.994 95.778 227.682C95.4516 227.614 95.1557 227.41 94.9803 227.096C94.6555 226.515 94.8629 225.783 95.444 225.458L103.014 221.228C104.214 220.557 105.678 220.798 106.606 221.725L107.5 221.227L108.326 222.708L107.419 223.216C107.693 224.474 107.129 225.818 105.945 226.478V226.475Z" fill="#E5E5E5"/>
<path d="M108.709 222.618L107.773 220.944C107.751 220.904 107.701 220.89 107.661 220.912L106.821 221.382C106.781 221.404 106.767 221.454 106.789 221.494L107.725 223.167C107.747 223.207 107.797 223.221 107.837 223.199L108.677 222.73C108.717 222.708 108.731 222.658 108.709 222.618Z" fill="url(#paint4_linear_3089_8758)"/>
<path d="M102.657 221.43L96.3184 224.971L99.25 230.218L105.588 226.677L102.657 221.43Z" fill="url(#paint5_linear_3089_8758)"/>
<path d="M99.0473 224.693L94.5113 222.689C94.3984 222.638 94.2703 222.637 94.1559 222.682L88.906 224.766C88.7778 224.816 88.6801 224.922 88.6374 225.053L87.3059 229.16C87.2602 229.304 87.2861 229.461 87.3776 229.581L89.0569 231.793C89.1331 231.894 89.2476 231.958 89.3726 231.971L95.2341 232.632C95.3562 232.646 95.4768 232.61 95.5729 232.534L98.6813 230.059C98.8049 229.961 98.8689 229.806 98.8522 229.65L98.695 228.184C98.6904 228.135 98.6919 228.086 98.7026 228.038L99.3112 225.213C99.357 224.999 99.2471 224.783 99.0473 224.694V224.693Z" fill="#D1D1D1"/>
<path d="M106.288 226.806L104.602 246.932L104.447 248.771C104.387 249.476 103.898 250.011 103.311 250.011H87.4234C86.8362 250.011 86.3467 249.476 86.2872 248.771L86.1316 246.932L84.4462 226.806C84.3791 225.995 84.9053 225.29 85.5826 225.29H105.152C105.827 225.29 106.355 225.995 106.288 226.806Z" fill="url(#paint6_linear_3089_8758)"/>
<path d="M107.265 225.29H83.4662C83.1099 225.29 82.8209 225.579 82.8209 225.935V227.483C82.8209 227.84 83.1099 228.129 83.4662 228.129H107.265C107.621 228.129 107.91 227.84 107.91 227.483V225.935C107.91 225.579 107.621 225.29 107.265 225.29Z" fill="#A6C6FF"/>
<path d="M95.4495 229.731H95.4053C95.3261 229.731 95.262 229.795 95.262 229.874V245.25C95.262 245.33 95.3261 245.394 95.4053 245.394H95.4495C95.5287 245.394 95.5929 245.33 95.5929 245.25V229.874C95.5929 229.795 95.5287 229.731 95.4495 229.731Z" fill="#A6C6FF"/>
<path d="M89.7937 229.741C89.7022 229.746 89.6321 229.831 89.6367 229.931L90.3703 245.211C90.3748 245.31 90.4526 245.386 90.5441 245.381C90.6356 245.377 90.7058 245.291 90.7012 245.192L89.9677 229.912C89.9631 229.813 89.8852 229.737 89.7937 229.741Z" fill="#A6C6FF"/>
<path d="M101.006 229.741C101.097 229.746 101.167 229.831 101.163 229.931L100.429 245.211C100.425 245.31 100.347 245.386 100.255 245.381C100.164 245.377 100.094 245.291 100.098 245.192L100.832 229.912C100.836 229.813 100.914 229.737 101.006 229.741Z" fill="#A6C6FF"/>
<path d="M104.6 246.84L104.444 248.735C104.385 249.461 103.895 250.013 103.308 250.013H87.421C86.8338 250.013 86.3441 249.461 86.2847 248.735L86.1292 246.84H104.598H104.6Z" fill="#A6C6FF"/>
<rect x="116.66" y="221.046" width="40.1046" height="10.3975" rx="1.48535" fill="#E2E2E2" fill-opacity="0.4"/>
<rect x="116.66" y="235.157" width="31.1924" height="5.19874" rx="0.742677" fill="#E2E2E2" fill-opacity="0.41"/>
<rect x="116.66" y="277.49" width="40.1046" height="10.3975" rx="1.48535" fill="#E2E2E2" fill-opacity="0.4"/>
<rect x="116.66" y="291.601" width="31.1924" height="5.19874" rx="0.742677" fill="#E2E2E2" fill-opacity="0.41"/>
<path d="M90.5092 298.751C89.9641 299.08 89.2074 299.418 88.4001 299.733L89.4956 298.938L91.1512 295.679L90.0789 294.568C90.0789 294.568 89.5338 296.437 87.5545 298.012C85.5764 299.587 83.0916 299.765 83.0916 299.765C83.0916 299.765 82.2966 300.284 82.5452 301.385C82.6518 301.859 82.8882 302.198 83.1395 302.437C83.1518 302.739 83.2897 303.146 83.7569 303.632C84.7869 304.704 86.7362 305.271 86.7362 305.271C89.3521 305.987 90.2196 305.438 90.2196 305.438C90.2196 305.438 90.4628 306.263 91.8042 306.715C92.9435 307.099 93.6278 306.738 93.6278 306.738C93.6278 306.738 94.6947 307.435 96.8135 307.109C98.9308 306.782 100.427 305.96 100.427 305.96C100.427 305.96 101.432 306.461 102.386 306.144C103.339 305.827 103.465 305.234 103.41 304.752C103.355 304.27 103.116 303.372 102.383 303.404C102.319 303.407 103.327 299.003 103.294 298.41C103.097 294.853 97.3489 294.627 90.5092 298.753V298.751Z" fill="#2BEF91"/>
<path d="M105.116 299.627C104.579 302.172 103.831 304.188 103.265 305.525C103.184 305.318 102.991 304.901 102.571 304.538C102.536 304.509 102.504 304.482 102.471 304.456C102.109 304.175 101.664 304.02 101.21 303.985L100.237 303.904C100.237 303.904 101.486 303.161 102.187 301.25C103.013 299.004 102.714 297.926 102.705 297.84C102.696 297.97 102.53 300.009 101.511 301.75C100.356 303.722 97.7895 304.526 97.7895 304.526C97.7895 304.526 96.7869 304.92 95.164 304.849C94.0562 304.802 93.3117 304.356 93.3117 304.356C93.3117 304.356 92.4784 304.504 91.8337 304.461C91.1916 304.42 90.6589 303.915 90.6589 303.915C90.6589 303.915 92.0973 303.18 93.0563 301.481C94.2748 299.317 94.1572 297.622 94.1572 297.622C94.1572 297.622 93.7911 299.283 92.3705 301.015C90.8391 302.881 89.1084 303.343 89.1084 303.343C89.1084 303.343 87.2 303.323 85.9569 302.784C84.7125 302.244 83.8109 301.243 83.8109 301.243C83.8109 301.243 83.6866 300.731 83.5882 300.287C83.4626 299.714 83.0582 299.772 83.0582 299.772C83.0582 299.772 85.0267 299.042 87.2314 297.708C89.4362 296.373 89.4991 294.089 89.4991 294.089L90.9621 294.051C90.9621 294.051 90.9498 294.283 90.9074 294.657L105.143 294.373C105.689 295.771 105.779 296.486 105.116 299.626V299.627Z" fill="url(#paint7_linear_3089_8758)"/>
<path d="M102.095 276.509L99.3455 293.894C99.2567 294.458 98.6283 294.821 97.9425 294.706C97.2568 294.592 96.7746 294.041 96.8634 293.477L99.6133 276.093C99.702 275.529 100.33 275.165 101.016 275.28C101.702 275.395 102.184 275.945 102.095 276.509Z" fill="#4D83FD"/>
<path d="M101.92 292.924L94.5997 291.687C94.0397 291.593 93.6571 291.056 93.7473 290.49C93.8375 289.925 94.3647 289.542 94.9262 289.636L102.247 290.874C102.807 290.968 103.189 291.505 103.099 292.071C103.009 292.636 102.482 293.019 101.92 292.924Z" fill="#85B1FF"/>
<path d="M105.683 297.906L89.3017 295.136C89.1022 295.102 88.967 294.912 88.9998 294.711C89.415 292.102 91.8466 290.342 94.4298 290.778L102.177 292.088C104.76 292.525 106.518 294.994 106.103 297.603C106.071 297.804 105.883 297.939 105.685 297.906H105.683Z" fill="#4D83FD"/>
<rect x="116.66" y="334.673" width="40.1046" height="10.3975" rx="1.48535" fill="#E2E2E2" fill-opacity="0.4"/>
<rect x="116.66" y="348.786" width="31.1924" height="5.19874" rx="0.742677" fill="#E2E2E2" fill-opacity="0.41"/>
<path d="M104.074 332.874L91.3837 361.336C91.2794 361.57 91.3844 361.844 91.6184 361.948L92.5092 362.345C92.7431 362.45 93.0173 362.345 93.1216 362.111L105.812 333.648C105.916 333.415 105.811 333.14 105.577 333.036L104.686 332.639C104.452 332.535 104.178 332.64 104.074 332.874Z" fill="#4D83FD"/>
<path d="M100.767 348.13C102.718 348.13 104.3 346.64 104.3 344.802C104.3 342.964 102.718 341.474 100.767 341.474C98.8157 341.474 97.2338 342.964 97.2338 344.802C97.2338 346.64 98.8157 348.13 100.767 348.13Z" fill="#78F5BE"/>
<path d="M93.7356 346.184H85.0489C84.4489 346.184 83.9794 346.703 84.0398 347.3L85.6742 363.47C85.7262 363.989 86.162 364.382 86.6834 364.382H100.788C101.308 364.382 101.745 363.989 101.797 363.47L103.431 347.3C103.492 346.703 103.022 346.184 102.422 346.184H93.7356Z" fill="url(#paint8_linear_3089_8758)"/>
<path d="M86.8081 346.469C88.48 346.469 89.8353 345.351 89.8353 343.971C89.8353 342.592 88.48 341.474 86.8081 341.474C85.1362 341.474 83.7809 342.592 83.7809 343.971C83.7809 345.351 85.1362 346.469 86.8081 346.469Z" fill="#78F5BE"/>
<path d="M90.8922 345.646C93.3046 345.646 95.2602 343.89 95.2602 341.724C95.2602 339.557 93.3046 337.801 90.8922 337.801C88.4799 337.801 86.5243 339.557 86.5243 341.724C86.5243 343.89 88.4799 345.646 90.8922 345.646Z" fill="#78F5BE"/>
<path d="M95.8191 346.862C98.0917 346.862 99.9341 345.207 99.9341 343.166C99.9341 341.125 98.0917 339.47 95.8191 339.47C93.5465 339.47 91.7041 341.125 91.7041 343.166C91.7041 345.207 93.5465 346.862 95.8191 346.862Z" fill="#78F5BE"/>
<path d="M104.407 343.538H83.0621C82.7501 343.538 82.4971 343.791 82.4971 344.103V346.941C82.4971 347.253 82.7501 347.506 83.0621 347.506H104.407C104.719 347.506 104.972 347.253 104.972 346.941V344.103C104.972 343.791 104.719 343.538 104.407 343.538Z" fill="#FA9EFA"/>
<path d="M84.4859 340.561C85.5252 340.561 86.3677 339.718 86.3677 338.679C86.3677 337.639 85.5252 336.797 84.4859 336.797C83.4466 336.797 82.604 337.639 82.604 338.679C82.604 339.718 83.4466 340.561 84.4859 340.561Z" fill="#78F5BE"/>
<path d="M94.3783 342.443C95.4176 342.443 96.2601 341.6 96.2601 340.561C96.2601 339.522 95.4176 338.679 94.3783 338.679C93.339 338.679 92.4966 339.522 92.4966 340.561C92.4966 341.6 93.339 342.443 94.3783 342.443Z" fill="#78F5BE"/>
<path d="M93.7359 346.932C94.4476 346.932 95.0246 346.355 95.0246 345.643C95.0246 344.931 94.4476 344.354 93.7359 344.354C93.0241 344.354 92.4471 344.931 92.4471 345.643C92.4471 346.355 93.0241 346.932 93.7359 346.932Z" fill="#E5E5E5"/>
<path d="M93.7356 346.29C94.0911 346.29 94.3793 346.002 94.3793 345.646C94.3793 345.291 94.0911 345.002 93.7356 345.002C93.3801 345.002 93.0919 345.291 93.0919 345.646C93.0919 346.002 93.3801 346.29 93.7356 346.29Z" fill="#AFAFAF"/>
<path d="M99.637 346.684C100.676 346.684 101.519 345.841 101.519 344.802C101.519 343.763 100.676 342.92 99.637 342.92C98.5977 342.92 97.7552 343.763 97.7552 344.802C97.7552 345.841 98.5977 346.684 99.637 346.684Z" fill="#78F5BE"/>
<path d="M101.519 342.955H97.7552V344.902H101.519V342.955Z" fill="#78F5BE"/>
<path d="M93.9168 345.607L93.633 345.829C93.4708 345.955 93.4419 346.189 93.5683 346.351L102.631 357.976C102.757 358.138 102.991 358.167 103.153 358.041L103.437 357.819C103.599 357.693 103.628 357.459 103.502 357.297L94.4394 345.672C94.313 345.51 94.079 345.481 93.9168 345.607Z" fill="#E5E5E5"/>
<circle cx="183.501" cy="348.787" r="15.5962" fill="#D9D9D9"/>
<path d="M177.567 349.096L181.729 352.217L189.532 344.934" stroke="white" stroke-width="4.33228" stroke-linecap="round" stroke-linejoin="round"/>
<circle cx="183.517" cy="291.283" r="15.5962" fill="#5F8FFC"/>
<path d="M177.583 291.594L181.745 294.716L189.548 287.433" stroke="white" stroke-width="4.33228" stroke-linecap="round" stroke-linejoin="round"/>
<circle cx="183.517" cy="233.085" r="15.5962" fill="#5F8FFC"/>
<path d="M177.583 233.397L181.745 236.518L189.548 229.235" stroke="white" stroke-width="4.33228" stroke-linecap="round" stroke-linejoin="round"/>
<path d="M161.963 175C164.014 175 165.677 176.663 165.677 178.714V181.686H169.391C171.441 181.686 173.104 183.349 173.104 185.399V200.253C173.103 202.304 171.441 203.966 169.391 203.966H112.947C110.897 203.966 109.234 202.304 109.234 200.253V185.399C109.234 183.349 110.897 181.686 112.947 181.686H116.66V178.714C116.66 176.663 118.322 175 120.373 175H161.963Z" fill="#5F8FFC"/>
<rect x="-2.98389" y="292.845" width="284.736" height="102.476" fill="url(#paint9_linear_3089_8758)"/>
<path d="M66.7993 44.1016V54.2969H64.729V44.1016H66.7993ZM63.2837 44.4336V54.1016H61.2329V50.0781H59.3384V53.125H52.3853V45.3711H59.3384V48.2812H61.2329V44.4336H63.2837ZM54.436 47.0508V51.5039H57.3267V47.0508H54.436ZM66.7993 55.0391V61.5234H54.9048V55.0391H66.7993ZM57.0337 56.7383V59.7656H64.6509V56.7383H57.0337ZM83.7915 44.082V61.7578H81.6431V52.1875H78.0493V57.4805H69.6509V45.4492H71.8384V49.8438H75.9204V45.4492H78.0493V50.4102H81.6431V44.082H83.7915ZM71.8384 55.7422H75.9204V51.543H71.8384V55.7422ZM100.569 49.082V50.8008H88.3423V44.7266H90.4907V49.082H100.569ZM102.385 52.8516V54.5703H86.2524V52.8516H102.385ZM100.686 59.5703V61.3281H88.186V56.1328H90.354V59.5703H100.686ZM117.268 45.2734V52.7148H108.909V45.2734H117.268ZM111.038 47.0508V50.9961H115.139V47.0508H111.038ZM122.229 44.082V47.9102H124.69V49.6875H122.229V53.5156H120.061V44.082H122.229ZM122.327 54.3359V55.8984H112.991V57.1289H122.151V58.6523H112.991V59.9609H122.698V61.5234H110.842V54.3359H122.327ZM141.682 53.2031V54.9414H125.588V53.2031H141.682ZM139.866 59.6289V61.3867H127.581V56.25H129.749V59.6289H139.866ZM133.616 44.6484C137.463 44.6484 139.963 45.9961 139.983 48.2227C139.963 50.4688 137.463 51.8359 133.616 51.8359C129.768 51.8359 127.249 50.4688 127.249 48.2227C127.249 45.9961 129.768 44.6484 133.616 44.6484ZM133.616 46.3867C131.057 46.3867 129.495 47.0508 129.514 48.2227C129.495 49.4141 131.057 50.0781 133.616 50.0586C136.194 50.0781 137.737 49.4141 137.737 48.2227C137.737 47.0508 136.194 46.3867 133.616 46.3867ZM153.967 47.8516C153.967 49.7852 155.471 51.6992 158.245 52.4414L157.229 54.1211C155.188 53.5645 153.723 52.373 152.913 50.8398C152.151 52.5781 150.676 53.9453 148.577 54.5703L147.561 52.8906C150.315 52.0508 151.799 49.9805 151.799 47.8516V47.7539H148.108V46.0352H151.799V44.0039H153.987V46.0352H157.659V47.7539H153.967V47.8516ZM162.405 44.082V54.7656H160.237V50.6836H157.131V48.9258H160.237V44.082H162.405ZM156.428 55.1172C160.159 55.1172 162.463 56.3086 162.463 58.3984C162.463 60.5078 160.159 61.7188 156.428 61.7188C152.717 61.7188 150.413 60.5078 150.432 58.3984C150.413 56.3086 152.717 55.1172 156.428 55.1172ZM156.428 56.7773C153.967 56.7969 152.581 57.3438 152.581 58.3984C152.581 59.4531 153.967 60.0391 156.428 60.0391C158.928 60.0391 160.295 59.4531 160.295 58.3984C160.295 57.3438 158.928 56.7969 156.428 56.7773ZM181.038 57.793V59.5508H164.905V57.793H171.819V53.7109H173.967V57.793H181.038ZM174.026 46.4453C174.026 49.1211 176.702 51.7578 180.413 52.3438L179.475 54.1406C176.487 53.5742 174.045 51.8652 172.874 49.5508C171.702 51.8555 169.28 53.5938 166.311 54.1406L165.374 52.3438C169.065 51.7578 171.702 49.1016 171.721 46.4453V45.1562H174.026V46.4453ZM198.303 52.0898V53.7305H182.17V52.0898H198.303ZM196.35 54.7852V58.8086H186.233V60.0391H196.877V61.543H184.065V57.4023H194.202V56.3086H184.045V54.7852H196.35ZM196.311 44.4727V48.457H186.37V49.6094H196.624V51.0938H184.221V47.0508H194.143V45.9766H184.163V44.4727H196.311ZM218.206 44.1016V49.2383H220.588V51.0352H218.206V56.0352H216.038V44.1016H218.206ZM204.065 53.9258C205.393 53.9258 206.926 53.916 208.518 53.8672V52.793C206.555 52.5488 205.315 51.6016 205.315 50.2148C205.315 48.5938 207.014 47.5781 209.573 47.5977C212.151 47.5781 213.831 48.5938 213.831 50.2148C213.831 51.5918 212.62 52.5293 210.686 52.7734V53.7891C212.19 53.7207 213.704 53.6035 215.12 53.418L215.295 54.9219C211.526 55.5859 207.405 55.625 204.299 55.625L204.065 53.9258ZM218.206 56.7969V61.7383H216.038V58.4961H206.292V56.7969H218.206ZM214.651 45.4883V47.0898H204.514V45.4883H208.518V43.9453H210.686V45.4883H214.651ZM209.573 49.0625C208.206 49.043 207.385 49.4531 207.405 50.2148C207.385 50.9375 208.206 51.4062 209.573 51.3867C210.94 51.4062 211.76 50.9375 211.76 50.2148C211.76 49.4531 210.94 49.043 209.573 49.0625ZM236.213 44.1016V56.8555H234.026V44.1016H236.213ZM236.702 59.6289V61.3867H224.534V55.5664H226.721V59.6289H236.702ZM226.584 45.2539C229.26 45.2539 231.331 47.1094 231.331 49.668C231.331 52.2852 229.26 54.1016 226.584 54.1016C223.889 54.1016 221.819 52.2852 221.819 49.668C221.819 47.1094 223.889 45.2539 226.584 45.2539ZM226.584 47.1484C225.081 47.1484 223.928 48.1445 223.948 49.668C223.928 51.2305 225.081 52.207 226.584 52.207C228.049 52.207 229.202 51.2305 229.202 49.668C229.202 48.1445 228.049 47.1484 226.584 47.1484ZM252.62 44.082V51.1133H255.334V52.9102H252.62V61.7383H250.471V44.082H252.62ZM249.104 46.7969V48.5352H238.694V46.7969H242.874V44.3359H245.042V46.7969H249.104ZM243.967 49.6875C246.506 49.6875 248.401 51.4062 248.401 53.8477C248.401 56.2891 246.506 57.9883 243.967 57.9883C241.389 57.9883 239.495 56.2891 239.514 53.8477C239.495 51.4062 241.389 49.6875 243.967 49.6875ZM243.967 51.4648C242.581 51.4648 241.584 52.4023 241.584 53.8477C241.584 55.293 242.581 56.2109 243.967 56.1914C245.315 56.2109 246.311 55.293 246.331 53.8477C246.311 52.4023 245.315 51.4648 243.967 51.4648ZM270.491 45.7031V47.4023C270.471 49.5898 270.471 52.0508 269.788 55.7422L267.6 55.5078C268.284 52.0703 268.284 49.5605 268.303 47.4414H257.756V45.7031H270.491ZM272.17 57.6758V59.4531H256.077V57.6758H262.014V51.543H264.163V57.6758H272.17ZM283.44 44.8438C286.018 44.8438 287.854 46.2695 287.874 48.3984C287.854 50.1465 286.536 51.4648 284.573 51.8359V53.2617C286.038 53.1836 287.512 53.0469 288.889 52.8516L289.065 54.4336C285.393 55.0977 281.292 55.1562 278.303 55.1562L278.069 53.418C279.338 53.4277 280.823 53.418 282.385 53.3594V51.8359C280.364 51.5039 279.006 50.1758 279.026 48.3984C279.006 46.2695 280.842 44.8438 283.44 44.8438ZM283.44 46.5039C282.034 46.5039 281.038 47.207 281.057 48.3984C281.038 49.5508 282.034 50.2734 283.44 50.293C284.846 50.2734 285.803 49.5508 285.823 48.3984C285.803 47.207 284.846 46.5039 283.44 46.5039ZM292.092 44.1016V49.8047H294.475V51.6016H292.092V57.5781H289.924V44.1016H292.092ZM292.717 59.6094V61.3672H280.491V56.3867H282.659V59.6094H292.717ZM311.526 57.8906V59.6875H295.393V57.8906H299.67V54.9805H297.307V49.2188H307.463V47.0508H297.268V45.293H309.612V50.957H299.475V53.2227H310.022V54.9805H307.444V57.8906H311.526ZM301.78 57.8906H305.315V54.9805H301.78V57.8906ZM321.292 46.8945V48.6328H312.639V46.8945H315.92V44.5898H318.069V46.8945H321.292ZM316.995 49.5703C319.241 49.5703 320.842 51.2695 320.842 53.6719C320.842 56.1133 319.241 57.832 316.995 57.832C314.768 57.832 313.127 56.1133 313.147 53.6719C313.127 51.2695 314.768 49.5703 316.995 49.5703ZM316.995 51.3672C315.842 51.3672 315.042 52.2852 315.061 53.6719C315.042 55.0977 315.842 55.9961 316.995 55.9766C318.127 55.9961 318.928 55.0977 318.928 53.6719C318.928 52.2852 318.127 51.3672 316.995 51.3672ZM327.854 44.082V61.7383H325.784V53.1055H324.065V60.9375H322.034V44.4531H324.065V51.3477H325.784V44.082H327.854ZM346.096 57.8125V59.5898H329.963V57.8125H333.694V53.3398C332.288 52.5391 331.438 51.2793 331.448 49.707C331.428 46.8945 334.202 45.0391 337.991 45.0391C341.799 45.0391 344.573 46.8945 344.573 49.707C344.573 51.25 343.752 52.4902 342.385 53.3008V57.8125H346.096ZM337.991 46.7578C335.354 46.7578 333.557 47.8711 333.577 49.707C333.557 51.5234 335.354 52.6562 337.991 52.6562C340.627 52.6562 342.444 51.5234 342.444 49.707C342.444 47.8711 340.627 46.7578 337.991 46.7578ZM335.842 57.8125H340.178V54.1211C339.504 54.2773 338.772 54.3555 337.991 54.3555C337.229 54.3555 336.506 54.2773 335.842 54.1406V57.8125Z" fill="black"/>
<rect x="241.823" y="454.948" width="35.5106" height="79.0218" rx="17.7553" transform="rotate(47.4071 241.823 454.948)" fill="#FEE1FF"/>
<rect x="235.202" y="507.869" width="37.2967" height="86.3297" rx="18.6484" transform="rotate(132.043 235.202 507.869)" fill="#FEE1FF"/>
<path d="M176.392 456.671C183.695 459.083 187.66 466.959 185.247 474.262L181.504 485.595C178.036 496.094 166.714 501.794 156.216 498.326L135.234 491.395C130.213 489.737 127.488 484.322 129.146 479.301L134.255 463.835C137.722 453.337 149.044 447.637 159.543 451.105L176.392 456.671Z" fill="#FEE1FF"/>
<path d="M275.469 442.264C284.088 451.122 283.895 465.29 275.037 473.909L240.103 507.9L208.89 475.823L243.825 441.831C252.683 433.212 266.85 433.406 275.469 442.264Z" fill="url(#paint10_linear_3089_8758)"/>
<circle cx="250.956" cy="364.712" r="15.9533" fill="url(#paint11_linear_3089_8758)"/>
<circle cx="323.379" cy="394.592" r="15.9533" transform="rotate(-180 323.379 394.592)" fill="url(#paint12_linear_3089_8758)"/>
<path d="M231.038 466.561C233.541 446.254 250.79 431 271.25 431H299.829C320.128 431 337.294 446.021 339.988 466.141L352.016 556H220.016L231.038 466.561Z" fill="url(#paint13_linear_3089_8758)"/>
<rect x="302.895" y="488.215" width="40.0388" height="79.0218" transform="rotate(-12.8387 302.895 488.215)" fill="#FEE1FF"/>
<path d="M310.688 441.189C322.684 438.213 334.82 445.525 337.796 457.521L349.533 504.829L306.093 515.606L294.356 468.297C291.38 456.302 298.692 444.165 310.688 441.189Z" fill="url(#paint14_linear_3089_8758)"/>
<circle cx="284.921" cy="379.058" r="47.3535" fill="#FEE1FF"/>
<path d="M287.253 328.834C313.024 329.672 333.462 350.397 334.315 375.798L253.566 340.903C262.53 333.031 274.389 328.416 287.253 328.834Z" fill="url(#paint15_linear_3089_8758)"/>
<path d="M231.998 334.055C232.805 332.166 234.99 331.289 236.879 332.095L332.184 372.79C334.073 373.596 334.951 375.781 334.144 377.67L333.398 379.418C332.959 380.447 331.768 380.925 330.739 380.485L233.876 339.126C231.988 338.319 231.11 336.134 231.917 334.245L231.998 334.055Z" fill="url(#paint16_linear_3089_8758)"/>
<path d="M162.324 472.356C162.904 473.662 165.109 476.621 169.287 478.014C173.465 479.407 177.991 478.594 179.732 478.014" stroke="#FDA4FF" stroke-opacity="0.62" stroke-width="0.870409" stroke-linecap="round"/>
<circle cx="168.852" cy="373.132" r="45.2613" fill="#E0EAFF"/>
<path d="M165.73 341.242C167.647 339.188 170.903 339.188 172.821 341.242L176.147 344.805C177.287 346.026 178.975 346.574 180.615 346.256L185.4 345.329C188.158 344.795 190.792 346.708 191.136 349.497L191.733 354.334C191.938 355.992 192.981 357.428 194.495 358.135L198.911 360.198C201.457 361.386 202.463 364.483 201.102 366.941L198.741 371.206C197.932 372.667 197.932 374.442 198.741 375.903L201.102 380.168C202.463 382.626 201.457 385.722 198.911 386.911L194.495 388.974C192.981 389.681 191.938 391.117 191.733 392.774L191.136 397.612C190.792 400.401 188.158 402.314 185.4 401.78L180.615 400.852C178.975 400.535 177.287 401.083 176.147 402.304L172.821 405.867C170.903 407.921 167.647 407.921 165.73 405.867L162.404 402.304C161.264 401.083 159.576 400.535 157.936 400.852L153.151 401.78C150.392 402.314 147.758 400.401 147.414 397.612L146.817 392.774C146.613 391.117 145.57 389.681 144.056 388.974L139.64 386.911C137.094 385.722 136.088 382.626 137.449 380.168L139.809 375.903C140.618 374.442 140.618 372.667 139.809 371.206L137.449 366.941C136.088 364.483 137.094 361.386 139.64 360.198L144.056 358.135C145.57 357.428 146.613 355.992 146.817 354.334L147.414 349.497C147.758 346.708 150.392 344.795 153.151 345.329L157.936 346.256C159.576 346.574 161.264 346.026 162.404 344.805L165.73 341.242Z" fill="#5F8FFC"/>
<path d="M156.461 374.713L165.779 381.702L183.251 365.395" stroke="white" stroke-width="9.70011" stroke-linecap="round" stroke-linejoin="round"/>
<path d="M208.561 409.121L195.639 404.239C194.484 403.803 194.138 402.336 194.976 401.429L202.406 393.389C203.264 392.461 204.793 392.727 205.287 393.89L210.779 406.812C211.378 408.222 209.995 409.663 208.561 409.121Z" fill="#E0EAFF"/>
<rect x="145.351" y="460.171" width="17.4082" height="94.8746" rx="5.65766" fill="#4D83FD"/>
<rect x="154.048" y="461.188" width="10.4449" height="16.6669" rx="5.22245" transform="rotate(111.792 154.048 461.188)" fill="#FEE1FF"/>
<rect x="152.426" y="470.957" width="10.4449" height="16.1776" rx="5.22245" transform="rotate(111.792 152.426 470.957)" fill="#FEE1FF"/>
<rect x="150.814" y="478.541" width="10.4449" height="18.3695" rx="5.22245" transform="rotate(111.792 150.814 478.541)" fill="#FEE1FF"/>
<rect x="150.398" y="486.575" width="10.4449" height="17.1951" rx="5.22245" transform="rotate(111.792 150.398 486.575)" fill="#FEE1FF"/>
<rect x="162.704" y="456.592" width="10.4449" height="21.7602" rx="5.22245" transform="rotate(42.6441 162.704 456.592)" fill="#FEE1FF"/>
<rect x="115.016" y="471" width="270" height="97" fill="url(#paint17_linear_3089_8758)"/>
<defs>
<radialGradient id="paint0_radial_3089_8758" cx="0" cy="0" r="1" gradientUnits="userSpaceOnUse" gradientTransform="translate(214.016 212.5) rotate(90) scale(166.731 177.846)">
<stop offset="0.111643" stop-color="#C5D7FF" stop-opacity="0.95"/>
<stop offset="0.334773" stop-color="#CFDEFF" stop-opacity="0.785812"/>
<stop offset="0.515109" stop-color="#DDE7FF" stop-opacity="0.566618"/>
<stop offset="1" stop-color="white" stop-opacity="0"/>
</radialGradient>
<linearGradient id="paint1_linear_3089_8758" x1="101.915" y1="226.024" x2="99.74" y2="217.531" gradientUnits="userSpaceOnUse">
<stop stop-color="#B7B7B7"/>
<stop offset="0.21" stop-color="#AFAFAF"/>
<stop offset="0.52" stop-color="#9A9A9A"/>
<stop offset="0.78" stop-color="#848484"/>
</linearGradient>
<linearGradient id="paint2_linear_3089_8758" x1="91.6259" y1="228.762" x2="88.1468" y2="219.495" gradientUnits="userSpaceOnUse">
<stop stop-color="#B7B7B7"/>
<stop offset="0.23" stop-color="#A3A3A3"/>
<stop offset="0.66" stop-color="#848484"/>
</linearGradient>
<linearGradient id="paint3_linear_3089_8758" x1="98.1338" y1="226.977" x2="92.4843" y2="219.599" gradientUnits="userSpaceOnUse">
<stop offset="0.08" stop-color="#FA9EFA"/>
<stop offset="0.51" stop-color="#F986FC"/>
<stop offset="0.89" stop-color="#F86EFF"/>
</linearGradient>
<linearGradient id="paint4_linear_3089_8758" x1="107.241" y1="221.147" x2="108.256" y2="222.965" gradientUnits="userSpaceOnUse">
<stop stop-color="#78F5BE"/>
<stop offset="0.21" stop-color="#74F4BC"/>
<stop offset="0.42" stop-color="#68F3B9"/>
<stop offset="0.62" stop-color="#54F0B4"/>
<stop offset="0.82" stop-color="#39EDAD"/>
<stop offset="1" stop-color="#1BEAA5"/>
</linearGradient>
<linearGradient id="paint5_linear_3089_8758" x1="99.4862" y1="223.201" x2="102.418" y2="228.449" gradientUnits="userSpaceOnUse">
<stop stop-color="#78F5BE"/>
<stop offset="0.21" stop-color="#74F4BC"/>
<stop offset="0.42" stop-color="#68F3B9"/>
<stop offset="0.62" stop-color="#54F0B4"/>
<stop offset="0.82" stop-color="#39EDAD"/>
<stop offset="1" stop-color="#1BEAA5"/>
</linearGradient>
<linearGradient id="paint6_linear_3089_8758" x1="95.3671" y1="249.963" x2="95.3671" y2="222.301" gradientUnits="userSpaceOnUse">
<stop stop-color="#7DACFF"/>
<stop offset="0.14" stop-color="#75A5FE"/>
<stop offset="1" stop-color="#4D83FD"/>
</linearGradient>
<linearGradient id="paint7_linear_3089_8758" x1="92.8601" y1="306.835" x2="95.3138" y2="292.694" gradientUnits="userSpaceOnUse">
<stop offset="0.21" stop-color="#78F5BE"/>
<stop offset="0.37" stop-color="#74F4BB"/>
<stop offset="0.52" stop-color="#6AF1B4"/>
<stop offset="0.65" stop-color="#58EDA7"/>
<stop offset="0.77" stop-color="#3FE795"/>
<stop offset="0.9" stop-color="#20E07F"/>
</linearGradient>
<linearGradient id="paint8_linear_3089_8758" x1="93.7356" y1="364.382" x2="93.7356" y2="346.184" gradientUnits="userSpaceOnUse">
<stop stop-color="#FA9EFA"/>
<stop offset="0.41" stop-color="#FA9BFA"/>
<stop offset="0.61" stop-color="#FA93FA"/>
<stop offset="0.78" stop-color="#FA86FC"/>
<stop offset="0.91" stop-color="#FA73FD"/>
<stop offset="1" stop-color="#FB64FF"/>
</linearGradient>
<linearGradient id="paint9_linear_3089_8758" x1="139.384" y1="292.845" x2="139.633" y2="374.946" gradientUnits="userSpaceOnUse">
<stop stop-color="white" stop-opacity="0"/>
<stop offset="1" stop-color="white"/>
</linearGradient>
<linearGradient id="paint10_linear_3089_8758" x1="204.432" y1="480.112" x2="235.003" y2="478.885" gradientUnits="userSpaceOnUse">
<stop offset="0.23" stop-color="#78F5BE"/>
<stop offset="0.38" stop-color="#73F3BA"/>
<stop offset="0.55" stop-color="#64F0B0"/>
<stop offset="0.74" stop-color="#4DEA9F"/>
<stop offset="0.94" stop-color="#2CE287"/>
<stop offset="1" stop-color="#20E07F"/>
</linearGradient>
<linearGradient id="paint11_linear_3089_8758" x1="235.003" y1="355.325" x2="249.184" y2="363.445" gradientUnits="userSpaceOnUse">
<stop stop-color="#FEE1FF"/>
<stop offset="1" stop-color="#F9B3FF"/>
</linearGradient>
<linearGradient id="paint12_linear_3089_8758" x1="307.426" y1="385.205" x2="321.607" y2="393.326" gradientUnits="userSpaceOnUse">
<stop stop-color="#FEE1FF"/>
<stop offset="1" stop-color="#F9B3FF"/>
</linearGradient>
<linearGradient id="paint13_linear_3089_8758" x1="286.017" y1="580.381" x2="286.017" y2="394.444" gradientUnits="userSpaceOnUse">
<stop offset="0.23" stop-color="#78F5BE"/>
<stop offset="0.38" stop-color="#73F3BA"/>
<stop offset="0.55" stop-color="#64F0B0"/>
<stop offset="0.74" stop-color="#4DEA9F"/>
<stop offset="0.94" stop-color="#2CE287"/>
<stop offset="1" stop-color="#20E07F"/>
</linearGradient>
<linearGradient id="paint14_linear_3089_8758" x1="312.542" y1="441.022" x2="330.861" y2="524.644" gradientUnits="userSpaceOnUse">
<stop offset="0.23" stop-color="#78F5BE"/>
<stop offset="0.38" stop-color="#73F3BA"/>
<stop offset="0.55" stop-color="#64F0B0"/>
<stop offset="0.74" stop-color="#4DEA9F"/>
<stop offset="0.94" stop-color="#2CE287"/>
<stop offset="1" stop-color="#20E07F"/>
</linearGradient>
<linearGradient id="paint15_linear_3089_8758" x1="302.387" y1="329.326" x2="298.675" y2="361.25" gradientUnits="userSpaceOnUse">
<stop stop-color="#8CFFC9"/>
<stop offset="1" stop-color="#37EB98"/>
</linearGradient>
<linearGradient id="paint16_linear_3089_8758" x1="293.891" y1="356.439" x2="291.708" y2="361.41" gradientUnits="userSpaceOnUse">
<stop stop-color="#8CFFC9"/>
<stop offset="1" stop-color="#37EB98"/>
</linearGradient>
<linearGradient id="paint17_linear_3089_8758" x1="250.016" y1="471" x2="250.251" y2="548.714" gradientUnits="userSpaceOnUse">
<stop stop-color="white" stop-opacity="0"/>
<stop offset="1" stop-color="white"/>
</linearGradient>
</defs>
</svg>
