<svg width="5" height="18" viewBox="0 0 5 18" fill="none" xmlns="http://www.w3.org/2000/svg">
<path d="M2.03125 0C0.93125 0 0.03125 0.9 0.03125 2C0.03125 3.1 0.93125 4 2.03125 4C3.13125 4 4.03125 3.1 4.03125 2C4.03125 0.9 3.13125 0 2.03125 0ZM2.03125 14C0.93125 14 0.03125 14.9 0.03125 16C0.03125 17.1 0.93125 18 2.03125 18C3.13125 18 4.03125 17.1 4.03125 16C4.03125 14.9 3.13125 14 2.03125 14ZM2.03125 7C0.93125 7 0.03125 7.9 0.03125 9C0.03125 10.1 0.93125 11 2.03125 11C3.13125 11 4.03125 10.1 4.03125 9C4.03125 7.9 3.13125 7 2.03125 7Z" fill="#BDBDBD"/>
</svg>
