<svg width="36" height="29" viewBox="0 0 36 29" fill="none" xmlns="http://www.w3.org/2000/svg">
<path d="M14.3242 19.7803C14.6888 20.0727 15.2077 20.0735 15.5732 19.7822L25.0439 12.2295C26.2077 13.3263 27.7746 14 29.5 14C30.0165 14 30.5183 13.9371 31 13.8232V27.918C31 28.5155 30.5155 29 29.918 29H1.08203C0.484477 29 0 28.5155 0 27.918V8.28223L14.3242 19.7803ZM23.0205 7C23.0079 7.16506 23 7.33172 23 7.5C23 8.64358 23.2959 9.71785 23.8145 10.6514L14.9512 17.7188L1.59766 7H23.0205Z" fill="white"/>
<circle cx="29.5" cy="7.5" r="4.5" fill="#FA9EFA"/>
</svg>
