<svg width="19" height="21" viewBox="0 0 19 21" fill="none" xmlns="http://www.w3.org/2000/svg">
<path d="M7.125 8.05532L11.875 12.9812M11.875 8.05532L7.125 12.9812M6.175 17.9072H12.825C14.1551 17.9072 14.8202 17.9072 15.3282 17.6387C15.7751 17.4026 16.1384 17.0258 16.3661 16.5624C16.625 16.0355 16.625 15.3458 16.625 13.9664V7.07014C16.625 5.69075 16.625 5.00105 16.3661 4.4742C16.1384 4.01076 15.7751 3.63397 15.3282 3.39784C14.8202 3.12939 14.1551 3.12939 12.825 3.12939H6.175C4.84488 3.12939 4.17981 3.12939 3.67177 3.39784C3.22489 3.63397 2.86156 4.01076 2.63386 4.4742C2.375 5.00105 2.375 5.69075 2.375 7.07013V13.9664C2.375 15.3458 2.375 16.0355 2.63386 16.5624C2.86156 17.0258 3.22489 17.4026 3.67177 17.6387C4.17981 17.9072 4.84488 17.9072 6.175 17.9072Z" stroke="#81A9FF" stroke-width="2" stroke-linecap="round" stroke-linejoin="round"/>
</svg>
