<svg width="37" height="31" viewBox="0 0 37 31" fill="none" xmlns="http://www.w3.org/2000/svg">
<rect x="0.334961" y="3.75781" width="36.3302" height="26.9344" rx="4.38467" fill="url(#paint0_linear_3083_5821)"/>
<rect x="13.4888" width="10.0221" height="6.8902" rx="1.25276" fill="#4D83FD"/>
<rect x="13.8896" y="0.372559" width="9.18591" height="6.10049" rx="0.939573" fill="url(#paint1_linear_3083_5821)"/>
<ellipse cx="10.72" cy="17.4713" rx="6.63501" ry="6.8902" fill="white"/>
<circle cx="10.722" cy="15.1747" r="2.29673" fill="url(#paint2_linear_3083_5821)"/>
<path d="M11.5444 18.0796C13.512 18.0798 15.1067 19.6745 15.1069 21.6421V22.6567C13.9384 23.7244 12.4068 24.3734 10.728 24.3735C9.04343 24.3735 7.50655 23.7202 6.33643 22.646V21.6421C6.33664 19.6743 7.93211 18.0796 9.8999 18.0796H11.5444Z" fill="url(#paint3_linear_3083_5821)"/>
<rect x="19.7524" y="13.7803" width="13.154" height="4.38467" rx="0.835176" fill="#4D83FD"/>
<rect x="19.7524" y="19.417" width="10.6485" height="1.87915" rx="0.835176" fill="#4D83FD"/>
<defs>
<linearGradient id="paint0_linear_3083_5821" x1="18.5" y1="13.9182" x2="18.5" y2="30.6922" gradientUnits="userSpaceOnUse">
<stop stop-color="#E6EEFF"/>
<stop offset="1" stop-color="#C2D6FF"/>
</linearGradient>
<linearGradient id="paint1_linear_3083_5821" x1="14.3128" y1="0.372559" x2="22.4401" y2="6.74384" gradientUnits="userSpaceOnUse">
<stop stop-color="#E5EDFF" stop-opacity="0.28"/>
<stop offset="1" stop-color="#4D83FD" stop-opacity="0"/>
</linearGradient>
<linearGradient id="paint2_linear_3083_5821" x1="10.722" y1="12.8779" x2="10.722" y2="17.4714" gradientUnits="userSpaceOnUse">
<stop stop-color="#78F5BE"/>
<stop offset="1" stop-color="#4CEBA5"/>
</linearGradient>
<linearGradient id="paint3_linear_3083_5821" x1="10.7217" y1="18.0796" x2="10.7217" y2="24.3735" gradientUnits="userSpaceOnUse">
<stop stop-color="#78F5BE"/>
<stop offset="1" stop-color="#4CEBA5"/>
</linearGradient>
</defs>
</svg>
