<svg width="12" height="16" viewBox="0 0 12 16" fill="none" xmlns="http://www.w3.org/2000/svg">
<path d="M5.25 12.1433C2.29027 11.7684 0 9.2035 0 6.09524C0 2.72893 2.68629 0 6 0C9.31373 0 12 2.72893 12 6.09524C12 9.2035 9.70973 11.7684 6.75 12.1433V13.7231C9.70973 13.7934 12 14.2744 12 14.8571C12 15.4883 9.31373 16 6 16C2.68629 16 0 15.4883 0 14.8571C0 14.2744 2.29027 13.7934 5.25 13.7231V12.1433ZM6 7.61905C6.82845 7.61905 7.5 6.93684 7.5 6.09524C7.5 5.25366 6.82845 4.57143 6 4.57143C5.17155 4.57143 4.5 5.25366 4.5 6.09524C4.5 6.93684 5.17155 7.61905 6 7.61905Z" fill="white"/>
</svg>
