<svg width="109" height="30" viewBox="0 0 109 30" fill="none" xmlns="http://www.w3.org/2000/svg">
<rect opacity="0.61" width="109" height="30" rx="8" fill="#6982BC"/>
<path d="M18.25 19.1433C15.2903 18.7684 13 16.2035 13 13.0952C13 9.72893 15.6863 7 19 7C22.3137 7 25 9.72893 25 13.0952C25 16.2035 22.7097 18.7684 19.75 19.1433V20.7231C22.7097 20.7934 25 21.2744 25 21.8571C25 22.4883 22.3137 23 19 23C15.6863 23 13 22.4883 13 21.8571C13 21.2744 15.2903 20.7934 18.25 20.7231V19.1433ZM19 14.619C19.8285 14.619 20.5 13.9368 20.5 13.0952C20.5 12.2537 19.8285 11.5714 19 11.5714C18.1715 11.5714 17.5 12.2537 17.5 13.0952C17.5 13.9368 18.1715 14.619 19 14.619Z" fill="white"/>
<path d="M42.0117 10.8594V11.5859H40.4062V13.6016H41.9766V14.3164H34.3477V13.6016H35.918V11.5859H34.3125V10.8594H42.0117ZM42.9141 15.1953V15.9336H33.4219V15.1953H42.9141ZM41.6953 16.8711V19.1328H35.5078V20.1289H42.0117V20.832H34.5938V18.4648H40.793V17.5625H34.5703V16.8711H41.6953ZM36.832 13.6016H39.4922V11.5859H36.832V13.6016ZM47.8594 11.6914V15.2891H45.0352V17.6094C46.2363 17.6035 47.373 17.5625 48.7617 17.3164L48.832 18.0781C47.3438 18.3477 46.1602 18.3711 44.8359 18.3828H44.1445V14.5273H46.9805V12.4531H44.1211V11.6914H47.8594ZM52.6992 10.5312V20.9492H51.8203V10.5312H52.6992ZM50.5664 10.7891V20.3984H49.6992V15.043H48.3633V14.293H49.6992V10.7891H50.5664ZM62.7539 10.5312V20.9727H61.8281V10.5312H62.7539ZM57.2109 11.3398C58.7578 11.3516 59.8711 12.7578 59.8711 14.9727C59.8711 17.1875 58.7578 18.5938 57.2109 18.5938C55.6523 18.5938 54.5508 17.1875 54.5508 14.9727C54.5508 12.7578 55.6523 11.3516 57.2109 11.3398ZM57.2109 12.1602C56.168 12.1719 55.4414 13.2734 55.4414 14.9727C55.4414 16.6719 56.168 17.7734 57.2109 17.7734C58.2539 17.7734 58.9805 16.6719 58.9805 14.9727C58.9805 13.2734 58.2539 12.1719 57.2109 12.1602ZM69.7266 12.0664C69.7266 13.8477 71.7656 15.4414 73.582 15.7812L73.1602 16.5547C71.5898 16.1914 69.9316 15.0723 69.2578 13.5312C68.584 15.0664 66.9316 16.1855 65.3555 16.5547L64.9336 15.7812C66.7383 15.4297 68.7656 13.8594 68.7656 12.0664V11.2695H69.7266V12.0664ZM74.0742 18.7695V19.5312H64.5352V18.7695H74.0742ZM86.5078 10.5312V20.9727H85.582V10.5312H86.5078ZM80.9648 11.3398C82.5117 11.3516 83.625 12.7578 83.625 14.9727C83.625 17.1875 82.5117 18.5938 80.9648 18.5938C79.4062 18.5938 78.3047 17.1875 78.3047 14.9727C78.3047 12.7578 79.4062 11.3516 80.9648 11.3398ZM80.9648 12.1602C79.9219 12.1719 79.1953 13.2734 79.1953 14.9727C79.1953 16.6719 79.9219 17.7734 80.9648 17.7734C82.0078 17.7734 82.7344 16.6719 82.7344 14.9727C82.7344 13.2734 82.0078 12.1719 80.9648 12.1602ZM97.8164 15.9102V16.6719H88.2773V15.9102H97.8164ZM96.5859 10.7891V13.25H90.4336V14.293H96.8086V15.0078H89.5195V12.5586H95.6602V11.5273H89.4844V10.7891H96.5859ZM96.5859 17.6211V20.8086H89.5781V17.6211H96.5859ZM90.4805 18.3711V20.0586H95.6836V18.3711H90.4805Z" fill="white"/>
</svg>
