<svg width="109" height="30" viewBox="0 0 109 30" fill="none" xmlns="http://www.w3.org/2000/svg">
<rect opacity="0.61" width="109" height="30" rx="8" fill="#6982BC"/>
<path d="M18.25 19.1433C15.2903 18.7684 13 16.2035 13 13.0952C13 9.72893 15.6863 7 19 7C22.3137 7 25 9.72893 25 13.0952C25 16.2035 22.7097 18.7684 19.75 19.1433V20.7231C22.7097 20.7934 25 21.2744 25 21.8571C25 22.4883 22.3137 23 19 23C15.6863 23 13 22.4883 13 21.8571C13 21.2744 15.2903 20.7934 18.25 20.7231V19.1433ZM19 14.619C19.8284 14.619 20.5 13.9368 20.5 13.0952C20.5 12.2537 19.8284 11.5714 19 11.5714C18.1716 11.5714 17.5 12.2537 17.5 13.0952C17.5 13.9368 18.1716 14.619 19 14.619Z" fill="white"/>
</svg>
