<svg width="28" height="28" viewBox="0 0 28 28" fill="none" xmlns="http://www.w3.org/2000/svg">
<circle cx="14" cy="14" r="13.5" fill="#F6F6F6" stroke="#BDBDBD"/>
<path d="M19.3337 20C19.3337 19.0696 19.3337 18.6044 19.2188 18.2259C18.9603 17.3736 18.2934 16.7067 17.4411 16.4482C17.0626 16.3333 16.5974 16.3333 15.667 16.3333H12.3337C11.4033 16.3333 10.9381 16.3333 10.5596 16.4482C9.7073 16.7067 9.04035 17.3736 8.78182 18.2259C8.66699 18.6044 8.66699 19.0696 8.66699 20M17.0003 11C17.0003 12.6569 15.6572 14 14.0003 14C12.3435 14 11.0003 12.6569 11.0003 11C11.0003 9.34315 12.3435 8 14.0003 8C15.6572 8 17.0003 9.34315 17.0003 11Z" stroke="#BDBDBD" stroke-linecap="round" stroke-linejoin="round"/>
</svg>
