<svg width="16" height="15" viewBox="0 0 16 15" fill="none" xmlns="http://www.w3.org/2000/svg">
<path d="M13.7139 0.777344C14.976 0.777344 15.9997 1.8004 16 3.0625V12.7139C15.9998 13.976 14.976 14.999 13.7139 14.999H2.28613C1.02396 14.999 0.00121026 13.976 0.000976562 12.7139V3.0625C0.00123397 1.8004 1.02397 0.777344 2.28613 0.777344H13.7139ZM14.3232 4.32324C13.9906 3.9868 13.448 3.98302 13.1113 4.31543L7.71387 9.64648L2.31641 4.31543L2.25098 4.25781C1.91267 3.98529 1.41637 4.00758 1.10449 4.32324C0.792941 4.63898 0.776216 5.13587 1.05273 5.4707L1.1123 5.53516L7.11133 11.4609C7.42426 11.7699 7.91669 11.7898 8.25195 11.5195L8.31641 11.4609L14.3164 5.53516C14.6529 5.20251 14.6557 4.65993 14.3232 4.32324Z" fill="#81A9FF"/>
</svg>
