<svg width="107" height="110" viewBox="0 0 107 110" fill="none" xmlns="http://www.w3.org/2000/svg">
<path d="M16.5563 88.9951H14.9494C14.7303 88.9951 14.5527 89.1727 14.5527 89.3918V108.629C14.5527 108.848 14.7303 109.026 14.9494 109.026H16.5563C16.7754 109.026 16.953 108.848 16.953 108.629V89.3918C16.953 89.1727 16.7754 88.9951 16.5563 88.9951Z" fill="#ADADAD"/>
<path d="M26.117 70.3699C26.9455 68.7681 27.4176 66.9553 27.4176 65.0271C27.4176 58.5846 22.1953 53.3623 15.7528 53.3623C9.31024 53.3623 4.08794 58.5846 4.08794 65.0271C4.08794 66.9553 4.56498 68.7681 5.38849 70.3699C2.79241 73.0012 1.18555 76.6116 1.18555 80.5986C1.18555 88.643 7.7084 95.1658 15.7528 95.1658C23.7971 95.1658 30.32 88.643 30.32 80.5986C30.32 76.6116 28.7131 72.9962 26.117 70.3699Z" fill="url(#paint0_linear_2437_1756)"/>
<path d="M66.9003 4.56055V109.228H22.4756V6.08707C22.4756 5.24346 23.1585 4.56055 24.0021 4.56055H66.8953H66.9003Z" fill="#A5C5FF"/>
<path d="M83.6066 109.216H66.8701V4.54883H82.8283C83.2551 4.54883 83.6066 4.89531 83.6066 5.32715V109.221V109.216Z" fill="url(#paint1_linear_2437_1756)"/>
<path d="M64.414 4.54943H26.7783V0.743173C26.7783 0.331415 27.1097 0 27.5215 0H64.414V4.54943Z" fill="#A5C5FF"/>
<path d="M76.6274 11.1875V16.8366H73.1827C72.8814 16.8366 72.6504 16.5956 72.6504 16.3044V11.2578C72.6504 11.2327 72.6504 11.2126 72.6604 11.1875H76.6274Z" fill="#B2CDFF"/>
<path d="M76.6274 21.0908V27.2019H73.1827C72.8814 27.2019 72.6504 26.9609 72.6504 26.6696V21.6231C72.6504 21.3318 72.8814 21.0908 73.1827 21.0908H76.6274Z" fill="#B2CDFF"/>
<path d="M76.6274 31.459V37.5701H73.1827C72.8814 37.5701 72.6504 37.3391 72.6504 37.0378V31.9913C72.6504 31.7 72.8814 31.459 73.1827 31.459H76.6274Z" fill="#B2CDFF"/>
<path d="M76.6274 41.8284V47.9495H73.1827C72.8814 47.9495 72.6504 47.7085 72.6504 47.4172V42.3606C72.6504 42.0694 72.8814 41.8284 73.1827 41.8284H76.6274Z" fill="#B2CDFF"/>
<path d="M76.6274 52.2031V58.3142H73.1827C72.8814 58.3142 72.6504 58.0732 72.6504 57.7819V52.7354C72.6504 52.4442 72.8814 52.2031 73.1827 52.2031H76.6274Z" fill="#B2CDFF"/>
<path d="M76.6274 62.5723V68.6834H73.1827C72.8814 68.6834 72.6504 68.4423 72.6504 68.1511V63.1045C72.6504 62.8133 72.8814 62.5723 73.1827 62.5723H76.6274Z" fill="#B2CDFF"/>
<path d="M76.6274 72.9355V79.0466H73.1827C72.8814 79.0466 72.6504 78.8157 72.6504 78.5144V73.4678C72.6504 73.1766 72.8814 72.9355 73.1827 72.9355H76.6274Z" fill="#B2CDFF"/>
<path d="M62.8575 11.2578V16.3044C62.8575 16.5956 62.6164 16.8366 62.3252 16.8366H28.084V11.1875H62.8525C62.8625 11.2126 62.8625 11.2327 62.8625 11.2578H62.8575Z" fill="url(#paint2_linear_2437_1756)"/>
<path d="M62.8575 21.627V26.6736C62.8575 26.9698 62.6164 27.2058 62.3252 27.2058H28.084V21.0947H62.3252C62.6215 21.0947 62.8575 21.3358 62.8575 21.627Z" fill="url(#paint3_linear_2437_1756)"/>
<path d="M62.8585 31.9971V37.0437C62.8585 37.3399 62.6174 37.5759 62.3262 37.5759H28.085V31.4648H62.3262C62.6224 31.4648 62.8585 31.7059 62.8585 31.9971Z" fill="url(#paint4_linear_2437_1756)"/>
<path d="M62.8575 42.3653V47.4118C62.8575 47.7081 62.6164 47.9441 62.3252 47.9441H28.084V41.833H62.3252C62.6215 41.833 62.8575 42.074 62.8575 42.3653Z" fill="url(#paint5_linear_2437_1756)"/>
<path d="M62.8585 52.7303V57.7768C62.8585 58.0731 62.6174 58.3091 62.3262 58.3091H28.085V52.198H62.3262C62.6224 52.198 62.8585 52.439 62.8585 52.7303Z" fill="url(#paint6_linear_2437_1756)"/>
<path d="M62.8575 63.0997V68.1462C62.8575 68.4425 62.6164 68.6785 62.3252 68.6785H28.084V62.5674H62.3252C62.6215 62.5674 62.8575 62.8084 62.8575 63.0997Z" fill="url(#paint7_linear_2437_1756)"/>
<path d="M62.8575 73.4678V78.5144C62.8575 78.8106 62.6164 79.0466 62.3252 79.0466H28.084V72.9355H62.3252C62.6215 72.9355 62.8575 73.1766 62.8575 73.4678Z" fill="url(#paint8_linear_2437_1756)"/>
<path d="M79.7755 4.54943H64.3848V0H78.9269C79.3939 0 79.7705 0.376608 79.7705 0.843603V4.54943H79.7755Z" fill="url(#paint9_linear_2437_1756)"/>
<path d="M83.6066 85.0283H22.4756V85.42H83.6066V85.0283Z" fill="#4A73FF"/>
<path d="M79.7756 4.16211H26.7793V4.55378H79.7756V4.16211Z" fill="#4A73FF"/>
<path d="M49.7068 97.0438V109.236H38.6797V97.0438C38.6797 94.061 40.859 91.5804 43.7162 91.1235C43.8769 91.0883 44.0376 91.0683 44.1983 91.0632C44.2083 91.0632 44.2234 91.0632 44.2334 91.0733C47.3015 91.3294 49.7068 93.9054 49.7068 97.0438Z" fill="#F99DF9"/>
<path d="M37.6904 97.0447V109.237H38.6797V97.0447C38.6797 93.8963 41.11 91.3052 44.1982 91.0642C44.0375 91.0441 43.8668 91.0391 43.7011 91.0391C40.392 91.0391 37.6955 93.7255 37.6955 97.0447H37.6904Z" fill="#FA64FF"/>
<path d="M44.1989 91.0636C44.0382 91.0737 43.8775 91.0887 43.7168 91.1239V109.231H44.234V91.0686C44.234 91.0686 44.2089 91.0586 44.1989 91.0586V91.0636Z" fill="#FA64FF"/>
<path d="M45.1325 99.5449H44.9467C44.8801 99.5449 44.8262 99.5989 44.8262 99.6654V101.553C44.8262 101.62 44.8801 101.674 44.9467 101.674H45.1325C45.199 101.674 45.253 101.62 45.253 101.553V99.6654C45.253 99.5989 45.199 99.5449 45.1325 99.5449Z" fill="#FA64FF"/>
<path d="M42.9879 99.5449H42.8022C42.7356 99.5449 42.6816 99.5989 42.6816 99.6654V101.553C42.6816 101.62 42.7356 101.674 42.8022 101.674H42.9879C43.0545 101.674 43.1085 101.62 43.1085 101.553V99.6654C43.1085 99.5989 43.0545 99.5449 42.9879 99.5449Z" fill="#FA64FF"/>
<path d="M62.8479 11.1885H28.2953C28.1748 11.1885 28.0794 11.2839 28.0794 11.4045V16.8377H26.8491C26.6633 16.8377 26.5127 16.687 26.5127 16.5012V11.063C26.5127 10.8772 26.6633 10.7266 26.8491 10.7266H62.3206C62.5867 10.7266 62.8077 10.9324 62.8479 11.1885Z" fill="#4D82FC"/>
<path d="M62.8479 21.5567H28.2953C28.1748 21.5567 28.0794 21.6521 28.0794 21.7726V27.2058H26.8491C26.6633 27.2058 26.5127 27.0552 26.5127 26.8694V21.4312C26.5127 21.2454 26.6633 21.0947 26.8491 21.0947H62.3206C62.5867 21.0947 62.8077 21.3006 62.8479 21.5567Z" fill="#4D82FC"/>
<path d="M62.8479 31.9268H28.2953C28.1748 31.9268 28.0794 32.0222 28.0794 32.1427V37.5759H26.8491C26.6633 37.5759 26.5127 37.4253 26.5127 37.2395V31.8013C26.5127 31.6155 26.6633 31.4648 26.8491 31.4648H62.3206C62.5867 31.4648 62.8077 31.6707 62.8479 31.9268Z" fill="#4D82FC"/>
<path d="M62.8479 42.2903H28.2953C28.1748 42.2903 28.0794 42.3857 28.0794 42.5063V47.9395H26.8491C26.6633 47.9395 26.5127 47.7888 26.5127 47.603V42.1648C26.5127 41.979 26.6633 41.8284 26.8491 41.8284H62.3206C62.5867 41.8284 62.8077 42.0342 62.8479 42.2903Z" fill="#4D82FC"/>
<path d="M62.8479 52.66H28.2953C28.1748 52.66 28.0794 52.7554 28.0794 52.8759V58.3091H26.8491C26.6633 58.3091 26.5127 58.1585 26.5127 57.9727V52.5344C26.5127 52.3486 26.6633 52.198 26.8491 52.198H62.3206C62.5867 52.198 62.8077 52.4039 62.8479 52.66Z" fill="#4D82FC"/>
<path d="M62.8479 63.0294H28.2953C28.1748 63.0294 28.0794 63.1248 28.0794 63.2453V68.6785H26.8491C26.6633 68.6785 26.5127 68.5278 26.5127 68.342V62.9038C26.5127 62.718 26.6633 62.5674 26.8491 62.5674H62.3206C62.5867 62.5674 62.8077 62.7733 62.8479 63.0294Z" fill="#4D82FC"/>
<path d="M62.8479 73.3975H28.2953C28.1748 73.3975 28.0794 73.4929 28.0794 73.6134V79.0466H26.8491C26.6633 79.0466 26.5127 78.896 26.5127 78.7102V73.272C26.5127 73.0862 26.6633 72.9355 26.8491 72.9355H62.3206C62.5867 72.9355 62.8077 73.1414 62.8479 73.3975Z" fill="#4D82FC"/>
<path d="M77.8373 11.2588V16.3054C77.8373 16.5966 77.5962 16.8377 77.305 16.8377H76.6271V11.1885H72.6602C72.6853 10.9324 72.9112 10.7266 73.1874 10.7266H77.31C77.5762 10.7266 77.7971 10.9324 77.8373 11.1885C77.8473 11.2136 77.8473 11.2337 77.8473 11.2588H77.8373Z" fill="#1954D8"/>
<path d="M77.8168 21.627V26.6736C77.8168 26.9648 77.5757 27.2058 77.2845 27.2058H76.6066V21.5567H72.6396C72.6648 21.3006 72.8907 21.0947 73.1669 21.0947H77.2895C77.5556 21.0947 77.7766 21.3006 77.8168 21.5567C77.8268 21.5818 77.8268 21.6019 77.8268 21.627H77.8168Z" fill="#1954D8"/>
<path d="M77.8168 31.9913V37.0378C77.8168 37.3291 77.5757 37.5701 77.2845 37.5701H76.6066V31.921H72.6396C72.6648 31.6649 72.8907 31.459 73.1669 31.459H77.2895C77.5556 31.459 77.7766 31.6649 77.8168 31.921C77.8268 31.9461 77.8268 31.9661 77.8268 31.9913H77.8168Z" fill="#1954D8"/>
<path d="M77.8168 42.3606V47.4072C77.8168 47.6984 77.5757 47.9395 77.2845 47.9395H76.6066V42.2903H72.6396C72.6648 42.0342 72.8907 41.8284 73.1669 41.8284H77.2895C77.5556 41.8284 77.7766 42.0342 77.8168 42.2903C77.8268 42.3154 77.8268 42.3355 77.8268 42.3606H77.8168Z" fill="#1954D8"/>
<path d="M77.8168 52.7256V57.7722C77.8168 58.0634 77.5757 58.3045 77.2845 58.3045H76.6066V52.6553H72.6396C72.6648 52.3992 72.8907 52.1934 73.1669 52.1934H77.2895C77.5556 52.1934 77.7766 52.3992 77.8168 52.6553C77.8268 52.6804 77.8268 52.7005 77.8268 52.7256H77.8168Z" fill="#1954D8"/>
<path d="M77.8169 63.0939V68.1405C77.8169 68.4317 77.5759 68.6728 77.2846 68.6728H76.6067V63.5609C76.6067 63.2647 76.3657 63.0186 76.0644 63.0186H72.6348C72.6599 62.7625 72.8858 62.5566 73.162 62.5566H77.2846C77.5508 62.5566 77.7717 62.7625 77.8119 63.0186C77.8219 63.0437 77.8219 63.0638 77.8219 63.0889L77.8169 63.0939Z" fill="#1954D8"/>
<path d="M77.8169 73.4631V78.5096C77.8169 78.8009 77.5759 79.0419 77.2846 79.0419H76.6067V73.9301C76.6067 73.6338 76.3657 73.3878 76.0644 73.3878H72.6348C72.6599 73.1317 72.8858 72.9258 73.162 72.9258H77.2846C77.5508 72.9258 77.7717 73.1317 77.8119 73.3878C77.8219 73.4129 77.8219 73.4329 77.8219 73.4581L77.8169 73.4631Z" fill="#1954D8"/>
<path d="M87.724 95.5286H86.1623C85.9432 95.5286 85.7656 95.7062 85.7656 95.9253V108.63C85.7656 108.849 85.9432 109.026 86.1623 109.026H87.724C87.9431 109.026 88.1207 108.849 88.1207 108.63V95.9253C88.1207 95.7062 87.9431 95.5286 87.724 95.5286Z" fill="#ADADAD"/>
<path d="M79.961 82.5566C79.4036 81.477 79.0822 80.2568 79.0822 78.9562C79.0822 74.6177 82.6023 71.0977 86.9408 71.0977C91.2793 71.0977 94.7994 74.6177 94.7994 78.9562C94.7994 80.2568 94.478 81.477 93.9206 82.5566C95.6731 84.3292 96.7527 86.7646 96.7527 89.451C96.7527 94.8692 92.3589 99.2629 86.9408 99.2629C81.5227 99.2629 77.1289 94.8692 77.1289 89.451C77.1289 86.7646 78.2135 84.3292 79.961 82.5566Z" fill="url(#paint10_linear_2437_1756)"/>
<path d="M0.597557 110L105.485 110C105.815 110 106.083 109.732 106.083 109.402V109.327C106.083 108.997 105.815 108.73 105.485 108.73L0.597557 108.73C0.26754 108.73 7.62939e-06 108.997 7.62939e-06 109.327V109.402C7.62939e-06 109.732 0.26754 110 0.597557 110Z" fill="url(#paint11_linear_2437_1756)"/>
<defs>
<linearGradient id="paint0_linear_2437_1756" x1="28.216" y1="87.9249" x2="3.53056" y2="62.1448" gradientUnits="userSpaceOnUse">
<stop stop-color="#78F4BD"/>
<stop offset="0.27" stop-color="#56ECA5"/>
<stop offset="0.56" stop-color="#38E490"/>
<stop offset="0.82" stop-color="#26E083"/>
<stop offset="1" stop-color="#20DF7F"/>
</linearGradient>
<linearGradient id="paint1_linear_2437_1756" x1="66.8701" y1="56.8823" x2="86.9659" y2="56.8823" gradientUnits="userSpaceOnUse">
<stop stop-color="#4D82FC"/>
<stop offset="1" stop-color="#7DABFF"/>
</linearGradient>
<linearGradient id="paint2_linear_2437_1756" x1="28.084" y1="14.0146" x2="69.3201" y2="14.0146" gradientUnits="userSpaceOnUse">
<stop stop-color="#FFF6A8"/>
<stop offset="0.1" stop-color="#FFF29B"/>
<stop offset="0.51" stop-color="#FFE568"/>
<stop offset="0.82" stop-color="#FFDD49"/>
<stop offset="0.99" stop-color="#FFDA3E"/>
</linearGradient>
<linearGradient id="paint3_linear_2437_1756" x1="28.084" y1="24.1478" x2="62.8575" y2="24.1478" gradientUnits="userSpaceOnUse">
<stop stop-color="#7DABFF"/>
<stop offset="0.14" stop-color="#75A4FE"/>
<stop offset="1" stop-color="#4D82FC"/>
</linearGradient>
<linearGradient id="paint4_linear_2437_1756" x1="-18.971" y1="34.5179" x2="62.8585" y2="34.5179" gradientUnits="userSpaceOnUse">
<stop stop-color="#FFF6A8"/>
<stop offset="0.1" stop-color="#FFF29B"/>
<stop offset="0.51" stop-color="#FFE568"/>
<stop offset="0.82" stop-color="#FFDD49"/>
<stop offset="0.99" stop-color="#FFDA3E"/>
</linearGradient>
<linearGradient id="paint5_linear_2437_1756" x1="-18.972" y1="44.886" x2="62.8575" y2="44.886" gradientUnits="userSpaceOnUse">
<stop stop-color="#FFF6A8"/>
<stop offset="0.1" stop-color="#FFF29B"/>
<stop offset="0.51" stop-color="#FFE568"/>
<stop offset="0.82" stop-color="#FFDD49"/>
<stop offset="0.99" stop-color="#FFDA3E"/>
</linearGradient>
<linearGradient id="paint6_linear_2437_1756" x1="-18.971" y1="55.2561" x2="-18.4688" y2="55.2561" gradientUnits="userSpaceOnUse">
<stop stop-color="#7DABFF"/>
<stop offset="0.14" stop-color="#75A4FE"/>
<stop offset="1" stop-color="#4D82FC"/>
</linearGradient>
<linearGradient id="paint7_linear_2437_1756" x1="-18.972" y1="65.6254" x2="-18.4698" y2="65.6254" gradientUnits="userSpaceOnUse">
<stop stop-color="#7DABFF"/>
<stop offset="0.14" stop-color="#75A4FE"/>
<stop offset="1" stop-color="#4D82FC"/>
</linearGradient>
<linearGradient id="paint8_linear_2437_1756" x1="-18.972" y1="75.9886" x2="-18.4698" y2="75.9886" gradientUnits="userSpaceOnUse">
<stop stop-color="#7DABFF"/>
<stop offset="0.14" stop-color="#75A4FE"/>
<stop offset="1" stop-color="#4D82FC"/>
</linearGradient>
<linearGradient id="paint9_linear_2437_1756" x1="64.3848" y1="2.27471" x2="79.7755" y2="2.27471" gradientUnits="userSpaceOnUse">
<stop stop-color="#4D82FC"/>
<stop offset="1" stop-color="#7DABFF"/>
</linearGradient>
<linearGradient id="paint10_linear_2437_1756" x1="79.3835" y1="93.5134" x2="96.0146" y2="76.1442" gradientUnits="userSpaceOnUse">
<stop stop-color="#78F4BD"/>
<stop offset="0.19" stop-color="#6BF1B4"/>
<stop offset="0.55" stop-color="#4AE99C"/>
<stop offset="0.93" stop-color="#20DF7F"/>
</linearGradient>
<linearGradient id="paint11_linear_2437_1756" x1="106.083" y1="109.367" x2="1.52588e-05" y2="109.367" gradientUnits="userSpaceOnUse">
<stop stop-color="#78F4BD"/>
<stop offset="0.46" stop-color="#76F3BB"/>
<stop offset="0.62" stop-color="#6FF1B6"/>
<stop offset="0.74" stop-color="#63EFAE"/>
<stop offset="0.83" stop-color="#52EBA2"/>
<stop offset="0.91" stop-color="#3CE593"/>
<stop offset="0.98" stop-color="#22DF80"/>
<stop offset="0.99" stop-color="#20DF7F"/>
</linearGradient>
</defs>
</svg>
