<svg width="74" height="116" viewBox="0 0 74 116" fill="none" xmlns="http://www.w3.org/2000/svg">
<path d="M69.6378 36.4599L59.8962 113.615C59.7884 114.462 59.0696 115.093 58.2176 115.093H15.2567C14.4046 115.093 13.6863 114.462 13.5785 113.615L3.84189 36.4599C3.71357 35.4487 4.49864 34.5557 5.52005 34.5557H67.9647C68.981 34.5557 69.7712 35.4487 69.6429 36.4599H69.6378Z" fill="url(#paint0_linear_2227_954)"/>
<path d="M72.4455 37.0352H1.02908C0.397756 37.0352 -0.0849596 36.4703 0.0125619 35.8493L0.921313 29.9672C1.03937 29.2076 1.69122 28.6484 2.46113 28.6484H71.0134C71.7782 28.6484 72.4352 29.2076 72.5532 29.9672L73.462 35.8493C73.5595 36.4703 73.0768 37.0352 72.4455 37.0352Z" fill="#A6C6FF"/>
<path d="M41.2592 37.0352L30.4038 111.162C30.3422 111.578 29.952 111.875 29.5312 111.813L23.8747 110.982C23.4538 110.921 23.1614 110.531 23.223 110.11L33.9245 37.0402H41.2642L41.2592 37.0352Z" fill="#FA9EFA"/>
<path d="M46.4378 1.71229L42.491 28.649H35.1514L39.247 0.660187C39.3137 0.244438 39.7039 -0.0535204 40.1197 0.00807218L45.7812 0.839632C46.1969 0.901224 46.4944 1.29141 46.4328 1.71229H46.4378Z" fill="#FA9EFA"/>
<path d="M68.5137 53.2598C69.1348 53.2598 69.6172 53.8041 69.5402 54.4252L66.1112 81.5719L65.4341 86.9407C65.3673 87.4591 64.9311 87.8444 64.4075 87.8444H9.06645C8.54292 87.8444 8.10664 87.454 8.03991 86.9407L7.36223 81.5719L3.93875 54.4252C3.86176 53.8092 4.34424 53.2598 4.9653 53.2598H68.5187H68.5137Z" fill="#78F5BE"/>
<defs>
<linearGradient id="paint0_linear_2227_954" x1="36.7526" y1="34.5557" x2="36.0084" y2="115.088" gradientUnits="userSpaceOnUse">
<stop stop-color="#5086FD"/>
<stop offset="0.4" stop-color="#5287FD"/>
<stop offset="0.58" stop-color="#598DFD"/>
<stop offset="0.71" stop-color="#6696FD"/>
<stop offset="0.83" stop-color="#78A3FD"/>
<stop offset="0.93" stop-color="#8FB5FE"/>
<stop offset="1" stop-color="#A6C6FF"/>
</linearGradient>
</defs>
</svg>
