<svg width="101" height="105" viewBox="0 0 101 105" fill="none" xmlns="http://www.w3.org/2000/svg">
<path d="M95.5712 42.9199L91.1877 77.6263L45.0967 97.6327L41.1709 66.5304L95.5712 42.9199Z" fill="url(#paint0_linear_2296_2374)"/>
<path d="M45.0977 97.6315L91.1886 77.625L87.9398 103.326C87.8417 104.097 87.1884 104.671 86.4136 104.671H47.3427C46.5679 104.671 45.9146 104.097 45.8165 103.326L45.0977 97.6315Z" fill="url(#paint1_linear_2296_2374)"/>
<path d="M96.803 33.1598L95.5708 42.9206L41.1705 66.531L36.9598 33.1598C36.8431 32.2403 37.5575 31.4326 38.4864 31.4326H95.2768C96.201 31.4326 96.915 32.2403 96.803 33.1598Z" fill="url(#paint2_linear_2296_2374)"/>
<path d="M99.3573 33.6813H34.4076C33.8334 33.6813 33.3944 33.168 33.4831 32.6032L34.3096 27.2538C34.4169 26.5629 35.0098 26.054 35.71 26.054H98.0549C98.7504 26.054 99.3479 26.5629 99.4553 27.2538L100.282 32.6032C100.37 33.168 99.9314 33.6813 99.3573 33.6813Z" fill="#A6C6FF"/>
<path d="M75.7044 1.55679L72.115 26.0543H65.4395L69.1647 0.59996C69.2254 0.221857 69.5802 -0.0486639 69.9583 0.00735126L75.1072 0.763611C75.4853 0.819626 75.7558 1.17402 75.6998 1.55679H75.7044Z" fill="#FA9EFA"/>
<path d="M32.666 19.1645C31.2936 15.7382 27.9467 13.3154 24.0303 13.3154C18.8909 13.3154 14.7227 17.4841 14.7227 22.6235C14.7227 27.7629 18.8909 31.9311 24.0303 31.9311C25.3887 31.9311 26.6725 31.6324 27.8349 31.1096C28.9272 31.9032 30.2714 32.3746 31.7278 32.3746C35.3969 32.3746 38.3706 29.4009 38.3706 25.7319C38.3706 22.385 35.8916 19.6219 32.666 19.1645Z" fill="url(#paint3_linear_2296_2374)"/>
<path d="M35.1772 24.201C39.9543 24.201 43.8266 20.3283 43.8266 15.5512C43.8266 10.7741 39.9543 6.90137 35.1772 6.90137C30.4001 6.90137 26.5273 10.7741 26.5273 15.5512C26.5273 20.3283 30.4001 24.201 35.1772 24.201Z" fill="#FFF7A9"/>
<path d="M64.8471 35.3577C69.6242 35.3577 73.4969 31.4855 73.4969 26.7084C73.4969 21.9313 69.6242 18.0586 64.8471 18.0586C60.07 18.0586 56.1973 21.9313 56.1973 26.7084C56.1973 31.4855 60.07 35.3577 64.8471 35.3577Z" fill="#FFF7A9"/>
<path d="M51.5433 31.0202C49.5127 34.5865 45.4608 36.7528 41.1429 36.1599C35.4807 35.3851 31.5175 30.1614 32.2971 24.4992C32.5025 22.9915 33.03 21.6147 33.7909 20.4057C33.3381 19.4301 33.1422 18.3142 33.3009 17.1659C33.7397 13.9824 36.6757 11.7511 39.8592 12.1898C41.9878 12.4839 43.6823 13.8937 44.4479 15.7469C45.7502 15.9896 46.9546 16.4656 48.0236 17.1331C49.3493 16.4236 50.899 16.1064 52.5001 16.3258C56.5425 16.8813 59.3668 20.6063 58.816 24.6487C58.3118 28.3364 55.161 31.0065 51.5387 31.0252L51.5433 31.0202Z" fill="url(#paint4_linear_2296_2374)"/>
<path d="M13.9614 32.846C18.7385 32.846 22.6107 28.9733 22.6107 24.1962C22.6107 19.4191 18.7385 15.5469 13.9614 15.5469C9.18426 15.5469 5.31152 19.4191 5.31152 24.1962C5.31152 28.9733 9.18426 32.846 13.9614 32.846Z" fill="url(#paint5_linear_2296_2374)"/>
<path d="M34.6967 32.846C39.4738 32.846 43.3465 28.9733 43.3465 24.1962C43.3465 19.4191 39.4738 15.5469 34.6967 15.5469C29.9196 15.5469 26.0469 19.4191 26.0469 24.1962C26.0469 28.9733 29.9196 32.846 34.6967 32.846Z" fill="#FFF7A9"/>
<path d="M67.4004 30.9743C66.028 27.548 62.6811 25.1252 58.7647 25.1252C53.6253 25.1252 49.457 29.2939 49.457 34.4333C49.457 39.5727 53.6253 43.7409 58.7647 43.7409C60.123 43.7409 61.4069 43.4423 62.5692 42.9194C63.6615 43.713 65.0058 44.1844 66.4622 44.1844C70.1312 44.1844 73.1049 41.2112 73.1049 37.5422C73.1049 34.1953 70.6259 31.4317 67.4004 30.9743Z" fill="url(#paint6_linear_2296_2374)"/>
<path d="M28.035 25.8255C31.7554 24.0891 36.3113 24.668 39.4902 27.6508C43.6587 31.5625 43.8691 38.1115 39.962 42.28C38.921 43.391 37.6932 44.2078 36.3721 44.7539C36.1761 45.8135 35.6906 46.8315 34.897 47.6764C32.6984 50.0197 29.0154 50.1407 26.6675 47.9421C25.099 46.4717 24.534 44.3388 24.9822 42.3876C24.0579 41.4353 23.3534 40.3521 22.8679 39.1898C21.3742 39.0031 19.9271 38.3637 18.7461 37.2574C15.7726 34.466 15.6182 29.7933 18.4097 26.8152C20.9584 24.0985 25.071 23.7436 28.0305 25.8255H28.035Z" fill="url(#paint7_linear_2296_2374)"/>
<path d="M18.3633 31.6781C16.9909 28.2519 13.644 25.8291 9.72756 25.8291C4.58815 25.8291 0.419922 29.9978 0.419922 35.1372C0.419922 40.2765 4.58815 44.4452 9.72756 44.4452C11.0859 44.4452 12.3698 44.1461 13.5321 43.6233C14.6244 44.4169 15.9687 44.8883 17.4251 44.8883C21.0941 44.8883 24.0674 41.9151 24.0674 38.2461C24.0674 34.8992 21.5888 32.1356 18.3633 31.6781Z" fill="#FFF7A9"/>
<path d="M6.44551 44.8985C9.19628 44.8985 11.4262 42.6687 11.4262 39.9179C11.4262 37.1671 9.19628 34.9373 6.44551 34.9373C3.69474 34.9373 1.46484 37.1671 1.46484 39.9179C1.46484 42.6687 3.69474 44.8985 6.44551 44.8985Z" fill="#FFF083"/>
<path d="M37.9545 38.2608C38.0385 38.4895 38.1276 38.7132 38.2303 38.9372C40.1114 42.975 44.9101 44.721 48.9479 42.8398C49.9795 42.359 50.8568 41.687 51.5663 40.8887C52.5512 40.8934 53.5502 40.6926 54.5024 40.2492C57.9474 38.6434 59.4364 34.5447 57.8306 31.0998C56.2249 27.6548 52.1266 26.1658 48.6816 27.7716C48.5556 27.8323 48.4388 27.8977 48.3174 27.963C46.3709 27.2489 44.1538 27.2768 42.1233 28.2197C41.7498 28.3924 41.404 28.6025 41.068 28.8219C40.0877 28.6492 39.0471 28.7611 38.0762 29.2139C35.5602 30.3856 34.4725 33.378 35.6442 35.894C36.1437 36.9629 36.9698 37.7706 37.9454 38.2608H37.9545Z" fill="#FFF7A9"/>
<path d="M7.07129 39.5996H17.8819V104.876H10.6374C9.93725 104.876 9.33988 104.381 9.25118 103.718L7.07129 87.8849V39.5996Z" fill="url(#paint8_linear_2296_2374)"/>
<path d="M42.5379 39.5996H31.5449V104.876H42.5379V39.5996Z" fill="url(#paint9_linear_2296_2374)"/>
<path d="M66.8814 39.5996V87.8288L64.6965 103.704C64.6031 104.372 64.0057 104.876 63.2915 104.876H56.2012V39.5996H66.8814Z" fill="url(#paint10_linear_2296_2374)"/>
<path d="M7.07164 39.5996V87.8849L0.634522 41.1121C0.522491 40.3092 1.18067 39.5996 2.03491 39.5996H7.0762H7.07164Z" fill="#FA9EFA"/>
<path d="M31.5461 39.5996H17.8828V104.876H31.5461V39.5996Z" fill="#FA9EFA"/>
<path d="M56.2024 39.5996H42.5391V104.876H56.2024V39.5996Z" fill="#FA9EFA"/>
<path d="M73.3141 41.103L66.877 87.8288V39.5996H71.9233C72.7682 39.5996 73.4215 40.3048 73.3095 41.103H73.3141Z" fill="#FA9EFA"/>
<path d="M37.0399 85.2066C49.4145 85.2066 59.4461 77.8964 59.4461 68.8784C59.4461 59.8605 49.4145 52.5498 37.0399 52.5498C24.6654 52.5498 14.6338 59.8605 14.6338 68.8784C14.6338 77.8964 24.6654 85.2066 37.0399 85.2066Z" fill="#A6C6FF"/>
<path d="M37.039 81.9384C26.6668 81.9384 17.9004 75.959 17.9004 68.8777C17.9004 61.7965 26.6668 55.8167 37.039 55.8167C47.4112 55.8167 56.1776 61.7965 56.1776 68.8777C56.1776 75.959 47.4112 81.9384 37.039 81.9384Z" fill="url(#paint11_linear_2296_2374)"/>
<defs>
<linearGradient id="paint0_linear_2296_2374" x1="101.556" y1="56.9704" x2="39.1078" y2="83.5778" gradientUnits="userSpaceOnUse">
<stop offset="0.21" stop-color="#78F5BE"/>
<stop offset="0.62" stop-color="#78F5BE"/>
<stop offset="0.65" stop-color="#78F5BE"/>
<stop offset="0.69" stop-color="#73F3BA"/>
<stop offset="0.75" stop-color="#64F0B0"/>
<stop offset="0.81" stop-color="#4CEA9E"/>
<stop offset="0.88" stop-color="#2BE287"/>
<stop offset="0.9" stop-color="#20E07F"/>
</linearGradient>
<linearGradient id="paint1_linear_2296_2374" x1="68.2365" y1="77.5083" x2="67.9844" y2="104.792" gradientUnits="userSpaceOnUse">
<stop stop-color="#5086FD"/>
<stop offset="0.4" stop-color="#5287FD"/>
<stop offset="0.58" stop-color="#598DFD"/>
<stop offset="0.71" stop-color="#6696FD"/>
<stop offset="0.83" stop-color="#78A3FD"/>
<stop offset="0.93" stop-color="#8FB5FE"/>
<stop offset="1" stop-color="#A6C6FF"/>
</linearGradient>
<linearGradient id="paint2_linear_2296_2374" x1="66.8954" y1="31.2926" x2="66.5686" y2="66.6804" gradientUnits="userSpaceOnUse">
<stop stop-color="#5086FD"/>
<stop offset="0.4" stop-color="#5287FD"/>
<stop offset="0.58" stop-color="#598DFD"/>
<stop offset="0.71" stop-color="#6696FD"/>
<stop offset="0.83" stop-color="#78A3FD"/>
<stop offset="0.93" stop-color="#8FB5FE"/>
<stop offset="1" stop-color="#A6C6FF"/>
</linearGradient>
<linearGradient id="paint3_linear_2296_2374" x1="25.4963" y1="10.3746" x2="27.2841" y2="33.9524" gradientUnits="userSpaceOnUse">
<stop offset="0.13" stop-color="#FFF7A9"/>
<stop offset="0.22" stop-color="#FFF5A3"/>
<stop offset="0.35" stop-color="#FFF293"/>
<stop offset="0.48" stop-color="#FFEC7A"/>
<stop offset="0.63" stop-color="#FFE555"/>
<stop offset="0.78" stop-color="#FFDB27"/>
</linearGradient>
<linearGradient id="paint4_linear_2296_2374" x1="42.506" y1="35.5484" x2="48.2009" y2="12.1245" gradientUnits="userSpaceOnUse">
<stop offset="0.24" stop-color="#FFE969"/>
<stop offset="0.54" stop-color="#FFED7F"/>
<stop offset="1" stop-color="#FFF7A9"/>
</linearGradient>
<linearGradient id="paint5_linear_2296_2374" x1="12.1126" y1="15.8129" x2="15.8329" y2="32.706" gradientUnits="userSpaceOnUse">
<stop offset="0.16" stop-color="#FFF7A9"/>
<stop offset="0.27" stop-color="#FFF5A1"/>
<stop offset="0.44" stop-color="#FFF18C"/>
<stop offset="0.51" stop-color="#FFF083"/>
</linearGradient>
<linearGradient id="paint6_linear_2296_2374" x1="68.5443" y1="28.038" x2="55.222" y2="41.6171" gradientUnits="userSpaceOnUse">
<stop stop-color="#FFF7A9"/>
<stop offset="0.18" stop-color="#FFF6A4"/>
<stop offset="0.37" stop-color="#FFF398"/>
<stop offset="0.56" stop-color="#FFF083"/>
</linearGradient>
<linearGradient id="paint7_linear_2296_2374" x1="33.1606" y1="21.6198" x2="25.7153" y2="46.8967" gradientUnits="userSpaceOnUse">
<stop stop-color="#FFF7A9"/>
<stop offset="0.17" stop-color="#FFF5A2"/>
<stop offset="0.41" stop-color="#FFF191"/>
<stop offset="0.68" stop-color="#FFEB75"/>
<stop offset="0.78" stop-color="#FFE969"/>
</linearGradient>
<linearGradient id="paint8_linear_2296_2374" x1="12.7753" y1="39.7863" x2="12.1731" y2="104.732" gradientUnits="userSpaceOnUse">
<stop offset="0.15" stop-color="#FB64FF"/>
<stop offset="1" stop-color="#FA9EFA"/>
</linearGradient>
<linearGradient id="paint9_linear_2296_2374" x1="37.3425" y1="39.7863" x2="36.7403" y2="104.764" gradientUnits="userSpaceOnUse">
<stop offset="0.15" stop-color="#FB64FF"/>
<stop offset="1" stop-color="#FA9EFA"/>
</linearGradient>
<linearGradient id="paint10_linear_2296_2374" x1="61.7607" y1="39.7863" x2="61.1585" y2="104.764" gradientUnits="userSpaceOnUse">
<stop offset="0.15" stop-color="#FB64FF"/>
<stop offset="1" stop-color="#FA9EFA"/>
</linearGradient>
<linearGradient id="paint11_linear_2296_2374" x1="37.039" y1="81.9384" x2="37.039" y2="55.8167" gradientUnits="userSpaceOnUse">
<stop stop-color="#7DACFF"/>
<stop offset="0.14" stop-color="#75A5FE"/>
<stop offset="1" stop-color="#4D83FD"/>
</linearGradient>
</defs>
</svg>
