<svg width="108" height="90" viewBox="0 0 108 90" fill="none" xmlns="http://www.w3.org/2000/svg">
<path d="M7.88184 24.8129L7.88184 37.874L102.184 37.874V24.8129L7.88184 24.8129Z" fill="url(#paint0_linear_2296_2375)"/>
<path d="M7.88184 67.6372L7.88184 80.6982H102.184V67.6372H7.88184Z" fill="url(#paint1_linear_2296_2375)"/>
<path d="M12.2363 20.3082V21.6758C12.2363 23.4082 13.6411 24.8125 15.3735 24.8125H29.1859C30.9183 24.8125 32.3226 23.4082 32.3226 21.6758V20.3082C32.3226 18.5758 30.9183 17.1715 29.1859 17.1715H15.3735C13.6411 17.1715 12.2363 18.5758 12.2363 20.3082Z" fill="#4D83FD"/>
<path d="M97.6974 17.6814V27.3437C97.6974 28.5107 96.7542 29.4584 95.5872 29.4584H44.7207V15.5713H95.5872C96.7542 15.5713 97.6974 16.5144 97.6974 17.6814Z" fill="url(#paint2_linear_2296_2375)"/>
<path d="M106.67 0.321289H99.0284C98.2937 0.321289 97.6982 0.916729 97.6982 1.65147V88.3305C97.6982 89.0652 98.2937 89.6606 99.0284 89.6606H106.67C107.405 89.6606 108 89.0652 108 88.3305V1.65147C108 0.916729 107.405 0.321289 106.67 0.321289Z" fill="url(#paint3_linear_2296_2375)"/>
<path d="M9.25924 0.321289H1.61775C0.883008 0.321289 0.287109 0.916729 0.287109 1.65147V88.3305C0.287109 89.0652 0.883008 89.6606 1.61775 89.6606H9.25924C9.99398 89.6606 10.5894 89.0652 10.5894 88.3305V1.65147C10.5894 0.916729 9.99398 0.321289 9.25924 0.321289Z" fill="#78F5BE"/>
<path d="M12.2422 63.1324V64.5C12.2422 66.2324 13.6465 67.6367 15.3789 67.6367H29.1918C30.9242 67.6367 32.3285 66.2324 32.3285 64.5V63.1324C32.3285 61.4 30.9242 59.9953 29.1918 59.9953H15.3789C13.6465 59.9953 12.2422 61.4 12.2422 63.1324Z" fill="#4D83FD"/>
<path d="M95.4377 58.3994H40.8697C39.6193 58.3994 38.6055 59.4128 38.6055 60.6632V70.0177C38.6055 71.2681 39.6193 72.2819 40.8697 72.2819H95.4377C96.6881 72.2819 97.702 71.2681 97.702 70.0177V60.6632C97.702 59.4128 96.6881 58.3994 95.4377 58.3994Z" fill="url(#paint4_linear_2296_2375)"/>
<path d="M90.1771 21.4154V30.6017C90.1771 31.0125 89.8459 31.3484 89.4305 31.3484H71.6872C71.2765 31.3484 70.9405 31.0171 70.9405 30.6017V21.4154C70.9405 21.0046 70.6089 20.6682 70.1934 20.6682H67.7008C67.29 20.6682 66.9541 20.9999 66.9541 21.4154V89.0347C66.9541 89.4455 67.2853 89.7818 67.7008 89.7818H70.1934C70.6042 89.7818 70.9405 89.4501 70.9405 89.0347V76.6556C70.9405 76.2448 71.2718 75.9084 71.6872 75.9084H89.4305C89.8412 75.9084 90.1771 76.2401 90.1771 76.6556V89.0347C90.1771 89.4455 90.5084 89.7818 90.9238 89.7818H93.4165C93.8272 89.7818 94.1636 89.4501 94.1636 89.0347V21.4154C94.1636 21.0046 93.8319 20.6682 93.4165 20.6682H90.9238C90.5131 20.6682 90.1771 20.9999 90.1771 21.4154ZM71.6872 48.8531H89.4305C89.8412 48.8531 90.1771 49.1848 90.1771 49.6003V57.6524C90.1771 58.0632 89.8459 58.3991 89.4305 58.3991H71.6872C71.2765 58.3991 70.9405 58.0679 70.9405 57.6524V49.6003C70.9405 49.1895 71.2718 48.8531 71.6872 48.8531ZM90.1771 36.0724V44.1246C90.1771 44.5353 89.8459 44.8717 89.4305 44.8717H71.6872C71.2765 44.8717 70.9405 44.54 70.9405 44.1246V36.0724C70.9405 35.6616 71.2718 35.3257 71.6872 35.3257H89.4305C89.8412 35.3257 90.1771 35.6569 90.1771 36.0724ZM70.9405 71.1799V63.1277C70.9405 62.7169 71.2718 62.381 71.6872 62.381H89.4305C89.8412 62.381 90.1771 62.7122 90.1771 63.1277V71.1799C90.1771 71.5906 89.8459 71.927 89.4305 71.927H71.6872C71.2765 71.927 70.9405 71.5953 70.9405 71.1799Z" fill="#FA9EFA"/>
<path d="M44.7256 15.5752V29.4623H40.7114C39.5444 29.4623 38.5967 28.515 38.5967 27.348V17.6853C38.5967 16.5184 39.5444 15.5752 40.7114 15.5752H44.7256Z" fill="#E5E5E5"/>
<path d="M44.7266 58.3955V72.2826H40.7124C39.5454 72.2826 38.5977 71.3349 38.5977 70.1679V60.5052C38.5977 59.3382 39.5454 58.3955 40.7124 58.3955H44.7266Z" fill="#E5E5E5"/>
<defs>
<linearGradient id="paint0_linear_2296_2375" x1="97.6743" y1="31.3435" x2="10.902" y2="31.3435" gradientUnits="userSpaceOnUse">
<stop stop-color="#78F5BE"/>
<stop offset="0.46" stop-color="#76F4BC"/>
<stop offset="0.62" stop-color="#6FF2B7"/>
<stop offset="0.74" stop-color="#63F0AF"/>
<stop offset="0.83" stop-color="#52ECA3"/>
<stop offset="0.91" stop-color="#3CE693"/>
<stop offset="0.98" stop-color="#22E080"/>
<stop offset="0.99" stop-color="#20E07F"/>
</linearGradient>
<linearGradient id="paint1_linear_2296_2375" x1="97.6743" y1="74.1677" x2="10.902" y2="74.1677" gradientUnits="userSpaceOnUse">
<stop stop-color="#78F5BE"/>
<stop offset="0.46" stop-color="#76F4BC"/>
<stop offset="0.62" stop-color="#6FF2B7"/>
<stop offset="0.74" stop-color="#63F0AF"/>
<stop offset="0.83" stop-color="#52ECA3"/>
<stop offset="0.91" stop-color="#3CE693"/>
<stop offset="0.98" stop-color="#22E080"/>
<stop offset="0.99" stop-color="#20E07F"/>
</linearGradient>
<linearGradient id="paint2_linear_2296_2375" x1="71.2114" y1="29.4584" x2="71.2114" y2="15.576" gradientUnits="userSpaceOnUse">
<stop stop-color="#7DACFF"/>
<stop offset="0.14" stop-color="#75A5FE"/>
<stop offset="1" stop-color="#4D83FD"/>
</linearGradient>
<linearGradient id="paint3_linear_2296_2375" x1="108.051" y1="44.9886" x2="96.2419" y2="44.9886" gradientUnits="userSpaceOnUse">
<stop stop-color="#78F5BE"/>
<stop offset="0.41" stop-color="#75F4BC"/>
<stop offset="0.59" stop-color="#6EF2B7"/>
<stop offset="0.72" stop-color="#62EFAE"/>
<stop offset="0.83" stop-color="#50EBA1"/>
<stop offset="0.92" stop-color="#39E691"/>
<stop offset="1" stop-color="#20E07F"/>
</linearGradient>
<linearGradient id="paint4_linear_2296_2375" x1="68.1537" y1="72.2073" x2="68.1537" y2="58.3247" gradientUnits="userSpaceOnUse">
<stop stop-color="#7DACFF"/>
<stop offset="0.14" stop-color="#75A5FE"/>
<stop offset="1" stop-color="#4D83FD"/>
</linearGradient>
</defs>
</svg>
