<svg width="144" height="85" viewBox="0 0 144 85" fill="none" xmlns="http://www.w3.org/2000/svg">
<path d="M62.88 33.69C63.81 31.104 64.32 28.344 64.32 25.47C64.32 15.582 58.338 6.97805 49.506 2.55005L48.24 12.354C52.524 15.474 55.254 20.196 55.254 25.47C55.254 26.022 55.218 26.568 55.158 27.108C49.602 23.586 43.008 21.534 35.94 21.534C28.872 21.534 22.284 23.586 16.728 27.108C16.668 26.568 16.626 26.022 16.626 25.47C16.626 20.202 19.362 15.48 23.64 12.354L22.374 2.55005C13.554 6.97805 7.56 15.582 7.56 25.47C7.56 28.344 8.07 31.104 9.006 33.69C3.402 40.026 0 48.348 0 57.4681C0 67.122 3.81 75.882 9.996 82.3381C10.938 83.3221 12.234 83.892 13.59 83.892H58.278C59.64 83.892 60.93 83.3221 61.872 82.3381C68.064 75.882 71.868 67.122 71.868 57.4681C71.868 48.348 68.466 40.026 62.868 33.69H62.88Z" fill="url(#paint0_linear_2437_1705)"/>
<path d="M35.9459 65.808C47.3285 65.808 56.5559 57.8781 56.5559 48.096C56.5559 38.314 47.3285 30.384 35.9459 30.384C24.5633 30.384 15.3359 38.314 15.3359 48.096C15.3359 57.8781 24.5633 65.808 35.9459 65.808Z" fill="url(#paint1_linear_2437_1705)"/>
<path d="M56.0041 6.858L54.9601 14.958C54.7021 16.956 52.5301 18.12 50.7481 17.178C46.4161 14.892 41.3521 13.584 35.9461 13.584C30.5401 13.584 25.4761 14.892 21.1441 17.178C19.3621 18.12 17.1901 16.956 16.9321 14.958L15.8881 6.858C15.7201 5.574 16.4161 4.332 17.6041 3.81C23.1541 1.368 29.3761 0 35.9521 0C42.5281 0 48.7441 1.368 54.3001 3.81C55.4821 4.332 56.1781 5.574 56.0161 6.858H56.0041Z" fill="url(#paint2_linear_2437_1705)"/>
<path d="M28.4338 56.2258C27.2398 56.2258 26.1898 56.0579 25.2778 55.7159C24.3658 55.3739 23.6338 54.8818 23.0818 54.2398C22.5298 53.5978 22.1998 52.8118 22.0918 51.8878H25.5418C25.6558 52.4878 25.9438 52.9318 26.4118 53.2258C26.8798 53.5198 27.4858 53.6698 28.2298 53.6698C29.0758 53.6698 29.7238 53.4898 30.1858 53.1358C30.6478 52.7818 30.8758 52.2719 30.8758 51.6119V51.1799C30.8758 50.4719 30.6718 49.9258 30.2638 49.5358C29.8558 49.1458 29.2738 48.9538 28.5118 48.9538H26.9218V46.4339H28.5118C29.1598 46.4339 29.6578 46.2659 30.0118 45.9299C30.3658 45.5939 30.5398 45.1258 30.5398 44.5198V44.1299C30.5398 43.5599 30.3478 43.1278 29.9698 42.8218C29.5918 42.5158 29.0518 42.3598 28.3558 42.3598C27.7258 42.3598 27.1978 42.5159 26.7598 42.8279C26.3218 43.1399 26.0278 43.6139 25.8658 44.2499H22.4338C22.6678 42.8339 23.3278 41.7359 24.4018 40.9619C25.4758 40.1879 26.8198 39.7979 28.4278 39.7979C30.2098 39.7979 31.5898 40.1639 32.5738 40.8959C33.5578 41.6279 34.0438 42.6539 34.0438 43.9799V44.3578C34.0438 45.1318 33.7858 45.8038 33.2698 46.3738C32.7538 46.9438 32.0218 47.3698 31.0738 47.6518C32.1238 47.8378 32.9398 48.2518 33.5158 48.9058C34.0918 49.5598 34.3798 50.3878 34.3798 51.4018V51.7799C34.3798 53.1899 33.8638 54.2818 32.8258 55.0558C31.7878 55.8298 30.3298 56.2198 28.4398 56.2198L28.4338 56.2258Z" fill="#F917FF"/>
<path d="M44.148 56.2256C42.162 56.2256 40.668 55.8116 39.666 54.9896C38.664 54.1676 38.166 53.0576 38.166 51.6536V44.3396C38.166 42.9176 38.67 41.8016 39.678 40.9856C40.686 40.1696 42.174 39.7676 44.148 39.7676C46.122 39.7676 47.616 40.1696 48.624 40.9796C49.626 41.7896 50.13 42.9056 50.13 44.3396V51.6536C50.13 53.0756 49.626 54.1916 48.618 55.0076C47.61 55.8236 46.122 56.2256 44.148 56.2256ZM44.148 53.6936C45.078 53.6936 45.744 53.4776 46.152 53.0456C46.56 52.6136 46.764 52.0196 46.764 51.2696V44.7296C46.764 43.9676 46.56 43.3736 46.152 42.9476C45.744 42.5216 45.078 42.3056 44.148 42.3056C43.218 42.3056 42.552 42.5216 42.144 42.9476C41.736 43.3736 41.532 43.9676 41.532 44.7296V51.2696C41.532 52.0196 41.736 52.6136 42.144 53.0456C42.552 53.4776 43.218 53.6936 44.148 53.6936Z" fill="#F917FF"/>
<path d="M141.366 50.9953L139.728 50.9985C138.443 51.0009 137.402 52.0452 137.405 53.3309L137.416 59.1629C137.419 60.4486 138.463 61.4889 139.749 61.4864L141.387 61.4833C142.672 61.4808 143.713 60.4366 143.71 59.1508L143.699 53.3188C143.696 52.0331 142.652 50.9928 141.366 50.9953Z" fill="url(#paint3_linear_2437_1705)"/>
<path d="M70.2447 54.7562L70.2509 58.0082C70.2558 60.5531 72.3228 62.6123 74.8678 62.6074L121.164 62.5185C123.709 62.5136 125.768 60.4466 125.763 57.9016L125.757 54.6496C125.752 52.1047 123.685 50.0456 121.14 50.0505L74.8438 50.1394C72.2989 50.1443 70.2398 52.2113 70.2447 54.7562Z" fill="url(#paint4_linear_2437_1705)"/>
<path d="M58.4465 51.1545L56.8085 51.1576C55.5227 51.1601 54.4825 52.2044 54.4849 53.4901L54.4961 59.3221C54.4986 60.6078 55.5429 61.6481 56.8286 61.6456L58.4666 61.6425C59.7523 61.64 60.7926 60.5957 60.7901 59.31L60.7789 53.478C60.7765 52.1923 59.7322 51.152 58.4465 51.1545Z" fill="url(#paint5_linear_2437_1705)"/>
<path d="M66.4518 33.1324L63.1998 33.1386C60.6549 33.1435 58.5958 35.2105 58.6006 37.7555L58.6722 75.0454C58.6771 77.5903 60.7441 79.6494 63.2891 79.6445L66.5411 79.6383C69.086 79.6334 71.1451 77.5664 71.1402 75.0214L71.0686 37.7315C71.0637 35.1866 68.9967 33.1275 66.4518 33.1324Z" fill="#A5C5FF"/>
<path d="M76.4391 28.6138L73.1871 28.6201C70.6422 28.6249 68.5831 30.692 68.5879 33.2369L68.6768 79.5328C68.6817 82.0777 70.7487 84.1368 73.2937 84.132L76.5457 84.1257C79.0906 84.1208 81.1497 82.0538 81.1448 79.5089L81.0559 33.213C81.051 30.668 78.984 28.6089 76.4391 28.6138Z" fill="#4D82FC"/>
<path d="M134.911 33.0015L131.659 33.0078C129.114 33.0126 127.055 35.0797 127.06 37.6246L127.131 74.9145C127.136 77.4594 129.203 79.5186 131.748 79.5137L135 79.5074C137.545 79.5025 139.604 77.4355 139.599 74.8906L139.528 37.6007C139.523 35.0557 137.456 32.9966 134.911 33.0015Z" fill="#A5C5FF"/>
<path d="M124.907 28.521L121.655 28.5273C119.11 28.5322 117.051 30.5992 117.056 33.1441L117.145 79.44C117.149 81.985 119.217 84.0441 121.761 84.0392L125.013 84.0329C127.558 84.0281 129.617 81.961 129.613 79.4161L129.524 33.1202C129.519 30.5753 127.452 28.5162 124.907 28.521Z" fill="#4D82FC"/>
<defs>
<linearGradient id="paint0_linear_2437_1705" x1="0.006" y1="43.224" x2="71.88" y2="43.224" gradientUnits="userSpaceOnUse">
<stop offset="0.15" stop-color="#FA64FF"/>
<stop offset="1" stop-color="#F99DF9"/>
</linearGradient>
<linearGradient id="paint1_linear_2437_1705" x1="66.0299" y1="48.156" x2="17.7959" y2="48.06" gradientUnits="userSpaceOnUse">
<stop stop-color="#FA64FF"/>
<stop offset="0.41" stop-color="#F978FC"/>
<stop offset="1" stop-color="#F99DF9"/>
</linearGradient>
<linearGradient id="paint2_linear_2437_1705" x1="35.9401" y1="0" x2="35.9401" y2="17.508" gradientUnits="userSpaceOnUse">
<stop offset="0.09" stop-color="#78F4BD"/>
<stop offset="0.27" stop-color="#67F0B1"/>
<stop offset="0.62" stop-color="#3DE693"/>
<stop offset="0.84" stop-color="#20DF7F"/>
</linearGradient>
<linearGradient id="paint3_linear_2437_1705" x1="143.71" y1="56.2348" x2="137.41" y2="56.2469" gradientUnits="userSpaceOnUse">
<stop stop-color="#78F4BD"/>
<stop offset="0.03" stop-color="#74F3BA"/>
<stop offset="0.47" stop-color="#46E89A"/>
<stop offset="0.81" stop-color="#2AE186"/>
<stop offset="1" stop-color="#20DF7F"/>
</linearGradient>
<linearGradient id="paint4_linear_2437_1705" x1="70.2478" y1="56.3762" x2="125.76" y2="56.2696" gradientUnits="userSpaceOnUse">
<stop offset="0.1" stop-color="#5085FC"/>
<stop offset="0.35" stop-color="#6A99FC"/>
<stop offset="0.78" stop-color="#94B8FE"/>
<stop offset="1" stop-color="#A5C5FF"/>
</linearGradient>
<linearGradient id="paint5_linear_2437_1705" x1="54.4905" y1="56.4061" x2="60.7845" y2="56.394" gradientUnits="userSpaceOnUse">
<stop stop-color="#78F4BD"/>
<stop offset="0.03" stop-color="#74F3BA"/>
<stop offset="0.47" stop-color="#46E89A"/>
<stop offset="0.81" stop-color="#2AE186"/>
<stop offset="1" stop-color="#20DF7F"/>
</linearGradient>
</defs>
</svg>
