<svg width="47" height="51" viewBox="0 0 47 51" fill="none" xmlns="http://www.w3.org/2000/svg">
<path d="M22.2168 0.917304C23.0267 0.506732 23.984 0.506732 24.7939 0.917304L32.5996 4.87336V3.30695C32.5998 3.02112 32.8313 2.78961 33.1171 2.78937H42.0625C42.3483 2.78958 42.5798 3.0211 42.58 3.30695V9.93195L45.1699 11.2454C46.1274 11.7309 46.7304 12.7138 46.7304 13.7874V43.2552C46.7304 44.829 45.4547 46.1048 43.8808 46.1048H3.12984C1.55607 46.1047 0.280228 44.829 0.280228 43.2552V13.7874C0.280273 12.7138 0.884094 11.7309 1.84175 11.2454L22.2168 0.917304Z" fill="url(#paint0_linear_3367_19466)"/>
<path d="M16.4296 25.8046C16.4296 25.5555 16.6316 25.3535 16.8807 25.3535H30.1305C30.3797 25.3535 30.5817 25.5555 30.5817 25.8046V46.1046H16.4296V25.8046Z" fill="#4D82FC"/>
<path d="M16.4296 25.6979C16.4296 25.5354 16.5963 25.4262 16.7453 25.4912L26.2186 29.6218C26.3009 29.6577 26.354 29.7388 26.354 29.8286V50.0475C26.354 50.2096 26.1882 50.3188 26.0393 50.2547L16.566 46.1763C16.4832 46.1407 16.4296 46.0592 16.4296 45.9691V25.6979Z" fill="#B1CAFF"/>
<defs>
<linearGradient id="paint0_linear_3367_19466" x1="23.5053" y1="46.1048" x2="23.5053" y2="0.609375" gradientUnits="userSpaceOnUse">
<stop stop-color="#6396FF"/>
<stop offset="1" stop-color="#A3C1FF"/>
</linearGradient>
</defs>
</svg>
