<svg width="150" height="130" viewBox="0 0 150 130" fill="none" xmlns="http://www.w3.org/2000/svg">
<path d="M149.214 114.963C148.76 105.819 144.873 97.6218 138.84 91.5975C138.637 91.3941 138.429 91.1907 138.221 90.9959C135.084 88.0141 131.409 85.6035 127.359 83.92C132.037 80.6351 135.59 75.7144 137.278 69.9281C137.313 69.9281 137.347 69.9281 137.382 69.9281C141.246 69.9281 144.38 66.5048 144.38 62.2809C144.38 58.0569 141.246 54.6336 137.382 54.6336C137.343 54.6336 137.308 54.6336 137.269 54.6336C134.179 44.0218 124.814 36.301 113.739 36.301C102.664 36.301 93.1645 44.1257 90.1393 54.8587C90.0658 54.8587 89.9879 54.85 89.9143 54.85C86.0496 54.85 82.9162 58.2777 82.9162 62.4973C82.9162 66.7169 86.0496 70.1445 89.9143 70.1445C90.0312 70.1445 90.148 70.1402 90.2649 70.1315C91.9787 75.8269 95.4972 80.6698 100.119 83.9113C95.7179 85.742 91.7536 88.4252 88.4515 91.7749C82.6219 97.6781 78.8351 105.633 78.2811 114.513L77.3766 125.077C77.2078 127.735 79.3241 129.985 81.9857 129.985H145.315C147.959 129.985 150.062 127.774 149.928 125.134L149.218 114.955L149.214 114.963Z" fill="#B1FFDA"/>
<path d="M99.3322 123.35C99.514 126.964 96.6316 129.989 93.0179 129.989H6.32315C2.67913 129.989 -0.220502 126.912 0.0131997 123.272L1.25095 108.809C2.00832 96.6475 7.19304 85.763 15.1735 77.683C24.0109 68.7201 36.2889 63.2021 49.7917 63.2021C63.2945 63.2021 74.5684 68.283 83.3149 76.6011C83.6006 76.8694 83.8819 77.1464 84.1632 77.4234C92.4207 85.6722 97.7439 96.8899 98.3628 109.41L99.3365 123.346L99.3322 123.35Z" fill="url(#paint0_linear_2873_5310)"/>
<path d="M73.7551 68.8051L77.3601 130H21.9814L25.5865 70.4453C28.2914 68.7748 31.1694 67.3639 34.1859 66.243V85.0647C34.1859 86.0038 34.9476 86.7655 35.8867 86.7655H63.4506C64.3897 86.7655 65.1514 86.0038 65.1514 85.0647V65.2822C68.1462 66.1824 71.0242 67.3682 73.7508 68.8094L73.7551 68.8051Z" fill="url(#paint1_linear_2873_5310)"/>
<path d="M18.2769 27.2069C17.4027 30.5047 16.9353 33.9929 16.9353 37.6023C16.9353 41.2117 17.4027 44.7 18.2769 48.0021C17.9177 48.0497 17.5498 48.0757 17.1819 48.0757C11.8934 48.0757 7.60449 43.3886 7.60449 37.6067C7.60449 31.8247 11.8934 27.1377 17.1819 27.1377C17.5498 27.1377 17.9177 27.1637 18.2769 27.2156V27.2069Z" fill="url(#paint2_linear_2873_5310)"/>
<path d="M81.0684 26.9091C81.9426 30.2069 82.41 33.6951 82.41 37.3045C82.41 40.9139 81.9426 44.4021 81.0684 47.7042C81.4276 47.7518 81.7954 47.7778 82.1633 47.7778C87.4519 47.7778 91.7407 43.0908 91.7407 37.3088C91.7407 31.5269 87.4519 26.8398 82.1633 26.8398C81.7954 26.8398 81.4276 26.8658 81.0684 26.9177V26.9091Z" fill="url(#paint3_linear_2873_5310)"/>
<path d="M83.505 37.2999C83.505 56.9395 68.414 72.8572 49.7957 72.8572C31.1774 72.8572 16.082 56.9352 16.082 37.2999C16.082 34.4349 16.4023 31.6521 17.0125 28.9819C20.557 13.3541 33.8867 1.73828 49.7914 1.73828C65.6961 1.73828 79.0258 13.3585 82.5659 28.9862C83.1805 31.6521 83.4964 34.4392 83.4964 37.2999H83.505Z" fill="#FEE1FF"/>
<path d="M83.034 23.2577C77.3818 9.27451 64.6451 0 50.1556 0C35.666 0 23.5655 8.82008 17.7056 22.219C17.4243 22.8595 16.8011 23.2577 16.126 23.2577H8.76435C7.79059 23.2577 7.00293 24.054 7.00293 25.0451C7.00293 25.5384 7.20201 25.9842 7.51794 26.3088C7.84252 26.629 8.28396 26.8324 8.76435 26.8324H81.8395C83.0599 26.8324 83.9082 25.5687 83.4711 24.3872C83.3326 24.0064 83.1854 23.6299 83.034 23.2577Z" fill="url(#paint4_linear_2873_5310)"/>
<path d="M58.8364 22.6716H23.1517C22.8554 22.6716 22.6152 22.9122 22.6152 23.209V23.2482C22.6152 23.5449 22.8554 23.7855 23.1517 23.7855H58.8364C59.1326 23.7855 59.3728 23.5449 59.3728 23.2482V23.209C59.3728 22.9122 59.1326 22.6716 58.8364 22.6716Z" fill="#00BA5D"/>
<defs>
<linearGradient id="paint0_linear_2873_5310" x1="49.6705" y1="143.016" x2="49.6705" y2="43.6707" gradientUnits="userSpaceOnUse">
<stop offset="0.23" stop-color="#78F5BE"/>
<stop offset="0.38" stop-color="#73F3BA"/>
<stop offset="0.55" stop-color="#64F0B0"/>
<stop offset="0.74" stop-color="#4DEA9F"/>
<stop offset="0.94" stop-color="#2CE287"/>
<stop offset="1" stop-color="#20E07F"/>
</linearGradient>
<linearGradient id="paint1_linear_2873_5310" x1="49.6708" y1="129.996" x2="49.6708" y2="65.2779" gradientUnits="userSpaceOnUse">
<stop stop-color="#1FDF7E"/>
<stop offset="0.12" stop-color="#11CE6F"/>
<stop offset="0.26" stop-color="#07C264"/>
<stop offset="0.45" stop-color="#01BB5E"/>
<stop offset="1" stop-color="#00BA5D"/>
</linearGradient>
<linearGradient id="paint2_linear_2873_5310" x1="7.60449" y1="37.6023" x2="18.0908" y2="37.6023" gradientUnits="userSpaceOnUse">
<stop stop-color="#FEE1FF"/>
<stop offset="0.28" stop-color="#FCD4FF"/>
<stop offset="0.77" stop-color="#F9B4FF"/>
<stop offset="1" stop-color="#F8A4FF"/>
</linearGradient>
<linearGradient id="paint3_linear_2873_5310" x1="91.7407" y1="37.3002" x2="81.0684" y2="37.3002" gradientUnits="userSpaceOnUse">
<stop stop-color="#FEE1FF"/>
<stop offset="0.28" stop-color="#FCD4FF"/>
<stop offset="0.77" stop-color="#F9B4FF"/>
<stop offset="1" stop-color="#F8A4FF"/>
</linearGradient>
<linearGradient id="paint4_linear_2873_5310" x1="45.2911" y1="0" x2="45.2911" y2="26.8324" gradientUnits="userSpaceOnUse">
<stop stop-color="#78F5BE"/>
<stop offset="1" stop-color="#20E07F"/>
</linearGradient>
</defs>
</svg>
