<svg width="103" height="82" viewBox="0 0 103 82" fill="none" xmlns="http://www.w3.org/2000/svg">
<path d="M51.3933 81.8508C73.8196 81.8508 91.9999 63.6706 91.9999 41.2444C91.9999 18.8181 73.8196 0.637939 51.3933 0.637939C28.9669 0.637939 10.7871 18.8181 10.7871 41.2444C10.7871 63.6706 28.9669 81.8508 51.3933 81.8508Z" fill="#4D83FD"/>
<path d="M51.3934 65.3403C38.1084 65.3403 27.2979 54.5293 27.2979 41.2443C27.2979 27.9594 38.1084 17.1484 51.3934 17.1484C64.6784 17.1484 75.4894 27.9594 75.4894 41.2443C75.4894 54.5293 64.6784 65.3403 51.3934 65.3403Z" fill="url(#paint0_linear_2296_2373)"/>
<path d="M51.3934 17.3818C64.5524 17.3818 75.256 28.0855 75.256 41.2443C75.256 54.4032 64.5524 65.1069 51.3934 65.1069C38.2345 65.1069 27.5312 54.4032 27.5312 41.2443C27.5312 28.0855 38.2345 17.3818 51.3934 17.3818ZM51.3934 16.915C37.959 16.915 27.0645 27.8054 27.0645 41.2443C27.0645 54.6833 37.9544 65.5737 51.3934 65.5737C64.8324 65.5737 75.7228 54.6833 75.7228 41.2443C75.7228 27.8054 64.8324 16.915 51.3934 16.915Z" fill="#9FC6FF"/>
<path d="M26.9528 17.4702C26.9528 8.11568 20.9171 0.530273 13.4764 0.530273C6.03571 0.530273 0 8.11568 0 17.4702C0 24.6215 3.52452 30.7315 8.50989 33.2195C9.32678 33.6256 9.83079 34.4754 9.77944 35.3857L7.31464 79.5582C7.23995 80.8653 8.28096 81.9624 9.58799 81.9624H17.3603C18.6673 81.9624 19.7032 80.8653 19.6332 79.5582L17.1688 35.3857C17.1175 34.4754 17.6215 33.6256 18.4384 33.2195C23.4238 30.7361 26.9483 24.6215 26.9483 17.4702H26.9528Z" fill="url(#paint1_linear_2296_2373)"/>
<path d="M100.44 30.919H95.6181C94.269 30.919 93.1953 32.0534 93.27 33.4025L95.8423 79.475C95.917 80.8241 94.8433 81.958 93.4942 81.958H85.881C84.532 81.958 83.4582 80.8241 83.5329 79.475L86.1048 33.4025C86.1795 32.0534 85.1058 30.919 83.7567 30.919H78.9347C77.637 30.919 76.582 29.864 76.582 28.5663V2.87857C76.582 1.58088 77.637 0.526367 78.9347 0.526367H79.8314C81.1291 0.526367 82.1836 1.58088 82.1836 2.87857V14.2639C82.1836 15.5616 83.2385 16.6166 84.5362 16.6166C85.8339 16.6166 86.8889 15.5616 86.8889 14.2639V2.87857C86.8889 1.58088 87.9439 0.526367 89.2416 0.526367H90.1378C91.4355 0.526367 92.4904 1.58088 92.4904 2.87857V14.2639C92.4904 15.5616 93.5454 16.6166 94.8431 16.6166H94.8481C96.1458 16.6166 97.2008 15.5616 97.2008 14.2639V2.87857C97.2008 1.58088 98.2558 0.526367 99.5534 0.526367H100.45C101.747 0.526367 102.802 1.58088 102.802 2.87857V28.5663C102.802 29.864 101.747 30.919 100.45 30.919H100.44Z" fill="url(#paint2_linear_2296_2373)"/>
<path d="M13.4767 30.858C19.5454 30.858 24.465 24.6154 24.465 16.9148C24.465 9.21428 19.5454 2.97168 13.4767 2.97168C7.40795 2.97168 2.48828 9.21428 2.48828 16.9148C2.48828 24.6154 7.40795 30.858 13.4767 30.858Z" fill="url(#paint3_linear_2296_2373)"/>
<defs>
<linearGradient id="paint0_linear_2296_2373" x1="51.3936" y1="65.3403" x2="51.3936" y2="17.1484" gradientUnits="userSpaceOnUse">
<stop stop-color="#7DACFF"/>
<stop offset="0.14" stop-color="#75A5FE"/>
<stop offset="1" stop-color="#4D83FD"/>
</linearGradient>
<linearGradient id="paint1_linear_2296_2373" x1="13.4764" y1="81.9577" x2="13.4764" y2="0.525604" gradientUnits="userSpaceOnUse">
<stop stop-color="#FB64FF"/>
<stop offset="1" stop-color="#FA9EFA"/>
</linearGradient>
<linearGradient id="paint2_linear_2296_2373" x1="89.6852" y1="80.3336" x2="89.6852" y2="2.10412" gradientUnits="userSpaceOnUse">
<stop stop-color="#FB64FF"/>
<stop offset="1" stop-color="#FA9EFA"/>
</linearGradient>
<linearGradient id="paint3_linear_2296_2373" x1="2.53963" y1="7.31754" x2="23.3447" y2="25.5739" gradientUnits="userSpaceOnUse">
<stop stop-color="#FB64FF"/>
<stop offset="0.24" stop-color="#FA6BFE"/>
<stop offset="0.61" stop-color="#FA80FC"/>
<stop offset="1" stop-color="#FA9EFA"/>
</linearGradient>
</defs>
</svg>
