<svg width="133" height="101" viewBox="0 0 133 101" fill="none" xmlns="http://www.w3.org/2000/svg">
<path d="M83.243 0.949219H67.2166C67.0344 0.949219 66.8867 1.0969 66.8867 1.27908V11.8572C66.8867 12.0394 67.0344 12.1871 67.2166 12.1871H83.243C83.4252 12.1871 83.5729 12.0394 83.5729 11.8572V1.27908C83.5729 1.0969 83.4252 0.949219 83.243 0.949219Z" fill="url(#paint0_linear_2437_1704)"/>
<path d="M67.5981 0.898571C67.5981 0.402303 67.1971 0 66.7024 0C66.2077 0 65.8066 0.402303 65.8066 0.898571V25.4614C65.8066 25.9577 66.2077 26.36 66.7024 26.36C67.1971 26.36 67.5981 25.9577 67.5981 25.4614V0.898571Z" fill="url(#paint1_linear_2437_1704)"/>
<path d="M50.2291 35.4541H4.92512C4.3252 35.4541 3.83887 35.9404 3.83887 36.5403V40.9308C3.83887 41.5308 4.3252 42.0171 4.92512 42.0171H50.2291C50.829 42.0171 51.3153 41.5308 51.3153 40.9308V36.5403C51.3153 35.9404 50.829 35.4541 50.2291 35.4541Z" fill="url(#paint2_linear_2437_1704)"/>
<path d="M51.2866 42.0168H7.12012V100.015H51.2866V42.0168Z" fill="url(#paint3_linear_2437_1704)"/>
<path d="M128.513 35.4541H83.2093C82.6094 35.4541 82.123 35.9404 82.123 36.5403V40.9308C82.123 41.5308 82.6094 42.0171 83.2093 42.0171H128.513C129.113 42.0171 129.599 41.5308 129.599 40.9308V36.5403C129.599 35.9404 129.113 35.4541 128.513 35.4541Z" fill="url(#paint4_linear_2437_1704)"/>
<path d="M126.324 42.0168H82.1572V100.015H126.324V42.0168Z" fill="url(#paint5_linear_2437_1704)"/>
<path d="M88.7886 23.7891H44.6221V100.014H88.7886V23.7891Z" fill="#A5C5FF"/>
<path d="M90.9774 17.2266H42.4261C41.8262 17.2266 41.3398 17.7129 41.3398 18.3128V24.3241C41.3398 24.9241 41.8262 25.4104 42.4261 25.4104H90.9774C91.5773 25.4104 92.0637 24.9241 92.0637 24.3241V18.3128C92.0637 17.7129 91.5773 17.2266 90.9774 17.2266Z" fill="#4D82FC"/>
<path d="M83.2038 100.015H50.2012V95.4876C50.2012 94.8848 50.6903 94.4014 51.2874 94.4014H82.1118C82.7147 94.4014 83.1981 94.8905 83.1981 95.4876V100.015H83.2038Z" fill="#4D82FC"/>
<path d="M78.995 71.0674H54.415V94.3961H78.995V71.0674Z" fill="#D7E7FF"/>
<path d="M66.7052 61.0179C74.9313 61.0179 81.5999 54.3493 81.5999 46.1232C81.5999 37.8971 74.9313 31.2285 66.7052 31.2285C58.4791 31.2285 51.8105 37.8971 51.8105 46.1232C51.8105 54.3493 58.4791 61.0179 66.7052 61.0179Z" fill="url(#paint6_linear_2437_1704)"/>
<path d="M66.7051 59.8291C59.1468 59.8291 52.999 53.6813 52.999 46.1231C52.999 38.5648 59.1468 32.417 66.7051 32.417C74.2633 32.417 80.4112 38.5648 80.4112 46.1231C80.4112 53.6813 74.2633 59.8291 66.7051 59.8291Z" fill="#9CFFD0"/>
<path d="M67.8533 36.6029C67.8533 35.9684 67.3389 35.4541 66.7045 35.4541C66.07 35.4541 65.5557 35.9684 65.5557 36.6029V46.6123C65.5557 47.2468 66.07 47.7611 66.7045 47.7611C67.3389 47.7611 67.8533 47.2468 67.8533 46.6123V36.6029Z" fill="#4D82FC"/>
<path d="M67.0604 45.5544C66.4541 45.3673 65.811 45.7071 65.6239 46.3134C65.4368 46.9197 65.7766 47.5628 66.3829 47.7499L73.5724 49.9686C74.1787 50.1556 74.8218 49.8158 75.0089 49.2096C75.196 48.6033 74.8562 47.9602 74.25 47.7731L67.0604 45.5544Z" fill="#4D82FC"/>
<path d="M79.4271 69.8723H53.9828C53.5619 69.8723 53.2207 70.2135 53.2207 70.6344V94.3897H54.415V71.0609H66.5343V94.3897H67.7514V71.0609H78.9949V94.3897H80.1892V70.6344C80.1892 70.2135 79.8537 69.8723 79.4328 69.8723H79.4271Z" fill="url(#paint7_linear_2437_1704)"/>
<path d="M24.6768 51.8953H16.0664C15.5859 51.8953 15.1963 52.2848 15.1963 52.7654V61.3758C15.1963 61.8563 15.5859 62.2459 16.0664 62.2459H24.6768C25.1574 62.2459 25.5469 61.8563 25.5469 61.3758V52.7654C25.5469 52.2848 25.1574 51.8953 24.6768 51.8953Z" fill="#D7E7FF"/>
<path d="M37.0518 51.8953H28.4414C27.9609 51.8953 27.5713 52.2848 27.5713 52.7654V61.3758C27.5713 61.8563 27.9609 62.2459 28.4414 62.2459H37.0518C37.5324 62.2459 37.9219 61.8563 37.9219 61.3758V52.7654C37.9219 52.2848 37.5324 51.8953 37.0518 51.8953Z" fill="#D7E7FF"/>
<path d="M24.6768 72.1191H16.0664C15.5859 72.1191 15.1963 72.5087 15.1963 72.9893V81.5996C15.1963 82.0802 15.5859 82.4698 16.0664 82.4698H24.6768C25.1574 82.4698 25.5469 82.0802 25.5469 81.5996V72.9893C25.5469 72.5087 25.1574 72.1191 24.6768 72.1191Z" fill="#D7E7FF"/>
<path d="M37.0528 72.1191H28.4424C27.9618 72.1191 27.5723 72.5087 27.5723 72.9893V81.5996C27.5723 82.0802 27.9618 82.4698 28.4424 82.4698H37.0528C37.5333 82.4698 37.9229 82.0802 37.9229 81.5996V72.9893C37.9229 72.5087 37.5333 72.1191 37.0528 72.1191Z" fill="#D7E7FF"/>
<path d="M105.014 51.8953H96.4033C95.9228 51.8953 95.5332 52.2848 95.5332 52.7654V61.3758C95.5332 61.8563 95.9228 62.2459 96.4033 62.2459H105.014C105.494 62.2459 105.884 61.8563 105.884 61.3758V52.7654C105.884 52.2848 105.494 51.8953 105.014 51.8953Z" fill="#D7E7FF"/>
<path d="M117.395 51.8953H108.784C108.304 51.8953 107.914 52.2848 107.914 52.7654V61.3758C107.914 61.8563 108.304 62.2459 108.784 62.2459H117.395C117.875 62.2459 118.265 61.8563 118.265 61.3758V52.7654C118.265 52.2848 117.875 51.8953 117.395 51.8953Z" fill="#D7E7FF"/>
<path d="M105.014 72.1191H96.4033C95.9228 72.1191 95.5332 72.5087 95.5332 72.9893V81.5996C95.5332 82.0802 95.9228 82.4698 96.4033 82.4698H105.014C105.494 82.4698 105.884 82.0802 105.884 81.5996V72.9893C105.884 72.5087 105.494 72.1191 105.014 72.1191Z" fill="#D7E7FF"/>
<path d="M117.395 72.1191H108.784C108.304 72.1191 107.914 72.5087 107.914 72.9893V81.5996C107.914 82.0802 108.304 82.4698 108.784 82.4698H117.395C117.875 82.4698 118.265 82.0802 118.265 81.5996V72.9893C118.265 72.5087 117.875 72.1191 117.395 72.1191Z" fill="#D7E7FF"/>
<path d="M132.323 99.292H0.676773C0.303002 99.292 0 99.595 0 99.9688V100.054C0 100.428 0.303002 100.731 0.676773 100.731H132.323C132.697 100.731 133 100.428 133 100.054V99.9688C133 99.595 132.697 99.292 132.323 99.292Z" fill="#4D82FC"/>
<defs>
<linearGradient id="paint0_linear_2437_1704" x1="83.8288" y1="6.56814" x2="67.1483" y2="6.56814" gradientUnits="userSpaceOnUse">
<stop stop-color="#FA64FF"/>
<stop offset="1" stop-color="#F99DF9"/>
</linearGradient>
<linearGradient id="paint1_linear_2437_1704" x1="66.7052" y1="0" x2="66.7052" y2="26.36" gradientUnits="userSpaceOnUse">
<stop stop-color="#4D82FC"/>
<stop offset="0.23" stop-color="#5B8EFC"/>
<stop offset="0.62" stop-color="#7DABFF"/>
</linearGradient>
<linearGradient id="paint2_linear_2437_1704" x1="51.321" y1="38.7356" x2="3.83887" y2="38.7356" gradientUnits="userSpaceOnUse">
<stop offset="0.14" stop-color="#2B6FF9"/>
<stop offset="0.65" stop-color="#427CFB"/>
<stop offset="1" stop-color="#4D82FC"/>
</linearGradient>
<linearGradient id="paint3_linear_2437_1704" x1="58.3842" y1="71.0157" x2="-6.17647" y2="71.0157" gradientUnits="userSpaceOnUse">
<stop offset="0.02" stop-color="#5085FC"/>
<stop offset="0.05" stop-color="#598BFC"/>
<stop offset="0.17" stop-color="#74A0FD"/>
<stop offset="0.3" stop-color="#8AB0FE"/>
<stop offset="0.45" stop-color="#99BCFE"/>
<stop offset="0.61" stop-color="#A2C2FE"/>
<stop offset="0.86" stop-color="#A5C5FF"/>
</linearGradient>
<linearGradient id="paint4_linear_2437_1704" x1="82.123" y1="-33.1786" x2="129.599" y2="-33.1786" gradientUnits="userSpaceOnUse">
<stop offset="0.14" stop-color="#2B6FF9"/>
<stop offset="0.65" stop-color="#427CFB"/>
<stop offset="1" stop-color="#4D82FC"/>
</linearGradient>
<linearGradient id="paint5_linear_2437_1704" x1="78.7108" y1="-33.1788" x2="122.872" y2="-33.1788" gradientUnits="userSpaceOnUse">
<stop offset="0.02" stop-color="#5085FC"/>
<stop offset="0.05" stop-color="#598BFC"/>
<stop offset="0.17" stop-color="#74A0FD"/>
<stop offset="0.3" stop-color="#8AB0FE"/>
<stop offset="0.45" stop-color="#99BCFE"/>
<stop offset="0.61" stop-color="#A2C2FE"/>
<stop offset="0.86" stop-color="#A5C5FF"/>
</linearGradient>
<linearGradient id="paint6_linear_2437_1704" x1="78.7165" y1="59.7553" x2="55.1773" y2="33.0484" gradientUnits="userSpaceOnUse">
<stop stop-color="#78F4BD"/>
<stop offset="0.03" stop-color="#74F3BA"/>
<stop offset="0.47" stop-color="#46E89A"/>
<stop offset="0.81" stop-color="#2AE186"/>
<stop offset="1" stop-color="#20DF7F"/>
</linearGradient>
<linearGradient id="paint7_linear_2437_1704" x1="51.6169" y1="74.7007" x2="81.4575" y2="89.6978" gradientUnits="userSpaceOnUse">
<stop stop-color="#4D82FC"/>
<stop offset="0.23" stop-color="#5B8EFC"/>
<stop offset="0.62" stop-color="#7DABFF"/>
</linearGradient>
</defs>
</svg>
