<svg width="26" height="27" viewBox="0 0 26 27" fill="none" xmlns="http://www.w3.org/2000/svg">
<path d="M23.7596 0.384428C24.2722 -0.128143 25.103 -0.128143 25.6156 0.384428C26.1281 0.896998 26.1281 1.72784 25.6156 2.24041L14.2404 13.6156C13.7278 14.1281 12.897 14.1281 12.3844 13.6156C11.8719 13.103 11.8719 12.2722 12.3844 11.7596L23.7596 0.384428Z" fill="#4D83FD"/>
<path d="M16.0508 5H5C3.61929 5 2.5 6.11929 2.5 7.5V21.5C2.5 22.8807 3.61929 24 5 24H19C20.3805 23.9997 21.5 22.8805 21.5 21.5V9.44922L23.9717 6.97656C23.9896 7.14862 24 7.3232 24 7.5V21.5C24 24.2613 21.7612 26.4997 19 26.5H5L4.74316 26.4932C2.10111 26.3595 -0.000976562 24.1753 -0.000976562 21.5V7.5C-0.000976562 4.82472 2.10111 2.64053 4.74316 2.50684L5 2.5H18.5508L16.0508 5ZM23.251 4.86914L21.3799 6.74023V6.73926L23.251 4.86816V4.86914Z" fill="#4D83FD"/>
</svg>
