<svg width="62" height="28" viewBox="0 0 62 28" fill="none" xmlns="http://www.w3.org/2000/svg">
<rect x="0.015625" width="61" height="28" rx="8" fill="#F6F6F6"/>
<path d="M23.0898 7.85742V20.2168H21.627V13.8867H20.3145V19.6152H18.8789V8.07617H20.3145V12.6289H21.627V7.85742H23.0898ZM17.6621 9.19727V17.0312H12.8086V9.19727H17.6621ZM14.2305 10.4004V15.8281H16.2402V10.4004H14.2305ZM34.834 7.85742V20.2168H33.3301V7.85742H34.834ZM26.7402 9.06055V15.8145C28.4766 15.7871 30.3223 15.6299 32.2227 15.2539L32.4141 16.5254C30.2402 16.9766 28.2168 17.1133 26.3027 17.1133H25.2363V9.06055H26.7402ZM46.9883 7.85742V20.2305H45.4707V13.4766H43.0918V12.2324H45.4707V7.85742H46.9883ZM41.1641 11.1387C41.1641 13.2715 42.3125 15.541 44.3086 16.4023L43.4062 17.6191C41.9707 16.9355 40.9453 15.5615 40.4121 13.9277C39.8584 15.6709 38.8125 17.1406 37.377 17.8652L36.4609 16.6758C38.4434 15.7461 39.6055 13.3945 39.6191 11.1387V10.3184H36.9668V9.07422H43.8164V10.3184H41.1641V11.1387Z" fill="#797C82"/>
</svg>
