<svg width="61" height="28" viewBox="0 0 61 28" fill="none" xmlns="http://www.w3.org/2000/svg">
<rect width="61" height="28" rx="8" fill="#E0EAFF"/>
<path d="M23.0742 7.85742V20.2168H21.6113V13.8867H20.2988V19.6152H18.8633V8.07617H20.2988V12.6289H21.6113V7.85742H23.0742ZM17.6465 9.19727V17.0312H12.793V9.19727H17.6465ZM14.2148 10.4004V15.8281H16.2246V10.4004H14.2148ZM34.8184 7.85742V20.2168H33.3145V7.85742H34.8184ZM26.7246 9.06055V15.8145C28.4609 15.7871 30.3066 15.6299 32.207 15.2539L32.3984 16.5254C30.2246 16.9766 28.2012 17.1133 26.2871 17.1133H25.2207V9.06055H26.7246ZM46.9727 7.85742V20.2305H45.4551V13.4766H43.0762V12.2324H45.4551V7.85742H46.9727ZM41.1484 11.1387C41.1484 13.2715 42.2969 15.541 44.293 16.4023L43.3906 17.6191C41.9551 16.9355 40.9297 15.5615 40.3965 13.9277C39.8428 15.6709 38.7969 17.1406 37.3613 17.8652L36.4453 16.6758C38.4277 15.7461 39.5898 13.3945 39.6035 11.1387V10.3184H36.9512V9.07422H43.8008V10.3184H41.1484V11.1387Z" fill="#4D83FD"/>
</svg>
