<svg width="28" height="28" viewBox="0 0 28 28" fill="none" xmlns="http://www.w3.org/2000/svg">
<circle cx="14" cy="14" r="13.5" fill="white" stroke="#39BE7B"/>
<path d="M19.3334 20C19.3334 19.0696 19.3334 18.6044 19.2186 18.2259C18.9601 17.3736 18.2931 16.7067 17.4408 16.4482C17.0623 16.3333 16.5971 16.3333 15.6667 16.3333H12.3334C11.403 16.3333 10.9379 16.3333 10.5593 16.4482C9.70705 16.7067 9.04011 17.3736 8.78157 18.2259C8.66675 18.6044 8.66675 19.0696 8.66675 20M17.0001 11C17.0001 12.6569 15.6569 14 14.0001 14C12.3432 14 11.0001 12.6569 11.0001 11C11.0001 9.34315 12.3432 8 14.0001 8C15.6569 8 17.0001 9.34315 17.0001 11Z" stroke="#39BE7B" stroke-linecap="round" stroke-linejoin="round"/>
</svg>
