<svg width="62" height="28" viewBox="0 0 62 28" fill="none" xmlns="http://www.w3.org/2000/svg">
<rect x="0.015625" width="61" height="28" rx="8" fill="#F6F6F6"/>
<path d="M29.3789 7.87109V15.0078H27.9297V7.87109H29.3789ZM26.918 8.10352V14.8711H25.4824V12.0547H24.1562V14.1875H19.2891V8.75977H24.1562V10.7969H25.4824V8.10352H26.918ZM20.7246 9.93555V13.0527H22.748V9.93555H20.7246ZM29.3789 15.5273V20.0664H21.0527V15.5273H29.3789ZM22.543 16.7168V18.8359H27.875V16.7168H22.543ZM41.2734 7.85742V20.2305H39.7695V13.5312H37.2539V17.2363H31.375V8.81445H32.9062V11.8906H35.7637V8.81445H37.2539V12.2871H39.7695V7.85742H41.2734ZM32.9062 16.0195H35.7637V13.0801H32.9062V16.0195Z" fill="#797C82"/>
</svg>
