<svg width="61" height="28" viewBox="0 0 61 28" fill="none" xmlns="http://www.w3.org/2000/svg">
<rect width="61" height="28" rx="8" fill="#EBFFF6"/>
<path d="M28.9785 7.87109V15.0078H27.5293V7.87109H28.9785ZM26.5176 8.10352V14.8711H25.082V12.0547H23.7559V14.1875H18.8887V8.75977H23.7559V10.7969H25.082V8.10352H26.5176ZM20.3242 9.93555V13.0527H22.3477V9.93555H20.3242ZM28.9785 15.5273V20.0664H20.6523V15.5273H28.9785ZM22.1426 16.7168V18.8359H27.4746V16.7168H22.1426ZM40.873 7.85742V20.2305H39.3691V13.5312H36.8535V17.2363H30.9746V8.81445H32.5059V11.8906H35.3633V8.81445H36.8535V12.2871H39.3691V7.85742H40.873ZM32.5059 16.0195H35.3633V13.0801H32.5059V16.0195Z" fill="#00DD7C"/>
</svg>
