<svg width="26" height="33" viewBox="0 0 26 33" fill="none" xmlns="http://www.w3.org/2000/svg">
<path d="M25.742 27.7086C25.5792 24.4874 24.1867 21.6001 22.0252 19.478C21.9523 19.4064 21.8778 19.3347 21.8034 19.2661C20.6792 18.2158 19.3628 17.3667 17.9114 16.7736C19.5876 15.6166 20.8606 13.8833 21.4654 11.8451C21.4778 11.8451 21.4902 11.8451 21.5026 11.8451C22.8873 11.8451 24.0099 10.6392 24.0099 9.15134C24.0099 7.66346 22.8873 6.45762 21.5026 6.45762C21.4886 6.45762 21.4762 6.45762 21.4623 6.45762C20.3551 2.71964 16.9996 0 13.0316 0C9.0636 0 5.66001 2.75622 4.57613 6.53689C4.54977 6.53689 4.52186 6.53384 4.4955 6.53384C3.11081 6.53384 1.98817 7.74121 1.98817 9.22756C1.98817 10.7139 3.11081 11.9213 4.4955 11.9213C4.53737 11.9213 4.57923 11.9198 4.6211 11.9167C5.23514 13.9229 6.49579 15.6288 8.15184 16.7706C6.57487 17.4154 5.15451 18.3606 3.97139 19.5405C1.88272 21.6199 0.525937 24.4219 0.327459 27.5501L0.0033822 31.2713C-0.0570916 32.2073 0.701156 33 1.65478 33H24.3449C25.2923 33 26.0459 32.221 25.9978 31.2911L25.7435 27.7056L25.742 27.7086Z" fill="url(#paint0_linear_3525_13911)"/>
<defs>
<linearGradient id="paint0_linear_3525_13911" x1="13" y1="0" x2="13" y2="33" gradientUnits="userSpaceOnUse">
<stop stop-color="#E0EAFE"/>
<stop offset="1" stop-color="#4D83FD"/>
</linearGradient>
</defs>
</svg>
