<svg width="38" height="31" viewBox="0 0 38 31" fill="none" xmlns="http://www.w3.org/2000/svg">
<rect x="4.71289" y="21.3124" width="3.88098" height="9.6875" rx="0.765983" fill="#4D83FD"/>
<rect y="9.41071" width="3.88098" height="9.6875" rx="0.765983" fill="url(#paint0_linear_3277_18523)"/>
<path d="M19.3369 1.69468C20.6977 0.853177 22.4541 1.83201 22.4541 3.43198V25.7337C22.4541 27.3337 20.6977 28.3125 19.3369 27.471L7.20703 19.9701V9.19468L19.3369 1.69468Z" fill="url(#paint1_linear_3277_18523)"/>
<rect x="2.77148" y="6.91956" width="7.48475" height="15.5" rx="0.765983" fill="url(#paint2_linear_3277_18523)"/>
<path d="M25.6849 21.1948C25.9295 21.567 26.4326 21.6737 26.7801 21.3953C27.7827 20.5918 28.5916 19.5682 29.1411 18.3999C29.8053 16.9879 30.0646 15.4198 29.8903 13.8696C29.716 12.3193 29.1149 10.8476 28.1538 9.61778C27.3585 8.60028 26.3425 7.78127 25.1865 7.21981C24.7857 7.02514 24.3189 7.24024 24.163 7.65709C24.007 8.0744 24.2224 8.53509 24.6191 8.73903C25.4969 9.19025 26.2695 9.82745 26.8808 10.6096C27.6584 11.6046 28.1447 12.7952 28.2857 14.0494C28.4267 15.3036 28.2169 16.5723 27.6796 17.7146C27.257 18.613 26.6448 19.4057 25.8886 20.0402C25.5475 20.3264 25.4401 20.8226 25.6849 21.1948Z" fill="url(#paint3_linear_3277_18523)"/>
<path d="M28.7806 23.0215C29.0262 23.395 29.5303 23.5015 29.8847 23.2293C31.2463 22.1833 32.3417 20.8254 33.0753 19.2657C33.9239 17.4616 34.2552 15.458 34.0326 13.4772C33.8099 11.4965 33.0418 9.6161 31.8137 8.04474C30.7521 6.68634 29.3825 5.60482 27.8225 4.88627C27.4164 4.69918 26.9485 4.91436 26.7921 5.33269C26.6355 5.75149 26.8507 6.21478 27.2548 6.40749C28.5347 7.0179 29.6591 7.91784 30.5362 9.04011C31.5801 10.3758 32.2329 11.9741 32.4222 13.6577C32.6115 15.3414 32.3299 17.0444 31.6086 18.578C31.0023 19.8669 30.1054 20.9936 28.9924 21.8723C28.6416 22.1492 28.5351 22.648 28.7806 23.0215Z" fill="url(#paint4_linear_3277_18523)"/>
<defs>
<linearGradient id="paint0_linear_3277_18523" x1="1.94049" y1="7.74999" x2="1.94049" y2="19.0982" gradientUnits="userSpaceOnUse">
<stop stop-color="#E0EAFF"/>
<stop offset="1" stop-color="#4D83FD"/>
</linearGradient>
<linearGradient id="paint1_linear_3277_18523" x1="14.8306" y1="-0.689539" x2="14.8306" y2="27.7796" gradientUnits="userSpaceOnUse">
<stop stop-color="#E0EAFF"/>
<stop offset="1" stop-color="#4D83FD"/>
</linearGradient>
<linearGradient id="paint2_linear_3277_18523" x1="3.73011" y1="22.4196" x2="8.83195" y2="8.83663" gradientUnits="userSpaceOnUse">
<stop offset="0.07" stop-color="#20DF7F"/>
<stop offset="0.274577" stop-color="#4AE99C"/>
<stop offset="0.607817" stop-color="#6BF1B4"/>
<stop offset="1" stop-color="#CBFFE8"/>
</linearGradient>
<linearGradient id="paint3_linear_3277_18523" x1="28.866" y1="10.688" x2="14.1211" y2="18.954" gradientUnits="userSpaceOnUse">
<stop stop-color="#BED3FF"/>
<stop offset="0.634615" stop-color="#4D83FD"/>
</linearGradient>
<linearGradient id="paint4_linear_3277_18523" x1="32.7237" y1="9.4122" x2="13.8842" y2="19.9736" gradientUnits="userSpaceOnUse">
<stop stop-color="#BED3FF"/>
<stop offset="0.634615" stop-color="#4D83FD"/>
</linearGradient>
</defs>
</svg>
