<svg width="131" height="119" viewBox="0 0 131 119" fill="none" xmlns="http://www.w3.org/2000/svg">
<path d="M34.5204 91.0209H24.1904V41.7192C24.1904 18.7164 42.9069 0 65.9097 0C88.9125 0 107.629 18.7164 107.629 41.7192H97.2989C97.2989 24.4139 83.2204 10.33 65.9097 10.33C48.599 10.33 34.5204 24.4086 34.5204 41.7192V91.0209Z" fill="#A5C5FF"/>
<path d="M125.26 49.2107V105.291C125.26 111.925 119.876 117.314 113.236 117.314H77.0975C70.4628 117.314 65.0742 111.931 65.0742 105.291V82.3465C65.0742 81.9791 65.0902 81.6011 65.1221 81.2336C65.1541 80.8875 65.186 80.5361 65.2286 80.1953C67.284 61.4949 80.0048 46.0052 97.1823 39.9404C102.012 38.2365 107.182 37.2833 112.565 37.1981C112.805 37.1875 113.05 37.1875 113.295 37.1875H113.417C119.983 37.2035 125.249 42.6453 125.249 49.2107H125.26Z" fill="#FECFFF"/>
<path d="M125.26 49.2107V104.151H112.576V37.1981C112.816 37.1875 113.061 37.1875 113.306 37.1875H113.428C119.994 37.2035 125.26 42.6453 125.26 49.2107Z" fill="url(#paint0_linear_3195_10639)"/>
<path d="M110.18 118.773C121.646 118.773 130.941 109.478 130.941 98.0121C130.941 86.546 121.646 77.251 110.18 77.251C98.714 77.251 89.4189 86.546 89.4189 98.0121C89.4189 109.478 98.714 118.773 110.18 118.773Z" fill="#F99DF9"/>
<path d="M110.18 112.394C118.123 112.394 124.562 105.955 124.562 98.012C124.562 90.069 118.123 83.6299 110.18 83.6299C102.237 83.6299 95.7979 90.069 95.7979 98.012C95.7979 105.955 102.237 112.394 110.18 112.394Z" fill="#FECFFF"/>
<path d="M97.2249 59.1627C97.2249 70.7759 87.8055 80.1954 76.1869 80.1954H65.2393C67.2946 61.4949 80.0154 46.0053 97.1929 39.9404V58.1297C97.2089 58.4758 97.2249 58.8113 97.2249 59.1627Z" fill="#F99DF9"/>
<path d="M47.9332 101.591H37.928V91.7346C37.928 90.5099 36.9376 89.5195 35.713 89.5195H22.9389C21.7142 89.5195 20.7238 90.5099 20.7238 91.7346V101.591H10.7187C4.79758 101.591 0 106.388 0 112.309V115.158C0 116.303 0.926503 117.229 2.07132 117.229H56.5859C57.7307 117.229 58.6572 116.303 58.6572 115.158V112.309C58.6572 106.388 53.8596 101.591 47.9385 101.591H47.9332Z" fill="url(#paint1_linear_3195_10639)"/>
<defs>
<linearGradient id="paint0_linear_3195_10639" x1="118.918" y1="41.9265" x2="118.918" y2="78.8002" gradientUnits="userSpaceOnUse">
<stop stop-color="#F99DF9"/>
<stop offset="0.41" stop-color="#F99AF9"/>
<stop offset="0.62" stop-color="#F992FA"/>
<stop offset="0.78" stop-color="#F985FB"/>
<stop offset="0.92" stop-color="#F972FD"/>
<stop offset="1" stop-color="#FA64FF"/>
</linearGradient>
<linearGradient id="paint1_linear_3195_10639" x1="29.3233" y1="89.0137" x2="29.3233" y2="116.724" gradientUnits="userSpaceOnUse">
<stop stop-color="#7DABFF"/>
<stop offset="0.14" stop-color="#75A4FE"/>
<stop offset="1" stop-color="#4D82FC"/>
</linearGradient>
</defs>
</svg>
