<svg width="149" height="105" viewBox="0 0 149 105" fill="none" xmlns="http://www.w3.org/2000/svg">
<path d="M121.689 15.0035C122.026 11.358 104.68 5.28029 82.7791 3.25812C60.8779 1.23595 42.7121 4.0389 42.375 7.68442L35.0391 87.1894L114.359 94.5085L121.695 15.0035H121.689Z" fill="#A5C5FF"/>
<path d="M114.348 94.5025C114.684 90.8604 97.2015 86.2702 75.2995 84.25C53.3975 82.2297 35.37 83.5445 35.0341 87.1866C34.6981 90.8287 52.1809 95.419 74.0829 97.4392C95.985 99.4594 114.012 98.1446 114.348 94.5025Z" fill="url(#paint0_linear_3195_10638)"/>
<path d="M113.382 84.5258C110.815 84.2899 111.045 79.6164 111.174 78.1897C111.303 76.7629 111.932 72.1288 114.499 72.3647C125.492 73.3814 135.26 65.259 136.271 54.2719C137.283 43.2848 129.166 33.511 118.179 32.4999C115.612 32.2639 115.842 27.5905 115.971 26.1637C116.1 24.737 116.729 20.1028 119.296 20.3388C136.996 21.9734 150.062 37.6957 148.427 55.3953C146.792 73.0949 131.07 86.1604 113.37 84.5258H113.382Z" fill="url(#paint1_linear_3195_10638)"/>
<path d="M84.3584 65.5743C87.2094 65.5743 89.5206 63.2631 89.5206 60.4121C89.5206 57.5612 87.2094 55.25 84.3584 55.25C81.5075 55.25 79.1963 57.5612 79.1963 60.4121C79.1963 63.2631 81.5075 65.5743 84.3584 65.5743Z" fill="url(#paint2_radial_3195_10638)"/>
<path d="M85.3925 64.2538L70.625 46.7902C69.7825 45.7959 69.0635 44.7006 68.4905 43.5266L58.3741 23.0184C54.1163 14.3849 43.2584 11.4247 35.2034 16.6992L24.9521 23.4173L14.7008 30.1353C6.64587 35.4098 5.02814 46.5486 11.2463 53.9014L26.0138 71.3651C26.8563 72.3594 27.5753 73.4547 28.1483 74.6287L38.2647 95.1368C42.5225 103.77 53.3804 106.731 61.4354 101.456L71.6867 94.738L81.938 88.0199C89.9929 82.7455 91.6107 71.6067 85.3925 64.2538Z" fill="url(#paint3_linear_3195_10638)"/>
<g opacity="0.75">
<path d="M44.8084 33.444C46.9366 33.444 48.6618 31.7188 48.6618 29.5907C48.6618 27.4625 46.9366 25.7373 44.8084 25.7373C42.6803 25.7373 40.9551 27.4625 40.9551 29.5907C40.9551 31.7188 42.6803 33.444 44.8084 33.444Z" fill="url(#paint4_linear_3195_10638)"/>
</g>
<g opacity="0.75">
<path d="M39.6468 39.4605C40.8939 39.4605 41.9049 38.4495 41.9049 37.2024C41.9049 35.9553 40.8939 34.9443 39.6468 34.9443C38.3997 34.9443 37.3887 35.9553 37.3887 37.2024C37.3887 38.4495 38.3997 39.4605 39.6468 39.4605Z" fill="url(#paint5_linear_3195_10638)"/>
</g>
<g opacity="0.75">
<path d="M21.5249 44.1397C23.1567 44.1397 24.4795 42.8169 24.4795 41.1851C24.4795 39.5533 23.1567 38.2305 21.5249 38.2305C19.8931 38.2305 18.5703 39.5533 18.5703 41.1851C18.5703 42.8169 19.8931 44.1397 21.5249 44.1397Z" fill="url(#paint6_linear_3195_10638)"/>
</g>
<path d="M58.5202 76.8645C60.7383 76.8645 62.5364 75.0664 62.5364 72.8483C62.5364 70.6302 60.7383 68.832 58.5202 68.832C56.302 68.832 54.5039 70.6302 54.5039 72.8483C54.5039 75.0664 56.302 76.8645 58.5202 76.8645Z" fill="url(#paint7_linear_3195_10638)"/>
<path d="M43.7296 74.3195C45.0915 74.3195 46.1955 73.2155 46.1955 71.8536C46.1955 70.4917 45.0915 69.3877 43.7296 69.3877C42.3677 69.3877 41.2637 70.4917 41.2637 71.8536C41.2637 73.2155 42.3677 74.3195 43.7296 74.3195Z" fill="url(#paint8_linear_3195_10638)"/>
<path d="M74.3716 75.2128C75.5287 75.2128 76.4667 74.2748 76.4667 73.1177C76.4667 71.9605 75.5287 71.0225 74.3716 71.0225C73.2144 71.0225 72.2764 71.9605 72.2764 73.1177C72.2764 74.2748 73.2144 75.2128 74.3716 75.2128Z" fill="url(#paint9_linear_3195_10638)"/>
<path d="M70.3665 83.4976C71.9517 83.4976 73.2368 82.2124 73.2368 80.6272C73.2368 79.0419 71.9517 77.7568 70.3665 77.7568C68.7812 77.7568 67.4961 79.0419 67.4961 80.6272C67.4961 82.2124 68.7812 83.4976 70.3665 83.4976Z" fill="url(#paint10_linear_3195_10638)"/>
<path d="M15.1717 74.6013C21.702 74.6013 26.9958 69.3075 26.9958 62.7772C26.9958 56.2469 21.702 50.9531 15.1717 50.9531C8.64147 50.9531 3.34766 56.2469 3.34766 62.7772C3.34766 69.3075 8.64147 74.6013 15.1717 74.6013Z" fill="url(#paint11_radial_3195_10638)"/>
<path d="M27.0404 77.1336C30.4746 77.1336 33.2586 74.3496 33.2586 70.9154C33.2586 67.4812 30.4746 64.6973 27.0404 64.6973C23.6062 64.6973 20.8223 67.4812 20.8223 70.9154C20.8223 74.3496 23.6062 77.1336 27.0404 77.1336Z" fill="url(#paint12_radial_3195_10638)"/>
<path d="M39.4379 84.5262C42.8721 84.5262 45.6561 81.7422 45.6561 78.308C45.6561 74.8738 42.8721 72.0898 39.4379 72.0898C36.0037 72.0898 33.2197 74.8738 33.2197 78.308C33.2197 81.7422 36.0037 84.5262 39.4379 84.5262Z" fill="url(#paint13_radial_3195_10638)"/>
<path d="M77.5111 60.6189C80.1201 60.6189 82.2351 58.5039 82.2351 55.8949C82.2351 53.2859 80.1201 51.1709 77.5111 51.1709C74.9021 51.1709 72.7871 53.2859 72.7871 55.8949C72.7871 58.5039 74.9021 60.6189 77.5111 60.6189Z" fill="url(#paint14_radial_3195_10638)"/>
<path d="M9.43679 60.7486C14.6486 60.7486 18.8736 56.5236 18.8736 51.3118C18.8736 46.1 14.6486 41.875 9.43679 41.875C4.22499 41.875 0 46.1 0 51.3118C0 56.5236 4.22499 60.7486 9.43679 60.7486Z" fill="url(#paint15_radial_3195_10638)"/>
<path d="M88.7959 78.3418C93.5734 78.3418 97.4463 74.4689 97.4463 69.6914C97.4463 64.9139 93.5734 61.041 88.7959 61.041C84.0184 61.041 80.1455 64.9139 80.1455 69.6914C80.1455 74.4689 84.0184 78.3418 88.7959 78.3418Z" fill="url(#paint16_radial_3195_10638)"/>
<path d="M55.5199 12.1667C58.8796 12.1667 61.6032 9.44311 61.6032 6.08336C61.6032 2.72361 58.8796 0 55.5199 0C52.1601 0 49.4365 2.72361 49.4365 6.08336C49.4365 9.44311 52.1601 12.1667 55.5199 12.1667Z" fill="url(#paint17_radial_3195_10638)"/>
<defs>
<linearGradient id="paint0_linear_3195_10638" x1="73.631" y1="102.339" x2="75.1009" y2="86.4034" gradientUnits="userSpaceOnUse">
<stop stop-color="#94C0FF"/>
<stop offset="0.13" stop-color="#88B8FF"/>
<stop offset="0.41" stop-color="#75ADFF"/>
<stop offset="0.7" stop-color="#69A6FF"/>
<stop offset="1" stop-color="#66A4FF"/>
</linearGradient>
<linearGradient id="paint1_linear_3195_10638" x1="143.311" y1="54.912" x2="108.453" y2="51.6967" gradientUnits="userSpaceOnUse">
<stop stop-color="#A5C5FF"/>
<stop offset="0.29" stop-color="#9EC1FF"/>
<stop offset="0.69" stop-color="#8DB8FF"/>
<stop offset="0.88" stop-color="#83B3FF"/>
</linearGradient>
<radialGradient id="paint2_radial_3195_10638" cx="0" cy="0" r="1" gradientUnits="userSpaceOnUse" gradientTransform="translate(84.3584 60.4071) rotate(5.27) scale(5.16215 5.16215)">
<stop stop-color="white" stop-opacity="0"/>
<stop offset="0.2" stop-color="white" stop-opacity="0.01"/>
<stop offset="0.33" stop-color="white" stop-opacity="0.05"/>
<stop offset="0.45" stop-color="white" stop-opacity="0.11"/>
<stop offset="0.55" stop-color="white" stop-opacity="0.19"/>
<stop offset="0.65" stop-color="white" stop-opacity="0.3"/>
<stop offset="0.74" stop-color="white" stop-opacity="0.43"/>
<stop offset="0.83" stop-color="white" stop-opacity="0.59"/>
<stop offset="0.91" stop-color="white" stop-opacity="0.78"/>
<stop offset="0.99" stop-color="white" stop-opacity="0.98"/>
<stop offset="1" stop-color="white"/>
</radialGradient>
<linearGradient id="paint3_linear_3195_10638" x1="6.32117" y1="43.8584" x2="90.3164" y2="74.2974" gradientUnits="userSpaceOnUse">
<stop stop-color="#FDE0FF"/>
<stop offset="0.04" stop-color="#FCDAFE"/>
<stop offset="0.27" stop-color="#FBBFFC"/>
<stop offset="0.51" stop-color="#F9ACFA"/>
<stop offset="0.75" stop-color="#F9A0F9"/>
<stop offset="1" stop-color="#F99DF9"/>
</linearGradient>
<linearGradient id="paint4_linear_3195_10638" x1="41.1551" y1="30.8242" x2="48.4594" y2="28.349" gradientUnits="userSpaceOnUse">
<stop stop-color="#F99DF9"/>
<stop offset="0.59" stop-color="#F978FC"/>
<stop offset="1" stop-color="#FA64FF"/>
</linearGradient>
<linearGradient id="paint5_linear_3195_10638" x1="37.5103" y1="37.9197" x2="41.7876" y2="36.4703" gradientUnits="userSpaceOnUse">
<stop stop-color="#F99DF9"/>
<stop offset="0.59" stop-color="#F978FC"/>
<stop offset="1" stop-color="#FA64FF"/>
</linearGradient>
<linearGradient id="paint6_linear_3195_10638" x1="18.6454" y1="41.8297" x2="24.4091" y2="40.5519" gradientUnits="userSpaceOnUse">
<stop stop-color="#F99DF9"/>
<stop offset="0.59" stop-color="#F978FC"/>
<stop offset="1" stop-color="#FA64FF"/>
</linearGradient>
<linearGradient id="paint7_linear_3195_10638" x1="55.1276" y1="74.9668" x2="61.9576" y2="70.7287" gradientUnits="userSpaceOnUse">
<stop stop-color="#F99DF9"/>
<stop offset="0.59" stop-color="#F978FC"/>
<stop offset="1" stop-color="#FA64FF"/>
</linearGradient>
<linearGradient id="paint8_linear_3195_10638" x1="41.5613" y1="73.0272" x2="45.8996" y2="70.6933" gradientUnits="userSpaceOnUse">
<stop stop-color="#F99DF9"/>
<stop offset="0.59" stop-color="#F978FC"/>
<stop offset="1" stop-color="#FA64FF"/>
</linearGradient>
<linearGradient id="paint9_linear_3195_10638" x1="72.3807" y1="73.7921" x2="76.3547" y2="72.4454" gradientUnits="userSpaceOnUse">
<stop stop-color="#F99DF9"/>
<stop offset="0.59" stop-color="#F978FC"/>
<stop offset="1" stop-color="#FA64FF"/>
</linearGradient>
<linearGradient id="paint10_linear_3195_10638" x1="67.7587" y1="81.8444" x2="72.9632" y2="79.4086" gradientUnits="userSpaceOnUse">
<stop stop-color="#F99DF9"/>
<stop offset="0.59" stop-color="#F978FC"/>
<stop offset="1" stop-color="#FA64FF"/>
</linearGradient>
<radialGradient id="paint11_radial_3195_10638" cx="0" cy="0" r="1" gradientUnits="userSpaceOnUse" gradientTransform="translate(15.1729 62.775) rotate(5.27) scale(11.8241 11.8241)">
<stop stop-color="white" stop-opacity="0"/>
<stop offset="0.2" stop-color="white" stop-opacity="0.01"/>
<stop offset="0.33" stop-color="white" stop-opacity="0.05"/>
<stop offset="0.45" stop-color="white" stop-opacity="0.11"/>
<stop offset="0.55" stop-color="white" stop-opacity="0.19"/>
<stop offset="0.65" stop-color="white" stop-opacity="0.3"/>
<stop offset="0.74" stop-color="white" stop-opacity="0.43"/>
<stop offset="0.83" stop-color="white" stop-opacity="0.59"/>
<stop offset="0.91" stop-color="white" stop-opacity="0.78"/>
<stop offset="0.99" stop-color="white" stop-opacity="0.98"/>
<stop offset="1" stop-color="white"/>
</radialGradient>
<radialGradient id="paint12_radial_3195_10638" cx="0" cy="0" r="1" gradientUnits="userSpaceOnUse" gradientTransform="translate(27.0407 70.9143) rotate(5.27) scale(6.21817)">
<stop stop-color="white" stop-opacity="0"/>
<stop offset="0.2" stop-color="white" stop-opacity="0.01"/>
<stop offset="0.33" stop-color="white" stop-opacity="0.05"/>
<stop offset="0.45" stop-color="white" stop-opacity="0.11"/>
<stop offset="0.55" stop-color="white" stop-opacity="0.19"/>
<stop offset="0.65" stop-color="white" stop-opacity="0.3"/>
<stop offset="0.74" stop-color="white" stop-opacity="0.43"/>
<stop offset="0.83" stop-color="white" stop-opacity="0.59"/>
<stop offset="0.91" stop-color="white" stop-opacity="0.78"/>
<stop offset="0.99" stop-color="white" stop-opacity="0.98"/>
<stop offset="1" stop-color="white"/>
</radialGradient>
<radialGradient id="paint13_radial_3195_10638" cx="0" cy="0" r="1" gradientUnits="userSpaceOnUse" gradientTransform="translate(39.441 78.303) rotate(5.27) scale(6.21817)">
<stop stop-color="white" stop-opacity="0"/>
<stop offset="0.2" stop-color="white" stop-opacity="0.01"/>
<stop offset="0.33" stop-color="white" stop-opacity="0.05"/>
<stop offset="0.45" stop-color="white" stop-opacity="0.11"/>
<stop offset="0.55" stop-color="white" stop-opacity="0.19"/>
<stop offset="0.65" stop-color="white" stop-opacity="0.3"/>
<stop offset="0.74" stop-color="white" stop-opacity="0.43"/>
<stop offset="0.83" stop-color="white" stop-opacity="0.59"/>
<stop offset="0.91" stop-color="white" stop-opacity="0.78"/>
<stop offset="0.99" stop-color="white" stop-opacity="0.98"/>
<stop offset="1" stop-color="white"/>
</radialGradient>
<radialGradient id="paint14_radial_3195_10638" cx="0" cy="0" r="1" gradientUnits="userSpaceOnUse" gradientTransform="translate(77.5146 55.8938) rotate(5.27) scale(4.72401 4.72401)">
<stop stop-color="white" stop-opacity="0"/>
<stop offset="0.2" stop-color="white" stop-opacity="0.01"/>
<stop offset="0.33" stop-color="white" stop-opacity="0.05"/>
<stop offset="0.45" stop-color="white" stop-opacity="0.11"/>
<stop offset="0.55" stop-color="white" stop-opacity="0.19"/>
<stop offset="0.65" stop-color="white" stop-opacity="0.3"/>
<stop offset="0.74" stop-color="white" stop-opacity="0.43"/>
<stop offset="0.83" stop-color="white" stop-opacity="0.59"/>
<stop offset="0.91" stop-color="white" stop-opacity="0.78"/>
<stop offset="0.99" stop-color="white" stop-opacity="0.98"/>
<stop offset="1" stop-color="white"/>
</radialGradient>
<radialGradient id="paint15_radial_3195_10638" cx="0" cy="0" r="1" gradientUnits="userSpaceOnUse" gradientTransform="translate(9.43904 51.3074) rotate(5.27) scale(9.44241)">
<stop stop-color="white" stop-opacity="0"/>
<stop offset="0.2" stop-color="white" stop-opacity="0.01"/>
<stop offset="0.33" stop-color="white" stop-opacity="0.05"/>
<stop offset="0.45" stop-color="white" stop-opacity="0.11"/>
<stop offset="0.55" stop-color="white" stop-opacity="0.19"/>
<stop offset="0.65" stop-color="white" stop-opacity="0.3"/>
<stop offset="0.74" stop-color="white" stop-opacity="0.43"/>
<stop offset="0.83" stop-color="white" stop-opacity="0.59"/>
<stop offset="0.91" stop-color="white" stop-opacity="0.78"/>
<stop offset="0.99" stop-color="white" stop-opacity="0.98"/>
<stop offset="1" stop-color="white"/>
</radialGradient>
<radialGradient id="paint16_radial_3195_10638" cx="0" cy="0" r="1" gradientUnits="userSpaceOnUse" gradientTransform="translate(88.7995 69.6842) rotate(5.27) scale(8.65601)">
<stop stop-color="white" stop-opacity="0"/>
<stop offset="0.2" stop-color="white" stop-opacity="0.01"/>
<stop offset="0.33" stop-color="white" stop-opacity="0.05"/>
<stop offset="0.45" stop-color="white" stop-opacity="0.11"/>
<stop offset="0.55" stop-color="white" stop-opacity="0.19"/>
<stop offset="0.65" stop-color="white" stop-opacity="0.3"/>
<stop offset="0.74" stop-color="white" stop-opacity="0.43"/>
<stop offset="0.83" stop-color="white" stop-opacity="0.59"/>
<stop offset="0.91" stop-color="white" stop-opacity="0.78"/>
<stop offset="0.99" stop-color="white" stop-opacity="0.98"/>
<stop offset="1" stop-color="white"/>
</radialGradient>
<radialGradient id="paint17_radial_3195_10638" cx="0" cy="0" r="1" gradientUnits="userSpaceOnUse" gradientTransform="translate(55.5265 6.07851) rotate(22.29) scale(6.08336)">
<stop stop-color="white" stop-opacity="0"/>
<stop offset="0.2" stop-color="white" stop-opacity="0.01"/>
<stop offset="0.33" stop-color="white" stop-opacity="0.05"/>
<stop offset="0.45" stop-color="white" stop-opacity="0.11"/>
<stop offset="0.55" stop-color="white" stop-opacity="0.19"/>
<stop offset="0.65" stop-color="white" stop-opacity="0.3"/>
<stop offset="0.74" stop-color="white" stop-opacity="0.43"/>
<stop offset="0.83" stop-color="white" stop-opacity="0.59"/>
<stop offset="0.91" stop-color="white" stop-opacity="0.78"/>
<stop offset="0.99" stop-color="white" stop-opacity="0.98"/>
<stop offset="1" stop-color="white"/>
</radialGradient>
</defs>
</svg>
