<svg width="116" height="123" viewBox="0 0 116 123" fill="none" xmlns="http://www.w3.org/2000/svg">
<path d="M57.662 69.4015C63.7198 69.4015 68.6307 64.7757 68.6307 59.0694C68.6307 53.3631 63.7198 48.7373 57.662 48.7373C51.6042 48.7373 46.6934 53.3631 46.6934 59.0694C46.6934 64.7757 51.6042 69.4015 57.662 69.4015Z" fill="#78F5BE"/>
<path d="M35.8318 63.3604H8.86446C7.00129 63.3604 5.54355 64.972 5.73346 66.8249L10.8045 117.028C10.9688 118.634 12.3187 119.861 13.9355 119.861H57.7277C59.3446 119.861 60.6996 118.639 60.8587 117.028L65.9298 66.8249C66.1197 64.972 64.6622 63.3604 62.7991 63.3604H35.8318Z" fill="url(#paint0_linear_2227_872)"/>
<path d="M14.3265 64.2482C19.5169 64.2482 23.7245 60.776 23.7245 56.4928C23.7245 52.2095 19.5169 48.7373 14.3265 48.7373C9.13612 48.7373 4.92871 52.2095 4.92871 56.4928C4.92871 60.776 9.13612 64.2482 14.3265 64.2482Z" fill="#78F5BE"/>
<path d="M27.0039 61.6919C34.4933 61.6919 40.5645 56.2387 40.5645 49.5119C40.5645 42.7852 34.4933 37.332 27.0039 37.332C19.5146 37.332 13.4434 42.7852 13.4434 49.5119C13.4434 56.2387 19.5146 61.6919 27.0039 61.6919Z" fill="#78F5BE"/>
<path d="M42.3047 65.48C49.3603 65.48 55.0801 60.3415 55.0801 54.003C55.0801 47.6646 49.3603 42.5264 42.3047 42.5264C35.2491 42.5264 29.5293 47.6646 29.5293 54.003C29.5293 60.3415 35.2491 65.48 42.3047 65.48Z" fill="#78F5BE"/>
<path d="M68.6502 55.1533H3.00281C1.86326 55.1533 0.939453 56.0771 0.939453 57.2167V65.4137C0.939453 66.5533 1.86326 67.4768 3.00281 67.4768H68.6502C69.7897 67.4768 70.7135 66.5533 70.7135 65.4137V57.2167C70.7135 56.0771 69.7897 55.1533 68.6502 55.1533Z" fill="#FA9EFA"/>
<path d="M7.1144 45.8987C10.3403 45.8987 12.9554 43.2837 12.9554 40.0578C12.9554 36.8319 10.3403 34.2168 7.1144 34.2168C3.88849 34.2168 1.27344 36.8319 1.27344 40.0578C1.27344 43.2837 3.88849 45.8987 7.1144 45.8987Z" fill="#78F5BE"/>
<path d="M37.8283 51.7398C41.0542 51.7398 43.6695 49.1245 43.6695 45.8986C43.6695 42.6727 41.0542 40.0576 37.8283 40.0576C34.6024 40.0576 31.9873 42.6727 31.9873 45.8986C31.9873 49.1245 34.6024 51.7398 37.8283 51.7398Z" fill="#78F5BE"/>
<path d="M35.8318 65.6909C38.0429 65.6909 39.8352 63.8983 39.8352 61.6873C39.8352 59.4762 38.0429 57.6836 35.8318 57.6836C33.6207 57.6836 31.8281 59.4762 31.8281 61.6873C31.8281 63.8983 33.6207 65.6909 35.8318 65.6909Z" fill="#E5E5E5"/>
<path d="M35.832 63.689C36.9376 63.689 37.8337 62.7928 37.8337 61.6873C37.8337 60.5817 36.9376 59.6855 35.832 59.6855C34.7265 59.6855 33.8301 60.5817 33.8301 61.6873C33.8301 62.7928 34.7265 63.689 35.832 63.689Z" fill="#AFAFAF"/>
<path d="M54.1505 64.9104C57.3764 64.9104 59.9915 62.2954 59.9915 59.0695C59.9915 55.8436 57.3764 53.2285 54.1505 53.2285C50.9246 53.2285 48.3096 55.8436 48.3096 59.0695C48.3096 62.2954 50.9246 64.9104 54.1505 64.9104Z" fill="#78F5BE"/>
<path d="M59.9915 53.3506H48.3096V59.3971H59.9915V53.3506Z" fill="#78F5BE"/>
<path d="M36.2271 61.734L35.6684 62.1696C35.0759 62.6315 34.9701 63.4861 35.432 64.0785L63.3196 99.8502C63.7814 100.443 64.6359 100.548 65.2283 100.086L65.7871 99.6508C66.3795 99.189 66.4855 98.3345 66.0237 97.7421L38.136 61.9704C37.6742 61.378 36.8196 61.2721 36.2271 61.734Z" fill="#E5E5E5"/>
<path d="M113.197 122.679H44.1259C42.8838 122.679 42.0063 121.442 42.3964 120.241L47.8063 103.662C48.0526 102.903 48.7455 102.395 49.5308 102.395H107.792C108.578 102.395 109.276 102.903 109.522 103.662L114.927 120.241C115.317 121.442 114.439 122.679 113.197 122.679Z" fill="url(#paint1_linear_2227_872)"/>
<path d="M79.0228 105.438H78.2939V122.679H79.0228V105.438Z" fill="#1BEAA5"/>
<path d="M86.7586 122.679H86.0247L84.5205 105.5L85.2498 105.438L86.7586 122.679Z" fill="#1BEAA5"/>
<path d="M94.2116 122.679H93.4773L91.373 105.546L92.0968 105.459L94.2116 122.679Z" fill="#1BEAA5"/>
<path d="M101.602 122.679H100.864L97.7939 105.275L98.5127 105.151L101.602 122.679Z" fill="#1BEAA5"/>
<path d="M109.609 122.679H108.849L104.143 105.126L104.851 104.936L109.609 122.679Z" fill="#1BEAA5"/>
<path d="M70.8828 122.679H71.6166L73.1204 105.5L72.3915 105.438L70.8828 122.679Z" fill="#1BEAA5"/>
<path d="M63.4307 122.679H64.1645L66.2689 105.546L65.5452 105.459L63.4307 122.679Z" fill="#1BEAA5"/>
<path d="M56.0391 122.679H56.7784L59.8477 105.275L59.129 105.151L56.0391 122.679Z" fill="#1BEAA5"/>
<path d="M48.0322 122.679H48.7919L53.4985 105.126L52.7903 104.936L48.0322 122.679Z" fill="#1BEAA5"/>
<path d="M80.0402 0.694336H77.2839C76.4137 0.694336 75.708 1.39973 75.708 2.26999V98.7495C75.708 99.6197 76.4137 100.325 77.2839 100.325H80.0402C80.9105 100.325 81.6161 99.6197 81.6161 98.7495V2.26999C81.6161 1.39973 80.9105 0.694336 80.0402 0.694336Z" fill="#4D83FD"/>
<path d="M82.1703 97.6416H75.1534C74.6091 97.6416 74.168 98.0828 74.168 98.627V101.152C74.168 101.697 74.6091 102.138 75.1534 102.138H82.1703C82.7146 102.138 83.1557 101.697 83.1557 101.152V98.627C83.1557 98.0828 82.7146 97.6416 82.1703 97.6416Z" fill="#A6C6FF"/>
<path d="M110.477 99.8643H46.8468C46.2912 99.8643 45.8408 100.315 45.8408 100.87V104.766C45.8408 105.322 46.2912 105.772 46.8468 105.772H110.477C111.033 105.772 111.483 105.322 111.483 104.766V100.87C111.483 100.315 111.033 99.8643 110.477 99.8643Z" fill="#4D83FD"/>
<defs>
<linearGradient id="paint0_linear_2227_872" x1="35.8316" y1="119.861" x2="35.8316" y2="63.3604" gradientUnits="userSpaceOnUse">
<stop stop-color="#FA9EFA"/>
<stop offset="0.41" stop-color="#FA9BFA"/>
<stop offset="0.61" stop-color="#FA93FA"/>
<stop offset="0.78" stop-color="#FA86FC"/>
<stop offset="0.91" stop-color="#FA73FD"/>
<stop offset="1" stop-color="#FB64FF"/>
</linearGradient>
<linearGradient id="paint1_linear_2227_872" x1="78.6589" y1="122.679" x2="78.6589" y2="102.395" gradientUnits="userSpaceOnUse">
<stop stop-color="#78F5BE"/>
<stop offset="0.36" stop-color="#75F4BD"/>
<stop offset="0.54" stop-color="#6DF3BB"/>
<stop offset="0.68" stop-color="#60F2B7"/>
<stop offset="0.8" stop-color="#4DF0B2"/>
<stop offset="0.91" stop-color="#35EDAC"/>
<stop offset="1" stop-color="#1BEAA5"/>
</linearGradient>
</defs>
</svg>
