<svg width="127" height="116" viewBox="0 0 127 116" fill="none" xmlns="http://www.w3.org/2000/svg">
<g opacity="0.32">
<path d="M50.0252 13.5618L0 6.41016L13.9887 68.5369L51.3451 19.4243L50.0252 13.5618Z" fill="url(#paint0_linear_3350_15201)"/>
</g>
<path d="M60.8274 37.841L59.8322 37.346C59.5641 37.212 59.4507 36.8871 59.5796 36.6139C60.9924 33.613 61.8328 30.4265 62.0855 27.1265C62.3123 24.1669 62.0494 21.2124 61.312 18.3301C61.2347 18.0362 61.4049 17.7423 61.6936 17.6598L62.7661 17.3607C63.0651 17.2782 63.3797 17.4535 63.457 17.7526C64.2614 20.8721 64.545 24.0792 64.2975 27.2915C64.0242 30.8699 63.1115 34.3245 61.5802 37.5781C61.4461 37.8565 61.1058 37.9751 60.8325 37.8359L60.8274 37.841Z" fill="#4D82FC"/>
<path d="M78.3573 27.9473L90.7568 25.1553L89.2424 18.4299L76.8429 21.2219L78.3573 27.9473Z" fill="#A5C5FF"/>
<path d="M26.2555 7.58984L26.8227 10.9207C27.395 14.2774 29.5039 17.1752 32.5203 18.753L34.2837 19.6759L32.381 20.2637C29.1275 21.264 26.5236 23.7287 25.348 26.9255L24.1776 30.0965L23.6104 26.7656C23.0381 23.409 20.9292 20.5112 17.9128 18.9334L16.1494 18.0105L18.052 17.4227C21.3056 16.4224 23.9095 13.9577 25.0851 10.7609L26.2555 7.58984Z" fill="#78F4BD"/>
<path d="M38.4387 27.7812L38.7996 29.8953C39.1657 32.0248 40.5012 33.8655 42.4141 34.8658L43.533 35.4536L42.3264 35.8249C40.2588 36.4591 38.6088 38.0214 37.8612 40.0529L37.1187 42.0638L36.7578 39.9498C36.3917 37.8203 35.0562 35.9796 33.1433 34.9793L32.0244 34.3915L33.231 34.0202C35.2986 33.386 36.9486 31.8237 37.6962 29.7922L38.4387 27.7812Z" fill="#78F4BD"/>
<path d="M52.4217 11.7721L49.8563 12.3497C49.5284 12.4236 49.3225 12.7491 49.3964 13.077L50.9176 19.8326C50.9914 20.1604 51.317 20.3663 51.6448 20.2925L54.2102 19.7148C54.538 19.641 54.7439 19.3154 54.6701 18.9876L53.1489 12.232C53.0751 11.9042 52.7495 11.6983 52.4217 11.7721Z" fill="#4D82FC"/>
<path d="M88.2952 13.3451L75.5285 16.2198C75.009 16.3368 74.6827 16.8528 74.7997 17.3723L76.1646 23.4337C76.2816 23.9532 76.7975 24.2795 77.3171 24.1625L90.0838 21.2878C90.6033 21.1708 90.9296 20.6548 90.8126 20.1353L89.4477 14.0739C89.3307 13.5544 88.8147 13.2281 88.2952 13.3451Z" fill="#4D82FC"/>
<path d="M75.7282 45.6422L73.0779 33.881C72.8407 32.8343 73.5007 31.7979 74.5474 31.5607L95.7547 26.7861C96.8014 26.5489 97.8378 27.2089 98.075 28.2556L102.386 47.4004C102.458 47.715 102.607 48.0089 102.819 48.2512L117.751 65.2924C117.962 65.5347 118.112 65.8286 118.184 66.1431L126.754 104.211C126.991 105.258 126.331 106.294 125.284 106.531L83.4315 115.952C82.3848 116.189 81.3484 115.529 81.1112 114.482L72.5055 76.2492C72.4591 76.0378 72.4437 75.8213 72.4694 75.6047L75.7591 46.2764C75.7849 46.0598 75.7694 45.8433 75.723 45.6319L75.7282 45.6422Z" fill="url(#paint1_linear_3350_15201)"/>
<path d="M56.3881 22.6513L98.7718 13.1124C99.6948 12.9061 100.19 11.9007 99.8031 11.0447L95.1934 0.876767C94.8995 0.232246 94.1983 -0.118374 93.5074 0.0363115L51.1236 9.57523C50.2007 9.78148 49.7057 10.7869 50.0924 11.6429L54.702 21.8108C54.9959 22.4553 55.6972 22.806 56.3881 22.6513Z" fill="#A5C5FF"/>
<path d="M73.1912 34.361L98.1883 28.7356L96.9354 23.1773C96.791 22.5328 96.1516 22.1306 95.5071 22.275L72.8457 27.3744C72.2012 27.5188 71.799 28.1581 71.9434 28.8027L73.1964 34.361H73.1912Z" fill="#4D82FC"/>
<path d="M111.935 71.9785L80.4504 79.0679C79.6003 79.2594 79.0663 80.1037 79.2577 80.9538L85.4354 108.389C85.6268 109.239 86.4712 109.773 87.3213 109.581L118.805 102.492C119.656 102.3 120.189 101.456 119.998 100.606L113.82 73.1711C113.629 72.321 112.785 71.787 111.935 71.9785Z" fill="url(#paint2_linear_3350_15201)"/>
<defs>
<linearGradient id="paint0_linear_3350_15201" x1="7.05036" y1="37.4592" x2="53.1936" y2="27.0689" gradientUnits="userSpaceOnUse">
<stop stop-color="white"/>
<stop offset="0.15" stop-color="#D7FBEB"/>
<stop offset="0.31" stop-color="#B5F9DB"/>
<stop offset="0.48" stop-color="#9AF6CD"/>
<stop offset="0.65" stop-color="#87F5C4"/>
<stop offset="0.82" stop-color="#7BF4BE"/>
<stop offset="1" stop-color="#78F4BD"/>
</linearGradient>
<linearGradient id="paint1_linear_3350_15201" x1="105.589" y1="30.5985" x2="93.2199" y2="114.525" gradientUnits="userSpaceOnUse">
<stop offset="0.03" stop-color="#D7E6FF"/>
<stop offset="0.48" stop-color="#BDD5FF"/>
<stop offset="1" stop-color="#A5C5FF"/>
</linearGradient>
<linearGradient id="paint2_linear_3350_15201" x1="82.3466" y1="94.6712" x2="116.909" y2="86.8885" gradientUnits="userSpaceOnUse">
<stop stop-color="#7DABFF"/>
<stop offset="0.14" stop-color="#75A4FE"/>
<stop offset="1" stop-color="#4D82FC"/>
</linearGradient>
</defs>
</svg>
