<svg width="89" height="120" viewBox="0 0 89 120" fill="none" xmlns="http://www.w3.org/2000/svg">
<path d="M30.0953 88.2643C28.0473 89.5013 25.2036 90.769 22.1702 91.9547L26.2868 88.9675L32.5073 76.7209L28.4783 72.5479C28.4783 72.5479 26.4306 79.5694 18.9933 85.4874C11.556 91.4054 2.22425 92.0727 2.22425 92.0727C2.22425 92.0727 -0.762991 94.0233 0.171163 98.1603C0.571514 99.9413 1.45977 101.214 2.40419 102.112C2.45039 103.247 2.96855 104.776 4.72394 106.603C8.59401 110.633 15.9187 112.763 15.9187 112.763C25.7478 115.452 29.0071 113.389 29.0071 113.389C29.0071 113.389 29.9205 116.489 34.9608 118.188C39.2415 119.63 41.8133 118.275 41.8133 118.275C41.8133 118.275 45.8216 120.893 53.7825 119.666C61.7382 118.44 67.3586 115.35 67.3586 115.35C67.3586 115.35 71.1362 117.233 74.7188 116.043C78.3014 114.852 78.7737 112.624 78.5683 110.812C78.363 109.001 77.465 105.628 74.7088 105.746C74.4675 105.757 78.2554 89.2087 78.1323 86.9811C77.3932 73.6155 55.7948 72.7687 30.0953 88.2695V88.2643Z" fill="#2BEF91"/>
<path d="M84.974 91.5535C82.9568 101.116 80.1493 108.691 78.0192 113.716C77.7164 112.936 76.9927 111.371 75.4118 110.005C75.2835 109.898 75.16 109.795 75.0369 109.698C73.6767 108.64 72.0037 108.06 70.2996 107.927L66.6451 107.624C66.6451 107.624 71.3361 104.832 73.9692 97.6511C77.0745 89.2129 75.9505 85.1632 75.9145 84.8398C75.8837 85.3274 75.2574 92.9906 71.4284 99.5297C67.0913 106.941 57.4473 109.959 57.4473 109.959C57.4473 109.959 53.6795 111.443 47.5819 111.176C43.4192 110.996 40.6221 109.323 40.6221 109.323C40.6221 109.323 37.491 109.877 35.0684 109.718C32.656 109.564 30.6544 107.665 30.6544 107.665C30.6544 107.665 36.0591 104.904 39.6622 98.5185C44.2406 90.3882 43.799 84.0185 43.799 84.0185C43.799 84.0185 42.4239 90.2598 37.0859 96.7681C31.3321 103.779 24.8285 105.514 24.8285 105.514C24.8285 105.514 17.6584 105.443 12.9877 103.415C8.31178 101.388 4.92421 97.6255 4.92421 97.6255C4.92421 97.6255 4.45719 95.7007 4.08764 94.0326C3.61543 91.882 2.0957 92.0976 2.0957 92.0976C2.0957 92.0976 9.49234 89.3565 17.7765 84.3418C26.0607 79.3272 26.2966 70.7454 26.2966 70.7454L31.7938 70.6016C31.7938 70.6016 31.7474 71.4743 31.5883 72.8807L85.0767 71.8131C87.1298 77.0638 87.4685 79.7532 84.974 91.5482V91.5535Z" fill="url(#paint0_linear_2227_1042)"/>
<path d="M73.6255 4.69895L63.2934 70.018C62.9598 72.1378 60.5985 73.5029 58.0219 73.0718C55.4452 72.6406 53.6337 70.5722 53.9673 68.4524L64.2994 3.13357C64.633 1.01376 66.9939 -0.351644 69.5705 0.0795039C72.1471 0.510652 73.9591 2.57914 73.6255 4.69895Z" fill="#4D83FD"/>
<path d="M72.9685 66.3689L45.4624 61.7189C43.358 61.3647 41.9207 59.3475 42.2594 57.2225C42.5982 55.0976 44.5799 53.6604 46.6894 54.0146L74.1955 58.6648C76.2999 59.019 77.7367 61.036 77.398 63.161C77.0592 65.2859 75.078 66.7231 72.9685 66.3689Z" fill="#85B1FF"/>
<path d="M87.11 85.0872L25.558 74.6782C24.8086 74.5498 24.3005 73.8362 24.4237 73.0817C25.984 63.2782 35.1203 56.6673 44.8262 58.3046L73.9338 63.2271C83.6398 64.8695 90.2457 74.1441 88.6854 83.9476C88.5673 84.7021 87.8592 85.2104 87.115 85.0872H87.11Z" fill="#4D83FD"/>
<defs>
<linearGradient id="paint0_linear_2227_1042" x1="38.9269" y1="118.634" x2="48.1417" y2="65.5014" gradientUnits="userSpaceOnUse">
<stop offset="0.21" stop-color="#78F5BE"/>
<stop offset="0.37" stop-color="#74F4BB"/>
<stop offset="0.52" stop-color="#6AF1B4"/>
<stop offset="0.65" stop-color="#58EDA7"/>
<stop offset="0.77" stop-color="#3FE795"/>
<stop offset="0.9" stop-color="#20E07F"/>
</linearGradient>
</defs>
</svg>
