<svg width="109" height="117" viewBox="0 0 109 117" fill="none" xmlns="http://www.w3.org/2000/svg">
<path d="M36.7765 60.6775C36.7816 60.5645 36.792 60.4517 36.792 60.3336C36.792 56.2069 33.4455 52.8604 29.3188 52.8604C25.7669 52.8604 22.7951 55.3446 22.0355 58.6655C21.1732 58.0444 20.1157 57.6748 18.9711 57.6748C16.0609 57.6748 13.7051 60.0308 13.7051 62.9411C13.7051 65.8513 15.8556 67.9866 18.5759 68.1868C19.0224 71.1997 21.6145 73.5145 24.7557 73.5145C26.8396 73.5145 28.6773 72.4931 29.8167 70.9276C30.9203 71.9131 32.3727 72.5135 33.969 72.5135C37.4233 72.5135 40.2258 69.7111 40.2258 66.2568C40.2258 63.8136 38.8193 61.7041 36.7765 60.6725V60.6775Z" fill="#E5E5E5"/>
<path d="M48.4731 73.5913C46.4611 74.1508 43.7768 74.5512 40.9487 74.8386L45.1113 73.2935L53.2106 64.4552L50.7983 60.0049C50.7983 60.0049 47.4313 65.4252 39.7938 68.6588C32.1564 71.8924 24.1543 70.2653 24.1543 70.2653C24.1543 70.2653 21.1876 71.2045 21.0028 74.9C20.9258 76.4912 21.3724 77.7693 21.9524 78.7445C21.7266 79.7095 21.8035 81.1159 22.8506 83.0612C25.1603 87.3573 30.8166 90.8578 30.8166 90.8578C38.4489 95.4208 41.6775 94.4507 41.6775 94.4507C41.6775 94.4507 41.7185 97.2737 45.5629 99.8812C48.8273 102.098 51.3064 101.559 51.3064 101.559C51.3064 101.559 54.0627 104.701 61.0432 105.532C68.0186 106.364 73.4645 105.086 73.4645 105.086C73.4645 105.086 76.1947 107.554 79.4899 107.395C82.78 107.236 83.6988 105.47 83.9555 103.9C84.207 102.329 84.243 99.2856 81.8974 98.7416C81.6921 98.6954 88.7546 85.6685 89.1704 83.7642C91.6803 72.3593 73.7209 66.5851 48.4834 73.5913H48.4731Z" fill="#2BEF91"/>
<path d="M93.8364 89.2152C89.8996 96.7808 85.7679 102.493 82.796 106.22C82.7242 105.491 82.4829 104.008 81.4717 102.488C81.3896 102.365 81.3128 102.252 81.2306 102.139C80.3324 100.933 79.0645 100.056 77.6633 99.5422L74.6609 98.4335C74.6609 98.4335 79.2597 97.1864 83.1554 91.7662C87.7441 85.4017 87.7492 81.7317 87.7954 81.4494C87.6517 81.8549 85.3318 88.1476 80.584 92.7517C75.205 97.9665 66.3869 98.2435 66.3869 98.2435C66.3869 98.2435 62.876 98.6081 57.8049 96.9553C54.3454 95.8313 52.39 93.7679 52.39 93.7679C52.39 93.7679 49.6285 93.501 47.6319 92.7978C45.6404 92.0997 44.4034 90.0364 44.4034 90.0364C44.4034 90.0364 49.5924 88.979 54.1195 84.4571C59.8733 78.6931 60.9923 73.2371 60.9923 73.2371C60.9923 73.2371 58.3745 78.1644 52.3641 82.3835C45.8815 86.9311 40.0098 86.8643 40.0098 86.8643C40.0098 86.8643 33.9994 85.1244 30.5451 82.3271C27.0857 79.5246 25.1249 75.5674 25.1249 75.5674C25.1249 75.5674 25.1814 73.8426 25.2635 72.3541C25.3713 70.4345 24.042 70.26 24.042 70.26C24.042 70.26 30.8992 69.6903 39.0396 67.4114C47.1801 65.1376 49.3873 57.9775 49.3873 57.9775L54.0426 59.1427C54.0426 59.1427 53.8014 59.8662 53.3343 61.0108L98.5536 72.6469C99.0463 77.5435 98.7024 79.8839 93.8469 89.2152H93.8364Z" fill="url(#paint0_linear_2227_1048)"/>
<g opacity="0.88">
<path d="M48.966 115.927L48.9816 115.948C48.9816 115.948 40.6152 116.379 36.3859 115.948C36.3756 115.948 36.3654 115.948 36.3603 115.948C36.3038 115.948 36.2473 115.948 36.1909 115.948C34.7948 115.948 33.5114 115.409 32.5516 114.536C31.0015 115.404 29.2258 115.891 27.3267 115.891C25.4276 115.891 23.5593 115.373 21.9887 114.475C19.9921 115.424 17.7541 115.948 15.3981 115.948C6.89323 115.948 0 109.049 0 100.544C0 94.4365 3.55708 89.1552 8.71032 86.6658C10.4606 82.6007 14.5101 79.752 19.2168 79.752C22.2041 79.752 24.9246 80.8966 26.9623 82.7752C28.3122 82.1336 29.8262 81.7742 31.4173 81.7742C37.1762 81.7742 41.8522 86.445 41.8522 92.2091C41.8522 93.0406 41.7546 93.8465 41.5647 94.6215C44.788 95.8534 47.0721 98.9791 47.0721 102.644C47.0721 103.66 46.8976 104.63 46.5691 105.539C47.1799 105.297 47.842 105.164 48.535 105.164C51.5171 105.164 53.9243 107.576 53.9243 110.559C53.9243 113.541 51.7429 115.717 48.961 115.927H48.966Z" fill="url(#paint1_linear_2227_1048)"/>
</g>
<path d="M108.104 6.07661L80.8499 65.6161C79.9671 67.546 77.5751 68.3261 75.5117 67.3611C73.4484 66.3911 72.4941 64.0403 73.3769 62.1104L100.631 2.57093C101.514 0.641029 103.906 -0.139093 105.97 0.825857C108.033 1.79594 108.987 4.14671 108.104 6.07661Z" fill="#4D83FD"/>
<path d="M89.6421 65.2309L67.6075 54.8782C65.9189 54.0826 65.1849 52.0552 65.9702 50.346C66.7555 48.6368 68.7572 47.8926 70.4458 48.6881L92.4807 59.0408C94.1693 59.8363 94.903 61.8638 94.1177 63.573C93.3324 65.2822 91.3308 66.0264 89.6421 65.2309Z" fill="#85B1FF"/>
<path d="M97.1468 84.2776L47.837 61.1087C47.2364 60.8264 46.9799 60.1076 47.257 59.5019C50.8653 51.6284 60.0938 48.205 67.8698 51.8595L91.1876 62.8177C98.9636 66.4721 102.341 75.819 98.7328 83.6926C98.4556 84.2983 97.7422 84.5651 97.1468 84.2828V84.2776Z" fill="#4D83FD"/>
<defs>
<linearGradient id="paint0_linear_2227_1048" x1="48.8125" y1="101.159" x2="69.0096" y2="58.6499" gradientUnits="userSpaceOnUse">
<stop offset="0.21" stop-color="#78F5BE"/>
<stop offset="0.37" stop-color="#74F4BB"/>
<stop offset="0.52" stop-color="#6AF1B4"/>
<stop offset="0.65" stop-color="#58EDA7"/>
<stop offset="0.77" stop-color="#3FE795"/>
<stop offset="0.9" stop-color="#20E07F"/>
</linearGradient>
<linearGradient id="paint1_linear_2227_1048" x1="31.8126" y1="119.187" x2="15.3622" y2="76.0564" gradientUnits="userSpaceOnUse">
<stop stop-color="#D8D8D8"/>
<stop offset="0.64" stop-color="#E6E6E6"/>
<stop offset="0.9" stop-color="#EDEDED"/>
</linearGradient>
</defs>
</svg>
