<svg width="90" height="121" viewBox="0 0 90 121" fill="none" xmlns="http://www.w3.org/2000/svg">
<path d="M30.6338 88.4235C28.5859 89.6604 25.7426 90.9282 22.7092 92.1138L26.8254 89.1267L33.0463 76.8801L29.0173 72.707C29.0173 72.707 26.9691 79.7286 19.5318 85.6466C12.0997 91.5646 2.76331 92.2319 2.76331 92.2319C2.76331 92.2319 -0.223929 94.1825 0.710225 98.3195C1.11058 100.101 1.99884 101.373 2.94326 102.272C2.98945 103.406 3.50761 104.935 5.263 106.763C9.13307 110.792 16.4572 112.922 16.4572 112.922C26.2864 115.611 29.5456 113.548 29.5456 113.548C29.5456 113.548 30.4596 116.648 35.4999 118.347C39.7806 119.789 42.3519 118.435 42.3519 118.435C42.3519 118.435 46.3607 121.052 54.3215 119.825C62.2772 118.599 67.8976 115.509 67.8976 115.509C67.8976 115.509 71.6752 117.393 75.2579 116.202C78.8405 115.011 79.3127 112.783 79.1074 110.972C78.9021 109.16 78.0036 105.787 75.2473 105.906C75.0061 105.916 78.7945 89.3679 78.6713 87.1403C77.9322 73.7747 56.3333 72.9279 30.6338 88.4287V88.4235Z" fill="#2BEF91"/>
<path d="M85.5135 91.7126C83.4964 101.275 80.6889 108.851 78.5588 113.876C78.256 113.095 77.5322 111.53 75.9513 110.165C75.823 110.057 75.7001 109.954 75.5769 109.857C74.2167 108.799 72.5432 108.219 70.8392 108.086L67.1846 107.783C67.1846 107.783 71.8762 104.991 74.5093 97.8102C77.6146 89.3721 76.4905 85.3224 76.4546 84.999C76.4238 85.4866 75.7975 93.1498 71.9685 99.6889C67.6313 107.101 57.9868 110.118 57.9868 110.118C57.9868 110.118 54.2196 111.602 48.1219 111.335C43.9593 111.155 41.1622 109.482 41.1622 109.482C41.1622 109.482 38.0311 110.036 35.6084 109.877C33.196 109.723 31.1945 107.824 31.1945 107.824C31.1945 107.824 36.5991 105.063 40.2023 98.6776C44.7807 90.5474 44.339 84.1777 44.339 84.1777C44.339 84.1777 42.9634 90.419 37.6254 96.9273C31.8716 103.939 25.3685 105.673 25.3685 105.673C25.3685 105.673 18.198 105.602 13.5272 103.574C8.85132 101.547 5.46375 97.7847 5.46375 97.7847C5.46375 97.7847 4.99673 95.8599 4.62717 94.1918C4.15497 92.0412 2.63574 92.2567 2.63574 92.2567C2.63574 92.2567 10.0319 89.5157 18.3161 84.501C26.6003 79.4864 26.8367 70.9046 26.8367 70.9046L32.3338 70.7607C32.3338 70.7607 32.2874 71.6335 32.1283 73.0399L85.6163 71.9722C87.6694 77.223 88.008 79.9124 85.5135 91.7074V91.7126Z" fill="url(#paint0_linear_2227_1036)"/>
<path d="M74.1656 4.85813L63.8335 70.1772C63.4998 72.297 61.1385 73.6621 58.5619 73.231C55.9853 72.7998 54.1737 70.7313 54.5074 68.6115L64.8395 3.29275C65.1731 1.17294 67.5339 -0.192464 70.1105 0.238684C72.6871 0.669832 74.4992 2.73832 74.1656 4.85813Z" fill="#4D83FD"/>
<path d="M73.5085 66.5281L46.0024 61.8781C43.898 61.5239 42.4607 59.5066 42.7995 57.3817C43.1382 55.2568 45.1194 53.8196 47.2289 54.1737L74.7351 58.824C76.8395 59.1782 78.2768 61.1952 77.938 63.3202C77.5992 65.4451 75.6181 66.8823 73.5085 66.5281Z" fill="#85B1FF"/>
<path d="M87.6495 85.2464L26.098 74.8373C25.3487 74.709 24.8405 73.9954 24.9637 73.2409C26.5241 63.4374 35.6603 56.8265 45.3663 58.4638L74.4739 63.3862C84.1798 65.0287 90.7857 74.3033 89.2254 84.1068C89.1073 84.8613 88.3992 85.3696 87.655 85.2464H87.6495Z" fill="#4D83FD"/>
<defs>
<linearGradient id="paint0_linear_2227_1036" x1="39.4651" y1="118.795" x2="48.6848" y2="65.6611" gradientUnits="userSpaceOnUse">
<stop offset="0.21" stop-color="#78F5BE"/>
<stop offset="0.37" stop-color="#74F4BB"/>
<stop offset="0.52" stop-color="#6AF1B4"/>
<stop offset="0.65" stop-color="#58EDA7"/>
<stop offset="0.77" stop-color="#3FE795"/>
<stop offset="0.9" stop-color="#20E07F"/>
</linearGradient>
</defs>
</svg>
