<svg width="114" height="117" viewBox="0 0 114 117" fill="none" xmlns="http://www.w3.org/2000/svg">
<path d="M62.4381 77.7256H23.6901C21.7492 77.7256 20.1758 79.299 20.1758 81.2399V105.648C20.1758 107.589 21.7492 109.163 23.6901 109.163H62.4381C64.3791 109.163 65.9525 107.589 65.9525 105.648V81.2399C65.9525 79.299 64.3791 77.7256 62.4381 77.7256Z" fill="url(#paint0_linear_3195_10640)"/>
<path d="M94.7105 56.8894V65.6699C94.7105 76.3726 86.0205 85.0679 75.3125 85.0679H23.652C12.9493 85.0679 4.25403 76.3779 4.25403 65.6699V56.8894C4.25403 56.3197 4.71726 55.8564 5.28701 55.8564L93.6828 55.8564C94.2526 55.8564 94.7158 56.3197 94.7158 56.8894H94.7105Z" fill="url(#paint1_linear_3195_10640)"/>
<path d="M94.5828 111.542C93.7362 105.802 88.7948 101.394 82.8205 101.394H16.1549C10.1806 101.394 5.23389 105.802 4.39258 111.542H94.5881H94.5828Z" fill="url(#paint2_linear_3195_10640)"/>
<path d="M32.9014 59.6691V47.7949H94.3381C95.5947 47.7949 96.6117 48.8119 96.6117 50.0686V57.3954C96.6117 58.652 95.5947 59.6691 94.3381 59.6691H32.9014Z" fill="#F99DF9"/>
<path d="M3.509 0H29.3872C31.3254 0 32.9015 1.57612 32.9015 3.51432V59.6689H3.51432C1.57612 59.6689 0 58.0928 0 56.1546V3.51432C0 1.57612 1.57612 0 3.51432 0H3.509Z" fill="#FECFFF"/>
<path d="M21.1867 6.88574H11.7034C11.0064 6.88574 10.4414 7.45074 10.4414 8.1477C10.4414 8.84466 11.0064 9.40966 11.7034 9.40966H21.1867C21.8837 9.40966 22.4487 8.84466 22.4487 8.1477C22.4487 7.45074 21.8837 6.88574 21.1867 6.88574Z" fill="#F99DF9"/>
<path d="M94.0878 110.115H4.91989C4.20528 110.115 3.62598 110.695 3.62598 111.409V114.758C3.62598 115.473 4.20528 116.052 4.91989 116.052H94.0878C94.8024 116.052 95.3817 115.473 95.3817 114.758V111.409C95.3817 110.695 94.8024 110.115 94.0878 110.115Z" fill="#F99DF9"/>
<path d="M61.6076 12.9971L62.0283 14.5732C63.4393 19.8553 67.2359 24.179 72.2944 26.2663C67.2359 28.3483 63.4393 32.6719 62.0283 37.9594L61.6076 39.5355L61.187 37.9594C59.7759 32.6773 55.9794 28.3536 50.9209 26.2663C55.9794 24.1843 59.7759 19.8606 61.187 14.5732L61.6076 12.9971Z" fill="#78F4BD"/>
<path d="M106.154 74.168L106.798 76.5801C107.613 79.6205 109.796 82.1071 112.703 83.3052L113.918 83.8057L112.703 84.3062C109.796 85.5043 107.608 87.991 106.798 91.0314L106.154 93.4435L105.51 91.0314C104.695 87.991 102.512 85.5043 99.6047 84.3062L98.3906 83.8057L99.6047 83.3052C102.512 82.1071 104.7 79.6205 105.51 76.5801L106.154 74.168Z" fill="#78F4BD"/>
<path d="M76.3727 6.40039L76.5803 7.18313C77.2832 9.81354 79.1735 11.9594 81.6868 12.9977C79.1735 14.0361 77.2832 16.1819 76.5803 18.8123L76.3727 19.5951L76.165 18.8123C75.4621 16.1819 73.5719 14.0361 71.0586 12.9977C73.5719 11.9594 75.4621 9.81354 76.165 7.18313L76.3727 6.40039Z" fill="#78F4BD"/>
<defs>
<linearGradient id="paint0_linear_3195_10640" x1="43.0668" y1="109.163" x2="43.0668" y2="77.7256" gradientUnits="userSpaceOnUse">
<stop stop-color="#FECFFF"/>
<stop offset="0.81" stop-color="#FAA9FA"/>
</linearGradient>
<linearGradient id="paint1_linear_3195_10640" x1="49.4823" y1="85.0679" x2="49.4823" y2="55.8618" gradientUnits="userSpaceOnUse">
<stop stop-color="#FECFFF"/>
<stop offset="0.45" stop-color="#FDCCFE"/>
<stop offset="0.68" stop-color="#FCC4FD"/>
<stop offset="0.87" stop-color="#FBB7FB"/>
<stop offset="1" stop-color="#FAA9FA"/>
</linearGradient>
<linearGradient id="paint2_linear_3195_10640" x1="49.4824" y1="101.804" x2="49.4824" y2="113.598" gradientUnits="userSpaceOnUse">
<stop stop-color="#FECFFF"/>
<stop offset="0.4" stop-color="#FDCCFE"/>
<stop offset="0.66" stop-color="#FCC3FD"/>
<stop offset="0.88" stop-color="#FBB4FB"/>
<stop offset="1" stop-color="#FAA9FA"/>
</linearGradient>
</defs>
</svg>
