<svg width="49" height="57" viewBox="0 0 49 57" fill="none" xmlns="http://www.w3.org/2000/svg">
<path d="M41.7384 12.2897L35.598 14.849C35.4449 14.9132 35.2722 14.9157 35.1163 14.8569L28.0092 12.1988C27.8363 12.1346 27.703 12.0009 27.6463 11.8324L25.8463 6.58551C25.7839 6.40367 25.8207 6.20316 25.9426 6.04805L28.216 3.22391C28.3181 3.09554 28.4742 3.01281 28.6443 2.99409L36.5789 2.1516C36.7433 2.13288 36.9077 2.17833 37.0381 2.2746L41.245 5.43564C41.4123 5.56133 41.5003 5.75928 41.4776 5.95717L41.265 7.82914C41.2593 7.89065 41.2621 7.95488 41.2763 8.01639L42.1013 11.6237C42.1637 11.8965 42.0135 12.1721 41.7442 12.2871L41.7384 12.2897Z" fill="url(#paint0_linear_5398_4106)"/>
<path d="M24.1865 8.68478L21.7428 16.5524C21.6833 16.7476 21.5359 16.9053 21.3403 16.9883L12.3225 20.7802C12.1042 20.8712 11.8407 20.8632 11.6082 20.7562L4.29157 17.3946C4.03644 17.2769 3.84649 17.0551 3.78412 16.801L2.62443 12.113C2.57057 11.9017 2.61321 11.6852 2.73794 11.5194L8.60892 3.68102C8.73082 3.51789 8.92079 3.41383 9.13907 3.39244L16.2234 2.64632C16.5041 2.6169 16.7959 2.72656 16.9972 2.93516L18.8767 4.89514C18.9391 4.95932 19.013 5.01571 19.0924 5.06384L23.7668 7.7407C24.1212 7.94394 24.297 8.33713 24.1893 8.68478H24.1865Z" fill="url(#paint1_linear_5398_4106)"/>
<path d="M32.5719 11.2784C32.2459 13.1772 30.6583 14.7257 28.6512 15.0814C27.6761 15.2552 26.7406 15.1588 25.91 14.8539C25 14.5197 23.9738 14.6026 23.1659 15.1187C22.3778 15.6215 21.4281 15.9155 20.4047 15.9155C18.4912 15.9155 16.8357 14.8914 16.0192 13.3938H17.7852C17.9723 13.3938 18.1368 13.2629 18.1595 13.0864L18.3381 11.9606C18.3664 11.7921 18.2615 11.6261 18.0914 11.5699L15.3415 10.6394C15.2338 10.602 15.1517 10.5271 15.112 10.4255L14.3153 8.37151C14.2756 8.26989 14.188 8.19245 14.0802 8.15501L11.9937 7.47835C11.8378 7.42754 11.7386 7.27509 11.7783 7.12266C12.212 5.43521 13.8334 4.1436 15.7186 4.10082C16.6654 4.07942 17.5416 4.35487 18.2503 4.83623C18.8513 2.35453 21.1984 0.503906 24.0078 0.503906C27.2764 0.503906 29.9214 3.00174 29.9214 6.08247C29.9214 6.16805 29.9129 6.251 29.91 6.33658C31.7527 7.21105 32.9376 9.13657 32.5691 11.2813L32.5719 11.2784Z" fill="url(#paint2_linear_5398_4106)"/>
<path d="M43.3877 15.2313L29.3184 22.6471C28.2383 23.2167 26.8775 22.8556 26.2737 21.8367C25.9477 21.2885 25.9108 20.6601 26.1206 20.1092C25.5139 19.9888 24.9669 19.6277 24.6409 19.0768C24.3149 18.5259 24.2779 17.8949 24.4905 17.3467C23.8839 17.229 23.3341 16.8707 23.0081 16.3198C22.4042 15.3009 22.7898 14.0172 23.8699 13.4476L37.9392 6.03178C40.1703 4.85512 42.8917 5.27785 44.6153 6.90379L46.2763 6.02917L47.8131 8.62585L46.1263 9.5164C46.6365 11.7226 45.5876 14.0788 43.3877 15.2368V15.2313Z" fill="#E5E5E5"/>
<path d="M48.5196 8.46313L46.7817 5.52842C46.7405 5.4588 46.6472 5.43388 46.5734 5.47278L45.0119 6.2957C44.938 6.3346 44.9116 6.42259 44.9529 6.49222L46.6908 9.42692C46.732 9.49655 46.8253 9.52147 46.8991 9.48257L48.4607 8.65964C48.5345 8.62075 48.5609 8.53276 48.5196 8.46313Z" fill="url(#paint3_linear_5398_4106)"/>
<path d="M37.2726 6.38545L25.4922 12.5938L30.941 21.7946L42.7214 15.5863L37.2726 6.38545Z" fill="url(#paint4_linear_5398_4106)"/>
<path d="M30.559 12.1081L22.1284 8.59402C21.9186 8.50577 21.6804 8.50309 21.4678 8.58332L11.7103 12.2364C11.4721 12.3246 11.2905 12.5091 11.2111 12.7391L8.73642 19.941C8.65138 20.1924 8.69949 20.4678 8.86958 20.679L11.9907 24.5567C12.1324 24.7332 12.3451 24.8455 12.5776 24.8696L23.4719 26.0275C23.6987 26.0516 23.9228 25.9902 24.1014 25.8565L29.8788 21.516C30.1084 21.3449 30.2275 21.0722 30.1964 20.7994L29.9043 18.2294C29.8958 18.1438 29.8986 18.0583 29.9184 17.9727L31.0496 13.0201C31.1346 12.6457 30.9304 12.2659 30.559 12.1108V12.1081Z" fill="#D1D1D1"/>
<path d="M44.0239 15.8097L40.8912 51.0964L40.6022 54.3214C40.4916 55.5569 39.5816 56.4955 38.4901 56.4955H8.96221C7.87079 56.4955 6.96103 55.5569 6.85047 54.3214L6.56117 51.0964L3.4287 15.8097C3.30397 14.387 4.28205 13.1514 5.54073 13.1514H41.9119C43.1677 13.1514 44.1487 14.387 44.0239 15.8097Z" fill="url(#paint5_linear_5398_4106)"/>
<path d="M45.8379 13.1514H1.60553C0.943258 13.1514 0.40625 13.658 0.40625 14.2827V16.9969C0.40625 17.6216 0.943258 18.1282 1.60553 18.1282H45.8379C46.5002 18.1282 47.0369 17.6216 47.0369 16.9969V14.2827C47.0369 13.658 46.5002 13.1514 45.8379 13.1514Z" fill="#A6C6FF"/>
<path d="M23.8798 20.9404H23.7976C23.6504 20.9404 23.5312 21.0531 23.5312 21.1919V48.1509C23.5312 48.2897 23.6504 48.4023 23.7976 48.4023H23.8798C24.027 48.4023 24.1464 48.2897 24.1464 48.1509V21.1919C24.1464 21.0531 24.027 20.9404 23.8798 20.9404Z" fill="#A6C6FF"/>
<path d="M13.3625 20.9603C13.1924 20.9683 13.0622 21.1181 13.0707 21.292L14.4342 48.0825C14.4427 48.2563 14.5871 48.39 14.7572 48.382C14.9273 48.374 15.0578 48.2242 15.0493 48.0503L13.6858 21.2599C13.6773 21.086 13.5326 20.9523 13.3625 20.9603Z" fill="#A6C6FF"/>
<path d="M34.2028 20.9603C34.3729 20.9683 34.5031 21.1181 34.4946 21.292L33.1312 48.0825C33.1227 48.2563 32.9779 48.39 32.8078 48.382C32.6377 48.374 32.5075 48.2242 32.516 48.0503L33.8795 21.2599C33.888 21.086 34.0327 20.9523 34.2028 20.9603Z" fill="#A6C6FF"/>
<path d="M40.8808 50.9316L40.5918 54.253C40.4812 55.526 39.5712 56.494 38.4798 56.494H8.95183C7.86041 56.494 6.95036 55.526 6.8398 54.253L6.55078 50.9316H40.878H40.8808Z" fill="#A6C6FF"/>
<defs>
<linearGradient id="paint0_linear_5398_4106" x1="35.8958" y1="14.4398" x2="32.2738" y2="-0.552042" gradientUnits="userSpaceOnUse">
<stop stop-color="#B7B7B7"/>
<stop offset="0.21" stop-color="#AFAFAF"/>
<stop offset="0.52" stop-color="#9A9A9A"/>
<stop offset="0.78" stop-color="#848484"/>
</linearGradient>
<linearGradient id="paint1_linear_5398_4106" x1="16.7665" y1="19.2417" x2="10.9329" y2="2.7685" gradientUnits="userSpaceOnUse">
<stop stop-color="#B7B7B7"/>
<stop offset="0.23" stop-color="#A3A3A3"/>
<stop offset="0.66" stop-color="#848484"/>
</linearGradient>
<linearGradient id="paint2_linear_5398_4106" x1="28.8696" y1="16.1134" x2="19.129" y2="2.62935" gradientUnits="userSpaceOnUse">
<stop offset="0.08" stop-color="#FA9EFA"/>
<stop offset="0.51" stop-color="#F986FC"/>
<stop offset="0.89" stop-color="#F86EFF"/>
</linearGradient>
<linearGradient id="paint3_linear_5398_4106" x1="45.7914" y1="5.88489" x2="47.516" y2="9.15746" gradientUnits="userSpaceOnUse">
<stop stop-color="#78F5BE"/>
<stop offset="0.21" stop-color="#74F4BC"/>
<stop offset="0.42" stop-color="#68F3B9"/>
<stop offset="0.62" stop-color="#54F0B4"/>
<stop offset="0.82" stop-color="#39EDAD"/>
<stop offset="1" stop-color="#1BEAA5"/>
</linearGradient>
<linearGradient id="paint4_linear_5398_4106" x1="31.3799" y1="9.49091" x2="36.3592" y2="18.9392" gradientUnits="userSpaceOnUse">
<stop stop-color="#78F5BE"/>
<stop offset="0.21" stop-color="#74F4BC"/>
<stop offset="0.42" stop-color="#68F3B9"/>
<stop offset="0.62" stop-color="#54F0B4"/>
<stop offset="0.82" stop-color="#39EDAD"/>
<stop offset="1" stop-color="#1BEAA5"/>
</linearGradient>
<linearGradient id="paint5_linear_5398_4106" x1="23.7263" y1="56.4099" x2="23.7263" y2="7.90985" gradientUnits="userSpaceOnUse">
<stop stop-color="#7DACFF"/>
<stop offset="0.14" stop-color="#75A5FE"/>
<stop offset="1" stop-color="#4D83FD"/>
</linearGradient>
</defs>
</svg>
