<svg width="90" height="121" viewBox="0 0 90 121" fill="none" xmlns="http://www.w3.org/2000/svg">
<path d="M78.7926 40.8707L68.0755 45.6079C67.8086 45.726 67.5055 45.7312 67.2335 45.6235L54.828 40.7013C54.5251 40.5832 54.2941 40.3316 54.1914 40.0236L51.0451 30.3175C50.9373 29.9788 50.999 29.6095 51.2145 29.3221L55.1821 24.0966C55.3617 23.8605 55.6339 23.7069 55.9264 23.6761L69.7798 22.1157C70.0672 22.0849 70.3544 22.1667 70.5802 22.3463L77.9249 28.1978C78.2175 28.4288 78.3664 28.7931 78.3304 29.1627L77.961 32.6273C77.9508 32.7402 77.9559 32.8582 77.9816 32.9711L79.4186 39.6437C79.5264 40.1467 79.2648 40.6602 78.7926 40.8707Z" fill="url(#paint0_linear_2227_916)"/>
<path d="M52.4664 34.1573L48.7863 46.7169C48.6939 47.03 48.4782 47.2817 48.1805 47.4151L34.6047 53.4661C34.2762 53.615 33.8808 53.5999 33.5318 53.4305L22.517 48.0668C22.132 47.882 21.8447 47.528 21.7523 47.1174L20.007 39.6389C19.93 39.3001 19.9917 38.9564 20.1764 38.6895L29.0151 26.1755C29.1999 25.9189 29.4821 25.7498 29.8105 25.7139L40.4765 24.5229C40.8974 24.4767 41.3388 24.6515 41.6416 24.9851L44.4696 28.1108C44.562 28.2135 44.6749 28.3056 44.7929 28.3775L51.8298 32.6531C52.3636 32.9764 52.6255 33.603 52.4664 34.1573Z" fill="url(#paint1_linear_2227_916)"/>
<path d="M65.0827 38.2993C64.59 41.3328 62.1982 43.8016 59.1801 44.3714C57.7122 44.6485 56.3007 44.4945 55.0534 44.012C53.683 43.4782 52.1381 43.6118 50.9217 44.433C49.7052 45.2543 48.3039 45.7062 46.7641 45.7062C43.8795 45.7062 41.39 44.0684 40.1633 41.6817H42.8221C43.1044 41.6817 43.3508 41.4713 43.3868 41.189L43.6587 39.3925C43.6997 39.1205 43.5459 38.8588 43.2893 38.7715L39.147 37.2833C38.9828 37.2217 38.8597 37.1037 38.7981 36.9395L37.6022 33.6593C37.5406 33.4951 37.4123 33.3721 37.248 33.3105L34.1068 32.2273C33.8707 32.1452 33.7219 31.8991 33.7835 31.6579C34.4353 28.9632 36.8785 26.9048 39.7169 26.8329C41.1438 26.797 42.4629 27.2384 43.5253 28.0084C44.4287 24.0459 47.9652 21.0947 52.1946 21.0947C57.1117 21.0947 61.0999 25.0775 61.0999 29.9998C61.0999 30.1384 61.0895 30.2718 61.0843 30.4053C63.8611 31.8014 65.6421 34.8759 65.0878 38.2943L65.0827 38.2993Z" fill="url(#paint2_linear_2227_916)"/>
<path d="M81.3684 44.6071L60.186 56.4434C58.5589 57.3519 56.5108 56.7768 55.6024 55.1497C55.1147 54.272 55.0584 53.2711 55.3715 52.3934C54.4579 52.1983 53.6314 51.6286 53.1438 50.7458C52.6562 49.863 52.5997 48.8622 52.918 47.9845C52.0043 47.7946 51.1779 47.2247 50.6852 46.3419C49.7767 44.7148 50.3568 42.667 51.9839 41.7585L73.1666 29.9227C76.5285 28.0442 80.6245 28.7165 83.2165 31.3137L85.7162 29.9172L88.0309 34.0595L85.4901 35.4815C86.2549 39.0025 84.679 42.7592 81.3684 44.6121V44.6071Z" fill="#E5E5E5"/>
<path d="M89.0694 33.764L86.4985 29.1619C86.4238 29.0283 86.2549 28.9805 86.1213 29.0551L83.8493 30.3243C83.7157 30.399 83.6679 30.5679 83.7425 30.7015L86.3135 35.3036C86.3882 35.4373 86.5571 35.4851 86.6907 35.4104L88.9626 34.1412C89.0963 34.0665 89.1441 33.8977 89.0694 33.764Z" fill="url(#paint3_linear_2227_916)"/>
<path d="M72.1553 30.4915L54.4199 40.3994L62.6232 55.0835L80.3587 45.1756L72.1553 30.4915Z" fill="url(#paint4_linear_2227_916)"/>
<path d="M23.0921 52.9793L30.6373 48.8065C30.9299 48.6422 31.0068 48.2572 30.7912 48.0416L28.1221 45.3519C27.9784 45.2082 27.958 44.9824 28.071 44.7925L32.1821 37.7606C32.2745 37.5964 32.2745 37.4066 32.1821 37.2629L29.2822 32.8745C29.195 32.7462 29.046 32.6742 28.8817 32.6896L22.1786 33.2745C22.1068 33.2796 22.04 33.3002 21.9784 33.3362L11.9387 38.8383C11.7386 38.9461 11.6255 39.1722 11.6666 39.3826L12.6728 44.6592C12.7139 44.8696 12.8933 45.0082 13.1089 45.0031L17.2306 48.211C17.5078 48.2007 17.7079 48.4266 17.6719 48.7037L17.2253 52.0911C17.1894 52.3426 17.3639 52.5633 17.6103 52.5838L22.8047 53.041C22.9022 53.0512 22.9997 53.0255 23.0921 52.9793Z" fill="url(#paint5_linear_2227_916)"/>
<path d="M62.0598 43.5499L49.3663 37.9395C49.0481 37.8009 48.6888 37.7912 48.3706 37.9195L33.6757 43.7499C33.3164 43.8936 33.0444 44.1865 32.9264 44.5509L29.1999 56.0479C29.0716 56.4482 29.1435 56.8897 29.4001 57.2233L34.1018 63.4081C34.3174 63.6904 34.6354 63.8703 34.9845 63.9114L51.3886 65.7589C51.7274 65.7949 52.0662 65.6977 52.3382 65.4873L61.0382 58.5581C61.3821 58.2809 61.5616 57.8495 61.5154 57.4133L61.0738 53.3121C61.0584 53.1735 61.0687 53.035 61.0944 52.9016L62.7986 44.997C62.9269 44.4016 62.6192 43.7964 62.0598 43.5449V43.5499Z" fill="#D1D1D1"/>
<path d="M79.8594 50.0941L74.7267 111.394L74.2545 116.999C74.0697 119.144 72.5811 120.777 70.7949 120.777H22.3986C20.6124 120.777 19.1189 119.144 18.9392 116.999L18.4668 111.394L13.3341 50.0941C13.1288 47.6201 14.7355 45.4746 16.7937 45.4746H76.3998C78.458 45.4746 80.0647 47.6201 79.8594 50.0941Z" fill="url(#paint6_linear_2227_916)"/>
<path d="M82.6305 45.4746H10.552C9.3529 45.4746 8.38086 46.4464 8.38086 47.6455V51.9522C8.38086 53.1512 9.3529 54.123 10.552 54.123H82.6305C83.8296 54.123 84.8019 53.1512 84.8019 51.9522V47.6455C84.8019 46.4464 83.8296 45.4746 82.6305 45.4746Z" fill="#A6C6FF"/>
<path d="M46.7941 59.0098H46.753C46.4865 59.0098 46.2705 59.2255 46.2705 59.492V106.236C46.2705 106.502 46.4865 106.718 46.753 106.718H46.7941C47.0605 106.718 47.2765 106.502 47.2765 106.236V59.492C47.2765 59.2255 47.0605 59.0098 46.7941 59.0098Z" fill="#A6C6FF"/>
<path d="M29.6198 59.0403C29.3426 59.0557 29.127 59.3174 29.1424 59.6202L31.3802 106.164C31.3956 106.467 31.6318 106.703 31.909 106.682C32.1861 106.667 32.4016 106.405 32.3862 106.102L30.1484 59.5586C30.133 59.2558 29.897 59.0198 29.6198 59.0403Z" fill="#A6C6FF"/>
<path d="M63.7671 59.0403C64.0443 59.0557 64.2602 59.3174 64.2448 59.6202L62.0068 106.164C61.9914 106.467 61.7551 106.703 61.478 106.682C61.2008 106.667 60.9854 106.405 61.0008 106.102L63.2388 59.5586C63.2542 59.2558 63.49 59.0198 63.7671 59.0403Z" fill="#A6C6FF"/>
<path d="M74.7208 111.112L74.2486 116.882C74.0638 119.094 72.5752 120.772 70.7891 120.772H22.3927C20.6065 120.772 19.1128 119.089 18.9331 116.882L18.4609 111.112H74.7208Z" fill="#A6C6FF"/>
<path d="M68.1421 7.0355L63.9232 2.23661C62.4604 0.573615 60.0838 0.0554712 58.0667 0.963961L39.9122 9.0941L33.4038 12.0093L26.8957 14.9245L8.74126 23.0547C6.71897 23.958 5.52305 26.0783 5.78995 28.2751L6.55986 34.6138L37.3509 20.8272L68.1421 7.04101V7.0355Z" fill="#4D83FD"/>
<path d="M37.3121 6.29254L26.3269 11.2111C24.5262 12.0173 23.72 14.1306 24.5262 15.9314L24.6584 16.2264C25.4646 18.0271 27.5779 18.8333 29.3786 18.027L40.3639 13.1085C42.1646 12.3023 42.9707 10.1889 42.1645 8.38823L42.0324 8.09315C41.2261 6.29244 39.1128 5.48629 37.3121 6.29254Z" stroke="#4D83FD" stroke-width="3" stroke-miterlimit="10"/>
<path d="M69.5089 4.4236L2.90344 34.2456C1.80905 34.7356 1.319 36.0198 1.809 37.1142L4.53163 43.195C5.02163 44.2894 6.30613 44.7795 7.40053 44.2895L74.006 14.4675C75.1004 13.9775 75.59 12.693 75.1 11.5986L72.3774 5.51781C71.8874 4.42342 70.6033 3.93359 69.5089 4.4236Z" fill="#A6C6FF"/>
<defs>
<linearGradient id="paint0_linear_2227_916" x1="68.5938" y1="44.8484" x2="61.5364" y2="17.2961" gradientUnits="userSpaceOnUse">
<stop stop-color="#B7B7B7"/>
<stop offset="0.21" stop-color="#AFAFAF"/>
<stop offset="0.52" stop-color="#9A9A9A"/>
<stop offset="0.78" stop-color="#848484"/>
</linearGradient>
<linearGradient id="paint1_linear_2227_916" x1="41.3282" y1="51.0018" x2="31.5914" y2="25.0671" gradientUnits="userSpaceOnUse">
<stop stop-color="#B7B7B7"/>
<stop offset="0.23" stop-color="#A3A3A3"/>
<stop offset="0.66" stop-color="#848484"/>
</linearGradient>
<linearGradient id="paint2_linear_2227_916" x1="59.5034" y1="46.0142" x2="43.6945" y2="25.3704" gradientUnits="userSpaceOnUse">
<stop offset="0.08" stop-color="#FA9EFA"/>
<stop offset="0.51" stop-color="#F986FC"/>
<stop offset="0.89" stop-color="#F86EFF"/>
</linearGradient>
<linearGradient id="paint3_linear_2227_916" x1="84.9876" y1="29.6885" x2="87.8289" y2="34.7746" gradientUnits="userSpaceOnUse">
<stop stop-color="#78F5BE"/>
<stop offset="0.21" stop-color="#74F4BC"/>
<stop offset="0.42" stop-color="#68F3B9"/>
<stop offset="0.62" stop-color="#54F0B4"/>
<stop offset="0.82" stop-color="#39EDAD"/>
<stop offset="1" stop-color="#1BEAA5"/>
</linearGradient>
<linearGradient id="paint4_linear_2227_916" x1="63.2921" y1="35.4429" x2="71.4954" y2="50.1271" gradientUnits="userSpaceOnUse">
<stop stop-color="#78F5BE"/>
<stop offset="0.21" stop-color="#74F4BC"/>
<stop offset="0.42" stop-color="#68F3B9"/>
<stop offset="0.62" stop-color="#54F0B4"/>
<stop offset="0.82" stop-color="#39EDAD"/>
<stop offset="1" stop-color="#1BEAA5"/>
</linearGradient>
<linearGradient id="paint5_linear_2227_916" x1="28.5636" y1="52.0606" x2="18.5854" y2="34.0395" gradientUnits="userSpaceOnUse">
<stop offset="0.08" stop-color="#FA9EFA"/>
<stop offset="0.32" stop-color="#F98FFB"/>
<stop offset="0.74" stop-color="#F86EFF"/>
</linearGradient>
<linearGradient id="paint6_linear_2227_916" x1="46.5942" y1="120.628" x2="46.5942" y2="36.3692" gradientUnits="userSpaceOnUse">
<stop stop-color="#7DACFF"/>
<stop offset="0.14" stop-color="#75A5FE"/>
<stop offset="1" stop-color="#4D83FD"/>
</linearGradient>
</defs>
</svg>
