<svg width="88" height="108" viewBox="0 0 88 108" fill="none" xmlns="http://www.w3.org/2000/svg">
<path d="M74.8298 22.6204L63.7123 27.5326C63.4351 27.6558 63.1224 27.6606 62.8401 27.5476L49.9722 22.446C49.6591 22.3228 49.4178 22.0661 49.3151 21.7428L46.056 11.6723C45.9431 11.3233 46.0098 10.9385 46.2305 10.6408L50.3467 5.22034C50.5314 4.97397 50.8141 4.81517 51.1221 4.77924L65.4882 3.16224C65.7859 3.12631 66.0836 3.21355 66.3197 3.39832L73.9366 9.46535C74.2394 9.70659 74.3987 10.0865 74.3576 10.4663L73.9727 14.0592C73.9624 14.1773 73.9676 14.3006 73.9932 14.4186L75.4869 21.3423C75.5998 21.8658 75.3279 22.3947 74.8403 22.6154L74.8298 22.6204Z" fill="url(#paint0_linear_2227_900)"/>
<path d="M43.0635 15.7023L38.6391 30.8027C38.5313 31.1774 38.2644 31.4801 37.9103 31.6392L21.5828 38.9173C21.1876 39.0918 20.7105 39.0765 20.2896 38.8712L7.04231 32.4192C6.58037 32.1933 6.23645 31.7675 6.12353 31.2799L4.02383 22.2821C3.92631 21.8766 4.0035 21.461 4.22934 21.1427L14.8592 6.09848C15.0799 5.78539 15.4238 5.58567 15.819 5.54461L28.6458 4.11257C29.154 4.05611 29.6824 4.26659 30.0468 4.66694L33.4497 8.42876C33.5626 8.55194 33.6965 8.66017 33.8402 8.75256L42.3036 13.8903C42.9452 14.2804 43.2636 15.035 43.0685 15.7023H43.0635Z" fill="url(#paint1_linear_2227_900)"/>
<path d="M58.2305 20.6797C57.6403 24.3239 54.7659 27.2962 51.1319 27.9788C49.3663 28.3124 47.6725 28.1273 46.1687 27.5422C44.521 26.9006 42.6632 27.0599 41.2003 28.0505C39.7735 29.0154 38.0539 29.5798 36.201 29.5798C32.7364 29.5798 29.739 27.6141 28.2608 24.7398H31.4582C31.797 24.7398 32.0948 24.4886 32.1359 24.1498L32.4592 21.989C32.5105 21.6656 32.3205 21.3469 32.0126 21.2391L27.0338 19.4532C26.8387 19.3813 26.6901 19.2377 26.6182 19.0427L25.1757 15.1004C25.1038 14.9054 24.9451 14.7567 24.7501 14.6849L20.9722 13.3862C20.6899 13.2886 20.5104 12.996 20.5823 12.7035C21.3676 9.46472 24.3032 6.98572 27.7164 6.9036C29.4308 6.86254 31.0171 7.39121 32.3003 8.3151C33.3884 3.55194 37.6381 0 42.7246 0C48.6426 0 53.4316 4.79413 53.4316 10.707C53.4316 10.8713 53.4162 11.0305 53.4111 11.1947C56.7474 12.8731 58.8928 16.5688 58.2255 20.6852L58.2305 20.6797Z" fill="url(#paint2_linear_2227_900)"/>
<path d="M77.817 28.2668L52.3434 42.5C50.3878 43.5933 47.924 42.9003 46.8307 40.9447C46.2405 39.8925 46.1737 38.6863 46.5536 37.629C45.4552 37.398 44.4647 36.7049 43.8744 35.6476C43.2842 34.5902 43.2173 33.3791 43.6022 32.3268C42.5038 32.101 41.5084 31.4133 40.9181 30.356C39.8248 28.4004 40.5229 25.9366 42.4785 24.8433L67.9521 10.6101C71.9915 8.35166 76.9188 9.16301 80.0395 12.2837L83.0469 10.605L85.8293 15.5889L82.7753 17.2981C83.6992 21.5326 81.8 26.0549 77.817 28.2773V28.2668Z" fill="#E5E5E5"/>
<path d="M87.1119 15.276L83.9653 9.64335C83.8906 9.50972 83.7217 9.4619 83.5881 9.53655L80.7608 11.116C80.6272 11.1907 80.5794 11.3595 80.654 11.4932L83.8007 17.1258C83.8754 17.2594 84.0443 17.3073 84.1779 17.2326L87.0051 15.6532C87.1388 15.5785 87.1866 15.4096 87.1119 15.276Z" fill="url(#paint3_linear_2227_900)"/>
<path d="M66.7483 11.2865L45.4189 23.2021L55.2843 40.8614L76.6137 28.9458L66.7483 11.2865Z" fill="url(#paint4_linear_2227_900)"/>
<path d="M54.6014 22.2719L39.3371 15.5272C38.9573 15.3579 38.5261 15.3527 38.1412 15.5067L20.4744 22.5181C20.0432 22.6874 19.7144 23.0415 19.5707 23.4829L15.0901 37.3057C14.9361 37.7882 15.0232 38.3167 15.3312 38.7222L20.9821 46.1646C21.2388 46.5034 21.6239 46.7189 22.0448 46.7651L41.7696 48.9876C42.1803 49.0338 42.5861 48.9159 42.9095 48.6593L53.3699 40.3287C53.7856 40.0002 54.0013 39.4768 53.9448 38.9533L53.416 34.0205C53.4006 33.8563 53.4056 33.6921 53.4415 33.5278L55.4896 24.0223C55.6436 23.3037 55.2738 22.5747 54.6014 22.277V22.2719Z" fill="#D1D1D1"/>
<path d="M78.9673 29.3756L73.2952 97.1018L72.7719 103.292C72.5717 105.663 70.924 107.464 68.9479 107.464H15.4855C13.5094 107.464 11.8622 105.663 11.662 103.292L11.1382 97.1018L5.4667 29.3756C5.24086 26.645 7.01175 24.2734 9.29067 24.2734H75.1433C77.4171 24.2734 79.1931 26.645 78.9673 29.3756Z" fill="url(#paint5_linear_2227_900)"/>
<path d="M82.2572 24.2734H2.17138C0.972292 24.2734 0 25.2457 0 26.4448V31.6542C0 32.8533 0.972292 33.8256 2.17138 33.8256H82.2572C83.4563 33.8256 84.4281 32.8533 84.4281 31.6542V26.4448C84.4281 25.2457 83.4563 24.2734 82.2572 24.2734Z" fill="#A6C6FF"/>
<path d="M42.4943 39.2246H42.3455C42.079 39.2246 41.8633 39.4408 41.8633 39.7073V91.45C41.8633 91.7164 42.079 91.9327 42.3455 91.9327H42.4943C42.7608 91.9327 42.977 91.7164 42.977 91.45V39.7073C42.977 39.4408 42.7608 39.2246 42.4943 39.2246Z" fill="#A6C6FF"/>
<path d="M23.4626 39.2614C23.1547 39.2768 22.9189 39.5644 22.9343 39.898L25.4029 91.3173C25.4183 91.651 25.6799 91.9077 25.9879 91.8923C26.2958 91.8769 26.5321 91.5893 26.5167 91.2557L24.0481 39.8363C24.0327 39.5027 23.7706 39.246 23.4626 39.2614Z" fill="#A6C6FF"/>
<path d="M61.1934 39.2614C61.5014 39.2768 61.7372 39.5644 61.7218 39.898L59.2531 91.3173C59.2377 91.651 58.9757 91.9077 58.6677 91.8923C58.3597 91.8769 58.124 91.5893 58.1394 91.2557L60.608 39.8363C60.6234 39.5027 60.8855 39.246 61.1934 39.2614Z" fill="#A6C6FF"/>
<path d="M73.2898 96.7881L72.7665 103.163C72.5663 105.606 70.9186 107.464 68.9425 107.464H15.4801C13.504 107.464 11.8563 105.606 11.6561 103.163L11.1328 96.7881H73.2848H73.2898Z" fill="#A6C6FF"/>
<defs>
<linearGradient id="paint0_linear_2227_900" x1="64.2514" y1="26.7471" x2="56.9322" y2="-1.83189" gradientUnits="userSpaceOnUse">
<stop stop-color="#B7B7B7"/>
<stop offset="0.21" stop-color="#AFAFAF"/>
<stop offset="0.52" stop-color="#9A9A9A"/>
<stop offset="0.78" stop-color="#848484"/>
</linearGradient>
<linearGradient id="paint1_linear_2227_900" x1="29.629" y1="35.9644" x2="17.9215" y2="4.77705" gradientUnits="userSpaceOnUse">
<stop stop-color="#B7B7B7"/>
<stop offset="0.23" stop-color="#A3A3A3"/>
<stop offset="0.66" stop-color="#848484"/>
</linearGradient>
<linearGradient id="paint2_linear_2227_900" x1="51.5273" y1="29.9596" x2="32.5158" y2="5.1327" gradientUnits="userSpaceOnUse">
<stop offset="0.08" stop-color="#FA9EFA"/>
<stop offset="0.51" stop-color="#F986FC"/>
<stop offset="0.89" stop-color="#F86EFF"/>
</linearGradient>
<linearGradient id="paint3_linear_2227_900" x1="82.1722" y1="10.3275" x2="85.5893" y2="16.4441" gradientUnits="userSpaceOnUse">
<stop stop-color="#78F5BE"/>
<stop offset="0.21" stop-color="#74F4BC"/>
<stop offset="0.42" stop-color="#68F3B9"/>
<stop offset="0.62" stop-color="#54F0B4"/>
<stop offset="0.82" stop-color="#39EDAD"/>
<stop offset="1" stop-color="#1BEAA5"/>
</linearGradient>
<linearGradient id="paint4_linear_2227_900" x1="56.0791" y1="17.2468" x2="65.9445" y2="34.9061" gradientUnits="userSpaceOnUse">
<stop stop-color="#78F5BE"/>
<stop offset="0.21" stop-color="#74F4BC"/>
<stop offset="0.42" stop-color="#68F3B9"/>
<stop offset="0.62" stop-color="#54F0B4"/>
<stop offset="0.82" stop-color="#39EDAD"/>
<stop offset="1" stop-color="#1BEAA5"/>
</linearGradient>
<linearGradient id="paint5_linear_2227_900" x1="42.217" y1="107.3" x2="42.217" y2="14.2133" gradientUnits="userSpaceOnUse">
<stop stop-color="#7DACFF"/>
<stop offset="0.14" stop-color="#75A5FE"/>
<stop offset="1" stop-color="#4D83FD"/>
</linearGradient>
</defs>
</svg>
