<svg width="49" height="36" viewBox="0 0 49 36" fill="none" xmlns="http://www.w3.org/2000/svg">
<rect width="39" height="13.2955" rx="2.73096" fill="#F2F2F2"/>
<g filter="url(#filter0_d_5808_17800)">
<rect x="38" y="25" width="13" height="8.9375" rx="1.31982" transform="rotate(180 38 25)" fill="#BDBDBD"/>
<path d="M29.0625 16.875V14.4375C29.0625 13.625 29.55 12 31.5 12C33.45 12 33.9375 13.625 33.9375 14.4375V16.875" stroke="#BDBDBD" stroke-width="1.97972"/>
</g>
<path d="M6.71492 7.69249L5.29042 8.63098L4.78766 7.74276L6.30852 6.98024L4.78766 6.21772L5.29042 5.3295L6.71492 6.268L6.62274 4.56698H7.64084L7.54866 6.268L8.97735 5.3295L9.48011 6.21772L7.95506 6.98024L9.48011 7.74276L8.97735 8.63098L7.54866 7.69249L7.64084 9.3935H6.62274L6.71492 7.69249Z" fill="#BDBDBD"/>
<path d="M14.4923 7.69249L13.0678 8.63098L12.565 7.74276L14.0859 6.98024L12.565 6.21772L13.0678 5.3295L14.4923 6.268L14.4001 4.56698H15.4182L15.326 6.268L16.7547 5.3295L17.2575 6.21772L15.7324 6.98024L17.2575 7.74276L16.7547 8.63098L15.326 7.69249L15.4182 9.3935H14.4001L14.4923 7.69249Z" fill="#BDBDBD"/>
<path d="M22.2696 7.69249L20.8451 8.63098L20.3423 7.74276L21.8632 6.98024L20.3423 6.21772L20.8451 5.3295L22.2696 6.268L22.1774 4.56698H23.1955L23.1034 6.268L24.532 5.3295L25.0348 6.21772L23.5098 6.98024L25.0348 7.74276L24.532 8.63098L23.1034 7.69249L23.1955 9.3935H22.1774L22.2696 7.69249Z" fill="#BDBDBD"/>
<path d="M30.046 7.69249L28.6215 8.63098L28.1187 7.74276L29.6396 6.98024L28.1187 6.21772L28.6215 5.3295L30.046 6.268L29.9538 4.56698H30.9719L30.8797 6.268L32.3084 5.3295L32.8112 6.21772L31.2861 6.98024L32.8112 7.74276L32.3084 8.63098L30.8797 7.69249L30.9719 9.3935H29.9538L30.046 7.69249Z" fill="#BDBDBD"/>
<defs>
<filter id="filter0_d_5808_17800" x="14.2435" y="0.25327" width="34.513" height="35.5032" filterUnits="userSpaceOnUse" color-interpolation-filters="sRGB">
<feFlood flood-opacity="0" result="BackgroundImageFix"/>
<feColorMatrix in="SourceAlpha" type="matrix" values="0 0 0 0 0 0 0 0 0 0 0 0 0 0 0 0 0 0 127 0" result="hardAlpha"/>
<feOffset/>
<feGaussianBlur stdDeviation="5.37825"/>
<feComposite in2="hardAlpha" operator="out"/>
<feColorMatrix type="matrix" values="0 0 0 0 0.418269 0 0 0 0 0.418269 0 0 0 0 0.418269 0 0 0 0.2 0"/>
<feBlend mode="normal" in2="BackgroundImageFix" result="effect1_dropShadow_5808_17800"/>
<feBlend mode="normal" in="SourceGraphic" in2="effect1_dropShadow_5808_17800" result="shape"/>
</filter>
</defs>
</svg>
