<svg width="119" height="119" viewBox="0 0 119 119" fill="none" xmlns="http://www.w3.org/2000/svg">
<path d="M88.3279 0H29.8121C13.3562 0 0.0161133 13.3401 0.0161133 29.796V88.3118C0.0161133 104.768 13.3562 118.108 29.8121 118.108H88.3279C104.784 118.108 118.124 104.768 118.124 88.3118V29.796C118.124 13.3401 104.784 0 88.3279 0Z" fill="url(#paint0_linear_3073_5713)"/>
<path d="M59.6926 13.2666H58.4554C53.9835 13.2666 50.3556 16.8944 50.3556 21.3664V51.3299C50.3556 55.8019 53.9835 59.4297 58.4554 59.4297H59.6926C64.1646 59.4297 67.7924 55.8019 67.7924 51.3299V21.3664C67.7924 16.8944 64.1646 13.2666 59.6926 13.2666ZM59.074 24.7301C57.2053 24.7301 55.6846 23.2158 55.6846 21.3406C55.6846 19.4655 57.1989 17.9512 59.074 17.9512C60.9492 17.9512 62.4634 19.4655 62.4634 21.3406C62.4634 23.2158 60.9492 24.7301 59.074 24.7301Z" fill="url(#paint1_linear_3073_5713)"/>
<path d="M99.9523 101.54C99.7332 101.991 99.411 102.39 99.005 102.712L97.7678 103.666C96.7819 104.427 95.5705 104.839 94.3268 104.839H23.8127C22.5691 104.839 21.3577 104.427 20.3718 103.666L19.1346 102.712C18.7286 102.39 18.4064 101.991 18.1873 101.54C17.9038 100.953 17.7878 100.29 17.8716 99.6259C19.0959 94.806 20.1978 89.303 20.9388 83.2072C21.5639 78.0458 21.8409 73.258 21.8925 68.9214H96.2471C96.144 73.2258 96.2986 78.2069 96.9752 83.6969C97.7291 89.7927 98.9535 95.1475 100.262 99.6259C100.281 99.8708 100.332 100.76 99.9523 101.54Z" fill="#A6C6FF"/>
<path d="M99.9524 101.541C99.7333 101.992 99.4111 102.392 99.0052 102.714L97.768 103.667C96.7821 104.428 95.5706 104.84 94.327 104.84H23.8129C22.5693 104.84 21.3578 104.428 20.3719 103.667L19.1347 102.714C18.7288 102.392 18.4066 101.992 18.1875 101.541H99.9524Z" fill="url(#paint2_linear_3073_5713)"/>
<path d="M40.6292 41.8711H77.5133C89.3183 41.8711 98.9066 51.4594 98.9066 63.2644V68.9478C98.9066 69.9079 98.1269 70.6876 97.1668 70.6876H20.9693C20.0092 70.6876 19.2295 69.9079 19.2295 68.9478V63.2644C19.2295 51.4594 28.8178 41.8711 40.6228 41.8711H40.6292Z" fill="#4D83FD"/>
<path opacity="0.74" d="M96.9758 63.2644V68.7545H21.1714V63.2644C21.1714 52.5226 29.8898 43.8042 40.6316 43.8042H77.5157C88.2574 43.8042 96.9758 52.5226 96.9758 63.2644Z" fill="url(#paint3_linear_3073_5713)"/>
<path d="M56.7075 18.1519C54.9484 19.4535 54.5746 21.9408 55.8763 23.7064C57.1779 25.472 59.6652 25.8393 61.4308 24.5376C63.1964 23.236 63.5637 20.7487 62.2621 18.9831C60.9604 17.224 58.4731 16.8502 56.7075 18.1519ZM60.6769 23.5131C59.4783 24.4023 57.7836 24.151 56.9008 22.946C56.018 21.741 56.2629 20.0528 57.4679 19.17C58.6729 18.2872 60.3611 18.532 61.2439 19.737C62.1332 20.9356 61.8819 22.6303 60.6769 23.5131Z" fill="url(#paint4_linear_3073_5713)"/>
<path d="M36.487 70.0561L36.4824 70.0607C34.2 72.3431 34.2 76.0436 36.4824 78.326L48.4658 90.3094C50.7483 92.5919 54.4488 92.5919 56.7312 90.3094L56.7358 90.3049C59.0182 88.0225 59.0182 84.3219 56.7358 82.0395L44.7524 70.0561C42.4699 67.7737 38.7694 67.7737 36.487 70.0561Z" fill="#F9FBFF" fill-opacity="0.67"/>
<path d="M73.4633 56.9591L48.3847 82.0377C46.1023 84.3201 46.1023 88.0207 48.3847 90.3031L48.3893 90.3076C50.6717 92.5901 54.3722 92.5901 56.6546 90.3076L81.7332 65.2291C84.0156 62.9466 84.0156 59.2461 81.7332 56.9637L81.7286 56.9591C79.4462 54.6767 75.7457 54.6767 73.4633 56.9591Z" fill="white"/>
<defs>
<linearGradient id="paint0_linear_3073_5713" x1="14.3134" y1="6.83781" x2="114.083" y2="118.108" gradientUnits="userSpaceOnUse">
<stop offset="0.303573" stop-color="white"/>
<stop offset="0.665305" stop-color="white" stop-opacity="0.869717"/>
<stop offset="1" stop-color="white" stop-opacity="0.7"/>
</linearGradient>
<linearGradient id="paint1_linear_3073_5713" x1="59.074" y1="14.5876" x2="59.074" y2="58.8498" gradientUnits="userSpaceOnUse">
<stop offset="0.27" stop-color="#5086FD"/>
<stop offset="0.51" stop-color="#6E9CFD"/>
<stop offset="1" stop-color="#A6C6FF"/>
</linearGradient>
<linearGradient id="paint2_linear_3073_5713" x1="59.0732" y1="101.219" x2="59.0732" y2="107.218" gradientUnits="userSpaceOnUse">
<stop offset="0.04" stop-color="#5086FD"/>
<stop offset="0.19" stop-color="#558AFD"/>
<stop offset="0.38" stop-color="#6696FD"/>
<stop offset="0.6" stop-color="#82ABFE"/>
<stop offset="0.82" stop-color="#A6C6FF"/>
</linearGradient>
<linearGradient id="paint3_linear_3073_5713" x1="75.9305" y1="90.0575" x2="35.6119" y2="25.8648" gradientUnits="userSpaceOnUse">
<stop offset="0.45" stop-color="white" stop-opacity="0"/>
<stop offset="0.51" stop-color="white" stop-opacity="0.02"/>
<stop offset="0.58" stop-color="white" stop-opacity="0.07"/>
<stop offset="0.64" stop-color="white" stop-opacity="0.15"/>
<stop offset="0.71" stop-color="white" stop-opacity="0.27"/>
<stop offset="0.78" stop-color="white" stop-opacity="0.42"/>
<stop offset="0.85" stop-color="white" stop-opacity="0.61"/>
<stop offset="0.91" stop-color="white" stop-opacity="0.83"/>
<stop offset="0.96" stop-color="white"/>
</linearGradient>
<linearGradient id="paint4_linear_3073_5713" x1="56.8416" y1="18.3445" x2="61.3693" y2="24.4611" gradientUnits="userSpaceOnUse">
<stop offset="0.27" stop-color="#5086FD"/>
<stop offset="0.51" stop-color="#6E9CFD"/>
<stop offset="1" stop-color="#A6C6FF"/>
</linearGradient>
</defs>
</svg>
