<svg width="129" height="185" viewBox="0 0 129 185" fill="none" xmlns="http://www.w3.org/2000/svg">
<path d="M25.1882 145.291H46.7719V148.266H28.6535V160.861H48.973V163.884H25.1882V145.291ZM42.325 169.18C55.5281 169.18 59.0417 171.597 59.0417 176.989C59.0417 182.381 55.5281 184.75 42.325 184.75C29.122 184.75 25.6084 182.333 25.6084 176.985C25.6084 171.638 29.122 169.176 42.325 169.176V169.18ZM42.325 181.728C53.8921 181.728 55.5764 180.24 55.5764 176.985C55.5764 173.73 53.8921 172.247 42.325 172.247C30.758 172.247 29.122 173.686 29.0737 176.985C29.122 180.24 30.758 181.728 42.325 181.728ZM55.1563 144.826H58.6216V154.588H64.288V157.61H58.6216V167.372H55.1563V144.826Z" fill="#4D82FC"/>
<path d="M68.638 145.292H72.1033V152.636H86.3846V145.292H89.8499V166.298H68.638V145.292ZM69.9505 171.133H73.4158V180.894H103.804V183.917H69.9505V171.136V171.133ZM86.3846 163.231V155.655H72.1033V163.231H86.3846ZM91.114 154.26H99.4501V144.827H102.96V173.362H99.4501V157.282H91.114V154.26Z" fill="#4D82FC"/>
<path d="M96.0036 0.75H32.4675C14.5998 0.75 0.115234 15.2346 0.115234 33.1023V96.6383C0.115234 114.506 14.5998 128.991 32.4675 128.991H96.0036C113.871 128.991 128.356 114.506 128.356 96.6383V33.1023C128.356 15.2346 113.871 0.75 96.0036 0.75Z" fill="#4D82FC"/>
<path d="M64.9107 15.1562H63.5674C58.7117 15.1562 54.7726 19.0953 54.7726 23.951V56.4851C54.7726 61.3408 58.7117 65.2799 63.5674 65.2799H64.9107C69.7663 65.2799 73.7054 61.3408 73.7054 56.4851V23.951C73.7054 19.0953 69.7663 15.1562 64.9107 15.1562ZM64.239 27.6032C62.21 27.6032 60.5588 25.959 60.5588 23.923C60.5588 21.887 62.203 20.2428 64.239 20.2428C66.275 20.2428 67.9192 21.887 67.9192 23.923C67.9192 25.959 66.275 27.6032 64.239 27.6032Z" fill="url(#paint0_linear_2873_5145)"/>
<path d="M108.632 111.003C108.394 111.492 108.044 111.926 107.603 112.276L106.26 113.312C105.189 114.137 103.874 114.585 102.524 114.585H25.9599C24.6096 114.585 23.2942 114.137 22.2237 113.312L20.8804 112.276C20.4396 111.926 20.0898 111.492 19.8519 111.003C19.544 110.366 19.4181 109.645 19.509 108.925C20.8384 103.691 22.0348 97.7162 22.8394 91.0974C23.5181 85.4931 23.8189 80.2946 23.8749 75.5859H104.609C104.497 80.2597 104.665 85.668 105.399 91.6291C106.218 98.2479 107.547 104.062 108.967 108.925C108.988 109.191 109.044 110.156 108.632 111.003Z" fill="url(#paint1_linear_2873_5145)"/>
<path d="M108.633 111.002C108.395 111.492 108.045 111.926 107.605 112.276L106.261 113.311C105.191 114.137 103.875 114.585 102.525 114.585H25.9613C24.611 114.585 23.2956 114.137 22.2251 113.311L20.8818 112.276C20.441 111.926 20.0912 111.492 19.8533 111.002H108.633Z" fill="url(#paint2_linear_2873_5145)"/>
<path d="M44.2157 46.2144H84.2642C97.082 46.2144 107.493 56.6253 107.493 69.4431V75.614C107.493 76.6565 106.646 77.5031 105.604 77.5031H22.8761C21.8336 77.5031 20.987 76.6565 20.987 75.614V69.4431C20.987 56.6253 31.398 46.2144 44.2157 46.2144Z" fill="white"/>
<path opacity="0.74" d="M105.394 69.4427V75.4038H23.0858V69.4427C23.0858 57.7794 32.5522 48.313 44.2155 48.313L84.264 48.313C95.9273 48.313 105.394 57.7794 105.394 69.4427Z" fill="url(#paint3_linear_2873_5145)"/>
<path d="M61.6724 20.4597C59.7623 21.873 59.3565 24.5737 60.7698 26.4907C62.1831 28.4078 64.8838 28.8066 66.8009 27.3933C68.7179 25.98 69.1167 23.2793 67.7034 21.3622C66.2901 19.4522 63.5894 19.0464 61.6724 20.4597ZM65.9823 26.2808C64.6809 27.2464 62.8408 26.9735 61.8823 25.6651C60.9167 24.3638 61.1896 22.5237 62.498 21.5651C63.7993 20.5996 65.6394 20.8725 66.598 22.1808C67.5635 23.4822 67.2906 25.3223 65.9823 26.2808Z" fill="url(#paint4_linear_2873_5145)"/>
<path d="M39.7756 76.758L39.652 76.8817C37.2065 79.3271 37.2065 83.292 39.652 85.7374L52.7822 98.8677C55.2276 101.313 59.1925 101.313 61.6379 98.8677L61.7616 98.744C64.2071 96.2985 64.2071 92.3337 61.7616 89.8883L48.6314 76.758C46.1859 74.3126 42.2211 74.3126 39.7756 76.758Z" fill="url(#paint5_linear_2873_5145)"/>
<path d="M79.8643 62.6024L52.6341 89.8326C50.1559 92.3108 50.1559 96.3288 52.6341 98.8071L52.6391 98.812C55.1173 101.29 59.1353 101.29 61.6136 98.812L88.8437 71.5818C91.322 69.1036 91.322 65.0856 88.8437 62.6074L88.8388 62.6024C86.3605 60.1242 82.3425 60.1242 79.8643 62.6024Z" fill="url(#paint6_linear_2873_5145)"/>
<defs>
<linearGradient id="paint0_linear_2873_5145" x1="64.239" y1="16.5906" x2="64.239" y2="64.6432" gradientUnits="userSpaceOnUse">
<stop offset="0.03" stop-color="#F1F1F1"/>
<stop offset="0.82" stop-color="#F9F9F9"/>
</linearGradient>
<linearGradient id="paint1_linear_2873_5145" x1="64.2313" y1="72.8853" x2="64.2313" y2="113.466" gradientUnits="userSpaceOnUse">
<stop offset="0.06" stop-color="#D8D8D8"/>
<stop offset="0.07" stop-color="#D9D9D9"/>
<stop offset="0.16" stop-color="#EAEAEA"/>
<stop offset="0.28" stop-color="#F6F6F6"/>
<stop offset="0.45" stop-color="#FDFDFD"/>
<stop offset="0.91" stop-color="white"/>
</linearGradient>
<linearGradient id="paint2_linear_2873_5145" x1="64.2397" y1="107.168" x2="64.2397" y2="118.118" gradientUnits="userSpaceOnUse">
<stop stop-color="#ADADAD"/>
<stop offset="0.19" stop-color="#B3B3B3"/>
<stop offset="0.46" stop-color="#C7C7C7"/>
<stop offset="0.64" stop-color="#D8D8D8"/>
</linearGradient>
<linearGradient id="paint3_linear_2873_5145" x1="82.5429" y1="98.5345" x2="38.7722" y2="28.8275" gradientUnits="userSpaceOnUse">
<stop offset="0.45" stop-color="#C6C6C6" stop-opacity="0"/>
<stop offset="0.51" stop-color="#C6C6C6" stop-opacity="0.02"/>
<stop offset="0.58" stop-color="#C9C9C9" stop-opacity="0.07"/>
<stop offset="0.64" stop-color="#CECECE" stop-opacity="0.15"/>
<stop offset="0.71" stop-color="#D5D5D5" stop-opacity="0.27"/>
<stop offset="0.78" stop-color="#DEDEDE" stop-opacity="0.42"/>
<stop offset="0.85" stop-color="#E8E8E8" stop-opacity="0.61"/>
<stop offset="0.91" stop-color="#F5F5F5" stop-opacity="0.83"/>
<stop offset="0.96" stop-color="white"/>
</linearGradient>
<linearGradient id="paint4_linear_2873_5145" x1="61.8277" y1="20.6784" x2="66.7439" y2="27.3198" gradientUnits="userSpaceOnUse">
<stop offset="0.27" stop-color="#B2B2B2"/>
<stop offset="1" stop-color="#E8E8E8"/>
</linearGradient>
<linearGradient id="paint5_linear_2873_5145" x1="40.0193" y1="77.2409" x2="61.4149" y2="98.4056" gradientUnits="userSpaceOnUse">
<stop stop-color="#7DABFF"/>
<stop offset="0.24" stop-color="#91B8FF"/>
<stop offset="0.74" stop-color="#C7DAFF"/>
<stop offset="1" stop-color="#E5EEFF"/>
</linearGradient>
<linearGradient id="paint6_linear_2873_5145" x1="54.4627" y1="96.982" x2="88.0464" y2="63.3983" gradientUnits="userSpaceOnUse">
<stop stop-color="#7DABFF"/>
<stop offset="0.47" stop-color="#6495FD"/>
<stop offset="1" stop-color="#4D82FC"/>
</linearGradient>
</defs>
</svg>
