<svg width="119" height="170" viewBox="0 0 119 170" fill="none" xmlns="http://www.w3.org/2000/svg">
<path d="M88.3118 0H29.796C13.3401 0 0 13.3401 0 29.796V88.3118C0 104.768 13.3401 118.108 29.796 118.108H88.3118C104.768 118.108 118.108 104.768 118.108 88.3118V29.796C118.108 13.3401 104.768 0 88.3118 0Z" fill="url(#paint0_linear_3073_5712)"/>
<path d="M59.6768 13.2656H58.4396C53.9677 13.2656 50.3398 16.8935 50.3398 21.3654V51.3289C50.3398 55.8009 53.9677 59.4287 58.4396 59.4287H59.6768C64.1488 59.4287 67.7767 55.8009 67.7767 51.3289V21.3654C67.7767 16.8935 64.1488 13.2656 59.6768 13.2656ZM59.0583 24.7291C57.1896 24.7291 55.6688 23.2148 55.6688 21.3397C55.6688 19.4645 57.1831 17.9502 59.0583 17.9502C60.9334 17.9502 62.4477 19.4645 62.4477 21.3397C62.4477 23.2148 60.9334 24.7291 59.0583 24.7291Z" fill="url(#paint1_linear_3073_5712)"/>
<path d="M99.9364 101.54C99.7173 101.991 99.3951 102.391 98.9892 102.713L97.752 103.667C96.7661 104.427 95.5546 104.839 94.311 104.839H23.7969C22.5533 104.839 21.3418 104.427 20.3559 103.667L19.1187 102.713C18.7128 102.391 18.3906 101.991 18.1715 101.54C17.888 100.954 17.772 100.29 17.8558 99.6264C19.0801 94.8065 20.1819 89.3035 20.923 83.2077C21.548 78.0462 21.8251 73.2585 21.8767 68.9219H96.2312C96.1282 73.2263 96.2828 78.2073 96.9594 83.6974C97.7133 89.7932 98.9376 95.148 100.246 99.6264C100.265 99.8713 100.317 100.761 99.9364 101.54Z" fill="#A6C6FF"/>
<path d="M99.9368 101.541C99.7177 101.992 99.3955 102.392 98.9896 102.714L97.7523 103.667C96.7664 104.428 95.555 104.84 94.3114 104.84H23.7973C22.5536 104.84 21.3422 104.428 20.3563 103.667L19.1191 102.714C18.7132 102.392 18.391 101.992 18.1719 101.541H99.9368Z" fill="url(#paint2_linear_3073_5712)"/>
<path d="M40.6126 41.8711H77.4967C89.3017 41.8711 98.89 51.4594 98.89 63.2644V68.9478C98.89 69.9079 98.1103 70.6876 97.1502 70.6876H20.9527C19.9926 70.6876 19.2129 69.9079 19.2129 68.9478V63.2644C19.2129 51.4594 28.8012 41.8711 40.6062 41.8711H40.6126Z" fill="#4D83FD"/>
<path opacity="0.74" d="M96.96 63.2649V68.7549H21.1555V63.2649C21.1555 52.5231 29.8739 43.8047 40.6157 43.8047H77.4998C88.2416 43.8047 96.96 52.5231 96.96 63.2649Z" fill="url(#paint3_linear_3073_5712)"/>
<path d="M56.6916 18.1514C54.9325 19.453 54.5587 21.9403 55.8604 23.7059C57.162 25.4715 59.6493 25.8388 61.4149 24.5371C63.1805 23.2355 63.5478 20.7482 62.2461 18.9826C60.9445 17.2235 58.4572 16.8497 56.6916 18.1514ZM60.661 23.5126C59.4624 24.4018 57.7677 24.1505 56.8849 22.9455C56.0021 21.7405 56.247 20.0523 57.452 19.1695C58.657 18.2867 60.3452 18.5316 61.228 19.7365C62.1173 20.9351 61.8659 22.6298 60.661 23.5126Z" fill="url(#paint4_linear_3073_5712)"/>
<path d="M36.4712 70.0561L36.4667 70.0607C34.1842 72.3431 34.1842 76.0436 36.4667 78.326L48.4501 90.3094C50.7325 92.5919 54.433 92.5919 56.7154 90.3094L56.72 90.3049C59.0024 88.0225 59.0024 84.3219 56.72 82.0395L44.7366 70.0561C42.4542 67.7737 38.7536 67.7737 36.4712 70.0561Z" fill="#F9FBFF" fill-opacity="0.67"/>
<path d="M73.4476 56.9587L48.369 82.0372C46.0866 84.3197 46.0866 88.0202 48.369 90.3026L48.3736 90.3072C50.656 92.5896 54.3565 92.5896 56.6389 90.3072L81.7175 65.2286C83.9999 62.9462 83.9999 59.2456 81.7175 56.9632L81.7129 56.9587C79.4305 54.6762 75.73 54.6762 73.4476 56.9587Z" fill="white"/>
<path d="M20.9795 130.999H42.3124V133.939H24.4045V146.388H44.488V149.375H20.9795V130.999ZM37.9172 154.61C50.9669 154.61 54.4397 156.999 54.4397 162.328C54.4397 167.657 50.9669 169.999 37.9172 169.999C24.8676 169.999 21.3948 167.61 21.3948 162.325C21.3948 157.039 24.8676 154.606 37.9172 154.606V154.61ZM37.9172 167.012C49.3499 167.012 51.0147 165.542 51.0147 162.325C51.0147 159.107 49.3499 157.641 37.9172 157.641C26.4845 157.641 24.8676 159.064 24.8198 162.325C24.8676 165.542 26.4845 167.012 37.9172 167.012ZM50.5994 130.539H54.0244V140.187H59.625V143.174H54.0244V152.822H50.5994V130.539Z" fill="white"/>
<path d="M63.9248 130.999H67.3498V138.257H81.4652V130.999H84.8903V151.761H63.9248V130.999ZM65.2221 156.539H68.6471V166.187H98.6823V169.175H65.2221V156.543V156.539ZM81.4652 148.73V141.241H67.3498V148.73H81.4652ZM86.1397 139.862H94.3789V130.539H97.848V158.743H94.3789V142.85H86.1397V139.862Z" fill="white"/>
<defs>
<linearGradient id="paint0_linear_3073_5712" x1="14.2973" y1="6.83781" x2="114.067" y2="118.108" gradientUnits="userSpaceOnUse">
<stop offset="0.303573" stop-color="white"/>
<stop offset="0.665305" stop-color="white" stop-opacity="0.869717"/>
<stop offset="1" stop-color="white" stop-opacity="0.7"/>
</linearGradient>
<linearGradient id="paint1_linear_3073_5712" x1="59.0583" y1="14.5866" x2="59.0583" y2="58.8488" gradientUnits="userSpaceOnUse">
<stop offset="0.27" stop-color="#5086FD"/>
<stop offset="0.51" stop-color="#6E9CFD"/>
<stop offset="1" stop-color="#A6C6FF"/>
</linearGradient>
<linearGradient id="paint2_linear_3073_5712" x1="59.0576" y1="101.219" x2="59.0576" y2="107.218" gradientUnits="userSpaceOnUse">
<stop offset="0.04" stop-color="#5086FD"/>
<stop offset="0.19" stop-color="#558AFD"/>
<stop offset="0.38" stop-color="#6696FD"/>
<stop offset="0.6" stop-color="#82ABFE"/>
<stop offset="0.82" stop-color="#A6C6FF"/>
</linearGradient>
<linearGradient id="paint3_linear_3073_5712" x1="75.9146" y1="90.058" x2="35.596" y2="25.8653" gradientUnits="userSpaceOnUse">
<stop offset="0.45" stop-color="white" stop-opacity="0"/>
<stop offset="0.51" stop-color="white" stop-opacity="0.02"/>
<stop offset="0.58" stop-color="white" stop-opacity="0.07"/>
<stop offset="0.64" stop-color="white" stop-opacity="0.15"/>
<stop offset="0.71" stop-color="white" stop-opacity="0.27"/>
<stop offset="0.78" stop-color="white" stop-opacity="0.42"/>
<stop offset="0.85" stop-color="white" stop-opacity="0.61"/>
<stop offset="0.91" stop-color="white" stop-opacity="0.83"/>
<stop offset="0.96" stop-color="white"/>
</linearGradient>
<linearGradient id="paint4_linear_3073_5712" x1="56.8256" y1="18.344" x2="61.3534" y2="24.4607" gradientUnits="userSpaceOnUse">
<stop offset="0.27" stop-color="#5086FD"/>
<stop offset="0.51" stop-color="#6E9CFD"/>
<stop offset="1" stop-color="#A6C6FF"/>
</linearGradient>
</defs>
</svg>
