<svg width="31" height="38" viewBox="0 0 31 38" fill="none" xmlns="http://www.w3.org/2000/svg">
<path d="M26.0469 7.7373V19.9502C26.0468 20.2247 25.8244 20.4472 25.5498 20.4473H6.64941C6.37488 20.4472 6.15245 20.2247 6.15234 19.9502V7.7373H26.0469ZM12.3975 0.552734V2.65234H19.8027V0.552734H20.7969V2.65234H25.5498C25.8244 2.65244 26.0469 2.87576 26.0469 3.15039V5.52637H6.15234V3.15039C6.15234 2.87577 6.37482 2.65245 6.64941 2.65234H11.4023V0.552734H12.3975Z" stroke="#4D83FD" stroke-width="1.10526"/>
<circle cx="9.74406" cy="11.4394" r="1.49211" stroke="#4D83FD" stroke-width="1.10526"/>
<circle cx="16.0448" cy="11.4394" r="1.49211" stroke="#4D83FD" stroke-width="1.10526"/>
<circle cx="22.3437" cy="11.4394" r="1.49211" stroke="#4D83FD" stroke-width="1.10526"/>
<path d="M5.51758 28.0137C5.51758 30.5215 4.25195 32.3145 1.42773 33.3691L0.935547 32.584C2.30078 32.0918 3.2207 31.4414 3.7832 30.627L1.06445 30.9316L0.900391 30.0293L4.20508 29.8301C4.30469 29.5371 4.375 29.2383 4.41602 28.916H1.38086V28.0137H5.51758ZM9.7832 27.4277V32.9004H8.72852V30.6621H7.46289V32.8301H6.4082V27.6152H7.46289V29.748H8.72852V27.4277H9.7832ZM9.7832 33.3457V35.9121H3.86523V36.9082H10.1816V37.7871H2.76367V35.0918H8.69336V34.2246H2.74023V33.3457H9.7832ZM19.8965 27.4277V35.1504H18.7949V27.4277H19.8965ZM20.1895 36.791V37.6934H12.959V34.541H14.0723V36.791H20.1895ZM16.5566 28.1543V31.2832H12.8418V32.7949C14.7754 32.7891 16.0879 32.7246 17.6465 32.4434L17.7637 33.3574C16.1113 33.6504 14.7168 33.709 12.6309 33.709H11.752V30.4395H15.4551V29.0449H11.7285V28.1543H16.5566ZM26.9043 28.3887V29.3145H23.2129V34.4355C24.9707 34.4297 26.1836 34.3652 27.5605 34.0957L27.6895 35.0098C26.1777 35.291 24.9004 35.3613 22.9199 35.3613H22.0879V28.3887H26.9043ZM30.3379 27.416V37.9395H29.2246V32.0918H26.3066V31.166H29.2246V27.416H30.3379Z" fill="#4D83FD"/>
</svg>
