<svg width="31" height="39" viewBox="0 0 31 39" fill="none" xmlns="http://www.w3.org/2000/svg">
<path d="M26.5996 19.9502C26.5995 20.53 26.1296 20.9999 25.5498 21H6.64941C6.06968 20.9999 5.59972 20.53 5.59961 19.9502V7.18457H26.5996V19.9502ZM9.46777 8.8418C8.55223 8.84189 7.81055 9.58443 7.81055 10.5C7.81071 11.4154 8.55233 12.1571 9.46777 12.1572C10.3833 12.1572 11.1258 11.4155 11.126 10.5C11.126 9.58437 10.3834 8.8418 9.46777 8.8418ZM16.0996 8.8418C15.1841 8.84189 14.4424 9.58443 14.4424 10.5C14.4425 11.4154 15.1842 12.1571 16.0996 12.1572C17.0151 12.1572 17.7576 11.4155 17.7578 10.5C17.7578 9.58437 17.0152 8.8418 16.0996 8.8418ZM22.7314 8.8418C21.8158 8.8418 21.0732 9.58437 21.0732 10.5C21.0734 11.4155 21.8159 12.1572 22.7314 12.1572C23.6468 12.1571 24.3885 11.4154 24.3887 10.5C24.3887 9.58447 23.6469 8.84196 22.7314 8.8418ZM12.9492 2.09961H19.25V0H21.3496V2.09961H25.5498C26.1296 2.09971 26.5996 2.57056 26.5996 3.15039V5.52637H5.59961V3.15039C5.59961 2.57056 6.06961 2.09972 6.64941 2.09961H10.8496V0H12.9492V2.09961Z" fill="#4D83FD"/>
<path d="M5.51758 28.0938C5.51758 30.6016 4.25195 32.3945 1.42773 33.4492L0.935547 32.6641C2.30078 32.1719 3.2207 31.5215 3.7832 30.707L1.06445 31.0117L0.900391 30.1094L4.20508 29.9102C4.30469 29.6172 4.375 29.3184 4.41602 28.9961H1.38086V28.0938H5.51758ZM9.7832 27.5078V32.9805H8.72852V30.7422H7.46289V32.9102H6.4082V27.6953H7.46289V29.8281H8.72852V27.5078H9.7832ZM9.7832 33.4258V35.9922H3.86523V36.9883H10.1816V37.8672H2.76367V35.1719H8.69336V34.3047H2.74023V33.4258H9.7832ZM19.8965 27.5078V35.2305H18.7949V27.5078H19.8965ZM20.1895 36.8711V37.7734H12.959V34.6211H14.0723V36.8711H20.1895ZM16.5566 28.2344V31.3633H12.8418V32.875C14.7754 32.8691 16.0879 32.8047 17.6465 32.5234L17.7637 33.4375C16.1113 33.7305 14.7168 33.7891 12.6309 33.7891H11.752V30.5195H15.4551V29.125H11.7285V28.2344H16.5566ZM26.9043 28.4688V29.3945H23.2129V34.5156C24.9707 34.5098 26.1836 34.4453 27.5605 34.1758L27.6895 35.0898C26.1777 35.3711 24.9004 35.4414 22.9199 35.4414H22.0879V28.4688H26.9043ZM30.3379 27.4961V38.0195H29.2246V32.1719H26.3066V31.2461H29.2246V27.4961H30.3379Z" fill="#4D83FD"/>
</svg>
