<svg width="22" height="39" viewBox="0 0 22 39" fill="none" xmlns="http://www.w3.org/2000/svg">
<path d="M9.70215 0.268365C10.2928 -0.115466 11.0687 -0.0873613 11.6328 0.351373L20.5215 7.26446L20.666 7.39044C20.9829 7.70137 21.1657 8.12891 21.166 8.57891V20.2596L21.1572 20.4295C21.0774 21.2143 20.4531 21.8373 19.6689 21.9168L19.499 21.9256H1.72168C0.859194 21.9256 0.148951 21.2702 0.0634766 20.4295L0.0546875 20.2596V8.57891L0.0654297 8.38848C0.116439 7.94707 0.342881 7.54086 0.698242 7.26446L9.58691 0.351373L9.70215 0.268365ZM10.9512 1.22833C10.7758 1.09195 10.5385 1.07439 10.3477 1.17657L10.2686 1.22833L1.37988 8.14141C1.24517 8.24633 1.16614 8.40831 1.16602 8.57989V20.2596L1.17676 20.3709C1.22856 20.6238 1.45287 20.8143 1.72168 20.8143H19.499L19.6113 20.8025C19.8284 20.758 19.9996 20.5874 20.0439 20.3709L20.0547 20.2596V8.57989L20.04 8.45391C20.0209 8.37235 19.9836 8.29562 19.9307 8.23028L19.8398 8.14141L10.9512 1.22833ZM10.7773 12.7879C11.8695 12.8993 12.7217 13.8226 12.7217 14.9441L12.7109 15.1658C12.5998 16.2579 11.6769 17.1098 10.5557 17.1102L10.334 17.0994C9.31438 16.996 8.50323 16.1853 8.39941 15.1658L8.38867 14.9441C8.38867 13.7475 9.35905 12.7772 10.5557 12.7772L10.7773 12.7879ZM10.5557 13.8885C9.9727 13.8885 9.5 14.3612 9.5 14.9441C9.50024 15.5269 9.97285 15.9998 10.5557 15.9998C11.1381 15.9994 11.6111 15.5266 11.6113 14.9441C11.6113 14.3615 11.1383 13.8889 10.5557 13.8885Z" fill="#4D83FD"/>
<path d="M14.1582 35.7578V38.793H6.9043V35.7578H14.1582ZM8.00586 36.6133V37.9375H13.0801V36.6133H8.00586ZM14.791 29.2539V30.1094H6.24805V29.2539H9.98633V28.2812H11.0996V29.2539H14.791ZM10.5371 30.4844C12.752 30.4844 13.9824 30.9883 13.9824 31.9727C13.9824 32.8691 12.957 33.3672 11.0996 33.4492V34.1641H15.3301V35.043H5.75586V34.1641H9.98633V33.4492C8.12891 33.3672 7.08008 32.8691 7.0918 31.9727C7.08008 30.9883 8.33398 30.4844 10.5371 30.4844ZM10.5371 31.2461C9.07227 31.2578 8.27539 31.4922 8.27539 31.9727C8.27539 32.4414 9.07227 32.6992 10.5371 32.6992C12.0137 32.6992 12.7988 32.4414 12.7988 31.9727C12.7988 31.4922 12.0137 31.2578 10.5371 31.2461Z" fill="#4D83FD"/>
</svg>
