<svg width="21" height="38" viewBox="0 0 21 38" fill="none" xmlns="http://www.w3.org/2000/svg">
<path d="M9.37207 0.233968C9.77321 -0.078046 10.3351 -0.0779327 10.7363 0.233968L19.625 7.14803C19.8955 7.35854 20.0547 7.68218 20.0547 8.02498V19.7037C20.0545 20.3171 19.5568 20.8149 18.9434 20.815H1.16602C0.552521 20.815 0.0549074 20.3172 0.0546875 19.7037V8.02498C0.0546875 7.68229 0.213025 7.35854 0.483398 7.14803L9.37207 0.233968ZM9.99902 12.2213C8.80248 12.2214 7.83301 13.1917 7.83301 14.3883C7.83318 15.5847 8.80259 16.5542 9.99902 16.5543C11.1955 16.5543 12.1658 15.5847 12.166 14.3883C12.166 13.1916 11.1956 12.2213 9.99902 12.2213Z" fill="#4D83FD"/>
<path d="M14.1582 34.9121V37.9473H6.9043V34.9121H14.1582ZM8.00586 35.7676V37.0918H13.0801V35.7676H8.00586ZM14.791 28.4082V29.2637H6.24805V28.4082H9.98633V27.4355H11.0996V28.4082H14.791ZM10.5371 29.6387C12.752 29.6387 13.9824 30.1426 13.9824 31.127C13.9824 32.0234 12.957 32.5215 11.0996 32.6035V33.3184H15.3301V34.1973H5.75586V33.3184H9.98633V32.6035C8.12891 32.5215 7.08008 32.0234 7.0918 31.127C7.08008 30.1426 8.33398 29.6387 10.5371 29.6387ZM10.5371 30.4004C9.07227 30.4121 8.27539 30.6465 8.27539 31.127C8.27539 31.5957 9.07227 31.8535 10.5371 31.8535C12.0137 31.8535 12.7988 31.5957 12.7988 31.127C12.7988 30.6465 12.0137 30.4121 10.5371 30.4004Z" fill="#4D83FD"/>
</svg>
