<svg width="21" height="39" viewBox="0 0 21 39" fill="none" xmlns="http://www.w3.org/2000/svg">
<path d="M3.3457 14.3828L3.18359 14.2217L0.672852 11.71C0.512761 11.5496 0.512748 11.2902 0.672852 11.1299L3.18359 8.61816L3.3457 8.45703V4.67676C3.3457 4.44993 3.53001 4.26562 3.75684 4.26562H7.53711L7.69824 4.10352L10.21 1.59277C10.3703 1.43267 10.6297 1.43268 10.79 1.59277L13.3018 4.10352L13.4629 4.26562H17.2432C17.47 4.26562 17.6543 4.44992 17.6543 4.67676V8.45703L17.8164 8.61816L20.3271 11.1299C20.4872 11.2902 20.4872 11.5496 20.3271 11.71L17.8164 14.2217L17.6543 14.3828V18.1631C17.6543 18.3899 17.47 18.5742 17.2432 18.5742H13.4629L13.3018 18.7363L10.79 21.2471C10.6297 21.4071 10.3703 21.4072 10.21 21.2471L7.69824 18.7363L7.53711 18.5742H3.75684C3.53 18.5742 3.3457 18.3899 3.3457 18.1631V14.3828Z" stroke="#4D83FD" stroke-width="1.10526"/>
<circle cx="10.7764" cy="11.6963" r="1.60263" stroke="#4D83FD" stroke-width="1.10526"/>
<path d="M9.76953 28.416V33.8184H8.65625V31.123H6.44141V30.2207H8.65625V28.416H9.76953ZM9.76953 34.3105V36.9238H4.01562V37.8965H10.1328V38.7871H2.92578V36.0801H8.66797V35.1895H2.90234V34.3105H9.76953ZM4.70703 29.6699C4.70703 31.0059 5.66797 32.248 7.25 32.752L6.66406 33.6191C5.50977 33.2207 4.63672 32.4297 4.17969 31.4277C3.7168 32.5527 2.81445 33.4375 1.57812 33.8652L0.980469 32.9746C2.62109 32.4473 3.59375 31.1465 3.60547 29.6699V28.7559H4.70703V29.6699ZM20.1406 28.416V34.6621H19.0273V32.002H17.0703V31.0879H19.0273V28.416H20.1406ZM16.625 34.9551C18.8281 34.9551 20.1758 35.6816 20.1758 36.9355C20.1758 38.1895 18.8281 38.9043 16.625 38.916C14.4219 38.9043 13.0625 38.1895 13.0742 36.9355C13.0625 35.6816 14.4219 34.9551 16.625 34.9551ZM16.625 35.8223C15.0898 35.8223 14.1758 36.2207 14.1758 36.9355C14.1758 37.6387 15.0898 38.0488 16.625 38.0371C18.1602 38.0488 19.0742 37.6387 19.0742 36.9355C19.0742 36.2207 18.1602 35.8223 16.625 35.8223ZM15.1484 30.2676C15.1484 31.6035 16.0977 32.8926 17.6797 33.4316L17.1055 34.3105C15.9277 33.9004 15.0605 33.0625 14.6094 32.0254C14.1465 33.2031 13.2266 34.1465 11.9727 34.6035L11.3867 33.7129C13.0156 33.1504 14.0117 31.7324 14.0117 30.2793V30.0449H11.7383V29.1426H17.3984V30.0449H15.1484V30.2676Z" fill="#4D83FD"/>
</svg>
