<svg width="21" height="38" viewBox="0 0 21 38" fill="none" xmlns="http://www.w3.org/2000/svg">
<path d="M9.76953 27.4961V32.8984H8.65625V30.2031H6.44141V29.3008H8.65625V27.4961H9.76953ZM9.76953 33.3906V36.0039H4.01562V36.9766H10.1328V37.8672H2.92578V35.1602H8.66797V34.2695H2.90234V33.3906H9.76953ZM4.70703 28.75C4.70703 30.0859 5.66797 31.3281 7.25 31.832L6.66406 32.6992C5.50977 32.3008 4.63672 31.5098 4.17969 30.5078C3.7168 31.6328 2.81445 32.5176 1.57812 32.9453L0.980469 32.0547C2.62109 31.5273 3.59375 30.2266 3.60547 28.75V27.8359H4.70703V28.75ZM20.1406 27.4961V33.7422H19.0273V31.082H17.0703V30.168H19.0273V27.4961H20.1406ZM16.625 34.0352C18.8281 34.0352 20.1758 34.7617 20.1758 36.0156C20.1758 37.2695 18.8281 37.9844 16.625 37.9961C14.4219 37.9844 13.0625 37.2695 13.0742 36.0156C13.0625 34.7617 14.4219 34.0352 16.625 34.0352ZM16.625 34.9023C15.0898 34.9023 14.1758 35.3008 14.1758 36.0156C14.1758 36.7188 15.0898 37.1289 16.625 37.1172C18.1602 37.1289 19.0742 36.7188 19.0742 36.0156C19.0742 35.3008 18.1602 34.9023 16.625 34.9023ZM15.1484 29.3477C15.1484 30.6836 16.0977 31.9727 17.6797 32.5117L17.1055 33.3906C15.9277 32.9805 15.0605 32.1426 14.6094 31.1055C14.1465 32.2832 13.2266 33.2266 11.9727 33.6836L11.3867 32.793C13.0156 32.2305 14.0117 30.8125 14.0117 29.3594V29.125H11.7383V28.2227H17.3984V29.125H15.1484V29.3477Z" fill="#4D83FD"/>
<path d="M9.81829 0.282156C10.1945 -0.0940529 10.8044 -0.0940513 11.1806 0.282156L13.6923 2.7929H17.2431C17.7751 2.79297 18.206 3.22478 18.206 3.75677V7.30755L20.7177 9.81829C21.0937 10.1944 21.0936 10.8044 20.7177 11.1806L18.206 13.6923V17.2431C18.2059 17.775 17.775 18.2059 17.2431 18.206H13.6923L11.1806 20.7177C10.8044 21.0935 10.1944 21.0937 9.81829 20.7177L7.30755 18.206H3.75677C3.22478 18.206 2.79297 17.7751 2.7929 17.2431V13.6923L0.282156 11.1806C-0.0940513 10.8044 -0.0940529 10.1945 0.282156 9.81829L2.7929 7.30755V3.75677C2.7929 3.22474 3.22474 2.7929 3.75677 2.7929H7.30755L9.81829 0.282156ZM10.7753 8.62005C9.58522 8.62029 8.62102 9.58517 8.62102 10.7753C8.62105 11.9655 9.58524 12.9304 10.7753 12.9306C11.9656 12.9306 12.9306 11.9656 12.9306 10.7753C12.9306 9.58502 11.9656 8.62005 10.7753 8.62005Z" fill="#4D83FD"/>
</svg>
